<svg width="1340" height="1325" viewBox="0 0 1340 1325" fill="none" xmlns="http://www.w3.org/2000/svg">
<g clip-path="url(#clip0_1277_2142)">
<path d="M1189.72 358.51L1229.79 318.547L1234.23 326.924L1201.89 357.428C1202.46 357.278 1206.19 356.363 1213.06 354.683L1245.09 347.462L1249.5 355.794L1225.56 377.645L1217.69 384.872L1228.37 382.731L1260.35 376.286L1264.52 384.168L1208.8 394.54L1204.34 386.118L1228.94 363.34L1236.12 357.178L1194.21 366.977L1189.72 358.51Z" fill="black"/>
<path d="M1239.39 396.506C1248.68 392.729 1256.6 392.513 1263.16 395.856C1268.63 398.658 1272.63 403.158 1275.14 409.357C1277.95 416.25 1277.97 422.805 1275.23 429.022C1272.5 435.227 1267.16 439.949 1259.2 443.188C1252.75 445.811 1247.28 446.903 1242.77 446.463C1238.31 446.041 1234.3 444.389 1230.75 441.508C1227.21 438.657 1224.54 435.045 1222.77 430.671C1219.91 423.653 1219.85 417.058 1222.59 410.884C1225.33 404.742 1230.93 399.949 1239.39 396.506ZM1242.95 405.239C1236.53 407.85 1232.29 411.209 1230.22 415.316C1228.18 419.409 1228.02 423.581 1229.75 427.829C1231.46 432.046 1234.5 434.902 1238.84 436.398C1243.19 437.892 1248.65 437.303 1255.23 434.627C1261.43 432.106 1265.53 428.782 1267.56 424.656C1269.63 420.55 1269.81 416.404 1268.12 412.218C1266.39 407.97 1263.37 405.092 1259.05 403.584C1254.73 402.076 1249.36 402.627 1242.95 405.239Z" fill="black"/>
<path d="M1234.76 459.388L1286.21 442.649L1288.76 450.5L1280.96 453.038C1285.27 453.854 1288.27 454.913 1289.98 456.214C1291.7 457.548 1292.89 459.233 1293.55 461.269C1294.5 464.208 1294.54 467.502 1293.65 471.148L1284.59 470.776C1285.15 468.234 1285.09 465.896 1284.4 463.764C1283.78 461.857 1282.64 460.334 1280.98 459.194C1279.36 458.044 1277.43 457.476 1275.18 457.492C1271.76 457.532 1268.22 458.151 1264.53 459.348L1237.6 468.112L1234.76 459.388Z" fill="black"/>
<path d="M1244.63 490.677L1317.05 472.398L1319.3 481.292L1278 491.716L1304.65 507.38L1307.55 518.893L1283.03 503.744L1255.61 534.16L1252.83 523.191L1275.28 499.077L1267.68 494.322L1246.88 499.571L1244.63 490.677Z" fill="black"/>
<path d="M1271.11 577.177C1267.32 574.71 1264.31 571.845 1262.09 568.583C1259.89 565.316 1258.48 561.635 1257.83 557.54C1256.65 549.987 1258.26 543.597 1262.67 538.368C1266.27 534.126 1270.64 531.602 1275.77 530.799C1280.34 530.085 1284.67 530.902 1288.79 533.249C1292.94 535.626 1296.87 539.516 1300.57 544.921C1303.87 540.999 1306.62 538.298 1308.83 536.817C1311.04 535.337 1313.26 534.423 1315.47 534.077C1319.9 533.384 1324.01 534.511 1327.81 537.459C1331.64 540.435 1333.97 544.559 1334.79 549.828C1335.58 554.863 1334.68 559.217 1332.09 562.888C1329.51 566.594 1326.05 568.785 1321.73 569.463C1314.72 570.56 1308 566.849 1301.58 558.328L1286.78 574.208C1289.98 575.257 1293.58 575.896 1297.61 576.126L1297.06 585.856C1290.37 585.254 1284.73 583.902 1280.13 581.8C1276.17 585.894 1273 590.328 1270.61 595.103L1262.46 590.136C1264.24 586.111 1267.12 581.791 1271.11 577.177ZM1306.68 552.732C1309.61 556.297 1312.03 558.513 1313.96 559.381C1315.89 560.283 1317.91 560.569 1320.02 560.238C1322.54 559.844 1324.47 558.719 1325.79 556.86C1327.15 555.031 1327.64 552.924 1327.28 550.541C1326.89 548.091 1325.79 546.167 1323.95 544.768C1322.12 543.404 1320.06 542.901 1317.78 543.257C1316.64 543.436 1315.47 543.91 1314.29 544.681C1313.14 545.479 1311.96 546.576 1310.73 547.972L1306.68 552.732ZM1277.37 570.37L1295.36 550.533C1291.67 546.089 1288.44 543.208 1285.65 541.89C1282.9 540.566 1280.3 540.097 1277.85 540.48C1274.87 540.947 1271.95 542.624 1269.1 545.512C1266.25 548.399 1265.17 552.025 1265.85 556.388C1266.28 559.107 1267.56 561.779 1269.68 564.403C1271.85 567.055 1274.41 569.044 1277.37 570.37Z" fill="black"/>
<path d="M1280.34 593.782L1282.32 602.744C1278.73 603.482 1276.04 605.066 1274.26 607.493C1272.47 609.956 1271.71 613.272 1271.97 617.442C1272.24 621.647 1273.29 624.713 1275.11 626.639C1276.97 628.564 1279.05 629.454 1281.35 629.308C1283.43 629.178 1284.99 628.175 1286.07 626.303C1286.8 624.998 1287.64 621.813 1288.58 616.749C1289.85 609.928 1291.01 605.174 1292.07 602.486C1293.15 599.829 1294.74 597.754 1296.83 596.261C1298.94 594.799 1301.32 593.985 1303.97 593.818C1306.38 593.665 1308.63 594.067 1310.73 595.024C1312.87 596.011 1314.68 597.412 1316.15 599.225C1317.29 600.583 1318.29 602.459 1319.17 604.855C1320.06 607.284 1320.61 609.904 1320.78 612.719C1321.05 616.957 1320.67 620.708 1319.66 623.973C1318.65 627.271 1317.13 629.75 1315.12 631.408C1313.15 633.065 1310.45 634.292 1306.99 635.09L1305.2 626.216C1307.95 625.633 1310.05 624.309 1311.48 622.244C1312.92 620.212 1313.53 617.416 1313.3 613.857C1313.04 609.652 1312.15 606.695 1310.65 604.986C1309.14 603.277 1307.46 602.481 1305.6 602.599C1304.41 602.674 1303.36 603.115 1302.47 603.921C1301.53 604.729 1300.79 605.951 1300.25 607.585C1299.96 608.521 1299.35 611.267 1298.41 615.82C1297.1 622.405 1295.96 627.005 1295 629.619C1294.08 632.264 1292.62 634.382 1290.61 635.974C1288.6 637.565 1286.03 638.458 1282.91 638.656C1279.86 638.849 1276.93 638.133 1274.1 636.507C1271.31 634.914 1269.06 632.486 1267.36 629.223C1265.69 625.959 1264.73 622.208 1264.46 617.969C1264.01 610.95 1265.13 605.501 1267.81 601.621C1270.5 597.775 1274.67 595.161 1280.34 593.782Z" fill="black"/>
<path d="M1274.84 666.138L1266.74 667.462C1266.2 664.88 1265.92 662.57 1265.92 660.532C1265.92 657.202 1266.45 654.62 1267.51 652.785C1268.56 650.951 1269.94 649.66 1271.63 648.912C1273.37 648.166 1276.99 647.792 1282.49 647.792L1313.61 647.795L1313.62 641.068H1320.75L1320.74 647.795L1334.14 647.795L1339.64 656.918L1320.74 656.917V666.141H1313.61V656.916L1281.97 656.915C1279.36 656.915 1277.68 657.067 1276.93 657.373C1276.19 657.713 1275.59 658.239 1275.15 658.952C1274.7 659.7 1274.48 660.753 1274.48 662.112C1274.48 663.131 1274.61 664.473 1274.84 666.138Z" fill="black"/>
<path d="M1264.13 709.161L1272.06 709.7C1266.25 705.082 1263.59 699.163 1264.08 691.944C1264.3 688.757 1265.11 685.816 1266.52 683.12C1267.92 680.457 1269.59 678.51 1271.51 677.278C1273.47 676.084 1275.8 675.306 1278.51 674.945C1280.33 674.695 1283.19 674.702 1287.09 674.967L1320.53 677.242L1319.91 686.394L1289.97 684.357C1285.19 684.033 1281.97 684 1280.28 684.26C1277.83 684.672 1275.85 685.764 1274.34 687.533C1272.85 689.305 1272.02 691.565 1271.83 694.31C1271.65 697.055 1272.17 699.679 1273.39 702.18C1274.65 704.683 1276.45 706.508 1278.79 707.655C1281.16 708.838 1284.65 709.586 1289.25 709.9L1318.18 711.868L1317.55 721.019L1263.58 717.347L1264.13 709.161Z" fill="black"/>
<path d="M1256.81 761.116L1263.55 762.18C1258.79 757.954 1256.93 752.552 1257.96 745.974C1258.63 741.712 1260.42 737.971 1263.34 734.751C1266.25 731.564 1269.96 729.312 1274.47 727.993C1279 726.714 1284 726.506 1289.47 727.369C1294.8 728.21 1299.49 729.862 1303.54 732.324C1307.62 734.79 1310.54 737.985 1312.29 741.908C1314.05 745.83 1314.58 749.99 1313.89 754.386C1313.37 757.607 1312.23 760.368 1310.46 762.668C1308.73 764.973 1306.64 766.743 1304.21 767.976L1330.68 772.153L1329.26 781.164L1255.48 769.522L1256.81 761.116ZM1288 736.681C1281.16 735.602 1275.81 736.237 1271.97 738.588C1268.13 740.94 1265.89 744.079 1265.27 748.005C1264.65 751.966 1265.73 755.575 1268.52 758.835C1271.33 762.134 1276.07 764.308 1282.7 765.356C1290.02 766.51 1295.61 765.948 1299.47 763.669C1303.34 761.39 1305.6 758.186 1306.25 754.059C1306.88 750.031 1305.78 746.399 1302.91 743.162C1300.05 739.958 1295.08 737.798 1288 736.681Z" fill="black"/>
<path d="M1233.14 773.232L1241.74 774.292C1240.74 776.11 1240.06 777.745 1239.7 779.197C1239.22 781.177 1239.16 782.842 1239.53 784.191C1239.9 785.541 1240.58 786.741 1241.59 787.791C1242.34 788.57 1244.33 790.02 1247.54 792.139C1248 792.425 1248.66 792.867 1249.53 793.465L1307.06 786.428L1304.71 796.031L1271.6 799.507C1267.39 799.979 1263.02 800.254 1258.49 800.333C1262.34 802.359 1266.02 804.559 1269.57 806.932L1297.44 825.675L1295.26 834.587L1246.72 801.487C1241.48 797.926 1237.91 795.285 1236.03 793.564C1233.48 791.26 1231.78 788.92 1230.93 786.542C1230.05 784.156 1229.95 781.544 1230.65 778.707C1231.06 776.991 1231.9 775.166 1233.14 773.232Z" fill="black"/>
<path d="M1229.39 860.19L1285.76 865.082L1282.21 873.872L1238.06 868.8C1238.55 869.143 1241.64 871.401 1247.36 875.576L1273.51 895.423L1269.99 904.164L1237.86 899.932L1227.26 898.562L1235.78 905.354L1261.32 925.665L1257.98 933.942L1214.14 897.991L1217.7 889.161L1250.97 893.303L1260.3 894.811L1225.81 869.069L1229.39 860.19Z" fill="black"/>
<path d="M1232.36 922.673C1241.23 927.337 1246.49 933.257 1248.17 940.432C1249.55 946.417 1248.69 952.378 1245.57 958.297C1242.11 964.886 1237.11 969.126 1230.59 971.025C1224.09 972.95 1217.04 971.906 1209.44 967.902C1203.28 964.665 1198.91 961.175 1196.35 957.449C1193.79 953.764 1192.47 949.63 1192.39 945.055C1192.28 940.506 1193.33 936.143 1195.53 931.968C1199.05 925.258 1204.05 920.961 1210.53 919.077C1217 917.218 1224.27 918.417 1232.36 922.673ZM1227.97 931.014C1221.84 927.786 1216.54 926.709 1212.06 927.769C1207.62 928.845 1204.33 931.414 1202.19 935.475C1200.08 939.503 1199.85 943.669 1201.51 947.958C1203.16 952.247 1207.14 956.039 1213.42 959.349C1219.34 962.464 1224.53 963.467 1228.99 962.358C1233.46 961.29 1236.75 958.762 1238.86 954.767C1240.98 950.706 1241.24 946.539 1239.61 942.267C1237.98 937.994 1234.1 934.243 1227.97 931.014Z" fill="black"/>
<path d="M1181.3 959.651L1227.26 988.213L1222.9 995.226L1215.93 990.896C1218.08 994.712 1219.2 997.696 1219.31 999.841C1219.4 1002.02 1218.88 1004.01 1217.75 1005.83C1216.12 1008.45 1213.62 1010.6 1210.26 1012.28L1204.71 1005.1C1207.02 1003.89 1208.76 1002.34 1209.94 1000.44C1211 998.732 1211.44 996.881 1211.24 994.883C1211.07 992.894 1210.25 991.051 1208.8 989.347C1206.57 986.754 1203.81 984.438 1200.52 982.4L1176.46 967.437L1181.3 959.651Z" fill="black"/>
<path d="M1163.75 987.365L1224.39 1030.98L1219.03 1038.42L1184.46 1013.56L1189.66 1044.03L1182.73 1053.67L1178.51 1025.15L1137.58 1023.78L1144.18 1014.59L1177.08 1016.22L1175.81 1007.33L1158.4 994.81L1163.75 987.365Z" fill="black"/>
<path d="M1114.69 1063.36C1114.14 1058.87 1114.39 1054.72 1115.44 1050.92C1116.53 1047.13 1118.43 1043.68 1121.15 1040.54C1126.15 1034.78 1132.08 1031.89 1138.92 1031.89C1144.49 1031.91 1149.22 1033.63 1153.15 1037.04C1156.63 1040.06 1158.81 1043.91 1159.66 1048.57C1160.52 1053.28 1160.08 1058.79 1158.33 1065.1C1163.46 1065.1 1167.3 1065.47 1169.85 1066.21C1172.41 1066.95 1174.53 1068.05 1176.23 1069.52C1179.61 1072.46 1181.4 1076.33 1181.59 1081.13C1181.78 1085.99 1180.14 1090.42 1176.64 1094.45C1173.3 1098.3 1169.39 1100.41 1164.91 1100.8C1160.42 1101.21 1156.52 1099.98 1153.21 1097.11C1147.85 1092.45 1146.36 1084.92 1148.73 1074.51L1127.07 1073.44C1128.31 1076.55 1130.16 1079.72 1132.57 1082.95L1124.79 1088.81C1120.93 1083.3 1118.33 1078.11 1116.98 1073.24C1111.29 1072.85 1105.86 1073.27 1100.67 1074.53L1099.22 1065.1C1103.44 1063.86 1108.6 1063.29 1114.69 1063.36ZM1156.3 1074.82C1155.46 1079.36 1155.33 1082.64 1155.91 1084.67C1156.47 1086.73 1157.55 1088.46 1159.17 1089.86C1161.09 1091.53 1163.18 1092.27 1165.46 1092.09C1167.74 1091.95 1169.66 1090.98 1171.24 1089.16C1172.88 1087.28 1173.63 1085.2 1173.52 1082.9C1173.38 1080.61 1172.44 1078.72 1170.7 1077.2C1169.83 1076.45 1168.71 1075.86 1167.36 1075.45C1166.01 1075.08 1164.41 1074.89 1162.55 1074.85L1156.3 1074.82ZM1123.93 1063.76L1150.68 1064.74C1151.71 1059.05 1151.82 1054.72 1151.04 1051.74C1150.27 1048.79 1148.96 1046.5 1147.09 1044.87C1144.8 1042.88 1141.64 1041.74 1137.6 1041.42C1133.56 1041.1 1130.09 1042.61 1127.2 1045.94C1125.39 1048.01 1124.17 1050.71 1123.54 1054.03C1122.91 1057.4 1123.04 1060.64 1123.93 1063.76Z" fill="black"/>
<path d="M1107.95 1081.12L1102.38 1088.42C1099.5 1086.14 1096.56 1085.11 1093.55 1085.3C1090.52 1085.53 1087.49 1087.08 1084.47 1089.97C1081.43 1092.88 1079.76 1095.66 1079.47 1098.3C1079.19 1100.96 1079.85 1103.12 1081.45 1104.79C1082.88 1106.29 1084.66 1106.84 1086.78 1106.46C1088.25 1106.18 1091.22 1104.76 1095.7 1102.22C1101.73 1098.8 1106.11 1096.62 1108.85 1095.7C1111.58 1094.82 1114.19 1094.69 1116.67 1095.33C1119.16 1096.01 1121.31 1097.3 1123.15 1099.22C1124.82 1100.96 1125.96 1102.95 1126.59 1105.16C1127.21 1107.44 1127.3 1109.72 1126.86 1112.02C1126.56 1113.77 1125.78 1115.75 1124.5 1117.96C1123.23 1120.21 1121.57 1122.31 1119.54 1124.26C1116.47 1127.2 1113.36 1129.32 1110.21 1130.65C1107.03 1132 1104.16 1132.44 1101.6 1131.97C1099.07 1131.53 1096.38 1130.25 1093.54 1128.13L1099.17 1121.04C1101.4 1122.77 1103.76 1123.52 1106.27 1123.28C1108.74 1123.08 1111.27 1121.73 1113.85 1119.27C1116.89 1116.36 1118.57 1113.77 1118.92 1111.52C1119.25 1109.27 1118.78 1107.47 1117.48 1106.12C1116.66 1105.26 1115.66 1104.75 1114.46 1104.58C1113.23 1104.38 1111.82 1104.6 1110.23 1105.25C1109.33 1105.63 1106.84 1106.93 1102.75 1109.15C1096.87 1112.39 1092.62 1114.48 1090 1115.43C1087.39 1116.43 1084.82 1116.68 1082.31 1116.16C1079.8 1115.65 1077.47 1114.26 1075.31 1112.01C1073.19 1109.8 1071.84 1107.09 1071.27 1103.88C1070.69 1100.72 1071.1 1097.44 1072.5 1094.03C1073.92 1090.65 1076.16 1087.49 1079.22 1084.56C1084.3 1079.69 1089.19 1077.04 1093.88 1076.58C1098.56 1076.16 1103.24 1077.67 1107.95 1081.12Z" fill="black"/>
<path d="M1049.1 1123.54L1042.87 1118.2C1044.49 1116.12 1046.08 1114.43 1047.64 1113.11C1050.18 1110.97 1052.5 1109.71 1054.57 1109.33C1056.66 1108.96 1058.54 1109.18 1060.2 1109.99C1061.89 1110.83 1064.5 1113.36 1068.05 1117.57L1088.11 1141.38L1093.25 1137.05L1097.84 1142.5L1092.7 1146.83L1101.34 1157.08L1097.9 1167.17L1085.73 1152.71L1078.68 1158.65L1074.08 1153.2L1081.13 1147.25L1060.74 1123.05C1059.06 1121.06 1057.86 1119.87 1057.14 1119.49C1056.4 1119.14 1055.62 1119.03 1054.79 1119.15C1053.93 1119.29 1052.98 1119.8 1051.95 1120.68C1051.17 1121.33 1050.22 1122.29 1049.1 1123.54Z" fill="black"/>
<path d="M1009.31 1143.08L1014.01 1149.49C1013.79 1142.07 1016.6 1136.21 1022.43 1131.94C1025.01 1130.05 1027.78 1128.78 1030.76 1128.12C1033.69 1127.48 1036.26 1127.5 1038.43 1128.17C1040.61 1128.9 1042.71 1130.18 1044.73 1132.02C1046.1 1133.25 1047.93 1135.45 1050.24 1138.6L1070.05 1165.65L1062.66 1171.07L1044.92 1146.85C1042.09 1143 1040.03 1140.5 1038.74 1139.38C1036.85 1137.77 1034.75 1136.96 1032.42 1136.95C1030.1 1136.96 1027.85 1137.77 1025.62 1139.39C1023.4 1141.02 1021.73 1143.11 1020.62 1145.66C1019.51 1148.24 1019.27 1150.79 1019.91 1153.32C1020.53 1155.89 1022.21 1159.04 1024.94 1162.77L1042.07 1186.16L1034.67 1191.59L1002.69 1147.93L1009.31 1143.08Z" fill="black"/>
<path d="M964.881 1170.96L968.411 1176.8C968.574 1170.44 971.5 1165.53 977.197 1162.08C980.881 1159.84 984.9 1158.81 989.236 1158.96C993.548 1159.13 997.664 1160.52 1001.58 1163.11C1005.47 1165.76 1008.86 1169.45 1011.72 1174.19C1014.51 1178.81 1016.27 1183.47 1017 1188.15C1017.75 1192.86 1017.19 1197.15 1015.31 1201.02C1013.44 1204.89 1010.61 1207.98 1006.8 1210.28C1004.01 1211.96 1001.17 1212.87 998.267 1213C995.382 1213.15 992.684 1212.7 990.181 1211.64L1004.05 1234.57L996.238 1239.29L957.603 1175.36L964.881 1170.96ZM1003.65 1179.07C1000.07 1173.13 996.14 1169.46 991.869 1168.04C987.59 1166.61 983.75 1166.93 980.352 1168.98C976.928 1171.06 974.858 1174.21 974.165 1178.44C973.456 1182.72 974.842 1187.74 978.322 1193.49C982.153 1199.83 986.188 1203.74 990.418 1205.24C994.656 1206.73 998.561 1206.39 1002.13 1204.23C1005.62 1202.11 1007.68 1198.93 1008.31 1194.65C1008.91 1190.4 1007.36 1185.2 1003.65 1179.07Z" fill="black"/>
<path d="M940.364 1160.66L945.099 1167.92C943.061 1168.33 941.374 1168.86 940.038 1169.52C938.212 1170.43 936.899 1171.45 936.101 1172.61C935.31 1173.76 934.837 1175.06 934.674 1176.5C934.568 1177.58 934.739 1180.03 935.196 1183.87C935.269 1184.4 935.359 1185.19 935.457 1186.24L977.915 1225.71L969.063 1230.1L945.067 1207.01C941.994 1204.09 938.97 1200.93 935.987 1197.52C936.916 1201.76 937.609 1206 938.081 1210.24L941.717 1243.65L933.501 1247.72L927.518 1189.26C926.858 1182.95 926.58 1178.52 926.678 1175.97C926.801 1172.54 927.493 1169.73 928.765 1167.54C930.02 1165.33 931.952 1163.58 934.568 1162.28C936.15 1161.5 938.081 1160.95 940.364 1160.66Z" fill="black"/>
<path d="M871.481 1213.83L904.06 1260.1L895.061 1263.06L870.486 1226C870.535 1226.6 870.804 1230.42 871.293 1237.48L872.98 1270.29L864.031 1273.22L846.555 1245.92L840.768 1236.93L841.07 1247.82L841.999 1280.45L833.53 1283.23L832.756 1226.53L841.803 1223.56L860.077 1251.67L864.935 1259.79L862.376 1216.81L871.481 1213.83Z" fill="black"/>
<path d="M789.69 84.5065L784.122 28.1826L793.412 30.0509L796.554 74.3992C796.801 73.8597 798.45 70.3966 801.5 64.01L816.185 34.6313L825.428 36.4896L827.181 68.8631L827.792 79.5377L832.894 69.9083L848.153 41.0599L856.89 42.8177L829.642 92.5421L820.309 90.6642L818.247 57.1907L818.019 47.7358L799.08 86.3949L789.69 84.5065Z" fill="black"/>
<path d="M825.632 1256.36C827.776 1266.15 826.651 1274 822.241 1279.91C818.557 1284.82 813.449 1288 806.913 1289.43C799.649 1291.02 793.187 1289.94 787.527 1286.17C781.875 1282.44 778.128 1276.38 776.286 1267.98C774.793 1261.18 774.645 1255.59 775.842 1251.22C777.014 1246.9 779.32 1243.23 782.762 1240.21C786.169 1237.2 790.178 1235.19 794.789 1234.17C802.187 1232.55 808.695 1233.61 814.314 1237.35C819.902 1241.1 823.676 1247.43 825.632 1256.36ZM816.43 1258.38C814.94 1251.62 812.35 1246.86 808.655 1244.12C804.967 1241.42 800.884 1240.56 796.406 1241.55C791.961 1242.52 788.634 1245.03 786.424 1249.06C784.214 1253.09 783.871 1258.58 785.393 1265.51C786.827 1272.05 789.405 1276.66 793.126 1279.36C796.821 1282.09 800.875 1282.98 805.287 1282.01C809.765 1281.03 813.112 1278.54 815.329 1274.54C817.546 1270.54 817.913 1265.15 816.43 1258.38Z" fill="black"/>
<path d="M850.533 70.0864C853.484 60.5086 858.333 54.2354 865.074 51.2665C870.698 48.8065 876.713 48.5624 883.104 50.5341C890.211 52.7259 895.306 56.855 898.37 62.9214C901.451 68.9554 901.728 76.0793 899.193 84.2936C897.148 90.9488 894.523 95.8819 891.328 99.0929C888.182 102.281 884.367 104.34 879.884 105.269C875.434 106.208 870.959 105.982 866.443 104.591C859.214 102.359 854.07 98.2318 851.022 92.2078C848.006 86.1935 847.843 78.8199 850.533 70.0864ZM859.54 72.8637C857.494 79.4869 857.412 84.8995 859.279 89.102C861.153 93.2718 864.283 96.0327 868.669 97.3838C873.021 98.7243 877.145 98.1845 881.058 95.7636C884.962 93.3428 887.962 88.7399 890.056 81.9543C892.029 75.5584 892.053 70.2705 890.146 66.0906C888.28 61.8882 885.182 59.1215 880.87 57.7904C876.485 56.4393 872.345 56.9579 868.448 59.3463C864.552 61.7346 861.577 66.2404 859.54 72.8637Z" fill="black"/>
<path d="M764.465 1241.14L772.24 1294.7L764.073 1295.88L762.895 1287.77C761.362 1291.87 759.81 1294.65 758.238 1296.12C756.632 1297.59 754.772 1298.48 752.654 1298.78C749.596 1299.23 746.345 1298.7 742.902 1297.21L744.806 1288.33C747.214 1289.33 749.527 1289.65 751.746 1289.34C753.729 1289.05 755.422 1288.19 756.826 1286.74C758.235 1285.34 759.122 1283.52 759.486 1281.31C760.026 1277.94 760.017 1274.33 759.462 1270.5L755.39 1242.46L764.465 1241.14Z" fill="black"/>
<path d="M896.268 113.477L915.879 63.0359L923.573 66.0282L920.598 73.675C923.948 70.8605 926.67 69.2034 928.757 68.7038C930.884 68.2165 932.938 68.3608 934.935 69.1366C937.813 70.2572 940.38 72.3145 942.646 75.3085L936.614 82.0953C935.009 80.0476 933.158 78.6174 931.072 77.8046C929.205 77.0781 927.306 76.9954 925.374 77.5566C923.459 78.0861 921.788 79.2251 920.386 80.9737C918.25 83.6437 916.482 86.7837 915.08 90.3934L904.818 116.802L896.268 113.477Z" fill="black"/>
<path d="M731.966 1245.57L737.708 1320.07L728.565 1320.77L725.291 1278.29L705.346 1301.91L693.511 1302.82L712.589 1281.21L687.27 1249.02L698.545 1248.15L718.5 1274.36L724.472 1267.67L722.824 1246.28L731.966 1245.57Z" fill="black"/>
<path d="M926.735 125.634L958.418 57.9814L966.723 61.8734L948.653 100.452L977.646 89.7282L988.397 94.7656L961.148 104.169L967.327 144.661L957.089 139.86L952.631 107.213L944.137 110.097L935.041 129.525L926.735 125.634Z" fill="black"/>
<path d="M642.264 1257.02C645.337 1253.7 648.669 1251.22 652.261 1249.58C655.851 1247.97 659.718 1247.2 663.861 1247.25C671.501 1247.37 677.524 1250.04 681.929 1255.28C685.499 1259.54 687.245 1264.28 687.167 1269.47C687.097 1274.1 685.558 1278.23 682.547 1281.89C679.503 1285.58 675.005 1288.79 669.054 1291.52C672.357 1295.44 674.551 1298.62 675.636 1301.05C676.72 1303.48 677.245 1305.81 677.212 1308.06C677.144 1312.54 675.336 1316.41 671.789 1319.65C668.208 1322.92 663.751 1324.52 658.42 1324.44C653.326 1324.36 649.19 1322.74 646.01 1319.56C642.797 1316.39 641.224 1312.61 641.29 1308.23C641.397 1301.13 646.191 1295.14 655.673 1290.25L642.534 1272.98C640.961 1275.95 639.72 1279.4 638.812 1283.32L629.317 1281.14C631.045 1274.64 633.333 1269.31 636.181 1265.13C632.82 1260.54 628.989 1256.65 624.689 1253.5L630.962 1246.3C634.628 1248.74 638.395 1252.31 642.264 1257.02ZM660.322 1296.23C656.313 1298.52 653.719 1300.53 652.538 1302.28C651.322 1304.03 650.699 1305.98 650.666 1308.11C650.628 1310.67 651.412 1312.74 653.018 1314.37C654.589 1316.02 656.58 1316.87 658.991 1316.9C661.47 1316.94 663.554 1316.18 665.242 1314.6C666.896 1313.03 667.741 1311.09 667.775 1308.78C667.793 1307.62 667.522 1306.4 666.965 1305.1C666.372 1303.83 665.493 1302.48 664.325 1301.04L660.322 1296.23ZM647.911 1264.34L664.407 1285.44C669.409 1282.56 672.796 1279.86 674.566 1277.33C676.336 1274.85 677.239 1272.37 677.276 1269.88C677.322 1266.86 676.164 1263.7 673.802 1260.41C671.439 1257.1 668.051 1255.42 663.637 1255.36C660.887 1255.32 658.038 1256.12 655.092 1257.78C652.111 1259.47 649.718 1261.65 647.911 1264.34Z" fill="black"/>
<path d="M1010.44 159.879C1006.13 161.251 1002 161.768 998.072 161.43C994.151 161.062 990.402 159.831 986.832 157.734C980.238 153.869 976.309 148.575 975.054 141.852C974.051 136.38 974.858 131.401 977.491 126.916C979.822 122.93 983.205 120.087 987.623 118.386C992.089 116.674 997.591 116.096 1004.11 116.653C1003.17 111.611 1002.82 107.765 1003.08 105.118C1003.33 102.469 1004.02 100.178 1005.15 98.244C1007.42 94.375 1010.89 91.9036 1015.58 90.8297C1020.31 89.7444 1024.98 90.55 1029.58 93.2473C1033.97 95.8239 1036.77 99.2771 1037.97 103.606C1039.21 107.952 1038.71 112.015 1036.5 115.796C1032.91 121.922 1025.78 124.774 1015.13 124.353L1018.06 145.859C1020.89 144.053 1023.67 141.665 1026.39 138.694L1033.58 145.272C1028.87 150.075 1024.25 153.589 1019.72 155.815C1020.38 161.478 1021.81 166.743 1023.99 171.609L1014.99 174.778C1013 170.853 1011.48 165.887 1010.44 159.879ZM1014.03 116.857C1018.64 116.845 1021.9 116.368 1023.78 115.428C1025.7 114.505 1027.2 113.121 1028.29 111.274C1029.57 109.076 1029.92 106.876 1029.31 104.673C1028.76 102.459 1027.45 100.742 1025.37 99.5225C1023.23 98.2685 1021.04 97.9089 1018.79 98.4446C1016.58 98.9974 1014.89 100.271 1013.72 102.264C1013.13 103.26 1012.77 104.461 1012.61 105.867C1012.51 107.261 1012.6 108.874 1012.91 110.706L1014.03 116.857ZM1009.12 150.724L1005.15 124.238C999.384 124.279 995.113 124.961 992.326 126.283C989.562 127.576 987.549 129.292 986.302 131.432C984.77 134.04 984.224 137.361 984.656 141.395C985.088 145.429 987.207 148.562 991.013 150.796C993.385 152.187 996.263 152.889 999.645 152.901C1003.07 152.901 1006.23 152.175 1009.12 150.724Z" fill="black"/>
<path d="M624.343 1263.3L615.175 1263.75C615.057 1260.08 613.953 1257.16 611.863 1254.99C609.741 1252.81 606.602 1251.5 602.449 1251.05C598.262 1250.6 595.064 1251.12 592.857 1252.59C590.646 1254.09 589.416 1255.99 589.169 1258.29C588.949 1260.35 589.669 1262.07 591.332 1263.44C592.494 1264.38 595.49 1265.75 600.32 1267.53C606.824 1269.95 611.311 1271.89 613.781 1273.39C616.212 1274.92 617.988 1276.84 619.107 1279.14C620.188 1281.47 620.587 1283.96 620.303 1286.6C620.046 1288.99 619.268 1291.15 617.97 1293.06C616.634 1295 614.948 1296.54 612.912 1297.69C611.381 1298.59 609.362 1299.26 606.854 1299.71C604.31 1300.19 601.636 1300.28 598.833 1299.98C594.613 1299.52 590.981 1298.52 587.937 1296.96C584.859 1295.39 582.673 1293.49 581.379 1291.23C580.08 1289 579.331 1286.12 579.131 1282.58L588.177 1282.32C588.284 1285.14 589.234 1287.43 591.025 1289.19C592.784 1290.95 595.435 1292.03 598.981 1292.4C603.168 1292.85 606.231 1292.48 608.169 1291.29C610.107 1290.09 611.176 1288.57 611.376 1286.72C611.503 1285.54 611.246 1284.43 610.605 1283.4C609.967 1282.34 608.889 1281.41 607.371 1280.59C606.496 1280.16 603.894 1279.09 599.567 1277.4C593.303 1274.98 588.964 1273.08 586.551 1271.69C584.101 1270.34 582.262 1268.53 581.036 1266.28C579.809 1264.03 579.362 1261.35 579.696 1258.24C580.023 1255.2 581.226 1252.43 583.306 1249.92C585.348 1247.44 588.121 1245.64 591.624 1244.51C595.123 1243.41 598.982 1243.09 603.204 1243.55C610.193 1244.3 615.373 1246.32 618.741 1249.63C622.076 1252.93 623.943 1257.49 624.343 1263.3Z" fill="black"/>
<path d="M1029.12 163.247L1037.32 167.373C1035.61 170.624 1035.14 173.71 1035.88 176.63C1036.67 179.57 1038.74 182.257 1042.14 184.693C1045.57 187.148 1048.6 188.28 1051.25 188.087C1053.91 187.867 1055.92 186.819 1057.26 184.942C1058.47 183.257 1058.69 181.407 1057.92 179.391C1057.37 177.996 1055.44 175.333 1052.11 171.4C1047.64 166.1 1044.69 162.19 1043.28 159.672C1041.92 157.145 1041.31 154.603 1041.48 152.044C1041.69 149.477 1042.57 147.117 1044.11 144.963C1045.51 143.003 1047.25 141.512 1049.32 140.489C1051.44 139.458 1053.67 138.945 1056.01 138.95C1057.78 138.925 1059.86 139.336 1062.27 140.182C1064.72 141.02 1067.09 142.26 1069.38 143.904C1072.83 146.379 1075.5 149.044 1077.38 151.899C1079.29 154.774 1080.25 157.513 1080.26 160.116C1080.3 162.69 1079.53 165.568 1077.96 168.749L1069.96 164.515C1071.25 162.014 1071.55 159.554 1070.87 157.135C1070.2 154.737 1068.42 152.498 1065.52 150.419C1062.1 147.964 1059.25 146.777 1056.98 146.86C1054.7 146.943 1053.02 147.743 1051.93 149.262C1051.24 150.228 1050.92 151.315 1050.97 152.524C1051.01 153.76 1051.48 155.106 1052.41 156.561C1052.95 157.372 1054.7 159.581 1057.62 163.189C1061.88 168.378 1064.72 172.171 1066.14 174.567C1067.61 176.956 1068.32 179.431 1068.28 181.994C1068.23 184.557 1067.31 187.109 1065.48 189.649C1063.7 192.133 1061.29 193.956 1058.24 195.115C1055.24 196.266 1051.94 196.469 1048.34 195.724C1044.76 194.951 1041.24 193.327 1037.79 190.851C1032.08 186.753 1028.56 182.437 1027.26 177.905C1025.98 173.392 1026.6 168.506 1029.12 163.247Z" fill="black"/>
<path d="M553.988 1245.63L554.055 1237.42C556.691 1237.32 559.013 1237.44 561.022 1237.79C564.301 1238.36 566.756 1239.31 568.385 1240.66C570.014 1242.01 571.053 1243.58 571.501 1245.39C571.945 1247.22 571.699 1250.85 570.767 1256.27L565.492 1286.96L572.119 1288.1L570.91 1295.13L564.284 1293.99L562.013 1307.2L552.094 1311.08L555.296 1292.44L546.209 1290.88L547.418 1283.85L556.505 1285.41L561.867 1254.22C562.309 1251.65 562.444 1249.96 562.269 1249.18C562.062 1248.38 561.643 1247.7 561.015 1247.15C560.354 1246.58 559.353 1246.19 558.015 1245.96C557.011 1245.79 555.668 1245.68 553.988 1245.63Z" fill="black"/>
<path d="M1081.64 213.296L1077.54 220.407C1075.2 219.194 1073.24 217.942 1071.67 216.652C1069.09 214.544 1067.42 212.502 1066.67 210.526C1065.91 208.548 1065.79 206.667 1066.29 204.878C1066.8 203.063 1068.81 200.026 1072.29 195.765L1091.99 171.66L1086.78 167.402L1091.29 161.878L1096.5 166.136L1104.98 155.76L1115.53 157.274L1103.56 171.911L1110.7 177.75L1106.18 183.272L1099.04 177.434L1079.02 201.934C1077.36 203.96 1076.42 205.358 1076.18 206.13C1075.97 206.923 1076 207.718 1076.28 208.511C1076.57 209.326 1077.25 210.164 1078.3 211.024C1079.09 211.669 1080.21 212.426 1081.64 213.296Z" fill="black"/>
<path d="M513.418 1227.78L511.543 1235.51C517.078 1230.56 523.36 1228.94 530.39 1230.64C533.492 1231.4 536.252 1232.7 538.67 1234.54C541.055 1236.38 542.691 1238.36 543.579 1240.46C544.425 1242.59 544.796 1245.02 544.691 1247.75C544.629 1249.59 544.138 1252.41 543.217 1256.21L535.31 1288.79L526.398 1286.63L533.477 1257.46C534.606 1252.81 535.186 1249.63 535.215 1247.92C535.223 1245.43 534.483 1243.3 532.996 1241.5C531.502 1239.74 529.418 1238.54 526.745 1237.89C524.071 1237.24 521.399 1237.31 518.728 1238.1C516.048 1238.91 513.945 1240.37 512.419 1242.48C510.852 1244.63 509.524 1247.94 508.434 1252.43L501.596 1280.6L492.686 1278.44L505.447 1225.85L513.418 1227.78Z" fill="black"/>
<path d="M1108.16 248.82L1113.59 243.021C1106.34 244.601 1100.08 242.915 1094.8 237.965C1092.47 235.781 1090.71 233.29 1089.52 230.492C1088.34 227.717 1087.89 225.196 1088.15 222.929C1088.46 220.659 1089.34 218.359 1090.78 216.03C1091.74 214.461 1093.55 212.251 1096.22 209.401L1119.15 184.94L1125.84 191.214L1105.32 213.111C1102.04 216.605 1099.97 219.087 1099.11 220.558C1097.88 222.712 1097.47 224.936 1097.88 227.231C1098.31 229.5 1099.53 231.576 1101.54 233.459C1103.54 235.34 1105.91 236.599 1108.61 237.233C1111.35 237.842 1113.9 237.603 1116.27 236.518C1118.69 235.43 1121.48 233.202 1124.63 229.831L1144.46 208.679L1151.15 214.953L1114.14 254.433L1108.16 248.82Z" fill="black"/>
<path d="M463.473 1211.76L461.282 1218.23C466.253 1214.25 471.89 1213.32 478.195 1215.46C482.28 1216.85 485.662 1219.24 488.341 1222.67C490.988 1226.08 492.579 1230.11 493.114 1234.78C493.607 1239.47 492.965 1244.43 491.188 1249.67C489.455 1254.79 487.033 1259.13 483.923 1262.71C480.801 1266.32 477.159 1268.65 472.997 1269.72C468.836 1270.78 464.648 1270.6 460.435 1269.17C457.347 1268.12 454.82 1266.53 452.855 1264.39C450.878 1262.29 449.488 1259.93 448.685 1257.33L440.086 1282.71L431.449 1279.79L455.415 1209.03L463.473 1211.76ZM482.262 1246.65C484.485 1240.09 484.764 1234.71 483.099 1230.52C481.434 1226.33 478.718 1223.6 474.955 1222.33C471.16 1221.04 467.421 1221.5 463.736 1223.69C460.01 1225.91 457.067 1230.2 454.909 1236.57C452.533 1243.58 452.14 1249.19 453.73 1253.39C455.321 1257.58 458.094 1260.36 462.051 1261.7C465.91 1263.01 469.677 1262.53 473.35 1260.26C476.992 1257.98 479.962 1253.44 482.262 1246.65Z" fill="black"/>
<path d="M1143.74 287.376L1148.83 282.827C1142.54 283.843 1137.18 281.868 1132.75 276.901C1129.87 273.684 1128.11 269.926 1127.47 265.631C1126.84 261.361 1127.44 257.064 1129.28 252.74C1131.16 248.419 1134.16 244.414 1138.29 240.725C1142.32 237.127 1146.56 234.54 1151.03 232.963C1155.52 231.364 1159.84 231.126 1163.98 232.251C1168.13 233.375 1171.68 235.597 1174.65 238.917C1176.82 241.35 1178.24 243.98 1178.9 246.809C1179.57 249.614 1179.63 252.348 1179.05 255.01L1199.03 237.154L1205.1 243.958L1149.4 293.723L1143.74 287.376ZM1144.57 247.757C1139.4 252.374 1136.51 256.915 1135.89 261.379C1135.28 265.844 1136.3 269.559 1138.94 272.523C1141.62 275.513 1145.1 276.962 1149.38 276.867C1153.71 276.775 1158.39 274.489 1163.4 270.007C1168.93 265.073 1172.03 260.388 1172.71 255.952C1173.4 251.515 1172.35 247.738 1169.57 244.621C1166.85 241.58 1163.34 240.143 1159.02 240.308C1154.73 240.498 1149.91 242.981 1144.57 247.757Z" fill="black"/>
<path d="M455.546 1186.38L453.044 1194.68C451.424 1193.38 449.929 1192.43 448.559 1191.83C446.69 1191.02 445.06 1190.68 443.667 1190.81C442.275 1190.95 440.978 1191.42 439.773 1192.23C438.878 1192.84 437.113 1194.55 434.479 1197.38C434.12 1197.78 433.573 1198.35 432.837 1199.1L430.023 1257.02L420.962 1253.07L423.146 1219.84C423.393 1215.61 423.862 1211.26 424.552 1206.78C421.905 1210.22 419.113 1213.49 416.175 1216.58L392.984 1240.88L384.576 1237.22L425.409 1194.98C429.805 1190.41 433.012 1187.34 435.027 1185.77C437.729 1183.65 440.322 1182.37 442.809 1181.94C445.309 1181.47 447.898 1181.82 450.576 1182.98C452.195 1183.69 453.852 1184.82 455.546 1186.38Z" fill="black"/>
<path d="M1138.13 313.377L1144.4 307.384C1145.17 309.313 1146 310.874 1146.9 312.069C1148.13 313.698 1149.38 314.796 1150.66 315.365C1151.94 315.934 1153.3 316.163 1154.74 316.052C1155.82 315.962 1158.2 315.34 1161.88 314.186C1162.39 314.015 1163.15 313.783 1164.16 313.489L1195.14 264.477L1201.08 272.378L1182.81 300.22C1180.51 303.778 1177.96 307.336 1175.15 310.894C1179.15 309.202 1183.19 307.735 1187.27 306.492L1219.42 296.77L1224.93 304.1L1168.6 320.74C1162.52 322.55 1158.22 323.64 1155.69 324.011C1152.29 324.525 1149.41 324.36 1147.03 323.514C1144.62 322.689 1142.55 321.109 1140.79 318.775C1139.73 317.363 1138.84 315.564 1138.13 313.377Z" fill="black"/>
<path d="M370.513 1167.94L356.142 1222.69L348.082 1217.7L360.563 1175.03C360.143 1175.45 357.393 1178.12 352.312 1183.05L328.324 1205.48L320.309 1200.52L329.924 1169.56L333.066 1159.34L324.93 1166.59L300.594 1188.33L293.012 1183.64L335.85 1146.5L343.953 1151.51L334.235 1183.61L331.163 1192.56L362.367 1162.9L370.513 1167.94Z" fill="black"/>
<path d="M308.457 1160.28C302.358 1168.23 295.631 1172.43 288.277 1172.87C282.147 1173.22 276.427 1171.35 271.118 1167.27C265.217 1162.75 261.883 1157.1 261.114 1150.34C260.325 1143.62 262.545 1136.84 267.776 1130.03C272.013 1124.5 276.187 1120.79 280.297 1118.89C284.36 1117 288.653 1116.39 293.176 1117.09C297.672 1117.75 301.793 1119.52 305.539 1122.39C311.548 1127.01 314.933 1132.67 315.695 1139.38C316.431 1146.06 314.017 1153.04 308.457 1160.28ZM300.979 1154.54C305.196 1149.05 307.161 1144 306.871 1139.41C306.561 1134.84 304.587 1131.17 300.949 1128.38C297.339 1125.61 293.28 1124.68 288.773 1125.58C284.267 1126.49 279.853 1129.76 275.532 1135.4C271.459 1140.71 269.592 1145.66 269.929 1150.24C270.219 1154.83 272.155 1158.5 275.739 1161.25C279.376 1164.04 283.438 1165 287.925 1164.12C292.41 1163.24 296.762 1160.04 300.979 1154.54Z" fill="black"/>
<path d="M280.673 1103.69L244.744 1144.15L238.574 1138.67L244.02 1132.53C239.898 1134 236.77 1134.61 234.638 1134.35C232.48 1134.07 230.602 1133.21 229.002 1131.79C226.692 1129.74 224.997 1126.92 223.918 1123.32L231.929 1119.06C232.726 1121.54 233.961 1123.53 235.637 1125.01C237.135 1126.35 238.887 1127.08 240.893 1127.23C242.875 1127.4 244.831 1126.91 246.76 1125.76C249.687 1124 252.436 1121.68 255.007 1118.78L273.817 1097.6L280.673 1103.69Z" fill="black"/>
<path d="M256.34 1081.68L203.102 1134.08L196.672 1127.54L227.031 1097.66L196.123 1097.62L187.799 1089.16L216.612 1089.83L224.901 1049.72L232.832 1057.78L225.653 1089.94L234.621 1090.19L249.91 1075.14L256.34 1081.68Z" fill="black"/>
<path d="M189.783 1020.45C194.299 1020.66 198.343 1021.6 201.914 1023.29C205.46 1025 208.543 1027.46 211.166 1030.67C216.001 1036.59 217.839 1042.92 216.68 1049.66C215.719 1055.14 213.226 1059.53 209.203 1062.81C205.627 1065.74 201.471 1067.22 196.734 1067.28C191.951 1067.33 186.597 1065.96 180.676 1063.17C179.805 1068.23 178.791 1071.95 177.634 1074.34C176.476 1076.74 175.03 1078.65 173.294 1080.07C169.823 1082.9 165.705 1084.01 160.941 1083.39C156.129 1082.76 152.035 1080.38 148.661 1076.25C145.437 1072.3 144.014 1068.09 144.391 1063.61C144.747 1059.11 146.621 1055.47 150.013 1052.69C155.509 1048.2 163.18 1048.01 173.024 1052.12L177.759 1030.93C174.479 1031.64 171.044 1032.91 167.457 1034.75L163.005 1026.08C169.086 1023.22 174.638 1021.53 179.661 1021.02C181.013 1015.48 181.511 1010.05 181.153 1004.73L190.694 1004.89C191.196 1009.26 190.892 1014.44 189.783 1020.45ZM171.447 1059.53C167.118 1057.93 163.904 1057.24 161.806 1057.47C159.687 1057.67 157.799 1058.44 156.142 1059.8C154.17 1061.41 153.082 1063.35 152.878 1065.63C152.625 1067.89 153.263 1069.96 154.789 1071.83C156.358 1073.75 158.287 1074.85 160.576 1075.13C162.843 1075.38 164.871 1074.77 166.659 1073.32C167.554 1072.58 168.317 1071.59 168.951 1070.32C169.537 1069.05 170.006 1067.5 170.358 1065.68L171.447 1059.53ZM187.825 1029.48L182.331 1055.69C187.757 1057.66 192.005 1058.52 195.073 1058.24C198.114 1057.99 200.596 1057.08 202.515 1055.52C204.855 1053.6 206.524 1050.68 207.523 1046.74C208.521 1042.81 207.623 1039.13 204.829 1035.72C203.089 1033.59 200.636 1031.93 197.473 1030.74C194.262 1029.55 191.046 1029.13 187.825 1029.48Z" fill="black"/>
<path d="M173.438 1010.78L167.186 1004.06C169.914 1001.6 171.435 998.879 171.749 995.878C172.044 992.853 171.024 989.608 168.688 986.143C166.334 982.645 163.884 980.533 161.336 979.791C158.762 979.073 156.516 979.35 154.601 980.647C152.884 981.805 152.035 983.46 152.056 985.621C152.083 987.121 152.97 990.293 154.72 995.136C157.071 1001.66 158.471 1006.35 158.919 1009.2C159.32 1012.05 159 1014.64 157.956 1016.98C156.866 1019.31 155.223 1021.22 153.027 1022.7C151.028 1024.05 148.879 1024.85 146.583 1025.09C144.238 1025.31 141.972 1025.02 139.781 1024.2C138.111 1023.61 136.297 1022.49 134.338 1020.86C132.333 1019.23 130.542 1017.24 128.967 1014.9C126.593 1011.38 125.021 1007.95 124.25 1004.62C123.46 1001.26 123.511 998.357 124.402 995.911C125.266 993.489 126.986 991.059 129.564 988.621L135.59 995.373C133.509 997.272 132.372 999.474 132.177 1001.98C131.964 1004.46 132.854 1007.18 134.848 1010.13C137.202 1013.63 139.46 1015.73 141.62 1016.44C143.781 1017.16 145.636 1017 147.185 1015.95C148.17 1015.28 148.848 1014.38 149.219 1013.23C149.618 1012.06 149.639 1010.63 149.281 1008.94C149.051 1007.99 148.189 1005.31 146.697 1000.92C144.506 994.565 143.163 990.024 142.668 987.284C142.127 984.536 142.32 981.96 143.25 979.579C144.18 977.19 145.939 975.118 148.531 973.374C151.065 971.661 153.961 970.797 157.22 970.764C160.432 970.732 163.597 971.686 166.716 973.643C169.807 975.616 172.538 978.364 174.912 981.886C178.842 987.716 180.631 992.984 180.279 997.688C179.907 1002.36 177.627 1006.72 173.438 1010.78Z" fill="black"/>
<path d="M141.604 945.577L147.923 940.334C149.697 942.291 151.099 944.15 152.129 945.903C153.811 948.782 154.662 951.269 154.681 953.389C154.7 955.5 154.165 957.311 153.078 958.819C151.961 960.336 149.029 962.488 144.282 965.269L117.426 981.014L120.826 986.811L114.672 990.423L111.272 984.618L99.7126 991.394L90.3555 986.306L106.663 976.749L102.001 968.791L108.155 965.179L112.817 973.137L140.112 957.139C142.369 955.818 143.741 954.84 144.232 954.196C144.705 953.527 144.952 952.769 144.972 951.929C144.975 951.065 144.633 950.045 143.947 948.871C143.431 947.991 142.651 946.89 141.604 945.577Z" fill="black"/>
<path d="M129.101 903.038L121.987 906.585C129.337 907.629 134.624 911.388 137.849 917.87C139.273 920.724 140.058 923.676 140.206 926.717C140.338 929.726 139.885 932.246 138.85 934.276C137.769 936.298 136.148 938.149 133.989 939.837C132.544 940.97 130.074 942.413 126.578 944.15L96.5742 959.104L92.4857 950.893L119.344 937.513C123.629 935.377 126.434 933.77 127.757 932.694C129.658 931.096 130.815 929.155 131.229 926.864C131.612 924.581 131.191 922.208 129.964 919.746C128.737 917.283 126.963 915.285 124.642 913.744C122.29 912.22 119.815 911.559 117.218 911.755C114.574 911.934 111.186 913.051 107.052 915.106L81.106 928.038L77.0176 919.827L125.444 895.7L129.101 903.038Z" fill="black"/>
<path d="M109.161 854.515L102.806 857.002C109.053 858.241 113.392 861.959 115.821 868.156C117.396 872.176 117.739 876.31 116.852 880.558C115.952 884.782 113.892 888.598 110.671 892.014C107.406 895.415 103.196 898.122 98.0424 900.144C93.0149 902.117 88.1334 903.063 83.3978 902.989C78.6299 902.924 74.4984 901.644 71.0028 899.141C67.5073 896.646 64.9477 893.327 63.3239 889.185C62.134 886.144 61.7224 883.184 62.0892 880.305C62.4244 877.435 63.3283 874.859 64.801 872.567L39.8534 882.344L36.5254 873.856L106.056 846.589L109.161 854.515ZM94.6027 891.37C101.053 888.834 105.342 885.589 107.47 881.61C109.597 877.639 109.936 873.807 108.486 870.105C107.023 866.371 104.266 863.802 100.214 862.4C96.118 860.981 90.9397 861.495 84.6791 863.949C77.7864 866.648 73.2479 869.966 71.0639 873.888C68.8799 877.81 68.5502 881.716 70.0747 885.605C71.5621 889.397 74.3572 891.974 78.4598 893.319C82.5501 894.632 87.9313 893.979 94.6027 891.37Z" fill="black"/>
<path d="M123.46 832.084L115.5 835.524C115.449 833.445 115.21 831.692 114.783 830.257C114.201 828.308 113.41 826.841 112.41 825.862C111.41 824.884 110.212 824.199 108.817 823.799C107.774 823.506 105.326 823.261 101.475 823.057C100.939 823.041 100.145 823 99.0941 822.919L53.0125 858.086L50.1898 848.611L76.9991 828.871C80.39 826.335 84.0199 823.889 87.8883 821.524C83.552 821.72 79.255 821.687 74.9973 821.435L41.4744 819.355L38.8555 810.569L97.4598 814.58C103.787 814.998 108.198 815.474 110.695 816.004C114.057 816.705 116.706 817.863 118.642 819.486C120.611 821.092 122.013 823.302 122.846 826.099C123.351 827.795 123.556 829.792 123.46 832.084Z" fill="black"/>
<path d="M82.7494 755.165L31.6438 779.45L30.2608 770.073L70.9199 752.12C70.3289 752.071 66.5136 751.689 59.474 750.976L26.8703 747.083L25.4948 737.756L55.3573 725.158L65.1939 720.976L54.4089 719.425L22.1117 714.817L20.8105 705.994L76.801 714.833L78.1914 724.26L47.3953 737.511L38.5782 740.924L81.3514 745.687L82.7494 755.165Z" fill="black"/>
<path d="M48.6132 702.758C38.6049 703.217 31.0644 700.774 25.9915 695.429C21.775 690.964 19.5134 685.388 19.2067 678.702C18.8657 671.269 21.0298 665.082 25.6988 660.14C30.3337 655.201 36.9429 652.534 45.5263 652.14C52.4811 651.82 58.0085 652.621 62.1083 654.541C66.1726 656.429 69.3992 659.325 71.7882 663.228C74.1755 667.098 75.4774 671.392 75.6938 676.109C76.0409 683.677 73.8962 689.915 69.2596 694.821C64.6214 699.693 57.7393 702.339 48.6132 702.758ZM48.1812 693.339C55.1021 693.022 60.2235 691.273 63.5454 688.094C66.8334 684.916 68.3723 681.036 68.1622 676.454C67.9535 671.907 66.0497 668.202 62.4507 665.341C58.8517 662.479 53.5068 661.211 46.4163 661.536C39.7328 661.843 34.7479 663.602 31.4615 666.814C28.1395 669.993 26.5821 673.84 26.7892 678.354C26.9993 682.936 28.887 686.658 32.4521 689.522C36.0172 692.385 41.2602 693.657 48.1812 693.339Z" fill="black"/>
<path d="M73.9711 645.033L19.8882 643.625L20.1029 635.371L28.3018 635.585C24.5202 633.379 22.0413 631.378 20.865 629.58C19.6896 627.748 19.1297 625.762 19.1854 623.622C19.2658 620.532 20.3321 617.416 22.3843 614.275L30.8067 617.655C29.4243 619.862 28.704 622.086 28.6456 624.328C28.5935 626.332 29.1578 628.148 30.3385 629.775C31.4852 631.403 33.1192 632.584 35.2404 633.319C38.4732 634.422 42.0247 635.025 45.895 635.126L74.2097 635.862L73.9711 645.033Z" fill="black"/>
<path d="M75.1074 612.241L0.75 605.282L1.60419 596.149L44.0072 600.117L24.1172 576.451L25.2229 564.628L43.2804 587.1L79.2835 567.59L78.23 578.854L49.0227 594.086L54.6079 601.11L75.9616 603.108L75.1074 612.241Z" fill="black"/>
<path d="M79.0247 521.862C81.7725 525.454 83.6529 529.159 84.6644 532.979C85.6433 536.791 85.7509 540.735 84.988 544.809C83.5795 552.322 79.9261 557.807 74.0264 561.263C69.2178 564.061 64.2598 564.98 59.1526 564.023C54.6128 563.171 50.7959 560.952 47.7017 557.365C44.5804 553.737 42.1789 548.76 40.4969 542.43C36.0721 545.022 32.5715 546.647 29.995 547.304C27.4185 547.962 25.0287 548.084 22.8256 547.671C18.4193 546.845 14.9195 544.409 12.326 540.362C9.7054 536.276 8.88623 531.611 9.86849 526.368C10.8071 521.359 13.109 517.557 16.7744 514.96C20.446 512.331 24.4349 511.419 28.741 512.227C35.7175 513.535 40.8095 519.277 44.0166 529.453L63.2587 519.424C60.6027 517.371 57.4169 515.564 53.7012 514.003L57.459 505.012C63.5678 507.817 68.4352 510.976 72.0614 514.491C77.1662 511.956 81.638 508.838 85.4762 505.132L91.5013 512.536C88.4822 515.737 84.3237 518.846 79.0247 521.862ZM37.3356 533.023C35.7644 528.683 34.2173 525.784 32.6942 524.322C31.1774 522.829 29.3675 521.884 27.2645 521.49C24.761 521.021 22.5746 521.44 20.7054 522.749C18.8091 524.018 17.6388 525.838 17.1946 528.209C16.7378 530.647 17.1406 532.83 18.4029 534.761C19.6715 536.658 21.4407 537.82 23.7106 538.245C24.8455 538.458 26.1004 538.399 27.4752 538.069C28.823 537.7 30.3072 537.062 31.9282 536.156L37.3356 533.023ZM70.8541 526.19L47.2781 538.879C49.2687 544.299 51.3562 548.095 53.5407 550.267C55.6918 552.434 57.9857 553.745 60.4225 554.202C63.3933 554.759 66.7032 554.153 70.352 552.382C74.0007 550.613 76.2318 547.557 77.0451 543.216C77.5519 540.511 77.2399 537.567 76.1089 534.382C74.9508 531.157 73.1992 528.426 70.8541 526.19Z" fill="black"/>
<path d="M75.877 503.131L76.9873 494.015C80.6219 494.521 83.6863 493.927 86.1805 492.235C88.6836 490.511 90.507 487.639 91.6505 483.62C92.8031 479.568 92.8422 476.329 91.7663 473.903C90.6586 471.468 88.9942 469.935 86.7731 469.303C84.7802 468.735 82.9658 469.154 81.3299 470.561C80.202 471.547 78.3504 474.269 75.7752 478.729C72.3012 484.734 69.6183 488.827 67.7265 491.008C65.8114 493.148 63.6226 494.573 61.1602 495.285C58.6744 495.954 56.1576 495.927 53.6098 495.202C51.2905 494.541 49.2998 493.41 47.6374 491.806C45.9517 490.16 44.7158 488.236 43.9298 486.034C43.3077 484.373 42.9883 482.269 42.9717 479.721C42.9318 477.131 43.2977 474.48 44.0692 471.768C45.2314 467.683 46.8373 464.273 48.8871 461.536C50.9462 458.766 53.1976 456.935 55.6411 456.041C58.0521 455.138 61.0187 454.888 64.5413 455.29L63.2628 464.251C60.4728 463.88 58.0569 464.429 56.0151 465.897C53.9826 467.331 52.4783 469.764 51.5021 473.195C50.3493 477.247 50.1961 480.33 51.0427 482.443C51.8892 484.556 53.2107 485.869 55.0072 486.38C56.1506 486.705 57.2817 486.639 58.4009 486.18C59.5526 485.731 60.6574 484.828 61.715 483.468C62.2926 482.679 63.783 480.295 66.1861 476.317C69.6277 470.549 72.2361 466.594 74.0113 464.45C75.7631 462.264 77.8515 460.758 80.2764 459.929C82.7017 459.101 85.4168 459.114 88.422 459.97C91.3612 460.806 93.8912 462.463 96.0121 464.939C98.1093 467.373 99.4159 470.412 99.9326 474.056C100.417 477.691 100.079 481.551 98.9162 485.636C96.9918 492.399 94.1178 497.162 90.2959 499.924C86.4821 502.654 81.6763 503.723 75.877 503.131Z" fill="black"/>
<path d="M105.205 436.762L113.282 438.22C112.932 440.835 112.417 443.103 111.736 445.025C110.624 448.162 109.266 450.421 107.662 451.798C106.057 453.175 104.329 453.933 102.479 454.07C100.597 454.196 97.0629 453.34 91.8774 451.501L62.5383 441.102L60.2924 447.442L53.57 445.06L55.8158 438.719L43.1872 434.243L41.0469 423.806L58.8614 430.121L61.9409 421.427L68.6634 423.809L65.5839 432.504L95.4026 443.074C97.8674 443.948 99.5033 444.365 100.309 444.326C101.127 444.256 101.863 443.957 102.517 443.433C103.183 442.876 103.743 441.957 104.197 440.676C104.537 439.715 104.873 438.41 105.205 436.762Z" fill="black"/>
<path d="M129.661 399.785L122.368 396.628C126.305 402.924 126.839 409.392 123.966 416.033C122.698 418.964 120.95 421.465 118.722 423.536C116.507 425.576 114.289 426.855 112.067 427.374C109.826 427.848 107.367 427.802 104.689 427.235C102.888 426.863 100.196 425.901 96.6119 424.349L65.8477 411.033L69.4891 402.614L97.0268 414.534C101.422 416.436 104.457 417.547 106.133 417.865C108.575 418.292 110.806 417.925 112.826 416.764C114.814 415.588 116.355 413.738 117.447 411.212C118.539 408.687 118.926 406.04 118.605 403.274C118.254 400.493 117.168 398.172 115.345 396.31C113.505 394.403 110.467 392.532 106.227 390.697L79.6246 379.182L83.2657 370.763L132.918 392.255L129.661 399.785Z" fill="black"/>
<path d="M153.906 353.26L147.905 350.004C150.987 355.58 150.941 361.294 147.768 367.147C145.712 370.941 142.773 373.868 138.95 375.93C135.144 377.962 130.898 378.847 126.211 378.584C121.51 378.276 116.727 376.801 111.861 374.161C107.114 371.586 103.244 368.463 100.251 364.79C97.2275 361.101 95.5443 357.116 95.2004 352.832C94.8564 348.549 95.7448 344.451 97.8657 340.539C99.4201 337.672 101.417 335.451 103.855 333.875C106.264 332.282 108.818 331.311 111.52 330.961L87.9648 318.181L92.3117 310.163L157.962 345.779L153.906 353.26ZM116.353 365.874C122.444 369.178 127.692 370.363 132.1 369.43C136.508 368.498 139.658 366.285 141.553 362.791C143.463 359.267 143.65 355.502 142.111 351.499C140.559 347.449 136.828 343.82 130.917 340.613C124.408 337.083 118.951 335.745 114.546 336.602C110.141 337.459 106.942 339.724 104.951 343.398C103.009 346.981 102.844 350.776 104.459 354.783C106.089 358.76 110.054 362.456 116.353 365.874Z" fill="black"/>
<path d="M180.262 349.745L172.506 345.872C174.059 344.494 175.247 343.181 176.067 341.931C177.185 340.227 177.795 338.677 177.898 337.281C178.002 335.886 177.756 334.526 177.163 333.202C176.713 332.216 175.323 330.186 172.994 327.112C172.661 326.69 172.185 326.053 171.567 325.199L114.988 312.614L120.411 304.349L152.781 312.132C156.904 313.092 161.114 314.292 165.409 315.731C162.467 312.539 159.721 309.232 157.172 305.811L137.156 278.829L142.188 271.161L176.889 318.575C180.646 323.683 183.126 327.365 184.329 329.618C185.961 332.64 186.782 335.414 186.791 337.94C186.827 340.484 186.044 342.976 184.442 345.419C183.473 346.896 182.08 348.338 180.262 349.745Z" fill="black"/>
<path d="M234.84 259.269L184.795 232.866L191.475 226.143L230.194 247.968C229.88 247.464 227.901 244.179 224.256 238.113L207.85 209.66L214.493 202.972L242.461 219.354L251.699 224.731L246.482 215.161L230.832 186.526L237.116 180.2L263.568 230.351L256.853 237.111L227.803 220.372L219.791 215.352L241.591 252.473L234.84 259.269Z" fill="black"/>
<path d="M256.354 200.537C249.993 192.794 247.434 185.289 248.675 178.025C249.725 171.972 252.835 166.821 258.004 162.571C263.75 157.848 269.999 155.876 276.752 156.658C283.483 157.413 289.575 161.111 295.031 167.752C299.451 173.133 302.119 178.041 303.037 182.476C303.959 186.863 303.574 191.182 301.879 195.433C300.211 199.663 297.553 203.277 293.905 206.275C288.054 211.085 281.777 213.102 275.072 212.325C268.394 211.527 262.154 207.597 256.354 200.537ZM263.635 194.551C268.034 199.905 272.501 202.961 277.035 203.719C281.548 204.45 285.577 203.36 289.119 200.448C292.634 197.558 294.46 193.814 294.596 189.217C294.732 184.619 292.547 179.578 288.041 174.092C283.792 168.922 279.399 165.981 274.86 165.271C270.325 164.514 266.313 165.57 262.823 168.438C259.281 171.35 257.431 175.092 257.273 179.663C257.116 184.233 259.237 189.196 263.635 194.551Z" fill="black"/>
<path d="M317.755 186.287L286.496 142.113L293.232 137.343L297.971 144.04C297.472 139.69 297.59 136.505 298.325 134.486C299.088 132.448 300.342 130.81 302.089 129.573C304.611 127.787 307.745 126.775 311.488 126.539L313.825 135.31C311.231 135.524 309.019 136.279 307.189 137.575C305.554 138.733 304.438 140.272 303.841 142.193C303.226 144.087 303.258 146.102 303.94 148.242C304.992 151.493 306.637 154.699 308.873 157.86L325.239 180.987L317.755 186.287Z" fill="black"/>
<path d="M344.687 167.561L305.732 103.82L313.556 99.0349L335.77 135.384L342.807 105.277L352.933 99.083L345.756 127.006L382.935 144.168L373.287 150.07L343.602 135.791L341.324 144.471L352.511 162.776L344.687 167.561Z" fill="black"/>
<path d="M419.392 116.581C418.162 120.933 416.322 124.658 413.87 127.756C411.403 130.824 408.311 133.271 404.592 135.099C397.734 138.47 391.155 138.827 384.854 136.171C379.736 133.993 376.031 130.572 373.739 125.906C371.702 121.759 371.194 117.372 372.212 112.745C373.247 108.072 375.795 103.167 379.855 98.0288C375.13 96.036 371.733 94.2046 369.664 92.5339C367.594 90.864 366.065 89.0221 365.077 87.0097C363.1 82.9849 362.955 78.722 364.641 74.221C366.343 69.6744 369.587 66.225 374.372 63.8726C378.945 61.6251 383.368 61.1922 387.641 62.5741C391.946 63.9409 395.063 66.5911 396.996 70.5245C400.126 76.8973 398.578 84.4151 392.352 93.0786L411.903 102.49C411.956 99.132 411.495 95.4978 410.52 91.5856L419.968 89.2129C421.381 95.7865 421.766 101.578 421.124 106.587C426.21 109.16 431.385 110.875 436.65 111.731L434.33 120.992C429.959 120.49 424.979 119.02 419.392 116.581ZM385.493 89.8627C388.026 86.0059 389.421 83.0298 389.679 80.9351C389.967 78.8251 389.639 76.8096 388.695 74.8886C387.572 72.6018 385.927 71.1013 383.76 70.3874C381.608 69.6281 379.45 69.7803 377.286 70.8441C375.061 71.9379 373.554 73.5684 372.764 75.7357C372.005 77.8881 372.135 80.001 373.153 82.0742C373.662 83.1113 374.461 84.0816 375.549 84.9851C376.651 85.8437 378.05 86.6509 379.746 87.4076L385.493 89.8627ZM411.035 112.626L386.758 101.336C383.611 106.176 381.822 110.122 381.391 113.173C380.945 116.194 381.269 118.817 382.362 121.043C383.695 123.757 386.163 126.045 389.764 127.909C393.366 129.772 397.148 129.729 401.111 127.781C403.58 126.568 405.751 124.555 407.623 121.742C409.512 118.883 410.649 115.844 411.035 112.626Z" fill="black"/>
<path d="M734.464 75.2641C730.972 78.1371 727.336 80.1464 723.556 81.292C719.781 82.4037 715.845 82.6499 711.749 82.0294C704.193 80.8853 698.586 77.4246 694.926 71.6475C691.963 66.938 690.871 62.0135 691.649 56.8739C692.34 52.3055 694.423 48.4117 697.899 45.1926C701.413 41.945 706.302 39.3697 712.567 37.4664C709.822 33.1335 708.076 29.6906 707.329 27.1378C706.582 24.585 706.376 22.2001 706.712 19.983C707.382 15.5489 709.694 11.9646 713.645 9.22994C717.636 6.46685 722.267 5.48448 727.539 6.28287C732.576 7.04565 736.456 9.2138 739.178 12.7873C741.934 16.3659 742.984 20.3219 742.328 24.6552C741.266 31.6758 735.708 36.9677 725.654 40.5306L736.346 59.4165C738.305 56.6893 739.999 53.441 741.428 49.6715L750.542 53.1134C747.954 59.3189 744.968 64.2958 741.584 68.0442C744.295 73.0591 747.568 77.4204 751.403 81.1281L744.218 87.4102C740.914 84.5049 737.663 80.4561 734.464 75.2641ZM721.854 33.9763C726.133 32.2535 728.976 30.6051 730.382 29.0312C731.822 27.4624 732.702 25.6199 733.022 23.5037C733.404 20.9843 732.908 18.8132 731.535 16.9902C730.201 15.1389 728.341 14.0326 725.957 13.6716C723.506 13.3003 721.338 13.7795 719.454 15.1092C717.604 16.4439 716.505 18.2534 716.159 20.5376C715.986 21.6797 716.089 22.9322 716.466 24.2952C716.883 25.6296 717.572 27.0912 718.534 28.68L721.854 33.9763ZM729.855 67.2472L716.352 44.1215C711.007 46.3015 707.288 48.5215 705.194 50.7815C703.105 53.008 701.875 55.3473 701.504 57.7995C701.052 60.7892 701.774 64.0769 703.67 67.6628C705.566 71.2486 708.696 73.3721 713.062 74.0331C715.782 74.4451 718.713 74.0299 721.855 72.7876C725.035 71.5168 727.702 69.67 729.855 67.2472Z" fill="black"/>
<path d="M432.503 102.841L440.465 98.2726C442.237 101.487 444.547 103.586 447.396 104.571C450.276 105.545 453.666 105.286 457.569 103.795C461.503 102.292 464.119 100.384 465.417 98.0696C466.703 95.7245 466.934 93.4724 466.11 91.3141C465.371 89.3776 463.949 88.1757 461.843 87.7069C460.379 87.3937 457.091 87.5405 451.978 88.1472C445.09 88.9601 440.207 89.2618 437.328 89.0522C434.468 88.7986 432.016 87.8985 429.972 86.3525C427.947 84.7617 426.462 82.7289 425.517 80.2532C424.657 77.9996 424.371 75.7268 424.659 73.4347C424.967 71.0986 425.768 68.9565 427.059 67.0082C428.016 65.5153 429.51 63.9994 431.54 62.4603C433.59 60.8773 435.932 59.5829 438.564 58.577C442.531 57.0622 446.223 56.3065 449.641 56.3099C453.092 56.3012 455.906 57.0081 458.085 58.4306C460.252 59.8213 462.229 62.0483 464.016 65.1114L456.076 69.4534C454.702 66.9962 452.816 65.389 450.418 64.632C448.053 63.8627 445.204 64.1143 441.873 65.3868C437.938 66.8896 435.379 68.6127 434.194 70.5564C433.01 72.5 432.75 74.3446 433.416 76.0903C433.84 77.2012 434.571 78.0677 435.608 78.6898C436.657 79.3436 438.043 79.6872 439.764 79.7207C440.742 79.7109 443.543 79.4774 448.167 79.0203C454.845 78.3244 459.573 78.0456 462.353 78.1841C465.152 78.2787 467.609 79.0493 469.724 80.4961C471.84 81.9429 473.455 84.1265 474.569 87.0464C475.66 89.9027 475.849 92.922 475.136 96.1029C474.444 99.2405 472.793 102.107 470.185 104.704C467.565 107.269 464.272 109.308 460.306 110.823C453.738 113.332 448.204 113.882 443.704 112.473C439.236 111.052 435.502 107.842 432.503 102.841Z" fill="black"/>
<path d="M503.198 86.5946L506.867 93.9388C504.565 95.2247 502.44 96.1705 500.494 96.7755C497.316 97.7646 494.695 98.028 492.631 97.5673C490.567 97.1066 488.927 96.1754 487.709 94.7754C486.481 93.3428 485.05 89.9989 483.417 84.7437L474.174 55.0104L467.752 57.0079L465.635 50.1951L472.056 48.1975L468.078 35.3992L475.151 27.4348L480.764 45.4888L489.568 42.7497L491.686 49.5626L482.881 52.3016L492.275 82.521C493.052 85.0193 493.697 86.58 494.211 87.2029C494.757 87.8153 495.436 88.227 496.248 88.4366C497.093 88.6364 498.163 88.5344 499.461 88.1308C500.433 87.8283 501.679 87.3163 503.198 86.5946Z" fill="black"/>
<path d="M547.444 84.0457L545.603 76.3121C542.922 83.2369 538.063 87.5364 531.025 89.212C527.92 89.9516 524.871 90.0486 521.879 89.5039C518.919 88.9511 516.567 87.94 514.821 86.4699C513.099 84.959 511.664 82.9605 510.514 80.4754C509.734 78.8102 508.892 76.0771 507.988 72.2763L500.227 39.6547L509.147 37.5309L516.094 66.7317C517.203 71.3919 518.132 74.4885 518.881 76.0215C520.001 78.2344 521.63 79.8021 523.77 80.7246C525.901 81.6143 528.305 81.7398 530.981 81.103C533.657 80.4659 536.007 79.1904 538.031 77.2769C540.046 75.3302 541.254 73.0696 541.654 70.4948C542.079 67.8791 541.757 64.3239 540.687 59.8289L533.976 31.6196L542.896 29.4958L555.423 82.1467L547.444 84.0457Z" fill="black"/>
<path d="M599.213 75.6097L598.226 68.8526C595.608 74.6603 591.005 78.0455 584.419 79.0084C580.151 79.6323 576.048 79.0304 572.108 77.2029C568.203 75.3704 564.951 72.4979 562.354 68.5855C559.787 64.6347 558.103 59.9195 557.302 54.4398C556.522 49.0947 556.705 44.1236 557.853 39.5266C558.994 34.896 561.178 31.1605 564.401 28.3202C567.625 25.4799 571.438 23.738 575.84 23.0945C579.066 22.6229 582.039 22.892 584.761 23.9019C587.478 24.8782 589.786 26.3434 591.684 28.2976L587.81 1.77357L596.833 0.45459L607.631 74.3791L599.213 75.6097ZM566.628 53.0766C567.629 59.9346 569.823 64.85 573.209 67.8228C576.595 70.7957 580.254 71.9948 584.186 71.4201C588.151 70.8404 591.276 68.7355 593.56 65.1055C595.873 61.4368 596.543 56.2744 595.571 49.6181C594.5 42.2896 592.304 37.1172 588.98 34.1008C585.656 31.0845 581.928 29.8784 577.794 30.4827C573.761 31.0721 570.625 33.2131 568.384 36.9055C566.177 40.593 565.591 45.9834 566.628 53.0766Z" fill="black"/>
<path d="M617.807 94.6213L616.263 86.0875C618.297 86.5074 620.059 86.6713 621.551 86.58C623.584 86.4561 625.191 86.0166 626.369 85.264C627.549 84.5114 628.49 83.5003 629.195 82.2316C629.715 81.2808 630.508 78.9517 631.575 75.2443C631.713 74.7253 631.939 73.9626 632.251 72.9564L608.447 20.0898L618.311 19.4856L631.464 50.08C633.164 53.9583 634.725 58.0494 636.145 62.3533C636.939 58.084 637.941 53.9039 639.154 49.8132L648.77 17.62L657.922 17.0593L640.742 73.2532C638.901 79.3226 637.44 83.5133 636.357 85.8266C634.914 88.9446 633.184 91.2628 631.168 92.7818C629.154 94.3351 626.689 95.2002 623.773 95.3788C622.011 95.4873 620.022 95.2345 617.807 94.6213Z" fill="black"/>
</g>
<defs>
<clipPath id="clip0_1277_2142">
<rect width="1340" height="1325" fill="white"/>
</clipPath>
</defs>
</svg>
