<svg width="1644" height="1625" viewBox="0 0 1644 1625" fill="none" xmlns="http://www.w3.org/2000/svg">
<path d="M1459.63 439.682L1508.79 390.671L1514.23 400.945L1474.56 438.355C1475.26 438.171 1479.83 437.049 1488.26 434.989L1527.56 426.133L1532.97 436.351L1503.6 463.149L1493.94 472.013L1507.04 469.387L1546.28 461.483L1551.4 471.149L1483.03 483.87L1477.56 473.541L1507.75 445.606L1516.55 438.048L1465.13 450.066L1459.63 439.682Z" fill="#2690FF"/>
<path d="M1520.57 486.281C1531.96 481.649 1541.68 481.384 1549.73 485.484C1556.44 488.92 1561.34 494.439 1564.43 502.042C1567.87 510.495 1567.9 518.534 1564.53 526.159C1561.19 533.769 1554.64 539.56 1544.87 543.532C1536.96 546.75 1530.24 548.089 1524.71 547.549C1519.24 547.031 1514.32 545.006 1509.96 541.472C1505.62 537.976 1502.35 533.546 1500.17 528.182C1496.67 519.575 1496.59 511.486 1499.95 503.914C1503.32 496.382 1510.19 490.504 1520.57 486.281ZM1524.93 496.991C1517.06 500.194 1511.85 504.313 1509.31 509.35C1506.81 514.37 1506.62 519.486 1508.74 524.696C1510.84 529.868 1514.56 533.371 1519.89 535.205C1525.23 537.038 1531.93 536.315 1540 533.033C1547.6 529.941 1552.64 525.865 1555.13 520.805C1557.67 515.769 1557.89 510.684 1555.81 505.551C1553.69 500.341 1549.98 496.811 1544.68 494.961C1539.39 493.112 1532.8 493.788 1524.93 496.991Z" fill="#2690FF"/>
<path d="M1514.89 563.401L1578.01 542.872L1581.14 552.5L1571.57 555.613C1576.85 556.613 1580.53 557.912 1582.63 559.508C1584.74 561.144 1586.2 563.21 1587.01 565.707C1588.18 569.312 1588.23 573.351 1587.14 577.823L1576.02 577.367C1576.71 574.249 1576.63 571.382 1575.78 568.767C1575.02 566.429 1573.63 564.561 1571.59 563.163C1569.6 561.752 1567.23 561.056 1564.47 561.075C1560.28 561.124 1555.93 561.883 1551.41 563.352L1518.37 574.1L1514.89 563.401Z" fill="#2690FF"/>
<path d="M1527 601.774L1615.84 579.356L1618.6 590.264L1567.93 603.048L1600.63 622.258L1604.19 636.378L1574.1 617.799L1540.46 655.102L1537.06 641.649L1564.6 612.075L1555.27 606.244L1529.76 612.682L1527 601.774Z" fill="#2690FF"/>
<path d="M1559.48 707.859C1554.83 704.833 1551.14 701.32 1548.41 697.319C1545.71 693.312 1543.98 688.798 1543.19 683.776C1541.74 674.513 1543.72 666.676 1549.13 660.263C1553.54 655.06 1558.9 651.965 1565.2 650.98C1570.8 650.104 1576.12 651.106 1581.17 653.985C1586.26 656.9 1591.08 661.671 1595.62 668.299C1599.67 663.49 1603.05 660.177 1605.76 658.361C1608.47 656.546 1611.19 655.425 1613.9 655C1619.34 654.15 1624.38 655.533 1629.04 659.148C1633.74 662.798 1636.6 667.855 1637.61 674.318C1638.58 680.493 1637.47 685.832 1634.3 690.335C1631.13 694.88 1626.89 697.567 1621.58 698.398C1612.98 699.744 1604.74 695.192 1596.86 684.742L1578.71 704.218C1582.63 705.504 1587.05 706.288 1591.99 706.57L1591.32 718.503C1583.11 717.764 1576.19 716.106 1570.55 713.529C1565.69 718.549 1561.8 723.987 1558.87 729.843L1548.87 723.752C1551.05 718.815 1554.59 713.517 1559.48 707.859ZM1603.12 677.879C1606.72 682.251 1609.69 684.969 1612.05 686.034C1614.42 687.14 1616.9 687.49 1619.49 687.084C1622.58 686.601 1624.94 685.221 1626.56 682.942C1628.24 680.698 1628.84 678.115 1628.39 675.192C1627.92 672.187 1626.56 669.827 1624.31 668.112C1622.06 666.439 1619.54 665.822 1616.74 666.259C1615.34 666.478 1613.91 667.06 1612.46 668.005C1611.05 668.984 1609.6 670.329 1608.09 672.041L1603.12 677.879ZM1567.16 699.51L1589.23 675.182C1584.71 669.732 1580.74 666.199 1577.32 664.582C1573.95 662.959 1570.76 662.383 1567.75 662.853C1564.09 663.426 1560.51 665.483 1557.01 669.024C1553.52 672.565 1552.19 677.012 1553.03 682.363C1553.55 685.698 1555.12 688.974 1557.73 692.192C1560.39 695.445 1563.53 697.884 1567.16 699.51Z" fill="#2690FF"/>
<path d="M1570.8 728.223L1573.24 739.215C1568.83 740.12 1565.53 742.062 1563.34 745.039C1561.15 748.059 1560.22 752.126 1560.54 757.24C1560.87 762.397 1562.15 766.157 1564.39 768.52C1566.67 770.881 1569.22 771.972 1572.05 771.793C1574.59 771.633 1576.51 770.404 1577.83 768.108C1578.73 766.507 1579.76 762.601 1580.91 756.39C1582.47 748.025 1583.89 742.195 1585.19 738.898C1586.52 735.64 1588.47 733.095 1591.03 731.264C1593.63 729.471 1596.55 728.472 1599.79 728.267C1602.75 728.08 1605.51 728.573 1608.09 729.746C1610.71 730.957 1612.93 732.675 1614.74 734.899C1616.14 736.564 1617.37 738.865 1618.44 741.804C1619.54 744.782 1620.21 747.996 1620.42 751.448C1620.75 756.646 1620.29 761.246 1619.04 765.25C1617.8 769.295 1615.94 772.335 1613.48 774.369C1611.06 776.401 1607.74 777.906 1603.5 778.884L1601.31 768.001C1604.68 767.286 1607.25 765.662 1609.01 763.129C1610.78 760.638 1611.52 757.209 1611.24 752.843C1610.92 747.686 1609.83 744.06 1607.99 741.964C1606.14 739.868 1604.08 738.892 1601.79 739.037C1600.33 739.129 1599.05 739.67 1597.95 740.658C1596.8 741.649 1595.89 743.147 1595.23 745.151C1594.88 746.3 1594.13 749.667 1592.98 755.251C1591.37 763.327 1589.97 768.968 1588.79 772.174C1587.66 775.418 1585.87 778.016 1583.4 779.968C1580.94 781.919 1577.79 783.015 1573.96 783.257C1570.22 783.494 1566.62 782.616 1563.15 780.622C1559.73 778.668 1556.97 775.69 1554.88 771.689C1552.83 767.686 1551.65 763.085 1551.32 757.887C1550.77 749.279 1552.15 742.596 1555.43 737.837C1558.73 733.12 1563.85 729.915 1570.8 728.223Z" fill="#2690FF"/>
<path d="M1564.06 816.962L1554.12 818.586C1553.46 815.419 1553.12 812.586 1553.12 810.086C1553.12 806.003 1553.77 802.836 1555.06 800.586C1556.35 798.336 1558.04 796.753 1560.12 795.836C1562.25 794.92 1566.69 794.462 1573.44 794.462L1611.62 794.465L1611.63 786.215L1620.38 786.215L1620.37 794.465L1636.81 794.466L1643.56 805.654L1620.37 805.653L1620.37 816.965L1611.62 816.965L1611.62 805.652L1572.81 805.65C1569.6 805.65 1567.54 805.837 1566.62 806.212C1565.71 806.629 1564.98 807.274 1564.44 808.149C1563.89 809.066 1563.62 810.358 1563.62 812.024C1563.62 813.274 1563.77 814.92 1564.06 816.962Z" fill="#2690FF"/>
<path d="M1550.92 869.726L1560.65 870.387C1553.52 864.723 1550.25 857.464 1550.86 848.61C1551.12 844.702 1552.12 841.095 1553.85 837.788C1555.57 834.522 1557.61 832.135 1559.97 830.624C1562.37 829.159 1565.23 828.205 1568.56 827.763C1570.79 827.456 1574.3 827.465 1579.08 827.79L1620.11 830.58L1619.35 841.804L1582.62 839.306C1576.76 838.908 1572.8 838.868 1570.73 839.187C1567.73 839.692 1565.3 841.031 1563.44 843.201C1561.62 845.374 1560.6 848.145 1560.37 851.512C1560.14 854.879 1560.78 858.097 1562.28 861.164C1563.82 864.234 1566.03 866.472 1568.9 867.879C1571.81 869.329 1576.09 870.247 1581.74 870.632L1617.23 873.045L1616.46 884.269L1550.24 879.765L1550.92 869.726Z" fill="#2690FF"/>
<path d="M1541.94 933.444L1550.21 934.749C1544.37 929.566 1542.08 922.941 1543.35 914.874C1544.17 909.647 1546.37 905.059 1549.95 901.11C1553.52 897.201 1558.07 894.439 1563.6 892.822C1569.16 891.253 1575.29 890.998 1582 892.056C1588.55 893.088 1594.3 895.114 1599.27 898.133C1604.27 901.158 1607.85 905.076 1610 909.887C1612.16 914.697 1612.81 919.799 1611.96 925.19C1611.33 929.141 1609.93 932.527 1607.76 935.348C1605.63 938.175 1603.07 940.345 1600.09 941.857L1632.56 946.98L1630.82 958.031L1540.31 943.754L1541.94 933.444ZM1580.2 903.477C1571.81 902.153 1565.25 902.932 1560.53 905.816C1555.82 908.7 1553.08 912.55 1552.32 917.365C1551.56 922.222 1552.88 926.649 1556.3 930.647C1559.75 934.693 1565.56 937.359 1573.7 938.644C1582.68 940.06 1589.54 939.37 1594.28 936.575C1599.02 933.78 1601.79 929.851 1602.59 924.789C1603.37 919.85 1602.01 915.395 1598.5 911.425C1594.98 907.496 1588.89 904.847 1580.2 903.477Z" fill="#2690FF"/>
<path d="M1512.9 948.304L1523.45 949.604C1522.22 951.833 1521.39 953.838 1520.95 955.619C1520.36 958.047 1520.28 960.089 1520.74 961.744C1521.19 963.399 1522.03 964.871 1523.26 966.159C1524.18 967.114 1526.62 968.892 1530.57 971.491C1531.13 971.842 1531.94 972.384 1533.01 973.117L1603.59 964.487L1600.7 976.264L1560.08 980.527C1554.92 981.107 1549.56 981.444 1544 981.541C1548.72 984.025 1553.24 986.723 1557.59 989.634L1591.79 1012.62L1589.11 1023.55L1529.56 982.956C1523.13 978.589 1518.75 975.35 1516.44 973.239C1513.31 970.413 1511.23 967.543 1510.18 964.627C1509.1 961.701 1508.98 958.498 1509.84 955.018C1510.35 952.913 1511.37 950.675 1512.9 948.304Z" fill="#2690FF"/>
<path d="M1508.3 1054.95L1577.45 1060.95L1573.1 1071.73L1518.93 1065.51C1519.53 1065.93 1523.33 1068.7 1530.34 1073.82L1562.43 1098.16L1558.11 1108.88L1518.69 1103.69L1505.68 1102.01L1516.14 1110.34L1547.47 1135.25L1543.37 1145.4L1489.59 1101.31L1493.96 1090.48L1534.77 1095.56L1546.22 1097.41L1503.9 1065.84L1508.3 1054.95Z" fill="#2690FF"/>
<path d="M1511.94 1131.58C1522.82 1137.3 1529.28 1144.56 1531.34 1153.36C1533.03 1160.7 1531.97 1168.01 1528.15 1175.27C1523.9 1183.35 1517.77 1188.55 1509.77 1190.88C1501.8 1193.24 1493.15 1191.96 1483.82 1187.05C1476.26 1183.08 1470.9 1178.8 1467.76 1174.23C1464.62 1169.71 1463 1164.64 1462.9 1159.03C1462.77 1153.45 1464.05 1148.1 1466.75 1142.98C1471.07 1134.75 1477.21 1129.48 1485.16 1127.17C1493.09 1124.89 1502.02 1126.36 1511.94 1131.58ZM1506.55 1141.81C1499.03 1137.85 1492.53 1136.53 1487.04 1137.83C1481.59 1139.15 1477.55 1142.3 1474.93 1147.28C1472.34 1152.22 1472.05 1157.33 1474.09 1162.59C1476.12 1167.85 1481 1172.5 1488.7 1176.56C1495.97 1180.38 1502.33 1181.61 1507.81 1180.25C1513.29 1178.94 1517.33 1175.84 1519.91 1170.94C1522.52 1165.96 1522.83 1160.85 1520.84 1155.61C1518.84 1150.37 1514.08 1145.77 1506.55 1141.81Z" fill="#2690FF"/>
<path d="M1449.3 1176.93L1505.68 1211.96L1500.33 1220.56L1491.78 1215.25C1494.42 1219.93 1495.8 1223.59 1495.93 1226.22C1496.04 1228.89 1495.4 1231.33 1494.02 1233.56C1492.02 1236.78 1488.95 1239.42 1484.83 1241.47L1478.02 1232.67C1480.85 1231.19 1482.99 1229.29 1484.44 1226.95C1485.74 1224.86 1486.27 1222.59 1486.03 1220.14C1485.82 1217.7 1484.82 1215.44 1483.03 1213.35C1480.3 1210.17 1476.91 1207.33 1472.88 1204.83L1443.36 1186.48L1449.3 1176.93Z" fill="#2690FF"/>
<path d="M1427.77 1210.92L1502.16 1264.41L1495.59 1273.54L1453.17 1243.04L1459.55 1280.42L1451.05 1292.24L1445.87 1257.26L1395.66 1255.58L1403.76 1244.31L1444.12 1246.31L1442.56 1235.41L1421.2 1220.05L1427.77 1210.92Z" fill="#2690FF"/>
<path d="M1367.58 1304.12C1366.9 1298.62 1367.21 1293.53 1368.5 1288.86C1369.83 1284.22 1372.16 1279.98 1375.5 1276.14C1381.64 1269.07 1388.91 1265.53 1397.3 1265.53C1404.13 1265.55 1409.94 1267.66 1414.76 1271.84C1419.03 1275.55 1421.7 1280.27 1422.75 1285.98C1423.8 1291.76 1423.26 1298.52 1421.11 1306.26C1427.41 1306.26 1432.12 1306.71 1435.25 1307.61C1438.39 1308.52 1440.99 1309.87 1443.07 1311.67C1447.22 1315.28 1449.42 1320.03 1449.65 1325.92C1449.89 1331.87 1447.87 1337.31 1443.58 1342.25C1439.48 1346.97 1434.68 1349.56 1429.19 1350.04C1423.68 1350.54 1418.89 1349.03 1414.83 1345.51C1408.26 1339.8 1406.43 1330.56 1409.34 1317.8L1382.76 1316.48C1384.29 1320.3 1386.55 1324.19 1389.51 1328.15L1379.96 1335.33C1375.23 1328.57 1372.04 1322.21 1370.38 1316.24C1363.4 1315.76 1356.74 1316.28 1350.38 1317.82L1348.59 1306.25C1353.77 1304.74 1360.1 1304.03 1367.58 1304.12ZM1418.63 1318.17C1417.6 1323.74 1417.44 1327.77 1418.15 1330.26C1418.83 1332.78 1420.16 1334.9 1422.14 1336.62C1424.5 1338.67 1427.07 1339.58 1429.86 1339.36C1432.66 1339.19 1435.02 1337.99 1436.96 1335.76C1438.96 1333.46 1439.89 1330.9 1439.75 1328.08C1439.58 1325.28 1438.43 1322.96 1436.29 1321.1C1435.22 1320.17 1433.85 1319.45 1432.19 1318.95C1430.54 1318.5 1428.57 1318.26 1426.29 1318.21L1418.63 1318.17ZM1378.91 1304.61L1411.73 1305.81C1412.99 1298.84 1413.13 1293.53 1412.17 1289.87C1411.23 1286.25 1409.62 1283.44 1407.32 1281.44C1404.52 1279.01 1400.64 1277.6 1395.68 1277.21C1390.72 1276.82 1386.47 1278.67 1382.92 1282.76C1380.7 1285.3 1379.21 1288.61 1378.43 1292.68C1377.66 1296.81 1377.82 1300.79 1378.91 1304.61Z" fill="#2690FF"/>
<path d="M1359.3 1325.9L1352.47 1334.85C1348.94 1332.06 1345.33 1330.79 1341.64 1331.03C1337.92 1331.31 1334.21 1333.21 1330.5 1336.76C1326.77 1340.33 1324.72 1343.73 1324.36 1346.97C1324.02 1350.23 1324.83 1352.88 1326.79 1354.93C1328.55 1356.77 1330.73 1357.45 1333.33 1356.98C1335.14 1356.63 1338.78 1354.9 1344.28 1351.78C1351.68 1347.58 1357.05 1344.91 1360.41 1343.78C1363.76 1342.7 1366.96 1342.55 1370.01 1343.33C1373.06 1344.16 1375.7 1345.75 1377.95 1348.1C1380 1350.23 1381.4 1352.67 1382.17 1355.39C1382.93 1358.18 1383.05 1360.98 1382.51 1363.8C1382.14 1365.94 1381.18 1368.37 1379.61 1371.08C1378.05 1373.84 1376.02 1376.42 1373.52 1378.81C1369.76 1382.41 1365.94 1385.02 1362.08 1386.65C1358.18 1388.3 1354.66 1388.84 1351.52 1388.27C1348.41 1387.73 1345.11 1386.16 1341.63 1383.55L1348.54 1374.86C1351.27 1376.98 1354.16 1377.9 1357.24 1377.61C1360.28 1377.36 1363.38 1375.71 1366.54 1372.69C1370.27 1369.12 1372.34 1365.95 1372.76 1363.19C1373.17 1360.43 1372.59 1358.22 1371 1356.56C1369.99 1355.51 1368.76 1354.88 1367.29 1354.67C1365.79 1354.43 1364.06 1354.7 1362.1 1355.49C1361 1355.96 1357.94 1357.56 1352.93 1360.28C1345.71 1364.25 1340.5 1366.81 1337.29 1367.98C1334.08 1369.21 1330.93 1369.51 1327.85 1368.88C1324.77 1368.25 1321.91 1366.55 1319.26 1363.78C1316.66 1361.08 1315.01 1357.75 1314.3 1353.82C1313.59 1349.94 1314.09 1345.92 1315.81 1341.74C1317.55 1337.59 1320.3 1333.72 1324.06 1330.12C1330.29 1324.15 1336.29 1320.9 1342.05 1320.34C1347.78 1319.82 1353.53 1321.67 1359.3 1325.9Z" fill="#2690FF"/>
<path d="M1287.1 1377.93L1279.46 1371.38C1281.45 1368.83 1283.4 1366.75 1285.31 1365.14C1288.43 1362.51 1291.27 1360.96 1293.82 1360.5C1296.38 1360.04 1298.68 1360.31 1300.72 1361.31C1302.79 1362.34 1306 1365.44 1310.35 1370.6L1334.96 1399.8L1341.27 1394.49L1346.9 1401.18L1340.6 1406.49L1351.19 1419.06L1346.98 1431.44L1332.04 1413.7L1323.39 1420.99L1317.75 1414.3L1326.4 1407.01L1301.39 1377.33C1299.32 1374.88 1297.85 1373.42 1296.97 1372.96C1296.06 1372.53 1295.1 1372.39 1294.08 1372.54C1293.03 1372.72 1291.87 1373.34 1290.6 1374.42C1289.64 1375.22 1288.48 1376.39 1287.1 1377.93Z" fill="#2690FF"/>
<path d="M1238.29 1401.89L1244.05 1409.75C1243.79 1400.65 1247.23 1393.47 1254.39 1388.23C1257.55 1385.91 1260.95 1384.35 1264.6 1383.54C1268.2 1382.76 1271.35 1382.78 1274.02 1383.61C1276.69 1384.5 1279.26 1386.07 1281.74 1388.33C1283.42 1389.84 1285.67 1392.53 1288.5 1396.4L1312.81 1429.57L1303.74 1436.22L1281.98 1406.52C1278.51 1401.79 1275.98 1398.73 1274.4 1397.35C1272.08 1395.38 1269.5 1394.39 1266.64 1394.37C1263.8 1394.38 1261.03 1395.38 1258.3 1397.37C1255.58 1399.37 1253.53 1401.93 1252.16 1405.06C1250.8 1408.22 1250.51 1411.35 1251.29 1414.45C1252.05 1417.6 1254.11 1421.47 1257.46 1426.04L1278.48 1454.73L1269.4 1461.38L1230.17 1407.84L1238.29 1401.89Z" fill="#2690FF"/>
<path d="M1183.78 1436.08L1188.11 1443.25C1188.31 1435.44 1191.9 1429.42 1198.89 1425.19C1203.41 1422.45 1208.34 1421.18 1213.66 1421.37C1218.95 1421.58 1224 1423.28 1228.8 1426.46C1233.58 1429.71 1237.73 1434.23 1241.24 1440.04C1244.67 1445.71 1246.83 1451.42 1247.72 1457.16C1248.64 1462.94 1247.95 1468.2 1245.65 1472.95C1243.36 1477.69 1239.88 1481.48 1235.21 1484.3C1231.79 1486.37 1228.3 1487.48 1224.74 1487.64C1221.2 1487.83 1217.89 1487.27 1214.82 1485.97L1231.83 1514.1L1222.25 1519.89L1174.85 1441.48L1183.78 1436.08ZM1231.35 1446.03C1226.95 1438.75 1222.13 1434.24 1216.89 1432.5C1211.64 1430.75 1206.93 1431.14 1202.76 1433.66C1198.56 1436.2 1196.02 1440.07 1195.17 1445.26C1194.3 1450.51 1196 1456.66 1200.27 1463.72C1204.97 1471.49 1209.92 1476.29 1215.11 1478.12C1220.31 1479.95 1225.1 1479.53 1229.48 1476.88C1233.76 1474.29 1236.29 1470.38 1237.06 1465.14C1237.8 1459.92 1235.9 1453.55 1231.35 1446.03Z" fill="#2690FF"/>
<path d="M1153.7 1423.45L1159.51 1432.36C1157.01 1432.86 1154.94 1433.51 1153.3 1434.32C1151.06 1435.43 1149.45 1436.69 1148.47 1438.11C1147.5 1439.52 1146.92 1441.11 1146.72 1442.88C1146.59 1444.2 1146.8 1447.21 1147.36 1451.91C1147.45 1452.56 1147.56 1453.53 1147.68 1454.82L1199.77 1503.23L1188.91 1508.61L1159.47 1480.3C1155.7 1476.72 1151.99 1472.84 1148.33 1468.66C1149.47 1473.86 1150.32 1479.06 1150.9 1484.26L1155.36 1525.23L1145.28 1530.22L1137.94 1458.53C1137.13 1450.79 1136.79 1445.36 1136.91 1442.23C1137.06 1438.02 1137.91 1434.57 1139.47 1431.89C1141.01 1429.18 1143.38 1427.03 1146.59 1425.44C1148.53 1424.48 1150.9 1423.81 1153.7 1423.45Z" fill="#2690FF"/>
<path d="M1069.19 1488.66L1109.16 1545.4L1098.12 1549.03L1067.97 1503.59C1068.03 1504.32 1068.36 1509.01 1068.96 1517.67L1071.03 1557.9L1060.05 1561.5L1038.61 1528.01L1031.51 1516.99L1031.88 1530.35L1033.02 1570.36L1022.63 1573.77L1021.68 1504.23L1032.78 1500.59L1055.2 1535.07L1061.16 1545.02L1058.02 1492.32L1069.19 1488.66Z" fill="#2690FF"/>
<path d="M968.844 103.64L962.013 34.5636L973.41 36.8549L977.265 91.2443C977.568 90.5827 979.591 86.3355 983.333 78.5028L1001.35 42.4724L1012.69 44.7514L1014.84 84.4548L1015.59 97.5463L1021.85 85.7366L1040.57 50.3565L1051.29 52.5123L1017.86 113.495L1006.41 111.192L1003.88 70.1396L1003.6 58.5439L980.364 105.956L968.844 103.64Z" fill="#2690FF"/>
<path d="M1012.94 1540.82C1015.57 1552.83 1014.19 1562.45 1008.78 1569.7C1004.26 1575.72 997.993 1579.62 989.975 1581.38C981.062 1583.33 973.134 1582 966.191 1577.38C959.256 1572.8 954.659 1565.37 952.399 1555.07C950.567 1546.73 950.386 1539.88 951.855 1534.52C953.292 1529.22 956.122 1524.71 960.344 1521.01C964.524 1517.32 969.443 1514.86 975.1 1513.61C984.176 1511.62 992.161 1512.92 999.054 1517.51C1005.91 1522.1 1010.54 1529.87 1012.94 1540.82ZM1001.65 1543.3C999.823 1535 996.645 1529.17 992.112 1525.81C987.587 1522.5 982.578 1521.44 977.084 1522.65C971.63 1523.85 967.548 1526.92 964.837 1531.86C962.126 1536.81 961.705 1543.54 963.572 1552.04C965.332 1560.06 968.494 1565.72 973.059 1569.03C977.593 1572.38 982.566 1573.47 987.979 1572.28C993.473 1571.07 997.58 1568.02 1000.3 1563.11C1003.02 1558.21 1003.47 1551.6 1001.65 1543.3Z" fill="#2690FF"/>
<path d="M1043.49 85.955C1047.11 74.2087 1053.06 66.5151 1061.33 62.874C1068.23 59.8571 1075.61 59.5577 1083.45 61.9758C1092.17 64.6639 1098.42 69.7279 1102.18 77.1678C1105.96 84.5679 1106.3 93.3048 1103.19 103.379C1100.68 111.541 1097.46 117.591 1093.54 121.529C1089.68 125.439 1085 127.964 1079.5 129.103C1074.04 130.255 1068.55 129.978 1063.01 128.272C1054.14 125.535 1047.83 120.473 1044.09 113.085C1040.39 105.709 1040.19 96.6659 1043.49 85.955ZM1054.54 89.3611C1052.03 97.4839 1051.93 104.122 1054.22 109.276C1056.52 114.39 1060.36 117.776 1065.74 119.433C1071.08 121.077 1076.14 120.415 1080.94 117.446C1085.73 114.477 1089.41 108.832 1091.98 100.51C1094.4 92.666 1094.43 86.1808 1092.09 81.0545C1089.8 75.9007 1086 72.5075 1080.71 70.875C1075.33 69.218 1070.25 69.854 1065.47 72.7832C1060.69 75.7123 1057.04 81.2383 1054.54 89.3611Z" fill="#2690FF"/>
<path d="M937.897 1522.15L947.436 1587.84L937.416 1589.29L935.97 1579.34C934.09 1584.37 932.186 1587.78 930.257 1589.58C928.287 1591.38 926.004 1592.47 923.406 1592.84C919.654 1593.39 915.666 1592.75 911.442 1590.92L913.777 1580.03C916.732 1581.25 919.57 1581.65 922.292 1581.26C924.725 1580.91 926.802 1579.85 928.525 1578.08C930.253 1576.36 931.341 1574.13 931.788 1571.42C932.45 1567.28 932.44 1562.86 931.758 1558.16L926.763 1523.77L937.897 1522.15Z" fill="#2690FF"/>
<path d="M1099.6 139.17L1123.66 77.3083L1133.1 80.9781L1129.45 90.3563C1133.56 86.9045 1136.9 84.8722 1139.46 84.2595C1142.07 83.6619 1144.59 83.8389 1147.04 84.7903C1150.57 86.1646 1153.72 88.6877 1156.5 92.3596L1149.1 100.683C1147.13 98.1717 1144.86 96.4177 1142.3 95.4209C1140.01 94.5299 1137.68 94.4285 1135.31 95.1167C1132.96 95.7661 1130.91 97.163 1129.19 99.3075C1126.57 102.582 1124.4 106.433 1122.68 110.86L1110.09 143.248L1099.6 139.17Z" fill="#2690FF"/>
<path d="M898.024 1527.59L905.068 1618.95L893.851 1619.81L889.834 1567.72L865.364 1596.68L850.844 1597.8L874.251 1571.3L843.187 1531.82L857.021 1530.75L881.502 1562.9L888.83 1554.69L886.808 1528.46L898.024 1527.59Z" fill="#2690FF"/>
<path d="M1136.98 154.079L1175.85 71.1093L1186.04 75.8825L1163.87 123.196L1199.44 110.044L1212.63 116.222L1179.2 127.755L1186.78 177.414L1174.22 171.527L1168.75 131.488L1158.33 135.025L1147.17 158.852L1136.98 154.079Z" fill="#2690FF"/>
<path d="M787.971 1541.63C791.741 1537.56 795.829 1534.52 800.235 1532.5C804.64 1530.53 809.384 1529.58 814.467 1529.65C823.841 1529.79 831.23 1533.07 836.634 1539.49C841.014 1544.72 843.156 1550.53 843.06 1556.9C842.975 1562.57 841.086 1567.64 837.393 1572.13C833.658 1576.66 828.139 1580.59 820.838 1583.94C824.891 1588.75 827.583 1592.65 828.913 1595.63C830.243 1598.61 830.888 1601.47 830.847 1604.22C830.764 1609.72 828.546 1614.46 824.194 1618.44C819.8 1622.45 814.332 1624.41 807.792 1624.31C801.542 1624.22 796.468 1622.23 792.567 1618.33C788.625 1614.44 786.695 1609.81 786.776 1604.43C786.907 1595.73 792.789 1588.38 804.422 1582.38L788.302 1561.2C786.372 1564.84 784.85 1569.07 783.735 1573.88L772.087 1571.21C774.207 1563.24 777.014 1556.7 780.508 1551.58C776.384 1545.94 771.684 1541.18 766.409 1537.31L774.105 1528.48C778.602 1531.47 783.224 1535.85 787.971 1541.63ZM810.125 1589.72C805.207 1592.52 802.024 1594.99 800.575 1597.14C799.084 1599.28 798.319 1601.67 798.279 1604.29C798.232 1607.42 799.194 1609.97 801.164 1611.96C803.092 1613.99 805.535 1615.03 808.493 1615.07C811.534 1615.12 814.091 1614.18 816.161 1612.25C818.191 1610.32 819.227 1607.94 819.269 1605.11C819.291 1603.69 818.959 1602.19 818.275 1600.59C817.548 1599.04 816.469 1597.38 815.037 1595.61L810.125 1589.72ZM794.899 1550.61L815.137 1576.48C821.274 1572.95 825.429 1569.64 827.601 1566.54C829.772 1563.49 830.88 1560.45 830.926 1557.4C830.982 1553.7 829.561 1549.82 826.663 1545.78C823.765 1541.73 819.608 1539.67 814.192 1539.59C810.818 1539.54 807.323 1540.53 803.709 1542.56C800.052 1544.63 797.116 1547.31 794.899 1550.61Z" fill="#2690FF"/>
<path d="M1239.67 196.078C1234.38 197.761 1229.32 198.395 1224.5 197.98C1219.69 197.529 1215.09 196.019 1210.71 193.448C1202.62 188.707 1197.8 182.215 1196.26 173.969C1195.03 167.258 1196.02 161.152 1199.25 155.652C1202.11 150.763 1206.26 147.276 1211.68 145.191C1217.16 143.091 1223.91 142.382 1231.91 143.065C1230.75 136.881 1230.33 132.165 1230.64 128.918C1230.95 125.67 1231.8 122.86 1233.19 120.488C1235.97 115.743 1240.23 112.712 1245.98 111.395C1251.78 110.064 1257.51 111.052 1263.15 114.36C1268.54 117.52 1271.98 121.755 1273.45 127.064C1274.97 132.394 1274.36 137.377 1271.64 142.014C1267.24 149.527 1258.5 153.025 1245.43 152.509L1249.02 178.884C1252.49 176.669 1255.9 173.74 1259.24 170.097L1268.06 178.164C1262.29 184.054 1256.62 188.364 1251.06 191.094C1251.87 198.039 1253.62 204.496 1256.3 210.464L1245.26 214.35C1242.81 209.537 1240.95 203.446 1239.67 196.078ZM1244.08 143.315C1249.74 143.3 1253.73 142.716 1256.04 141.563C1258.4 140.431 1260.24 138.733 1261.57 136.468C1263.15 133.772 1263.57 131.074 1262.83 128.373C1262.15 125.657 1260.54 123.552 1257.99 122.056C1255.36 120.518 1252.68 120.077 1249.92 120.734C1247.21 121.412 1245.13 122.974 1243.7 125.418C1242.98 126.64 1242.53 128.113 1242.34 129.837C1242.21 131.547 1242.33 133.525 1242.7 135.772L1244.08 143.315ZM1238.06 184.85L1233.19 152.367C1226.11 152.418 1220.87 153.254 1217.45 154.876C1214.06 156.461 1211.59 158.566 1210.06 161.19C1208.18 164.389 1207.51 168.462 1208.04 173.409C1208.57 178.356 1211.17 182.199 1215.84 184.938C1218.75 186.645 1222.28 187.505 1226.43 187.52C1230.63 187.52 1234.51 186.63 1238.06 184.85Z" fill="#2690FF"/>
<path d="M765.985 1549.33L754.737 1549.88C754.592 1545.38 753.238 1541.8 750.674 1539.14C748.07 1536.47 744.219 1534.86 739.124 1534.31C733.987 1533.76 730.064 1534.39 727.356 1536.19C724.643 1538.04 723.135 1540.37 722.832 1543.18C722.561 1545.71 723.445 1547.82 725.485 1549.5C726.911 1550.66 730.587 1552.34 736.512 1554.52C744.492 1557.48 749.997 1559.87 753.027 1561.7C756.01 1563.58 758.188 1565.93 759.561 1568.76C760.887 1571.62 761.377 1574.67 761.029 1577.9C760.713 1580.84 759.759 1583.49 758.166 1585.83C756.527 1588.21 754.459 1590.1 751.961 1591.51C750.083 1592.61 747.606 1593.43 744.529 1593.98C741.407 1594.57 738.127 1594.68 734.688 1594.31C729.51 1593.75 725.054 1592.52 721.32 1590.61C717.544 1588.69 714.862 1586.35 713.274 1583.58C711.681 1580.85 710.762 1577.32 710.516 1572.98L721.614 1572.66C721.746 1576.11 722.911 1578.92 725.109 1581.08C727.266 1583.24 730.519 1584.56 734.869 1585.02C740.006 1585.57 743.764 1585.12 746.142 1583.66C748.52 1582.19 749.831 1580.32 750.076 1578.05C750.232 1576.6 749.917 1575.24 749.13 1573.98C748.348 1572.68 747.025 1571.54 745.163 1570.54C744.089 1570.01 740.897 1568.7 735.589 1566.62C727.903 1563.66 722.58 1561.32 719.62 1559.62C716.614 1557.96 714.358 1555.75 712.853 1552.99C711.348 1550.23 710.8 1546.94 711.209 1543.13C711.61 1539.4 713.086 1536 715.638 1532.92C718.144 1529.88 721.546 1527.67 725.843 1526.28C730.136 1524.94 734.871 1524.55 740.05 1525.11C748.625 1526.03 754.98 1528.51 759.112 1532.56C763.204 1536.61 765.495 1542.2 765.985 1549.33Z" fill="#2690FF"/>
<path d="M1262.59 200.208L1272.65 205.269C1270.56 209.256 1269.98 213.041 1270.89 216.622C1271.85 220.227 1274.4 223.523 1278.57 226.51C1282.77 229.521 1286.49 230.909 1289.74 230.673C1293.01 230.403 1295.47 229.117 1297.12 226.815C1298.6 224.749 1298.87 222.48 1297.92 220.008C1297.25 218.297 1294.88 215.031 1290.8 210.208C1285.31 203.707 1281.7 198.912 1279.96 195.824C1278.29 192.725 1277.55 189.607 1277.75 186.469C1278.01 183.321 1279.09 180.426 1280.98 177.785C1282.7 175.381 1284.84 173.552 1287.38 172.298C1289.98 171.033 1292.71 170.404 1295.58 170.41C1297.75 170.38 1300.31 170.884 1303.26 171.921C1306.27 172.949 1309.17 174.47 1311.98 176.486C1316.22 179.521 1319.49 182.79 1321.8 186.291C1324.14 189.817 1325.32 193.176 1325.34 196.368C1325.38 199.526 1324.44 203.055 1322.51 206.956L1312.7 201.764C1314.28 198.696 1314.65 195.679 1313.81 192.713C1312.99 189.772 1310.81 187.026 1307.25 184.476C1303.05 181.465 1299.56 180.01 1296.77 180.111C1293.98 180.213 1291.92 181.194 1290.58 183.057C1289.73 184.242 1289.34 185.575 1289.4 187.058C1289.45 188.574 1290.03 190.224 1291.16 192.009C1291.83 193.003 1293.97 195.712 1297.56 200.137C1302.79 206.501 1306.27 211.153 1308.01 214.092C1309.81 217.021 1310.68 220.057 1310.63 223.2C1310.58 226.344 1309.44 229.473 1307.2 232.588C1305.02 235.635 1302.06 237.87 1298.32 239.292C1294.64 240.704 1290.59 240.953 1286.17 240.039C1281.78 239.091 1277.46 237.099 1273.23 234.063C1266.22 229.037 1261.91 223.744 1260.31 218.185C1258.74 212.651 1259.5 206.658 1262.59 200.208Z" fill="#2690FF"/>
<path d="M679.67 1527.66L679.752 1517.59C682.986 1517.47 685.835 1517.62 688.299 1518.05C692.323 1518.74 695.335 1519.91 697.333 1521.56C699.332 1523.22 700.606 1525.15 701.156 1527.36C701.7 1529.61 701.399 1534.06 700.255 1540.71L693.784 1578.35L701.914 1579.75L700.431 1588.37L692.301 1586.97L689.515 1603.17L677.346 1607.93L681.275 1585.07L670.126 1583.16L671.609 1574.53L682.758 1576.45L689.336 1538.2C689.879 1535.04 690.044 1532.97 689.83 1532.01C689.575 1531.03 689.062 1530.2 688.291 1529.52C687.48 1528.83 686.252 1528.35 684.61 1528.07C683.378 1527.85 681.731 1527.72 679.67 1527.66Z" fill="#2690FF"/>
<path d="M1327.03 261.589L1322 270.311C1319.13 268.823 1316.72 267.287 1314.79 265.705C1311.63 263.12 1309.58 260.616 1308.66 258.192C1307.73 255.767 1307.58 253.459 1308.19 251.266C1308.82 249.04 1311.28 245.315 1315.55 240.089L1339.72 210.526L1333.33 205.304L1338.87 198.53L1345.26 203.752L1355.66 191.027L1368.6 192.883L1353.92 210.834L1362.68 217.995L1357.14 224.768L1348.38 217.608L1323.81 247.655C1321.78 250.139 1320.62 251.854 1320.33 252.801C1320.07 253.774 1320.11 254.748 1320.45 255.721C1320.81 256.72 1321.64 257.748 1322.93 258.803C1323.9 259.594 1325.27 260.523 1327.03 261.589Z" fill="#2690FF"/>
<path d="M629.895 1505.77L627.595 1515.25C634.385 1509.18 642.092 1507.19 650.717 1509.28C654.523 1510.21 657.909 1511.8 660.876 1514.06C663.802 1516.32 665.809 1518.74 666.898 1521.32C667.936 1523.93 668.391 1526.91 668.263 1530.26C668.187 1532.52 667.584 1535.97 666.454 1540.63L656.753 1580.59L645.82 1577.94L654.504 1542.17C655.89 1536.46 656.601 1532.56 656.637 1530.47C656.647 1527.42 655.739 1524.8 653.915 1522.6C652.082 1520.44 649.525 1518.96 646.245 1518.17C642.965 1517.37 639.687 1517.45 636.409 1518.42C633.121 1519.42 630.541 1521.21 628.669 1523.8C626.747 1526.43 625.117 1530.49 623.78 1536L615.391 1570.55L604.459 1567.9L620.116 1503.4L629.895 1505.77Z" fill="#2690FF"/>
<path d="M1359.56 305.157L1366.23 298.045C1357.33 299.982 1349.65 297.915 1343.17 291.844C1340.32 289.165 1338.16 286.11 1336.69 282.679C1335.25 279.276 1334.7 276.184 1335.02 273.403C1335.4 270.619 1336.48 267.799 1338.24 264.942C1339.42 263.018 1341.64 260.308 1344.92 256.812L1373.05 226.813L1381.26 234.508L1356.08 261.362C1352.06 265.647 1349.52 268.692 1348.46 270.495C1346.95 273.137 1346.45 275.865 1346.95 278.679C1347.48 281.462 1348.98 284.008 1351.44 286.317C1353.9 288.625 1356.8 290.168 1360.12 290.946C1363.48 291.693 1366.61 291.4 1369.51 290.069C1372.48 288.735 1375.9 286.002 1379.77 281.868L1404.1 255.927L1412.31 263.622L1366.9 312.04L1359.56 305.157Z" fill="#2690FF"/>
<path d="M568.62 1486.12L565.932 1494.06C572.031 1489.17 578.947 1488.04 586.682 1490.66C591.694 1492.36 595.843 1495.3 599.129 1499.5C602.377 1503.68 604.329 1508.63 604.985 1514.35C605.59 1520.1 604.802 1526.19 602.622 1532.62C600.496 1538.89 597.525 1544.22 593.709 1548.61C589.879 1553.03 585.411 1555.89 580.305 1557.2C575.2 1558.5 570.062 1558.28 564.893 1556.53C561.104 1555.24 558.004 1553.29 555.593 1550.67C553.168 1548.09 551.462 1545.2 550.477 1542.01L539.927 1573.14L529.331 1569.55L558.734 1482.77L568.62 1486.12ZM591.671 1528.91C594.399 1520.86 594.741 1514.27 592.698 1509.13C590.655 1503.99 587.324 1500.64 582.707 1499.08C578.051 1497.5 573.463 1498.06 568.943 1500.75C564.371 1503.47 560.761 1508.74 558.113 1516.55C555.198 1525.15 554.716 1532.03 556.667 1537.18C558.618 1542.32 562.021 1545.72 566.875 1547.37C571.61 1548.97 576.231 1548.38 580.738 1545.6C585.206 1542.8 588.85 1537.24 591.671 1528.91Z" fill="#2690FF"/>
<path d="M1403.21 352.442L1409.46 346.863C1401.74 348.11 1395.17 345.687 1389.73 339.596C1386.2 335.65 1384.04 331.042 1383.25 325.774C1382.48 320.537 1383.22 315.267 1385.47 309.964C1387.78 304.665 1391.46 299.753 1396.53 295.229C1401.47 290.816 1406.68 287.643 1412.16 285.709C1417.67 283.748 1422.97 283.457 1428.05 284.836C1433.14 286.215 1437.5 288.94 1441.14 293.011C1443.8 295.995 1445.54 299.221 1446.35 302.69C1447.18 306.131 1447.25 309.483 1446.53 312.748L1471.05 290.849L1478.5 299.194L1410.16 360.227L1403.21 352.442ZM1404.23 303.853C1397.89 309.515 1394.34 315.084 1393.59 320.559C1392.84 326.035 1394.09 330.591 1397.33 334.227C1400.61 337.894 1404.88 339.67 1410.14 339.554C1415.45 339.441 1421.19 336.637 1427.34 331.141C1434.12 325.09 1437.92 319.344 1438.76 313.903C1439.6 308.462 1438.31 303.83 1434.9 300.007C1431.57 296.278 1427.26 294.515 1421.96 294.717C1416.7 294.951 1410.79 297.996 1404.23 303.853Z" fill="#2690FF"/>
<path d="M558.894 1454.99L555.824 1465.17C553.836 1463.58 552.002 1462.41 550.321 1461.68C548.028 1460.69 546.028 1460.27 544.32 1460.43C542.612 1460.6 541.02 1461.18 539.542 1462.17C538.444 1462.92 536.279 1465.02 533.047 1468.48C532.607 1468.97 531.935 1469.67 531.033 1470.6L527.58 1541.63L516.463 1536.79L519.143 1496.03C519.446 1490.84 520.021 1485.51 520.868 1480.01C517.621 1484.23 514.195 1488.24 510.59 1492.03L482.138 1521.84L471.823 1517.35L521.919 1465.54C527.313 1459.94 531.247 1456.17 533.72 1454.25C537.034 1451.65 540.216 1450.08 543.267 1449.55C546.334 1448.97 549.51 1449.4 552.796 1450.83C554.782 1451.7 556.815 1453.08 558.894 1454.99Z" fill="#2690FF"/>
<path d="M1396.33 384.33L1404.02 376.981C1404.97 379.346 1405.99 381.261 1407.09 382.726C1408.6 384.724 1410.13 386.071 1411.7 386.769C1413.27 387.466 1414.94 387.747 1416.71 387.611C1418.04 387.501 1420.96 386.738 1425.47 385.322C1426.1 385.113 1427.03 384.828 1428.27 384.468L1466.27 324.359L1473.56 334.048L1451.15 368.195C1448.33 372.558 1445.2 376.921 1441.75 381.285C1446.66 379.21 1451.61 377.411 1456.62 375.887L1496.06 363.963L1502.83 372.953L1433.71 393.36C1426.26 395.58 1420.98 396.917 1417.88 397.372C1413.71 398.003 1410.17 397.8 1407.25 396.763C1404.3 395.751 1401.75 393.813 1399.59 390.95C1398.29 389.219 1397.2 387.012 1396.33 384.33Z" fill="#2690FF"/>
<path d="M454.571 1432.38L436.939 1499.52L427.051 1493.41L442.363 1441.08C441.848 1441.59 438.474 1444.87 432.24 1450.91L402.811 1478.42L392.977 1472.34L404.773 1434.37L408.628 1421.83L398.647 1430.72L368.79 1457.38L359.487 1451.63L412.044 1406.09L421.985 1412.23L410.063 1451.6L406.293 1462.57L444.577 1426.2L454.571 1432.38Z" fill="#2690FF"/>
<path d="M378.434 1422.99C370.952 1432.74 362.699 1437.88 353.676 1438.42C346.155 1438.85 339.138 1436.56 332.625 1431.56C325.385 1426.01 321.294 1419.09 320.351 1410.8C319.383 1402.55 322.107 1394.24 328.524 1385.88C333.723 1379.1 338.844 1374.55 343.886 1372.22C348.87 1369.9 354.137 1369.16 359.687 1370.01C365.203 1370.82 370.259 1373 374.854 1376.52C382.226 1382.18 386.379 1389.12 387.315 1397.35C388.217 1405.55 385.256 1414.1 378.434 1422.99ZM369.26 1415.95C374.434 1409.21 376.844 1403.02 376.488 1397.39C376.108 1391.79 373.686 1387.28 369.223 1383.86C364.794 1380.46 359.814 1379.32 354.285 1380.43C348.756 1381.55 343.341 1385.56 338.04 1392.47C333.043 1398.98 330.752 1405.05 331.166 1410.67C331.521 1416.3 333.897 1420.8 338.294 1424.18C342.756 1427.6 347.74 1428.77 353.244 1427.69C358.747 1426.61 364.086 1422.69 369.26 1415.95Z" fill="#2690FF"/>
<path d="M344.349 1353.58L300.269 1403.2L292.699 1396.48L299.381 1388.95C294.323 1390.76 290.486 1391.5 287.87 1391.18C285.223 1390.84 282.918 1389.79 280.955 1388.05C278.121 1385.53 276.042 1382.07 274.718 1377.66L284.547 1372.43C285.524 1375.47 287.04 1377.91 289.096 1379.73C290.934 1381.37 293.083 1382.27 295.544 1382.45C297.976 1382.66 300.376 1382.06 302.742 1380.65C306.333 1378.49 309.706 1375.64 312.86 1372.09L335.938 1346.11L344.349 1353.58Z" fill="#2690FF"/>
<path d="M314.496 1326.59L249.18 1390.85L241.291 1382.83L278.538 1346.19L240.618 1346.14L230.405 1335.76L265.755 1336.58L275.924 1287.39L285.655 1297.28L276.847 1336.72L287.849 1337.03L306.607 1318.57L314.496 1326.59Z" fill="#2690FF"/>
<path d="M232.838 1251.49C238.379 1251.75 243.34 1252.91 247.722 1254.98C252.072 1257.08 255.855 1260.09 259.072 1264.03C265.005 1271.29 267.26 1279.05 265.837 1287.32C264.658 1294.04 261.6 1299.42 256.664 1303.45C252.277 1307.04 247.178 1308.86 241.367 1308.93C235.498 1308.99 228.93 1307.31 221.665 1303.89C220.597 1310.09 219.353 1314.65 217.933 1317.59C216.513 1320.53 214.738 1322.87 212.609 1324.61C208.35 1328.09 203.298 1329.45 197.453 1328.68C191.549 1327.91 186.527 1324.99 182.387 1319.93C178.432 1315.09 176.686 1309.92 177.149 1304.43C177.585 1298.91 179.884 1294.45 184.046 1291.04C190.789 1285.53 200.2 1285.29 212.278 1290.33L218.087 1264.35C214.062 1265.22 209.848 1266.78 205.447 1269.03L199.986 1258.4C207.446 1254.89 214.257 1252.82 220.42 1252.19C222.079 1245.4 222.69 1238.74 222.25 1232.21L233.956 1232.41C234.572 1237.77 234.199 1244.13 232.838 1251.49ZM210.343 1299.42C205.032 1297.46 201.089 1296.62 198.515 1296.9C195.915 1297.14 193.598 1298.09 191.566 1299.75C189.146 1301.73 187.811 1304.11 187.561 1306.9C187.251 1309.68 188.033 1312.22 189.905 1314.51C191.83 1316.86 194.197 1318.21 197.005 1318.55C199.787 1318.86 202.275 1318.12 204.469 1316.33C205.566 1315.43 206.503 1314.21 207.28 1312.66C207.999 1311.1 208.575 1309.2 209.007 1306.97L210.343 1299.42ZM230.436 1262.57L223.696 1294.72C230.353 1297.13 235.564 1298.18 239.328 1297.84C243.06 1297.54 246.104 1296.42 248.459 1294.5C251.33 1292.15 253.378 1288.57 254.603 1283.74C255.828 1278.92 254.726 1274.41 251.298 1270.22C249.163 1267.61 246.154 1265.57 242.273 1264.12C238.334 1262.66 234.388 1262.14 230.436 1262.57Z" fill="#2690FF"/>
<path d="M212.784 1239.64L205.114 1231.39C208.461 1228.38 210.327 1225.04 210.712 1221.36C211.074 1217.65 209.823 1213.67 206.957 1209.42C204.069 1205.13 201.062 1202.54 197.937 1201.63C194.778 1200.75 192.023 1201.09 189.674 1202.68C187.567 1204.1 186.526 1206.13 186.551 1208.78C186.584 1210.62 187.673 1214.51 189.819 1220.45C192.704 1228.45 194.421 1234.2 194.971 1237.7C195.463 1241.19 195.07 1244.37 193.79 1247.24C192.453 1250.1 190.437 1252.44 187.743 1254.26C185.29 1255.91 182.654 1256.89 179.836 1257.18C176.96 1257.46 174.179 1257.1 171.492 1256.1C169.443 1255.37 167.217 1254 164.814 1252C162.354 1250 160.157 1247.56 158.224 1244.69C155.312 1240.37 153.383 1236.17 152.437 1232.08C151.468 1227.96 151.53 1224.4 152.624 1221.4C153.683 1218.43 155.794 1215.45 158.956 1212.46L166.35 1220.74C163.796 1223.07 162.401 1225.77 162.162 1228.84C161.901 1231.88 162.993 1235.22 165.439 1238.84C168.327 1243.13 171.097 1245.71 173.748 1246.58C176.399 1247.46 178.675 1247.26 180.575 1245.98C181.784 1245.16 182.616 1244.05 183.071 1242.64C183.56 1241.2 183.586 1239.45 183.147 1237.38C182.864 1236.22 181.807 1232.93 179.976 1227.54C177.288 1219.75 175.641 1214.18 175.034 1210.82C174.37 1207.45 174.607 1204.29 175.748 1201.37C176.888 1198.44 179.047 1195.9 182.226 1193.76C185.335 1191.66 188.889 1190.6 192.887 1190.56C196.828 1190.52 200.711 1191.69 204.537 1194.09C208.329 1196.51 211.68 1199.88 214.592 1204.2C219.414 1211.35 221.609 1217.81 221.177 1223.58C220.721 1229.31 217.924 1234.66 212.784 1239.64Z" fill="#2690FF"/>
<path d="M173.729 1159.67L181.482 1153.24C183.658 1155.64 185.378 1157.92 186.642 1160.07C188.706 1163.6 189.75 1166.65 189.773 1169.25C189.796 1171.84 189.14 1174.06 187.806 1175.91C186.436 1177.77 182.839 1180.41 177.015 1183.82L144.066 1203.13L148.237 1210.24L140.687 1214.67L136.516 1207.55L122.334 1215.86L110.854 1209.62L130.861 1197.9L125.142 1188.14L132.692 1183.71L138.411 1193.47L171.899 1173.85C174.667 1172.23 176.351 1171.03 176.953 1170.24C177.533 1169.42 177.836 1168.49 177.861 1167.46C177.865 1166.4 177.445 1165.15 176.603 1163.71C175.971 1162.63 175.013 1161.28 173.729 1159.67Z" fill="#2690FF"/>
<path d="M158.389 1107.5L149.661 1111.85C158.678 1113.13 165.165 1117.74 169.122 1125.69C170.869 1129.19 171.832 1132.81 172.013 1136.54C172.175 1140.23 171.62 1143.32 170.35 1145.81C169.023 1148.29 167.035 1150.56 164.386 1152.63C162.613 1154.02 159.583 1155.79 155.294 1157.92L118.483 1176.26L113.467 1166.19L146.418 1149.78C151.676 1147.16 155.117 1145.19 156.74 1143.87C159.073 1141.91 160.492 1139.53 161 1136.72C161.47 1133.92 160.953 1131.01 159.448 1127.99C157.943 1124.97 155.766 1122.52 152.918 1120.63C150.033 1118.76 146.997 1117.95 143.81 1118.19C140.567 1118.41 136.41 1119.78 131.338 1122.3L99.5057 1138.16L94.4897 1128.09L153.902 1098.5L158.389 1107.5Z" fill="#2690FF"/>
<path d="M133.925 1047.99L126.128 1051.04C133.793 1052.56 139.116 1057.12 142.096 1064.72C144.028 1069.65 144.449 1074.72 143.361 1079.93C142.257 1085.11 139.729 1089.79 135.777 1093.98C131.772 1098.15 126.607 1101.47 120.284 1103.95C114.116 1106.37 108.127 1107.53 102.317 1107.44C96.4675 1107.36 91.3987 1105.79 87.1101 1102.72C82.8215 1099.66 79.6812 1095.59 77.6891 1090.51C76.2292 1086.78 75.7243 1083.15 76.1743 1079.62C76.5855 1076.1 77.6945 1072.94 79.5013 1070.13L48.8939 1082.12L44.8109 1071.71L130.116 1038.27L133.925 1047.99ZM116.064 1093.19C123.978 1090.08 129.24 1086.1 131.85 1081.22C134.46 1076.35 134.876 1071.65 133.097 1067.11C131.302 1062.53 127.919 1059.38 122.948 1057.66C117.923 1055.92 111.57 1056.55 103.889 1059.56C95.4326 1062.87 89.8645 1066.94 87.185 1071.75C84.5055 1076.56 84.101 1081.35 85.9714 1086.12C87.7963 1090.77 91.2254 1093.93 96.2588 1095.58C101.277 1097.19 107.879 1096.39 116.064 1093.19Z" fill="#2690FF"/>
<path d="M151.468 1020.48L141.702 1024.7C141.639 1022.15 141.346 1020 140.822 1018.24C140.108 1015.85 139.138 1014.05 137.911 1012.85C136.684 1011.65 135.214 1010.81 133.503 1010.32C132.223 1009.96 129.22 1009.66 124.495 1009.41C123.837 1009.39 122.863 1009.34 121.574 1009.24L65.0381 1052.37L61.575 1040.75L94.4664 1016.54C98.6266 1013.43 103.08 1010.43 107.826 1007.53C102.506 1007.77 97.2341 1007.73 92.0105 1007.42L50.8824 1004.87L47.6693 994.094L119.569 999.013C127.331 999.526 132.743 1000.11 135.807 1000.76C139.932 1001.62 143.182 1003.04 145.557 1005.03C147.972 1007 149.692 1009.71 150.715 1013.14C151.334 1015.22 151.585 1017.67 151.468 1020.48Z" fill="#2690FF"/>
<path d="M101.522 926.146L38.8223 955.929L37.1256 944.429L87.0089 922.412C86.2838 922.351 81.6029 921.883 72.9663 921.009L32.9659 916.234L31.2783 904.795L67.9156 889.345L79.9838 884.216L66.7521 882.314L27.1278 876.662L25.5314 865.842L94.2242 876.682L95.93 888.244L58.1473 904.495L47.3299 908.681L99.8069 914.522L101.522 926.146Z" fill="#2690FF"/>
<path d="M59.6415 861.873C47.3627 862.436 38.1115 859.44 31.8878 852.885C26.7147 847.409 23.94 840.57 23.5637 832.37C23.1454 823.255 25.8004 815.667 31.5286 809.606C37.2151 803.548 45.3237 800.277 55.8543 799.794C64.387 799.402 71.1683 800.384 76.1982 802.739C81.1846 805.055 85.1432 808.606 88.0741 813.393C91.0031 818.139 92.6003 823.405 92.8658 829.19C93.2917 838.472 90.6604 846.122 84.9719 852.139C79.2815 858.114 70.838 861.359 59.6415 861.873ZM59.1115 850.322C67.6025 849.933 73.8858 847.788 77.9614 843.889C81.9953 839.992 83.8833 835.233 83.6255 829.614C83.3695 824.037 81.0338 819.493 76.6183 815.984C72.2028 812.474 65.6454 810.919 56.9462 811.318C48.7465 811.694 42.6307 813.852 38.5987 817.791C34.5231 821.69 32.6124 826.408 32.8664 831.944C33.1242 837.563 35.4401 842.128 39.814 845.64C44.1879 849.151 50.6204 850.712 59.1115 850.322Z" fill="#2690FF"/>
<path d="M90.7531 791.078L24.4006 789.351L24.664 779.229L34.723 779.491C30.0835 776.786 27.0422 774.331 25.599 772.126C24.157 769.88 23.4701 767.444 23.5384 764.82C23.637 761.03 24.9452 757.208 27.463 753.356L37.7961 757.501C36.1001 760.208 35.2164 762.936 35.1448 765.685C35.0809 768.143 35.7732 770.37 37.2217 772.366C38.6286 774.362 40.6333 775.81 43.2357 776.712C47.2019 778.065 51.5591 778.804 56.3075 778.928L91.0458 779.831L90.7531 791.078Z" fill="#2690FF"/>
<path d="M92.1465 750.862L0.919922 742.327L1.9679 731.126L53.9907 735.993L29.5883 706.969L30.9449 692.469L53.099 720.028L97.27 696.101L95.9775 709.916L60.144 728.596L66.9964 737.21L93.1945 739.661L92.1465 750.862Z" fill="#2690FF"/>
<path d="M96.9539 640.02C100.325 644.425 102.632 648.969 103.873 653.653C105.074 658.329 105.206 663.166 104.27 668.162C102.542 677.376 98.0598 684.103 90.8216 688.342C84.9221 691.773 78.8393 692.9 72.5735 691.726C67.0038 690.682 62.3209 687.96 58.5248 683.561C54.6954 679.112 51.749 673.007 49.6855 665.244C44.2568 668.423 39.962 670.416 36.801 671.222C33.64 672.029 30.708 672.179 28.0051 671.672C22.5992 670.659 18.3054 667.671 15.1235 662.708C11.9084 657.697 10.9034 651.976 12.1085 645.546C13.26 639.403 16.0842 634.74 20.5811 631.555C25.0857 628.33 29.9795 627.212 35.2625 628.203C43.8218 629.807 50.0689 636.849 54.0037 649.329L77.6111 637.03C74.3526 634.512 70.444 632.296 65.8853 630.381L70.4957 619.354C77.9903 622.794 83.962 626.669 88.4108 630.979C94.6738 627.871 100.16 624.046 104.869 619.502L112.261 628.582C108.557 632.508 103.455 636.321 96.9539 640.02ZM45.807 653.707C43.8793 648.385 41.9812 644.829 40.1126 643.037C38.2517 641.205 36.0312 640.047 33.4511 639.563C30.3796 638.988 27.6972 639.502 25.4039 641.107C23.0774 642.664 21.6416 644.896 21.0966 647.803C20.5362 650.793 21.0304 653.471 22.5791 655.839C24.1355 658.165 26.306 659.59 29.0909 660.112C30.4833 660.373 32.0229 660.301 33.7096 659.896C35.3631 659.443 37.1841 658.661 39.1728 657.55L45.807 653.707ZM86.9297 645.327L58.005 660.889C60.4473 667.536 63.0084 672.192 65.6884 674.856C68.3275 677.513 71.1419 679.121 74.1315 679.682C77.7763 680.365 81.837 679.621 86.3136 677.45C90.7901 675.28 93.5273 671.532 94.5252 666.208C95.147 662.891 94.7641 659.28 93.3766 655.374C91.9558 651.419 89.8068 648.07 86.9297 645.327Z" fill="#2690FF"/>
<path d="M93.092 617.048L94.4542 605.868C98.9133 606.488 102.673 605.76 105.733 603.685C108.804 601.57 111.041 598.048 112.444 593.119C113.858 588.149 113.906 584.177 112.586 581.202C111.227 578.216 109.185 576.335 106.46 575.56C104.015 574.864 101.789 575.378 99.782 577.103C98.3982 578.312 96.1265 581.651 92.9671 587.12C88.7049 594.485 85.4134 599.505 83.0924 602.18C80.7428 604.804 78.0575 606.552 75.0364 607.425C71.9867 608.246 68.8989 608.212 65.7731 607.323C62.9277 606.513 60.4853 605.125 58.4458 603.158C56.3776 601.14 54.8614 598.78 53.8971 596.08C53.1338 594.043 52.742 591.462 52.7216 588.337C52.6726 585.161 53.1215 581.91 54.0681 578.583C55.4939 573.574 57.4642 569.391 59.979 566.035C62.5053 562.638 65.2674 560.392 68.2653 559.296C71.2232 558.188 74.8629 557.881 79.1846 558.374L77.6161 569.365C74.1931 568.91 71.2291 569.583 68.7241 571.383C66.2305 573.142 64.3849 576.126 63.1872 580.334C61.7729 585.303 61.585 589.084 62.6236 591.675C63.6622 594.267 65.2835 595.877 67.4876 596.504C68.8903 596.903 70.2781 596.822 71.6511 596.259C73.0642 595.708 74.4196 594.6 75.7171 592.933C76.4258 591.965 78.2543 589.041 81.2026 584.162C85.4249 577.089 88.6251 572.238 90.803 569.609C92.9522 566.928 95.5144 565.08 98.4895 564.064C101.465 563.048 104.796 563.064 108.483 564.114C112.089 565.14 115.193 567.172 117.795 570.208C120.368 573.193 121.971 576.92 122.605 581.39C123.199 585.847 122.784 590.581 121.358 595.591C118.997 603.886 115.471 609.727 110.782 613.115C106.103 616.462 100.207 617.773 93.092 617.048Z" fill="#2690FF"/>
<path d="M129.073 535.651L138.983 537.439C138.553 540.646 137.921 543.428 137.086 545.785C135.722 549.633 134.056 552.403 132.087 554.092C130.118 555.781 127.999 556.71 125.729 556.878C123.42 557.033 119.084 555.983 112.722 553.728L76.7269 540.974L73.9715 548.75L65.724 545.828L68.4793 538.052L52.9857 532.562L50.3598 519.762L72.2158 527.507L75.994 516.844L84.2416 519.766L80.4634 530.429L117.047 543.392C120.071 544.464 122.078 544.976 123.067 544.928C124.07 544.842 124.973 544.476 125.776 543.833C126.593 543.15 127.28 542.022 127.836 540.451C128.254 539.273 128.666 537.673 129.073 535.651Z" fill="#2690FF"/>
<path d="M159.076 490.303L150.128 486.431C154.959 494.152 155.613 502.084 152.089 510.229C150.533 513.824 148.389 516.891 145.655 519.431C142.938 521.933 140.216 523.502 137.49 524.138C134.741 524.719 131.724 524.663 128.438 523.967C126.229 523.511 122.926 522.331 118.529 520.428L80.7854 504.097L85.253 493.772L119.038 508.391C124.43 510.724 128.154 512.086 130.21 512.476C133.206 513 135.943 512.55 138.421 511.126C140.861 509.684 142.751 507.415 144.091 504.317C145.431 501.22 145.905 497.974 145.512 494.581C145.081 491.171 143.748 488.324 141.512 486.04C139.255 483.702 135.527 481.407 130.326 479.157L97.6878 465.034L102.155 454.709L163.072 481.068L159.076 490.303Z" fill="#2690FF"/>
<path d="M188.821 433.243L181.459 429.25C185.24 436.088 185.183 443.096 181.29 450.275C178.768 454.927 175.162 458.517 170.472 461.046C165.803 463.538 160.593 464.623 154.843 464.301C149.075 463.923 143.207 462.114 137.237 458.877C131.413 455.718 126.665 451.888 122.993 447.384C119.284 442.86 117.219 437.972 116.797 432.719C116.375 427.466 117.465 422.44 120.067 417.642C121.974 414.126 124.424 411.402 127.415 409.469C130.37 407.516 133.504 406.325 136.819 405.895L107.92 390.222L113.253 380.388L193.797 424.068L188.821 433.243ZM142.749 448.713C150.221 452.765 156.66 454.219 162.068 453.075C167.476 451.932 171.341 449.217 173.665 444.932C176.009 440.61 176.238 435.993 174.35 431.083C172.446 426.116 167.868 421.666 160.616 417.733C152.631 413.403 145.936 411.763 140.532 412.814C135.127 413.865 131.203 416.643 128.76 421.148C126.377 425.543 126.175 430.197 128.156 435.111C130.156 439.988 135.02 444.521 142.749 448.713Z" fill="#2690FF"/>
<path d="M221.157 428.933L211.641 424.182C213.547 422.493 215.004 420.882 216.01 419.349C217.382 417.259 218.131 415.359 218.257 413.647C218.384 411.936 218.083 410.268 217.355 408.644C216.803 407.435 215.098 404.945 212.24 401.175C211.832 400.657 211.248 399.876 210.49 398.829L141.075 383.394L147.728 373.258L187.441 382.803C192.5 383.981 197.665 385.452 202.935 387.217C199.325 383.302 195.956 379.247 192.829 375.051L168.272 341.96L174.446 332.556L217.019 390.705C221.628 396.97 224.671 401.485 226.147 404.248C228.149 407.955 229.156 411.357 229.167 414.454C229.212 417.574 228.251 420.631 226.285 423.627C225.096 425.438 223.387 427.207 221.157 428.933Z" fill="#2690FF"/>
<path d="M288.117 317.971L226.719 285.59L234.914 277.345L282.417 304.112C282.032 303.494 279.604 299.465 275.132 292.025L255.004 257.13L263.154 248.928L297.467 269.019L308.801 275.613L302.401 263.877L283.2 228.758L290.91 221L323.363 282.506L315.124 290.796L279.484 270.268L269.654 264.111L296.4 309.637L288.117 317.971Z" fill="#2690FF"/>
<path d="M314.513 245.941C306.709 236.445 303.569 227.241 305.092 218.332C306.38 210.909 310.195 204.592 316.537 199.38C323.587 193.587 331.254 191.169 339.538 192.128C347.796 193.054 355.271 197.589 361.964 205.734C367.387 212.333 370.661 218.352 371.787 223.791C372.918 229.171 372.445 234.468 370.366 239.682C368.319 244.87 365.058 249.302 360.583 252.979C353.405 258.878 345.703 261.352 337.477 260.399C329.284 259.42 321.629 254.6 314.513 245.941ZM323.446 238.6C328.843 245.167 334.323 248.915 339.886 249.844C345.423 250.741 350.365 249.404 354.711 245.833C359.024 242.288 361.264 237.696 361.431 232.058C361.598 226.42 358.917 220.237 353.388 213.509C348.176 207.168 342.786 203.562 337.217 202.691C331.654 201.762 326.731 203.057 322.45 206.575C318.104 210.146 315.834 214.735 315.641 220.341C315.448 225.946 318.05 232.033 323.446 238.6Z" fill="#2690FF"/>
<path d="M389.843 228.465L351.493 174.29L359.757 168.44L365.571 176.653C364.959 171.318 365.104 167.412 366.006 164.936C366.941 162.436 368.48 160.427 370.623 158.91C373.718 156.72 377.562 155.479 382.155 155.189L385.022 165.946C381.839 166.209 379.125 167.135 376.881 168.724C374.874 170.144 373.505 172.032 372.773 174.388C372.018 176.71 372.058 179.182 372.894 181.806C374.185 185.793 376.203 189.725 378.947 193.602L399.025 221.965L389.843 228.465Z" fill="#2690FF"/>
<path d="M422.885 205.499L375.093 127.326L384.691 121.458L411.945 166.037L420.578 129.113L433.002 121.517L424.197 155.762L469.81 176.81L457.973 184.048L421.554 166.536L418.759 177.181L432.484 199.631L422.885 205.499Z" fill="#2690FF"/>
<path d="M514.538 142.977C513.029 148.314 510.771 152.883 507.763 156.682C504.737 160.444 500.943 163.446 496.38 165.687C487.966 169.822 479.895 170.26 472.165 167.002C465.885 164.331 461.34 160.135 458.528 154.413C456.029 149.327 455.405 143.947 456.655 138.272C457.924 132.541 461.05 126.525 466.032 120.224C460.235 117.78 456.067 115.534 453.528 113.485C450.989 111.437 449.113 109.178 447.901 106.71C445.475 101.774 445.297 96.5458 447.366 91.0257C449.454 85.4498 453.434 81.2194 459.305 78.3343C464.915 75.578 470.341 75.0471 475.584 76.7418C480.865 78.4181 484.69 81.6683 487.061 86.4923C490.901 94.308 489.002 103.528 481.363 114.153L505.35 125.695C505.415 121.577 504.85 117.12 503.653 112.322L515.245 109.412C516.978 117.474 517.451 124.577 516.663 130.72C522.903 133.876 529.252 135.979 535.711 137.029L532.865 148.386C527.502 147.771 521.393 145.968 514.538 142.977ZM472.949 110.209C476.056 105.479 477.768 101.829 478.084 99.26C478.437 96.6723 478.035 94.2005 476.877 91.8445C475.499 89.0399 473.481 87.1997 470.822 86.3242C468.182 85.3929 465.535 85.5796 462.88 86.8843C460.15 88.2257 458.301 90.2254 457.332 92.8834C456.401 95.5231 456.56 98.1144 457.809 100.657C458.434 101.929 459.414 103.119 460.748 104.227C462.101 105.28 463.817 106.27 465.898 107.198L472.949 110.209ZM504.285 138.126L474.501 124.28C470.64 130.216 468.445 135.055 467.916 138.797C467.369 142.502 467.766 145.719 469.107 148.449C470.742 151.777 473.77 154.584 478.189 156.869C482.608 159.154 487.248 159.102 492.11 156.713C495.139 155.225 497.802 152.756 500.099 149.306C502.416 145.8 503.811 142.073 504.285 138.126Z" fill="#2690FF"/>
<path d="M901.087 92.3049C896.803 95.8284 892.342 98.2926 887.705 99.6976C883.074 101.061 878.245 101.363 873.219 100.602C863.949 99.1988 857.07 94.9546 852.58 87.8694C848.945 82.0936 847.605 76.0541 848.559 69.7509C849.407 64.1481 851.963 59.3727 856.227 55.4248C860.538 51.4419 866.537 48.2834 874.223 45.9492C870.855 40.6353 868.713 36.4129 867.797 33.2821C866.88 30.1513 866.627 27.2264 867.039 24.5073C867.862 19.0693 870.698 14.6734 875.546 11.3196C880.442 7.9309 886.124 6.72611 892.592 7.70526C898.771 8.64075 903.531 11.2998 906.871 15.6824C910.252 20.0713 911.541 24.9229 910.736 30.2374C909.433 38.8476 902.614 45.3376 890.279 49.7072L903.397 72.8692C905.8 69.5245 907.878 65.5407 909.631 60.9177L920.813 65.1389C917.638 72.7494 913.975 78.8532 909.823 83.4503C913.149 89.6006 917.164 94.9494 921.87 99.4966L913.055 107.201C909.001 103.638 905.012 98.6724 901.087 92.3049ZM885.617 41.6689C890.867 39.556 894.355 37.5344 896.08 35.6042C897.846 33.6802 898.926 31.4205 899.319 28.8251C899.787 25.7353 899.178 23.0726 897.494 20.8369C895.857 18.5664 893.576 17.2097 890.651 16.7669C887.644 16.3116 884.984 16.8993 882.672 18.53C880.402 20.1669 879.054 22.3861 878.63 25.1875C878.418 26.5882 878.544 28.1243 879.007 29.7958C879.518 31.4324 880.363 33.2249 881.543 35.1735L885.617 41.6689ZM895.433 82.4728L878.866 54.1111C872.309 56.7847 867.746 59.5074 865.177 62.2791C862.614 65.0097 861.105 67.8786 860.65 70.886C860.095 74.5526 860.981 78.5847 863.307 82.9825C865.633 87.3802 869.474 89.9845 874.83 90.7952C878.167 91.3004 881.763 90.7912 885.618 89.2677C889.52 87.7092 892.791 85.4442 895.433 82.4728Z" fill="#2690FF"/>
<path d="M530.622 126.126L540.391 120.523C542.565 124.465 545.399 127.04 548.894 128.248C552.427 129.442 556.587 129.124 561.375 127.296C566.202 125.453 569.411 123.113 571.004 120.274C572.581 117.398 572.865 114.636 571.854 111.989C570.947 109.614 569.202 108.14 566.619 107.565C564.822 107.181 560.788 107.361 554.516 108.105C546.065 109.102 540.074 109.472 536.542 109.215C533.033 108.904 530.025 107.8 527.517 105.904C525.033 103.953 523.211 101.46 522.052 98.4237C520.996 95.6599 520.646 92.8725 520.999 90.0614C521.377 87.1964 522.359 84.5693 523.944 82.1799C525.118 80.349 526.951 78.4898 529.441 76.6022C531.956 74.6608 534.829 73.0734 538.059 71.8397C542.925 69.9819 547.455 69.0551 551.649 69.0593C555.882 69.0486 559.335 69.9156 562.008 71.6602C564.667 73.3658 567.092 76.097 569.285 79.8536L559.543 85.1787C557.857 82.1652 555.544 80.1941 552.602 79.2656C549.7 78.3222 546.205 78.6308 542.118 80.1914C537.291 82.0344 534.151 84.1477 532.697 86.5314C531.244 88.9151 530.926 91.1774 531.743 93.3183C532.263 94.6807 533.16 95.7434 534.432 96.5063C535.719 97.3082 537.419 97.7296 539.531 97.7707C540.731 97.7586 544.167 97.4723 549.84 96.9117C558.033 96.0582 563.834 95.7163 567.244 95.8861C570.678 96.0022 573.693 96.9473 576.288 98.7216C578.884 100.496 580.865 103.174 582.232 106.755C583.57 110.258 583.802 113.961 582.928 117.862C582.078 121.71 580.053 125.226 576.853 128.411C573.639 131.556 569.599 134.057 564.733 135.915C556.675 138.992 549.886 139.666 544.365 137.939C538.883 136.196 534.302 132.259 530.622 126.126Z" fill="#2690FF"/>
<path d="M617.356 106.201L621.858 115.208C619.033 116.785 616.426 117.945 614.039 118.687C610.14 119.9 606.924 120.223 604.392 119.658C601.86 119.093 599.847 117.951 598.353 116.234C596.847 114.477 595.091 110.376 593.087 103.931L581.747 67.4656L573.869 69.9154L571.271 61.5601L579.149 59.1102L574.268 43.4142L582.946 33.6465L589.832 55.7882L600.634 52.4289L603.232 60.7843L592.43 64.1435L603.955 101.205C604.908 104.269 605.699 106.183 606.33 106.947C607 107.698 607.833 108.203 608.829 108.46C609.866 108.705 611.179 108.58 612.771 108.085C613.964 107.714 615.493 107.086 617.356 106.201Z" fill="#2690FF"/>
<path d="M671.641 103.075L669.383 93.5903C666.094 102.083 660.132 107.356 651.498 109.411C647.688 110.318 643.947 110.437 640.276 109.769C636.645 109.091 633.759 107.851 631.617 106.048C629.505 104.195 627.744 101.744 626.333 98.6963C625.376 96.6541 624.343 93.3022 623.234 88.6408L613.712 48.6332L624.656 46.0285L633.179 81.8408C634.54 87.5561 635.679 91.3539 636.598 93.2339C637.972 95.9479 639.971 97.8705 642.596 99.0019C645.211 100.093 648.161 100.247 651.444 99.466C654.727 98.6846 657.61 97.1204 660.093 94.7736C662.565 92.3862 664.047 89.6137 664.538 86.4559C665.059 83.248 664.664 78.8878 663.352 73.3751L655.118 38.7788L666.062 36.1742L681.43 100.746L671.641 103.075Z" fill="#2690FF"/>
<path d="M735.153 92.7287L733.942 84.4417C730.73 91.5644 725.083 95.7161 717.002 96.8969C711.766 97.6621 706.732 96.9239 701.898 94.6826C697.107 92.4352 693.118 88.9124 689.932 84.1142C686.782 79.2688 684.716 73.486 683.734 66.7657C682.776 60.2103 683.001 54.1137 684.409 48.4759C685.81 42.7968 688.489 38.2156 692.443 34.7322C696.398 31.2488 701.076 29.1125 706.477 28.3233C710.435 27.7449 714.083 28.075 717.422 29.3135C720.755 30.5108 723.587 32.3078 725.916 34.7045L721.163 2.17499L732.233 0.557373L745.481 91.2195L735.153 92.7287ZM695.175 65.0938C696.404 73.5045 699.095 79.5329 703.249 83.1788C707.403 86.8248 711.892 88.2954 716.716 87.5905C721.581 86.8796 725.415 84.2981 728.217 79.8462C731.055 75.3469 731.877 69.0156 730.684 60.8523C729.371 51.8645 726.676 45.5209 722.598 41.8216C718.52 38.1223 713.946 36.6432 708.874 37.3843C703.927 38.1072 700.079 40.7329 697.33 45.2613C694.622 49.7837 693.903 56.3946 695.175 65.0938Z" fill="#2690FF"/>
<path d="M757.966 116.045L756.072 105.579C758.567 106.094 760.729 106.295 762.559 106.183C765.054 106.031 767.025 105.492 768.471 104.569C769.918 103.646 771.073 102.406 771.938 100.85C772.576 99.684 773.549 96.8275 774.857 92.2807C775.027 91.6442 775.304 90.7088 775.687 89.4748L746.483 24.6384L758.585 23.8974L774.721 61.4189C776.807 66.1753 778.722 71.1927 780.464 76.471C781.438 71.2351 782.668 66.1086 784.156 61.0916L795.953 21.6094L807.182 20.9218L786.104 89.8388C783.846 97.2824 782.053 102.422 780.724 105.259C778.954 109.083 776.832 111.926 774.358 113.789C771.887 115.694 768.863 116.755 765.286 116.974C763.124 117.107 760.683 116.797 757.966 116.045Z" fill="#2690FF"/>
</svg>
