<svg width="485" height="479" viewBox="0 0 485 479" fill="none" xmlns="http://www.w3.org/2000/svg">
<path d="M376.603 176.125L425.742 127.142L431.179 137.41L391.525 174.8C392.229 174.616 396.796 173.494 405.225 171.435L444.511 162.584L449.919 172.797L420.554 199.58L410.895 208.439L423.998 205.815L463.221 197.915L468.338 207.576L399.992 220.29L394.525 209.966L424.701 182.047L433.497 174.493L382.1 186.504L376.603 176.125Z" fill="#2690FF"/>
<path d="M407.795 164.895C419.176 160.266 428.894 160 436.946 164.099C443.649 167.532 448.546 173.048 451.638 180.647C455.075 189.095 455.106 197.13 451.732 204.752C448.396 212.357 441.847 218.145 432.086 222.115C424.177 225.331 417.459 226.67 411.933 226.13C406.462 225.612 401.546 223.588 397.186 220.056C392.842 216.562 389.579 212.135 387.398 206.773C383.898 198.171 383.824 190.086 387.176 182.519C390.543 174.99 397.416 169.115 407.795 164.895ZM412.15 175.599C404.279 178.8 399.074 182.917 396.535 187.951C394.035 192.969 393.845 198.082 395.963 203.289C398.066 208.459 401.784 211.959 407.116 213.792C412.448 215.625 419.146 214.901 427.21 211.622C434.811 208.531 439.853 204.457 442.338 199.401C444.876 194.367 445.102 189.285 443.015 184.154C440.896 178.947 437.19 175.419 431.896 173.57C426.603 171.722 420.021 172.398 412.15 175.599Z" fill="#2690FF"/>
<path d="M383.575 194.873L446.674 174.355L449.804 183.978L440.239 187.089C445.513 188.089 449.199 189.386 451.294 190.982C453.403 192.617 454.863 194.682 455.675 197.177C456.847 200.781 456.89 204.818 455.804 209.287L444.683 208.831C445.378 205.715 445.3 202.85 444.45 200.236C443.69 197.9 442.294 196.033 440.263 194.635C438.271 193.224 435.898 192.529 433.145 192.548C428.956 192.597 424.604 193.355 420.088 194.823L387.054 205.566L383.575 194.873Z" fill="#2690FF"/>
<path d="M385.52 201.879L474.329 179.473L477.081 190.376L426.436 203.153L459.119 222.352L462.681 236.464L432.606 217.895L398.972 255.179L395.578 241.733L423.107 212.174L413.775 206.347L388.271 212.781L385.52 201.879Z" fill="#2690FF"/>
<path d="M406.559 262.223C401.912 259.198 398.222 255.687 395.488 251.688C392.796 247.684 391.057 243.171 390.272 238.152C388.823 228.895 390.802 221.061 396.207 214.652C400.621 209.451 405.976 206.359 412.272 205.374C417.869 204.499 423.19 205.5 428.236 208.378C433.329 211.29 438.143 216.059 442.679 222.684C446.733 217.877 450.115 214.566 452.824 212.751C455.533 210.937 458.246 209.817 460.962 209.392C466.394 208.542 471.438 209.924 476.092 213.538C480.795 217.186 483.651 222.24 484.662 228.699C485.628 234.871 484.523 240.207 481.349 244.708C478.181 249.25 473.943 251.936 468.634 252.766C460.034 254.112 451.796 249.562 443.923 239.118L425.783 258.583C429.695 259.868 434.117 260.652 439.052 260.934L438.389 272.861C430.178 272.122 423.258 270.464 417.627 267.889C412.763 272.907 408.871 278.342 405.95 284.194L395.954 278.107C398.133 273.172 401.668 267.877 406.559 262.223ZM450.185 232.258C453.778 236.628 456.753 239.345 459.112 240.409C461.477 241.514 463.956 241.864 466.549 241.459C469.635 240.976 471.991 239.596 473.616 237.319C475.289 235.076 475.897 232.494 475.44 229.573C474.97 226.569 473.61 224.211 471.36 222.497C469.117 220.825 466.596 220.207 463.798 220.645C462.399 220.864 460.972 221.445 459.518 222.389C458.111 223.368 456.656 224.713 455.153 226.423L450.185 232.258ZM414.233 253.878L436.293 229.563C431.773 224.116 427.806 220.584 424.391 218.969C421.017 217.347 417.829 216.771 414.825 217.241C411.162 217.813 407.584 219.869 404.091 223.409C400.597 226.948 399.269 231.392 400.106 236.74C400.627 240.073 402.194 243.347 404.805 246.564C407.464 249.815 410.606 252.253 414.233 253.878Z" fill="#2690FF"/>
<path d="M409.247 222.932L411.695 233.918C407.287 234.823 403.987 236.764 401.797 239.74C399.609 242.757 398.677 246.822 399 251.934C399.326 257.088 400.607 260.846 402.844 263.208C405.122 265.567 407.674 266.658 410.501 266.479C413.036 266.318 414.962 265.091 416.277 262.796C417.178 261.195 418.204 257.291 419.355 251.085C420.913 242.724 422.339 236.896 423.633 233.601C424.971 230.345 426.917 227.802 429.473 225.971C432.072 224.18 434.993 223.181 438.235 222.976C441.187 222.789 443.952 223.282 446.53 224.454C449.153 225.665 451.369 227.382 453.179 229.604C454.578 231.268 455.809 233.569 456.871 236.506C457.978 239.482 458.64 242.695 458.858 246.145C459.187 251.34 458.727 255.938 457.477 259.939C456.231 263.982 454.378 267.021 451.919 269.054C449.502 271.084 446.175 272.588 441.938 273.566L439.747 262.688C443.124 261.974 445.692 260.351 447.452 257.82C449.214 255.33 449.957 251.903 449.681 247.539C449.355 242.385 448.27 238.761 446.426 236.666C444.583 234.571 442.518 233.596 440.231 233.741C438.776 233.833 437.496 234.373 436.39 235.361C435.242 236.351 434.335 237.848 433.669 239.852C433.324 241 432.577 244.365 431.428 249.945C429.81 258.018 428.414 263.656 427.24 266.86C426.109 270.102 424.312 272.699 421.848 274.649C419.384 276.599 416.239 277.695 412.415 277.937C408.674 278.174 405.071 277.296 401.606 275.304C398.185 273.35 395.43 270.374 393.341 266.375C391.293 262.374 390.104 257.775 389.776 252.58C389.231 243.977 390.603 237.297 393.891 232.541C397.182 227.826 402.301 224.623 409.247 222.932Z" fill="#2690FF"/>
<path d="M400.138 266.401L390.204 268.025C389.537 264.86 389.204 262.028 389.204 259.529C389.205 255.448 389.85 252.283 391.142 250.035C392.433 247.786 394.12 246.203 396.203 245.287C398.327 244.371 402.763 243.914 409.511 243.914L447.685 243.916L447.686 235.671L456.433 235.671L456.432 243.917L472.864 243.918L479.611 255.1L456.432 255.098L456.431 266.405L447.684 266.404L447.685 255.098L408.885 255.095C405.678 255.095 403.616 255.282 402.7 255.657C401.784 256.074 401.055 256.719 400.513 257.594C399.972 258.51 399.701 259.801 399.701 261.466C399.701 262.716 399.846 264.361 400.138 266.401Z" fill="#2690FF"/>
<path d="M386.885 290.341L396.609 291.003C389.479 285.342 386.215 278.087 386.817 269.237C387.083 265.331 388.08 261.726 389.808 258.421C391.533 255.157 393.574 252.771 395.931 251.261C398.327 249.796 401.189 248.843 404.517 248.402C406.75 248.094 410.257 248.103 415.036 248.428L456.052 251.217L455.289 262.435L418.574 259.939C412.714 259.54 408.751 259.5 406.683 259.819C403.685 260.324 401.256 261.662 399.397 263.831C397.579 266.003 396.556 268.772 396.327 272.138C396.098 275.503 396.735 278.719 398.238 281.784C399.783 284.853 401.989 287.09 404.858 288.496C407.765 289.945 412.045 290.863 417.696 291.247L453.165 293.659L452.402 304.877L386.202 300.375L386.885 290.341Z" fill="#2690FF"/>
<path d="M381.785 302.509L390.055 303.813C384.21 298.633 381.923 292.012 383.195 283.949C384.02 278.725 386.219 274.139 389.793 270.192C393.361 266.286 397.908 263.525 403.434 261.909C408.995 260.341 415.128 260.085 421.835 261.143C428.376 262.175 434.129 264.199 439.093 267.217C444.097 270.24 447.675 274.156 449.826 278.964C451.977 283.772 452.627 288.871 451.777 294.26C451.154 298.209 449.756 301.593 447.582 304.412C445.45 307.237 442.894 309.406 439.914 310.918L472.377 316.037L470.634 327.082L380.159 312.813L381.785 302.509ZM420.034 272.558C411.64 271.234 405.087 272.014 400.373 274.896C395.659 277.778 392.923 281.626 392.164 286.439C391.398 291.293 392.724 295.718 396.141 299.714C399.594 303.757 405.393 306.422 413.539 307.706C422.509 309.121 429.364 308.432 434.106 305.638C438.848 302.845 441.618 298.918 442.416 293.858C443.195 288.922 441.831 284.47 438.325 280.502C434.812 276.575 428.715 273.927 420.034 272.558Z" fill="#2690FF"/>
<path d="M361.199 266.687L371.752 267.987C370.519 270.215 369.685 272.219 369.249 273.998C368.654 276.425 368.582 278.466 369.034 280.12C369.486 281.774 370.327 283.245 371.555 284.532C372.478 285.488 374.916 287.264 378.868 289.862C379.425 290.213 380.236 290.755 381.3 291.487L451.86 282.862L448.974 294.632L408.368 298.893C403.208 299.472 397.85 299.81 392.294 299.906C397.003 302.39 401.531 305.086 405.879 307.995L440.064 330.973L437.386 341.894L377.86 301.321C371.425 296.956 367.051 293.719 364.738 291.609C361.613 288.785 359.529 285.916 358.486 283.002C357.401 280.077 357.286 276.876 358.139 273.398C358.654 271.294 359.674 269.058 361.199 266.687Z" fill="#2690FF"/>
<path d="M376.346 301.092L445.475 307.092L441.126 317.867L386.976 311.646C387.57 312.065 391.371 314.834 398.378 319.951L430.464 344.281L426.139 354.998L386.731 349.808L373.73 348.133L384.181 356.459L415.5 381.355L411.408 391.492L357.64 347.434L362.013 336.602L402.813 341.68L414.259 343.536L371.95 311.982L376.346 301.092Z" fill="#2690FF"/>
<path d="M405.035 317.701C415.91 323.419 422.375 330.677 424.43 339.475C426.124 346.811 425.061 354.11 421.241 361.371C416.995 369.443 410.87 374.645 402.866 376.976C394.9 379.327 386.253 378.051 376.926 373.146C369.369 369.172 364.017 364.899 360.869 360.327C357.738 355.81 356.119 350.747 356.011 345.138C355.883 339.566 357.167 334.218 359.862 329.095C364.185 320.876 370.321 315.609 378.268 313.295C386.196 311.018 395.118 312.486 405.035 317.701ZM399.654 327.929C392.134 323.974 385.631 322.648 380.145 323.951C374.696 325.274 370.663 328.423 368.046 333.399C365.447 338.337 365.166 343.436 367.2 348.693C369.235 353.951 374.104 358.605 381.809 362.657C389.071 366.476 395.437 367.705 400.905 366.346C406.391 365.043 410.423 361.941 413.002 357.039C415.619 352.063 415.929 346.956 413.932 341.718C411.934 336.48 407.175 331.883 399.654 327.929Z" fill="#2690FF"/>
<path d="M366.498 318.503L422.854 353.52L417.511 362.115L408.968 356.807C411.602 361.483 412.985 365.137 413.115 367.768C413.223 370.434 412.585 372.881 411.2 375.109C409.199 378.328 406.139 380.962 402.021 383.012L395.204 374.216C398.034 372.739 400.175 370.833 401.626 368.499C402.924 366.412 403.452 364.142 403.212 361.688C403.007 359.256 402.01 356.994 400.221 354.902C397.484 351.731 394.1 348.892 390.067 346.386L360.562 328.053L366.498 318.503Z" fill="#2690FF"/>
<path d="M362.394 324.505L436.762 377.962L430.197 387.092L387.788 356.607L394.166 393.966L385.668 405.784L380.488 370.825L330.299 369.138L338.395 357.878L378.743 359.876L377.186 348.986L355.829 333.635L362.394 324.505Z" fill="#2690FF"/>
<path d="M329.802 379.478C329.121 373.976 329.428 368.892 330.724 364.225C332.052 359.586 334.383 355.349 337.715 351.514C343.862 344.44 351.128 340.905 359.513 340.907C366.335 340.93 372.151 343.031 376.962 347.21C381.238 350.925 383.902 355.638 384.952 361.35C386.007 367.121 385.462 373.875 383.319 381.612C389.608 381.613 394.319 382.065 397.453 382.967C400.587 383.868 403.191 385.221 405.267 387.023C409.417 390.629 411.61 395.375 411.846 401.262C412.087 407.208 410.062 412.649 405.773 417.585C401.675 422.3 396.883 424.895 391.395 425.368C385.879 425.873 381.094 424.364 377.038 420.841C370.466 415.132 368.637 405.903 371.551 393.153L344.974 391.829C346.512 395.648 348.763 399.534 351.727 403.488L342.178 410.667C337.452 403.914 334.26 397.555 332.601 391.591C325.629 391.106 318.963 391.633 312.605 393.171L310.819 381.607C315.998 380.092 322.326 379.382 329.802 379.478ZM380.833 393.52C379.806 399.083 379.646 403.108 380.352 405.598C381.031 408.118 382.361 410.239 384.342 411.959C386.7 414.008 389.273 414.92 392.063 414.694C394.856 414.528 397.222 413.329 399.162 411.097C401.156 408.802 402.084 406.242 401.944 403.418C401.778 400.626 400.626 398.301 398.487 396.443C397.418 395.515 396.054 394.799 394.395 394.295C392.74 393.85 390.774 393.605 388.497 393.558L380.833 393.52ZM341.13 379.967L373.942 381.162C375.195 374.197 375.339 368.888 374.374 365.236C373.441 361.612 371.827 358.802 369.531 356.809C366.733 354.378 362.855 352.967 357.897 352.577C352.939 352.187 348.684 354.035 345.132 358.122C342.92 360.668 341.425 363.976 340.647 368.045C339.874 372.173 340.035 376.147 341.13 379.967Z" fill="#2690FF"/>
<path d="M361.584 356.212L354.759 365.164C351.226 362.377 347.616 361.105 343.928 361.348C340.21 361.62 336.5 363.527 332.799 367.068C329.068 370.639 327.019 374.04 326.654 377.272C326.317 380.534 327.128 383.188 329.086 385.234C330.843 387.069 333.023 387.75 335.626 387.277C337.43 386.933 341.077 385.202 346.566 382.082C353.964 377.885 359.34 375.22 362.694 374.086C366.047 373.011 369.246 372.86 372.293 373.634C375.339 374.466 377.985 376.056 380.231 378.403C382.276 380.539 383.681 382.97 384.446 385.697C385.209 388.482 385.325 391.283 384.792 394.098C384.421 396.24 383.454 398.664 381.892 401.369C380.329 404.133 378.299 406.71 375.801 409.1C372.04 412.699 368.227 415.31 364.361 416.934C360.466 418.586 356.948 419.128 353.808 418.558C350.698 418.019 347.403 416.444 343.925 413.835L350.833 405.15C353.555 407.272 356.452 408.189 359.522 407.903C362.562 407.646 365.662 406.005 368.821 402.982C372.552 399.412 374.625 396.247 375.039 393.487C375.453 390.727 374.868 388.52 373.284 386.866C372.276 385.813 371.038 385.182 369.57 384.973C368.073 384.734 366.343 385.005 364.382 385.787C363.281 386.263 360.227 387.86 355.218 390.578C348.001 394.543 342.79 397.11 339.582 398.276C336.374 399.502 333.23 399.801 330.15 399.174C327.071 398.547 324.206 396.849 321.557 394.081C318.965 391.374 317.314 388.053 316.605 384.12C315.895 380.246 316.395 376.222 318.107 372.048C319.848 367.904 322.599 364.032 326.36 360.432C332.589 354.472 338.582 351.216 344.339 350.665C350.066 350.143 355.814 351.992 361.584 356.212Z" fill="#2690FF"/>
<path d="M322.467 377.261L314.824 370.713C316.815 368.164 318.766 366.084 320.677 364.474C323.799 361.844 326.635 360.298 329.187 359.836C331.739 359.375 334.037 359.645 336.08 360.646C338.149 361.68 341.358 364.777 345.706 369.935L370.305 399.122L376.612 393.808L382.248 400.496L375.942 405.809L386.53 418.372L382.326 430.736L367.389 413.014L358.742 420.3L353.105 413.613L361.753 406.327L336.751 376.663C334.685 374.211 333.213 372.755 332.336 372.296C331.427 371.864 330.463 371.723 329.445 371.872C328.396 372.049 327.234 372.673 325.96 373.747C325.004 374.552 323.84 375.723 322.467 377.261Z" fill="#2690FF"/>
<path d="M295.617 382.556L301.378 390.417C301.113 381.318 304.558 374.147 311.715 368.905C314.873 366.591 318.273 365.03 321.914 364.22C325.522 363.436 328.662 363.458 331.336 364.288C334 365.175 336.573 366.749 339.056 369.009C340.73 370.519 342.983 373.205 345.814 377.068L370.113 410.222L361.042 416.868L339.291 387.19C335.82 382.454 333.296 379.398 331.72 378.023C329.401 376.056 326.813 375.061 323.955 375.038C321.123 375.048 318.346 376.05 315.624 378.044C312.903 380.038 310.854 382.597 309.478 385.722C308.127 388.88 307.838 392.009 308.611 395.108C309.376 398.265 311.432 402.127 314.781 406.696L335.793 435.366L326.721 442.012L287.503 388.501L295.617 382.556Z" fill="#2690FF"/>
<path d="M283.024 386.499L287.356 393.662C287.551 385.855 291.141 379.84 298.128 375.617C302.654 372.88 307.579 371.607 312.901 371.796C318.188 372.006 323.23 373.703 328.027 376.886C332.81 380.127 336.958 384.651 340.47 390.46C343.897 396.126 346.056 401.829 346.947 407.568C347.86 413.343 347.17 418.602 344.879 423.344C342.588 428.087 339.108 431.87 334.439 434.693C331.017 436.761 327.528 437.873 323.971 438.028C320.435 438.219 317.13 437.662 314.054 436.359L331.058 464.476L321.487 470.261L274.096 391.897L283.024 386.499ZM330.579 396.439C326.183 389.17 321.364 384.662 316.122 382.915C310.88 381.169 306.173 381.557 302.003 384.078C297.797 386.62 295.267 390.485 294.414 395.673C293.546 400.919 295.245 407.069 299.512 414.125C304.211 421.894 309.156 426.691 314.348 428.516C319.541 430.341 324.329 429.928 328.713 427.278C332.99 424.692 335.516 420.78 336.291 415.543C337.031 410.326 335.127 403.959 330.579 396.439Z" fill="#2690FF"/>
<path d="M297.156 347.677L302.962 356.583C300.464 357.076 298.394 357.729 296.752 358.543C294.512 359.652 292.906 360.912 291.932 362.324C290.958 363.735 290.374 365.326 290.181 367.094C290.046 368.416 290.258 371.425 290.818 376.12C290.909 376.772 291.017 377.741 291.142 379.026L343.211 427.412L332.349 432.791L302.922 404.493C299.154 400.921 295.443 397.043 291.789 392.857C292.924 398.058 293.78 403.257 294.356 408.455L298.813 449.398L288.735 454.389L281.405 382.733C280.596 375.001 280.253 369.571 280.376 366.443C280.523 362.234 281.374 358.792 282.93 356.116C284.468 353.403 286.842 351.251 290.052 349.662C291.992 348.7 294.361 348.039 297.156 347.677Z" fill="#2690FF"/>
<path d="M280.603 381.428L320.564 438.145L309.521 441.763L279.382 396.355C279.444 397.08 279.776 401.77 280.378 410.425L282.447 450.635L271.464 454.234L250.037 420.761L242.94 409.743L243.308 423.098L244.45 463.086L234.06 466.49L233.106 396.991L244.209 393.353L266.618 427.818L272.574 437.765L269.441 385.085L280.603 381.428Z" fill="#2690FF"/>
<path d="M285.878 102.71L279.049 33.6705L290.442 35.9606L294.296 90.3207C294.599 89.6594 296.621 85.4146 300.362 77.5861L318.374 41.5751L329.705 43.8528L331.859 83.5349L332.605 96.6193L338.866 84.816L357.575 49.455L368.295 51.6096L334.88 112.56L323.426 110.257L320.907 69.2273L320.624 57.6379L297.394 105.025L285.878 102.71Z" fill="#2690FF"/>
<path d="M286.39 414.064C289.024 426.064 287.64 435.684 282.236 442.924C277.716 448.947 271.449 452.838 263.434 454.597C254.524 456.552 246.599 455.222 239.658 450.606C232.726 446.03 228.13 438.597 225.87 428.306C224.04 419.968 223.858 413.122 225.327 407.768C226.764 402.465 229.592 397.964 233.812 394.267C237.992 390.578 242.909 388.113 248.564 386.872C257.637 384.881 265.619 386.177 272.51 390.762C279.361 395.355 283.987 403.123 286.39 414.064ZM275.1 416.542C273.278 408.244 270.101 402.418 265.57 399.064C261.047 395.751 256.039 394.697 250.547 395.902C245.095 397.098 241.014 400.168 238.305 405.112C235.595 410.056 235.173 416.778 237.039 425.279C238.799 433.292 241.96 438.951 246.524 442.256C251.056 445.61 256.027 446.694 261.438 445.506C266.93 444.301 271.036 441.246 273.755 436.343C276.473 431.441 276.922 424.84 275.1 416.542Z" fill="#2690FF"/>
<path d="M296.923 71.458C300.543 59.7181 306.488 52.0286 314.758 48.3894C321.659 45.3742 329.03 45.0749 336.872 47.4917C345.589 50.1784 351.83 55.2397 355.596 62.6755C359.374 70.0716 359.711 78.8039 356.607 88.8723C354.091 97.0306 350.876 103.077 346.96 107.013C343.096 110.921 338.417 113.444 332.923 114.583C327.468 115.735 321.975 115.458 316.442 113.752C307.565 111.017 301.258 105.957 297.52 98.5731C293.821 91.2015 293.622 82.1632 296.923 71.458ZM307.969 74.8623C305.466 82.9807 305.36 89.6155 307.651 94.7665C309.954 99.8778 313.792 103.261 319.166 104.918C324.499 106.562 329.563 105.9 334.358 102.932C339.152 99.9651 342.831 94.3227 345.395 86.0053C347.813 78.1654 347.85 71.6837 345.507 66.5602C343.216 61.4091 339.423 58.0178 334.129 56.3862C328.756 54.73 323.678 55.3657 318.896 58.2933C314.114 61.2209 310.472 66.7439 307.969 74.8623Z" fill="#2690FF"/>
<path d="M260.941 385.12L270.477 450.771L260.461 452.225L259.015 442.273C257.136 447.301 255.232 450.712 253.305 452.507C251.335 454.308 249.052 455.397 246.456 455.774C242.705 456.318 238.718 455.677 234.496 453.849L236.83 442.969C239.784 444.181 242.621 444.59 245.342 444.195C247.774 443.842 249.851 442.783 251.573 441.018C253.3 439.294 254.388 437.074 254.835 434.358C255.497 430.222 255.487 425.805 254.804 421.107L249.812 386.736L260.941 385.12Z" fill="#2690FF"/>
<path d="M304.808 109.18L328.857 47.3519L338.291 51.0197L334.645 60.3929C338.757 56.9429 342.095 54.9118 344.657 54.2994C347.258 53.7021 349.781 53.879 352.227 54.8299C355.76 56.2034 358.913 58.7252 361.686 62.3951L354.294 70.7139C352.321 68.204 350.053 66.451 347.491 65.4548C345.201 64.5643 342.871 64.4629 340.503 65.1507C338.15 65.7998 336.11 67.1959 334.383 69.3392C331.769 72.6124 329.601 76.4613 327.88 80.8859L315.289 113.256L304.808 109.18Z" fill="#2690FF"/>
<path d="M253.705 385.85L260.746 477.155L249.533 478.019L245.518 425.952L221.056 454.903L206.541 456.022L229.94 429.533L198.887 390.076L212.716 389.01L237.189 421.143L244.514 412.935L242.492 386.715L253.705 385.85Z" fill="#2690FF"/>
<path d="M311.466 112.109L350.327 29.1849L360.511 33.9555L338.35 81.2439L373.903 68.0982L387.085 74.2734L353.671 85.7998L361.253 135.432L348.693 129.549L343.229 89.531L332.81 93.066L321.65 116.88L311.466 112.109Z" fill="#2690FF"/>
<path d="M190.658 396.358C194.427 392.292 198.514 389.251 202.918 387.234C207.322 385.26 212.064 384.311 217.145 384.387C226.516 384.528 233.902 387.805 239.304 394.217C243.683 399.447 245.824 405.248 245.728 411.618C245.643 417.281 243.755 422.355 240.063 426.839C236.329 431.364 230.813 435.301 223.514 438.648C227.566 443.456 230.256 447.349 231.586 450.327C232.916 453.304 233.56 456.166 233.519 458.915C233.436 464.411 231.22 469.146 226.869 473.121C222.476 477.136 217.011 479.095 210.472 478.996C204.225 478.902 199.152 476.91 195.253 473.02C191.312 469.129 189.383 464.498 189.463 459.126C189.594 450.423 195.475 443.078 207.104 437.089L190.989 415.918C189.059 419.554 187.538 423.779 186.424 428.593L174.779 425.919C176.899 417.955 179.705 411.416 183.198 406.304C179.075 400.661 174.377 395.905 169.103 392.036L176.797 383.218C181.293 386.201 185.913 390.581 190.658 396.358ZM212.804 444.421C207.888 447.221 204.706 449.693 203.257 451.837C201.767 453.98 201.002 456.364 200.963 458.987C200.916 462.11 201.877 464.665 203.847 466.652C205.774 468.68 208.216 469.716 211.173 469.761C214.214 469.807 216.769 468.866 218.839 466.94C220.868 465.013 221.903 462.634 221.946 459.802C221.967 458.387 221.636 456.882 220.951 455.289C220.225 453.737 219.146 452.076 217.715 450.305L212.804 444.421ZM197.584 405.334L217.815 431.19C223.95 427.659 228.103 424.348 230.274 421.257C232.445 418.207 233.553 415.163 233.599 412.123C233.654 408.417 232.234 404.543 229.337 400.501C226.44 396.46 222.285 394.398 216.871 394.316C213.497 394.266 210.004 395.254 206.391 397.282C202.735 399.351 199.8 402.035 197.584 405.334Z" fill="#2690FF"/>
<path d="M371.508 134.018C366.224 135.7 361.17 136.334 356.343 135.919C351.538 135.469 346.944 133.959 342.56 131.39C334.474 126.652 329.661 120.162 328.119 111.921C326.886 105.213 327.88 99.1106 331.103 93.6137C333.967 88.7275 338.111 85.2425 343.533 83.1585C349.012 81.0596 355.752 80.3512 363.753 81.0334C362.596 74.8529 362.173 70.1398 362.483 66.894C362.792 63.6482 363.642 60.8397 365.032 58.4685C367.812 53.7261 372.075 50.6969 377.819 49.381C383.62 48.0502 389.342 49.0378 394.984 52.344C400.374 55.5028 403.807 59.7351 405.283 65.041C406.795 70.3679 406.192 75.3487 403.475 79.9833C399.073 87.4922 390.336 90.9886 377.265 90.4727L380.858 116.834C384.328 114.62 387.734 111.692 391.076 108.051L399.892 116.114C394.123 122.001 388.459 126.309 382.901 129.037C383.708 135.978 385.453 142.431 388.136 148.396L377.096 152.28C374.653 147.47 372.791 141.382 371.508 134.018ZM375.917 81.2837C381.575 81.2685 385.562 80.6848 387.879 79.5326C390.232 78.4014 392.072 76.7041 393.399 74.4407C394.979 71.7461 395.401 69.0491 394.666 66.3497C393.989 63.6355 392.374 61.5308 389.823 60.0356C387.199 58.4984 384.512 58.0581 381.762 58.7148C379.047 59.3926 376.973 60.953 375.541 63.3961C374.825 64.6176 374.372 66.09 374.183 67.8132C374.05 69.5216 374.17 71.4988 374.543 73.7448L375.917 81.2837ZM369.903 122.796L365.037 90.3302C357.959 90.3814 352.713 91.2173 349.301 92.8378C345.909 94.4225 343.445 96.5262 341.907 99.1489C340.033 102.346 339.36 106.417 339.89 111.361C340.419 116.306 343.019 120.147 347.691 122.884C350.601 124.59 354.129 125.45 358.272 125.465C362.473 125.465 366.35 124.575 369.903 122.796Z" fill="#2690FF"/>
<path d="M228.933 405.663L217.689 406.214C217.544 401.717 216.19 398.137 213.627 395.475C211.023 392.808 207.174 391.2 202.081 390.653C196.945 390.101 193.024 390.727 190.317 392.53C187.605 394.375 186.098 396.705 185.795 399.521C185.523 402.047 186.407 404.152 188.446 405.837C189.872 406.995 193.546 408.668 199.47 410.854C207.447 413.805 212.95 416.197 215.979 418.031C218.961 419.901 221.139 422.25 222.511 425.078C223.836 427.943 224.326 430.99 223.979 434.22C223.663 437.159 222.709 439.8 221.116 442.142C219.478 444.521 217.411 446.414 214.913 447.821C213.036 448.918 210.56 449.741 207.484 450.29C204.363 450.876 201.084 450.985 197.647 450.615C192.47 450.059 188.015 448.827 184.283 446.918C180.508 445.004 177.828 442.664 176.24 439.897C174.648 437.171 173.729 433.637 173.483 429.297L184.577 428.981C184.709 432.43 185.873 435.235 188.071 437.398C190.226 439.556 193.479 440.869 197.827 441.336C202.962 441.888 206.719 441.433 209.096 439.971C211.474 438.509 212.785 436.64 213.029 434.363C213.185 432.913 212.87 431.56 212.083 430.303C211.301 429.004 209.979 427.857 208.117 426.861C207.044 426.327 203.854 425.021 198.547 422.943C190.864 419.981 185.543 417.651 182.584 415.95C179.579 414.287 177.324 412.077 175.819 409.318C174.314 406.56 173.766 403.276 174.176 399.466C174.576 395.74 176.052 392.338 178.603 389.262C181.108 386.222 184.508 384.011 188.804 382.63C193.096 381.29 197.83 380.898 203.006 381.454C211.579 382.375 217.931 384.859 222.063 388.905C226.152 392.946 228.443 398.532 228.933 405.663Z" fill="#2690FF"/>
<path d="M342.784 107.068L352.841 112.127C350.751 116.112 350.165 119.894 351.083 123.473C352.035 127.077 354.593 130.371 358.756 133.356C362.953 136.366 366.674 137.753 369.919 137.517C373.187 137.247 375.647 135.962 377.298 133.661C378.779 131.596 379.047 129.329 378.103 126.858C377.433 125.148 375.059 121.883 370.982 117.063C365.494 110.566 361.883 105.773 360.151 102.686C358.477 99.5896 357.74 96.473 357.939 93.3363C358.197 90.1902 359.273 87.2973 361.166 84.6577C362.89 82.255 365.021 80.4267 367.561 79.1729C370.158 77.9095 372.89 77.2805 375.757 77.286C377.931 77.2563 380.492 77.7598 383.438 78.7966C386.443 79.8238 389.35 81.3446 392.16 83.359C396.391 86.3927 399.66 89.6594 401.968 93.1591C404.309 96.683 405.489 100.04 405.507 103.23C405.55 106.387 404.609 109.914 402.684 113.812L392.874 108.623C394.458 105.557 394.827 102.542 393.981 99.5776C393.168 96.6375 390.985 93.8933 387.431 91.3449C383.234 88.3355 379.741 86.8813 376.951 86.9825C374.162 87.0837 372.1 88.0649 370.765 89.9261C369.915 91.1106 369.523 92.4435 369.588 93.925C369.629 95.4403 370.214 97.0898 371.343 98.8735C372.014 99.8672 374.147 102.575 377.741 106.997C382.968 113.358 386.45 118.008 388.188 120.945C389.983 123.872 390.856 126.907 390.807 130.048C390.757 133.19 389.616 136.318 387.382 139.431C385.198 142.477 382.237 144.71 378.501 146.131C374.824 147.542 370.775 147.791 366.356 146.877C361.962 145.93 357.649 143.939 353.418 140.906C346.411 135.882 342.107 130.592 340.506 125.036C338.938 119.505 339.697 113.515 342.784 107.068Z" fill="#2690FF"/>
<path d="M187.628 389.323L187.71 379.259C190.943 379.139 193.791 379.291 196.254 379.714C200.277 380.406 203.287 381.578 205.285 383.232C207.283 384.885 208.557 386.816 209.107 389.023C209.65 391.271 209.35 395.72 208.206 402.369L201.737 439.983L209.865 441.381L208.382 450L200.254 448.602L197.47 464.793L185.304 469.547L189.233 446.707L178.087 444.791L179.57 436.172L190.715 438.088L197.29 399.858C197.834 396.698 197.999 394.635 197.784 393.668C197.529 392.695 197.016 391.867 196.246 391.185C195.435 390.496 194.208 390.011 192.566 389.729C191.335 389.517 189.689 389.382 187.628 389.323Z" fill="#2690FF"/>
<path d="M370.68 141.633L365.649 150.35C362.776 148.863 360.373 147.328 358.438 145.746C355.278 143.163 353.236 140.66 352.312 138.237C351.388 135.814 351.231 133.507 351.84 131.315C352.475 129.091 354.928 125.367 359.199 120.145L383.363 90.5973L376.979 85.3779L382.515 78.6077L388.9 83.827L399.301 71.1086L412.23 72.9636L397.558 90.9048L406.313 98.0616L400.776 104.832L392.021 97.675L367.462 127.706C365.431 130.188 364.271 131.903 363.982 132.849C363.724 133.822 363.762 134.795 364.097 135.768C364.464 136.767 365.292 137.793 366.582 138.848C367.549 139.639 368.915 140.567 370.68 141.633Z" fill="#2690FF"/>
<path d="M166.274 372.208L163.975 381.678C170.762 375.611 178.467 373.625 187.089 375.717C190.894 376.64 194.279 378.233 197.244 380.496C200.169 382.748 202.176 385.164 203.264 387.742C204.302 390.351 204.757 393.333 204.628 396.687C204.553 398.94 203.95 402.393 202.82 407.047L193.122 446.99L182.194 444.338L190.875 408.583C192.26 402.877 192.971 398.979 193.007 396.887C193.017 393.847 192.11 391.227 190.286 389.028C188.453 386.869 185.897 385.391 182.618 384.596C179.34 383.8 176.062 383.883 172.785 384.845C169.499 385.847 166.92 387.642 165.049 390.23C163.127 392.85 161.498 396.911 160.161 402.415L151.775 436.955L140.846 434.303L156.499 369.836L166.274 372.208Z" fill="#2690FF"/>
<path d="M380.828 167.044L387.495 159.936C378.599 161.872 370.915 159.806 364.444 153.739C361.588 151.061 359.427 148.008 357.961 144.578C356.525 141.177 355.969 138.087 356.292 135.307C356.674 132.525 357.748 129.707 359.512 126.851C360.688 124.928 362.914 122.219 366.191 118.726L394.311 88.7427L402.515 96.4337L377.343 123.273C373.326 127.556 370.786 130.599 369.725 132.4C368.218 135.042 367.717 137.768 368.22 140.58C368.751 143.362 370.247 145.907 372.709 148.214C375.17 150.521 378.063 152.063 381.388 152.84C384.742 153.587 387.871 153.295 390.775 151.964C393.738 150.632 397.157 147.899 401.031 143.768L425.349 117.84L433.552 125.531L388.166 173.924L380.828 167.044Z" fill="#2690FF"/>
<path d="M155.145 365.122L152.458 373.05C158.554 368.168 165.468 367.037 173.201 369.656C178.211 371.353 182.358 374.297 185.644 378.488C188.89 382.665 190.841 387.614 191.498 393.332C192.102 399.077 191.314 405.164 189.135 411.593C187.01 417.864 184.04 423.19 180.225 427.569C176.396 431.988 171.93 434.85 166.826 436.155C161.722 437.46 156.586 437.237 151.419 435.487C147.631 434.204 144.533 432.252 142.122 429.633C139.698 427.053 137.993 424.167 137.008 420.975L126.462 452.095L115.869 448.507L145.263 361.774L155.145 365.122ZM178.188 407.884C180.915 399.838 181.257 393.249 179.215 388.116C177.172 382.983 173.843 379.635 169.227 378.071C164.572 376.494 159.986 377.051 155.468 379.742C150.897 382.458 147.288 387.721 144.641 395.531C141.728 404.129 141.246 411.001 143.196 416.147C145.146 421.292 148.548 424.687 153.4 426.331C158.134 427.934 162.754 427.345 167.259 424.562C171.725 421.766 175.368 416.207 178.188 407.884Z" fill="#2690FF"/>
<path d="M387.024 178.693L393.268 173.117C385.557 174.363 378.983 171.942 373.545 165.854C370.021 161.909 367.862 157.305 367.068 152.039C366.301 146.805 367.041 141.538 369.288 136.238C371.593 130.941 375.277 126.032 380.341 121.51C385.281 117.1 390.489 113.928 395.967 111.996C401.477 110.036 406.773 109.745 411.858 111.123C416.943 112.502 421.302 115.225 424.937 119.294C427.6 122.276 429.336 125.5 430.143 128.967C430.981 132.406 431.043 135.757 430.327 139.02L454.839 117.133L462.288 125.473L393.974 186.473L387.024 178.693ZM388.04 130.13C381.703 135.789 378.158 141.355 377.407 146.827C376.655 152.3 377.903 156.854 381.149 160.488C384.423 164.153 388.688 165.927 393.946 165.811C399.262 165.699 404.996 162.896 411.147 157.403C417.92 151.356 421.725 145.613 422.563 140.175C423.401 134.736 422.114 130.107 418.701 126.286C415.372 122.559 411.061 120.797 405.769 120.999C400.505 121.233 394.595 124.276 388.04 130.13Z" fill="#2690FF"/>
<path d="M193.942 350.907L190.873 361.085C188.886 359.493 187.052 358.332 185.372 357.6C183.08 356.603 181.081 356.187 179.374 356.352C177.666 356.517 176.074 357.096 174.597 358.088C173.499 358.836 171.335 360.937 168.104 364.391C167.664 364.881 166.993 365.588 166.09 366.512L162.639 437.5L151.526 432.663L154.204 391.929C154.508 386.746 155.083 381.41 155.929 375.919C152.683 380.139 149.258 384.143 145.654 387.934L117.212 417.726L106.901 413.237L156.98 361.456C162.372 355.855 166.304 352.094 168.777 350.172C172.09 347.572 175.271 346.004 178.32 345.469C181.386 344.896 184.562 345.325 187.846 346.755C189.832 347.619 191.864 349.003 193.942 350.907Z" fill="#2690FF"/>
<path d="M346.255 171.954L353.941 164.608C354.886 166.972 355.91 168.886 357.012 170.35C358.514 172.347 360.049 173.694 361.616 174.391C363.183 175.088 364.854 175.369 366.628 175.233C367.953 175.122 370.871 174.36 375.384 172.945C376.009 172.736 376.941 172.452 378.182 172.092L416.164 112.015L423.451 121.699L401.049 155.827C398.232 160.188 395.102 164.549 391.66 168.91C396.563 166.837 401.517 165.038 406.522 163.515L445.952 151.598L452.714 160.583L383.619 180.978C376.167 183.197 370.891 184.534 367.793 184.988C363.629 185.619 360.088 185.417 357.171 184.38C354.22 183.368 351.668 181.432 349.514 178.57C348.212 176.84 347.126 174.634 346.255 171.954Z" fill="#2690FF"/>
<path d="M157.462 360.002L139.836 427.103L129.952 420.992L145.258 368.689C144.744 369.203 141.371 372.479 135.14 378.517L105.721 406.011L95.8897 399.934L107.682 361.982L111.536 349.456L101.558 358.343L71.711 384.986L62.4115 379.236L114.95 333.72L124.888 339.864L112.97 379.206L109.201 390.169L147.472 353.826L157.462 360.002Z" fill="#2690FF"/>
<path d="M136.23 385.458C128.751 395.205 120.501 400.346 111.481 400.88C103.962 401.306 96.9474 399.022 90.4371 394.029C83.1999 388.477 79.1099 381.561 78.1674 373.28C77.1995 365.031 79.9228 356.727 86.3374 348.368C91.5349 341.595 96.654 337.045 101.695 334.718C106.677 332.398 111.942 331.66 117.489 332.504C123.004 333.322 128.058 335.493 132.651 339.016C140.021 344.669 144.173 351.607 145.108 359.83C146.01 368.028 143.051 376.57 136.23 385.458ZM127.06 378.424C132.232 371.684 134.641 365.5 134.285 359.874C133.905 354.281 131.484 349.773 127.023 346.351C122.595 342.955 117.617 341.813 112.09 342.927C106.562 344.041 101.149 348.051 95.8501 354.957C90.8554 361.466 88.5648 367.529 88.9783 373.148C89.3333 378.774 91.7085 383.273 96.1037 386.644C100.565 390.066 105.547 391.237 111.049 390.156C116.551 389.075 121.888 385.164 127.06 378.424Z" fill="#2690FF"/>
<path d="M141.967 347.351L97.9023 396.949L90.335 390.228L97.0153 382.709C91.9588 384.513 88.123 385.256 85.5078 384.939C82.8616 384.594 80.5575 383.55 78.5956 381.808C75.7618 379.291 73.6834 375.83 72.3606 371.424L82.1859 366.197C83.1624 369.237 84.6783 371.669 86.7336 373.494C88.5709 375.126 90.7193 376.031 93.1787 376.21C95.6105 376.421 98.0091 375.821 100.375 374.413C103.964 372.254 107.336 369.399 110.489 365.85L133.559 339.884L141.967 347.351Z" fill="#2690FF"/>
<path d="M136.746 342.289L71.4521 406.512L63.5652 398.496L100.799 361.873L62.8929 361.828L52.6836 351.453L88.0213 352.271L98.1871 303.103L107.914 312.989L99.1095 352.406L110.108 352.717L128.859 334.274L136.746 342.289Z" fill="#2690FF"/>
<path d="M88.08 300.861C93.6188 301.121 98.5783 302.286 102.959 304.353C107.307 306.448 111.089 309.462 114.305 313.395C120.235 320.65 122.49 328.409 121.067 336.671C119.889 343.389 116.832 348.764 111.898 352.796C107.512 356.381 102.414 358.207 96.6059 358.274C90.7387 358.335 84.1734 356.655 76.91 353.232C75.8431 359.428 74.5997 363.994 73.1798 366.929C71.7599 369.865 69.9857 372.202 67.8572 373.941C63.6001 377.42 58.5499 378.777 52.7066 378.012C46.8047 377.242 41.7844 374.325 37.646 369.263C33.692 364.426 31.9464 359.264 32.4093 353.776C32.8458 348.256 35.1442 343.797 39.3045 340.397C46.0448 334.889 55.4523 334.65 67.527 339.681L73.3339 313.718C69.3096 314.586 65.0975 316.146 60.6975 318.397L55.2386 307.771C62.6959 304.259 69.5049 302.191 75.6654 301.567C77.3246 294.778 77.9346 288.122 77.4953 281.596L89.1973 281.795C89.813 287.155 89.4405 293.51 88.08 300.861ZM65.5926 348.765C60.2833 346.811 56.342 345.971 53.7687 346.245C51.1691 346.487 48.8534 347.438 46.8216 349.098C44.4029 351.075 43.0682 353.457 42.8177 356.243C42.5086 359.023 43.2898 361.558 45.1614 363.848C47.0857 366.201 49.4515 367.549 52.2589 367.89C55.0399 368.199 57.5269 367.458 59.72 365.666C60.8165 364.77 61.7534 363.547 62.5308 361.997C63.2496 360.442 63.825 358.546 64.2569 356.311L65.5926 348.765ZM85.6786 311.94L78.9412 344.069C85.5955 346.484 90.8042 347.525 94.5673 347.193C98.2982 346.887 101.341 345.772 103.695 343.848C106.565 341.503 108.613 337.92 109.837 333.101C111.062 328.282 109.96 323.776 106.534 319.584C104.399 316.973 101.391 314.939 97.5118 313.484C93.5738 312.023 89.6294 311.508 85.6786 311.94Z" fill="#2690FF"/>
<path d="M105.629 336.119L97.9609 327.877C101.307 324.868 103.173 321.526 103.558 317.851C103.919 314.142 102.668 310.164 99.8042 305.917C96.9168 301.635 93.9111 299.04 90.7872 298.133C87.6288 297.248 84.8753 297.598 82.5269 299.181C80.4202 300.601 79.3796 302.633 79.405 305.278C79.4377 307.115 80.5266 311.001 82.6718 316.938C85.5556 324.939 87.2723 330.688 87.822 334.185C88.3139 337.67 87.9204 340.849 86.6416 343.72C85.3049 346.58 83.2897 348.918 80.5959 350.734C78.1439 352.386 75.5092 353.359 72.692 353.651C69.8169 353.932 67.0366 353.571 64.3512 352.568C62.3026 351.84 60.0774 350.477 57.6756 348.48C55.216 346.471 53.0198 344.034 51.0871 341.168C48.1764 336.852 46.2483 332.652 45.3027 328.569C44.3339 324.45 44.3961 320.892 45.4895 317.895C46.5483 314.921 48.6584 311.942 51.8197 308.957L59.2103 317.234C56.6579 319.558 55.2626 322.256 55.0245 325.33C54.7631 328.369 55.855 331.701 58.2999 335.327C61.1874 339.608 63.9561 342.187 66.6062 343.062C69.2563 343.938 71.5311 343.735 73.4305 342.455C74.6393 341.64 75.471 340.527 75.9257 339.115C76.4149 337.681 76.4404 335.931 76.0022 333.865C75.7188 332.7 74.662 329.42 72.8315 324.024C70.1453 316.242 68.4988 310.671 67.8921 307.314C67.2275 303.944 67.4652 300.796 68.6051 297.868C69.745 294.939 71.9036 292.404 75.0809 290.263C78.1891 288.167 81.7417 287.103 85.7387 287.071C89.6778 287.027 93.5598 288.202 97.3846 290.596C101.175 293.014 104.525 296.38 107.436 300.696C112.256 307.844 114.45 314.3 114.018 320.066C113.563 325.798 110.767 331.148 105.629 336.119Z" fill="#2690FF"/>
<path d="M91.5072 294.01L99.2572 287.588C101.433 289.981 103.152 292.256 104.415 294.412C106.479 297.933 107.522 300.991 107.545 303.583C107.568 306.176 106.912 308.394 105.579 310.237C104.209 312.102 100.613 314.739 94.7914 318.149L61.854 337.444L66.0231 344.558L58.4761 348.979L54.307 341.864L40.1293 350.169L28.6538 343.932L48.6534 332.217L42.9366 322.462L50.4837 318.041L56.2004 327.796L89.6769 308.186C92.4441 306.565 94.1283 305.361 94.7295 304.575C95.3095 303.752 95.6121 302.827 95.6371 301.799C95.6411 300.735 95.2219 299.484 94.3797 298.047C93.748 296.969 92.7905 295.623 91.5072 294.01Z" fill="#2690FF"/>
<path d="M90.8356 266.655L82.1114 271C91.1252 272.28 97.6099 276.89 101.566 284.83C103.311 288.334 104.274 291.948 104.455 295.673C104.617 299.361 104.063 302.452 102.793 304.945C101.466 307.42 99.479 309.69 96.8308 311.753C95.0591 313.147 92.0295 314.912 87.7419 317.047L50.9435 335.373L45.9293 325.309L78.8689 308.904C84.1258 306.286 87.5655 304.317 89.1881 302.997C91.5195 301.045 92.9388 298.664 93.446 295.852C93.9159 293.059 93.3987 290.153 91.8944 287.134C90.3901 284.115 88.2144 281.662 85.3673 279.777C82.4828 277.91 79.4477 277.095 76.2621 277.333C73.0206 277.551 68.8646 278.923 63.7941 281.448L31.973 297.296L26.9587 287.232L86.3506 257.653L90.8356 266.655Z" fill="#2690FF"/>
<path d="M89.0836 253.58L81.289 256.635C88.9515 258.149 94.2724 262.706 97.2519 270.305C99.1825 275.229 99.6039 280.298 98.5159 285.51C97.4127 290.684 94.8858 295.364 90.9353 299.552C86.9308 303.716 81.7681 307.036 75.447 309.513C69.2811 311.93 63.2941 313.091 57.4859 312.997C51.6389 312.918 46.5718 311.348 42.2847 308.287C37.9976 305.226 34.8583 301.155 32.8669 296.076C31.4075 292.354 30.9028 288.728 31.3526 285.197C31.7637 281.681 32.8723 278.518 34.6785 275.708L4.08162 287.699L0 277.289L85.2756 243.868L89.0836 253.58ZM71.2286 298.754C79.1396 295.654 84.3997 291.669 87.0091 286.799C89.6185 281.93 90.0339 277.227 88.2553 272.691C86.4615 268.116 83.08 264.968 78.1106 263.248C73.0873 261.504 66.7365 262.137 59.0582 265.146C50.6043 268.46 45.0381 272.52 42.3596 277.327C39.681 282.134 39.2766 286.922 41.1464 291.691C42.9706 296.343 46.3985 299.495 51.4302 301.146C56.4467 302.759 63.0462 301.961 71.2286 298.754Z" fill="#2690FF"/>
<path d="M124.957 274.081L115.195 278.293C115.132 275.748 114.838 273.598 114.315 271.842C113.601 269.447 112.631 267.65 111.404 266.452C110.178 265.253 108.709 264.408 106.999 263.919C105.719 263.561 102.717 263.261 97.9937 263.017C97.3354 262.996 96.3621 262.938 95.0736 262.844L38.557 305.952L35.0951 294.339L67.9752 270.136C72.1339 267.029 76.5858 264.029 81.3306 261.138C76.0121 261.376 70.7419 261.338 65.5201 261.026L24.4061 258.48L21.1941 247.705L93.0694 252.621C100.828 253.134 106.239 253.716 109.302 254.368C113.426 255.225 116.674 256.647 119.049 258.633C121.463 260.608 123.181 263.312 124.204 266.744C124.823 268.819 125.074 271.265 124.957 274.081Z" fill="#2690FF"/>
<path d="M94.4922 252.052L31.8142 281.819L30.118 270.325L79.9842 248.32C79.2594 248.259 74.5801 247.791 65.9464 246.918L25.9598 242.145L24.2728 230.713L60.8975 215.271L72.9615 210.145L59.7343 208.244L20.1237 202.595L18.5278 191.78L87.197 202.615L88.9023 214.171L51.1325 230.413L40.3189 234.597L92.7778 240.435L94.4922 252.052Z" fill="#2690FF"/>
<path d="M61.3406 252.225C49.0661 252.788 39.8181 249.794 33.5965 243.243C28.4251 237.769 25.6514 230.934 25.2752 222.739C24.8571 213.628 27.5111 206.044 33.2374 199.987C38.922 193.931 47.0278 190.662 57.5548 190.179C66.0845 189.788 72.8635 190.769 77.8917 193.123C82.8764 195.438 86.8336 198.987 89.7635 203.772C92.6914 208.515 94.2881 213.778 94.5535 219.56C94.9793 228.837 92.3489 236.483 86.6624 242.496C80.9739 248.469 72.5334 251.711 61.3406 252.225ZM60.8108 240.681C69.299 240.291 75.5801 238.148 79.6542 234.251C83.6868 230.356 85.5742 225.6 85.3164 219.984C85.0606 214.41 82.7256 209.869 78.3116 206.361C73.8976 202.853 67.3425 201.299 58.6463 201.698C50.4494 202.074 44.3357 204.23 40.3051 208.167C36.2309 212.064 34.3208 216.779 34.5748 222.312C34.8325 227.928 37.1476 232.491 41.52 236.001C45.8924 239.51 52.3227 241.07 60.8108 240.681Z" fill="#2690FF"/>
<path d="M94.1834 232.053L27.8536 230.328L28.1169 220.212L38.1726 220.473C33.5346 217.77 30.4943 215.316 29.0517 213.112C27.6101 210.867 26.9235 208.433 26.9918 205.81C27.0904 202.022 28.3981 198.203 30.915 194.352L41.2446 198.495C39.5492 201.2 38.6657 203.927 38.5942 206.675C38.5303 209.131 39.2223 211.357 40.6704 213.352C42.0768 215.347 44.0808 216.794 46.6823 217.695C50.6471 219.048 55.0029 219.786 59.7496 219.91L94.4759 220.813L94.1834 232.053Z" fill="#2690FF"/>
<path d="M94.6898 224.8L3.49457 216.269L4.54219 205.074L56.5471 209.939L32.1531 180.93L33.5092 166.439L55.6558 193.983L99.8115 170.069L98.5195 183.876L62.6983 202.547L69.5484 211.155L95.7375 213.605L94.6898 224.8Z" fill="#2690FF"/>
<path d="M95.012 160.896C98.3821 165.299 100.688 169.841 101.929 174.522C103.129 179.196 103.261 184.029 102.325 189.023C100.599 198.233 96.1176 204.956 88.8819 209.193C82.9843 212.621 76.9037 213.748 70.64 212.574C65.0722 211.531 60.3909 208.811 56.5961 204.413C52.768 199.967 49.8226 193.865 47.7598 186.106C42.333 189.284 38.0397 191.276 34.8798 192.082C31.7198 192.888 28.7889 193.038 26.0869 192.531C20.6829 191.518 16.3905 188.532 13.2097 183.572C9.99572 178.563 8.99107 172.846 10.1958 166.42C11.3468 160.28 14.17 155.619 18.6655 152.436C23.1685 149.212 28.0607 148.095 33.3419 149.085C41.8982 150.689 48.1431 157.727 52.0766 170.2L75.6758 157.908C72.4185 155.391 68.5112 153.176 63.9541 151.263L68.5629 140.242C76.0549 143.68 82.0246 147.552 86.4718 151.86C92.7327 148.754 98.217 144.93 102.925 140.389L110.313 149.464C106.611 153.388 101.511 157.199 95.012 160.896ZM43.8827 174.575C41.9557 169.257 40.0582 165.703 38.1902 163.912C36.3299 162.08 34.1102 160.923 31.531 160.44C28.4606 159.864 25.7791 160.379 23.4866 161.983C21.1609 163.538 19.7256 165.769 19.1808 168.675C18.6206 171.663 19.1146 174.34 20.6628 176.707C22.2186 179.032 24.3884 180.455 27.1723 180.977C28.5643 181.238 30.1033 181.166 31.7894 180.762C33.4423 180.309 35.2628 179.527 37.2508 178.417L43.8827 174.575ZM84.9913 166.2L56.0765 181.754C58.5179 188.398 61.0782 193.051 63.7573 195.714C66.3955 198.369 69.2089 199.977 72.1974 200.537C75.841 201.219 79.9003 200.476 84.3753 198.306C88.8503 196.137 91.5866 192.391 92.5842 187.07C93.2057 183.755 92.823 180.145 91.4359 176.242C90.0156 172.289 87.8674 168.942 84.9913 166.2Z" fill="#2690FF"/>
<path d="M79.3563 197.034L80.7181 185.861C85.1757 186.48 88.9339 185.752 91.9927 183.678C95.063 181.565 97.2993 178.044 98.7017 173.118C100.116 168.151 100.163 164.181 98.8441 161.208C97.4851 158.223 95.4435 156.343 92.7193 155.568C90.2756 154.873 88.0505 155.387 86.044 157.111C84.6607 158.319 82.3898 161.657 79.2315 167.123C74.9708 174.483 71.6804 179.5 69.3602 182.174C67.0114 184.796 64.327 186.544 61.307 187.416C58.2583 188.237 55.1716 188.203 52.0468 187.314C49.2024 186.505 46.7608 185.117 44.722 183.152C42.6545 181.134 41.1388 178.776 40.1749 176.077C39.4119 174.042 39.0202 171.462 38.9998 168.339C38.9508 165.164 39.3995 161.915 40.3459 158.59C41.7711 153.584 43.7408 149.403 46.2548 146.048C48.7802 142.654 51.5413 140.409 54.5382 139.313C57.495 138.206 61.1335 137.899 65.4537 138.392L63.8858 149.377C60.4639 148.923 57.5009 149.595 54.9968 151.394C52.504 153.152 50.6591 156.134 49.4618 160.34C48.048 165.307 47.8602 169.085 48.8984 171.675C49.9366 174.266 51.5574 175.874 53.7608 176.501C55.1629 176.9 56.5503 176.819 57.9228 176.257C59.3355 175.706 60.6903 174.598 61.9874 172.932C62.6958 171.965 64.5237 169.042 67.471 164.166C71.6919 157.097 74.8909 152.249 77.0681 149.621C79.2166 146.942 81.7779 145.094 84.752 144.079C87.7261 143.063 91.056 143.08 94.7416 144.128C98.3471 145.154 101.45 147.185 104.051 150.22C106.623 153.203 108.226 156.928 108.86 161.395C109.453 165.851 109.038 170.582 107.612 175.588C105.252 183.879 101.728 189.718 97.04 193.103C92.3633 196.449 86.4687 197.759 79.3563 197.034Z" fill="#2690FF"/>
<path d="M102.46 159.101L112.366 160.888C111.937 164.093 111.305 166.874 110.471 169.229C109.108 173.076 107.442 175.843 105.473 177.532C103.505 179.22 101.386 180.149 99.1174 180.317C96.809 180.471 92.4748 179.422 86.1145 177.168L50.1322 164.421L47.3778 172.193L39.133 169.272L41.8875 161.5L26.3992 156.013L23.7741 143.221L45.6226 150.961L49.3996 140.304L57.6443 143.225L53.8674 153.882L90.4386 166.838C93.4617 167.909 95.4677 168.42 96.4566 168.373C97.4595 168.287 98.3622 167.922 99.1647 167.278C99.9811 166.595 100.668 165.469 101.224 163.899C101.641 162.721 102.053 161.122 102.46 159.101Z" fill="#2690FF"/>
<path d="M122.949 140.96L114.004 137.09C118.833 144.806 119.487 152.735 115.963 160.876C114.409 164.468 112.265 167.534 109.532 170.073C106.816 172.573 104.095 174.141 101.37 174.777C98.6219 175.358 95.6058 175.301 92.3212 174.606C90.1132 174.15 86.8112 172.971 82.415 171.069L44.6848 154.746L49.1509 144.427L82.9246 159.038C88.3146 161.37 92.0372 162.731 94.0923 163.121C97.0876 163.645 99.8238 163.195 102.301 161.771C104.74 160.331 106.629 158.063 107.969 154.967C109.309 151.871 109.782 148.627 109.389 145.236C108.958 141.827 107.625 138.982 105.391 136.7C103.135 134.362 99.4072 132.069 94.2083 129.82L61.5814 115.705L66.0475 105.386L126.943 131.73L122.949 140.96Z" fill="#2690FF"/>
<path d="M131.819 131.194L124.46 127.203C128.24 134.037 128.183 141.042 124.291 148.217C121.77 152.866 118.165 156.454 113.477 158.982C108.809 161.472 103.601 162.557 97.853 162.235C92.0878 161.857 86.2212 160.05 80.253 156.814C74.4312 153.657 69.6849 149.828 66.014 145.327C62.3065 140.806 60.242 135.921 59.8204 130.67C59.3987 125.42 60.4886 120.397 63.0898 115.602C64.996 112.087 67.4443 109.364 70.4348 107.433C73.3886 105.481 76.5222 104.29 79.8354 103.86L50.9464 88.1965L56.2779 78.3674L136.794 122.024L131.819 131.194ZM85.7632 146.655C93.2326 150.705 99.6701 152.159 105.076 151.016C110.482 149.872 114.346 147.159 116.669 142.876C119.012 138.557 119.241 133.943 117.354 129.035C115.45 124.071 110.874 119.624 103.624 115.693C95.642 111.365 88.9497 109.726 83.547 110.776C78.1444 111.826 74.2219 114.602 71.7795 119.105C69.3967 123.498 69.1952 128.15 71.1751 133.061C73.1748 137.935 78.0375 142.466 85.7632 146.655Z" fill="#2690FF"/>
<path d="M139.259 171.832L129.746 167.083C131.652 165.395 133.108 163.785 134.113 162.253C135.485 160.164 136.234 158.264 136.36 156.554C136.487 154.844 136.186 153.177 135.458 151.553C134.906 150.345 133.202 147.856 130.345 144.088C129.937 143.571 129.354 142.79 128.595 141.744L59.2042 126.317L65.8556 116.186L105.555 125.726C110.612 126.903 115.775 128.374 121.044 130.138C117.434 126.225 114.067 122.172 110.941 117.978L86.3924 84.9057L92.5637 75.506L135.122 133.624C139.73 139.886 142.772 144.398 144.247 147.159C146.249 150.864 147.255 154.264 147.266 157.36C147.311 160.478 146.351 163.534 144.385 166.528C143.197 168.339 141.488 170.106 139.259 171.832Z" fill="#2690FF"/>
<path d="M142.306 134.605L80.929 102.241L89.1208 94.0003L136.608 120.753C136.223 120.136 133.796 116.109 129.325 108.673L109.204 73.7962L117.352 65.5994L151.653 85.679L162.983 92.2694L156.585 80.5399L137.391 45.4396L145.098 37.6859L177.539 99.1591L169.304 107.444L133.676 86.9273L123.849 80.7739L150.586 126.275L142.306 134.605Z" fill="#2690FF"/>
<path d="M122.316 108.163C114.514 98.6712 111.375 89.473 112.897 80.5682C114.185 73.1494 117.999 66.8356 124.339 61.627C131.386 55.8367 139.051 53.4204 147.332 54.3784C155.587 55.3041 163.059 59.837 169.75 67.9771C175.171 74.5728 178.444 80.5885 179.57 86.0243C180.701 91.4015 180.227 96.6957 178.149 101.907C176.103 107.092 172.843 111.522 168.37 115.197C161.194 121.093 153.494 123.565 145.272 122.613C137.081 121.634 129.429 116.817 122.316 108.163ZM131.246 100.825C136.64 107.389 142.119 111.135 147.68 112.064C153.215 112.96 158.155 111.624 162.499 108.054C166.811 104.511 169.051 99.9223 169.217 94.2874C169.384 88.6525 166.704 82.4729 161.177 75.7485C155.967 69.4102 150.579 65.806 145.011 64.936C139.45 64.0074 134.529 65.3014 130.249 68.8179C125.905 72.3873 123.636 76.9733 123.443 82.5761C123.25 88.1788 125.851 94.2619 131.246 100.825Z" fill="#2690FF"/>
<path d="M158.14 122.381L119.803 68.2359L128.064 62.389L133.876 70.5975C133.264 65.2649 133.409 61.3612 134.31 58.8863C135.246 56.3875 136.784 54.3801 138.926 52.8643C142.02 50.6747 145.863 49.4347 150.454 49.1444L153.321 59.8965C150.139 60.1589 147.425 61.0842 145.182 62.6722C143.176 64.0918 141.807 65.9789 141.076 68.3334C140.32 70.6539 140.361 73.1254 141.197 75.748C142.487 79.7328 144.504 83.6627 147.248 87.5375L167.319 115.885L158.14 122.381Z" fill="#2690FF"/>
<path d="M164.254 118.444L116.478 40.3126L126.073 34.4476L153.317 79.0025L161.947 42.0986L174.367 34.5068L165.565 68.7338L211.163 89.7706L199.329 97.004L162.923 79.5012L160.129 90.1413L173.849 112.579L164.254 118.444Z" fill="#2690FF"/>
<path d="M215.637 80.4352C214.128 85.77 211.871 90.3359 208.864 94.1331C205.839 97.893 202.046 100.893 197.485 103.134C189.074 107.266 181.005 107.704 173.278 104.447C167.001 101.778 162.456 97.584 159.646 91.8655C157.148 86.7824 156.524 81.405 157.774 75.7332C159.043 70.0057 162.167 63.993 167.147 57.6952C161.352 55.2526 157.185 53.0075 154.648 50.96C152.11 48.9124 150.235 46.6552 149.022 44.1884C146.597 39.2549 146.419 34.0295 148.488 28.5124C150.575 22.9395 154.554 18.7113 160.423 15.8279C166.03 13.073 171.455 12.5424 176.696 14.2362C181.975 15.9116 185.799 19.16 188.169 23.9814C192.008 31.7929 190.109 41.0081 182.473 51.6271L206.451 63.1629C206.517 59.0474 205.952 54.5923 204.755 49.7976L216.344 46.8884C218.076 54.9461 218.549 62.0452 217.761 68.1858C223.998 71.3391 230.345 73.441 236.802 74.4913L233.957 85.8418C228.597 85.2274 222.49 83.4252 215.637 80.4352ZM174.062 47.6858C177.168 42.9581 178.879 39.3103 179.195 36.7423C179.548 34.1559 179.146 31.6854 177.989 29.3308C176.611 26.5276 174.593 24.6885 171.936 23.8134C169.297 22.8826 166.65 23.0692 163.996 24.3732C161.267 25.7139 159.419 27.7126 158.45 30.3691C157.519 33.0074 157.678 35.5972 158.927 38.1388C159.552 39.4095 160.531 40.5989 161.865 41.707C163.217 42.7593 164.933 43.7489 167.013 44.6759L174.062 47.6858ZM205.388 75.5873L175.613 61.7486C171.754 67.6817 169.559 72.5182 169.03 76.258C168.483 79.9605 168.88 83.1759 170.221 85.9043C171.856 89.2307 174.882 92.036 179.3 94.32C183.718 96.6041 188.356 96.5523 193.216 94.1647C196.244 92.6771 198.906 90.2091 201.203 86.7609C203.518 83.2569 204.913 79.5323 205.388 75.5873Z" fill="#2690FF"/>
<path d="M296.979 95.9491C292.697 99.4707 288.238 101.934 283.602 103.338C278.972 104.701 274.145 105.002 269.121 104.242C259.854 102.839 252.977 98.5974 248.488 91.516C244.855 85.7434 243.515 79.7071 244.469 73.4074C245.317 67.8076 247.872 63.0348 252.135 59.089C256.444 55.1082 262.441 51.9514 270.124 49.6184C266.758 44.3074 264.617 40.0873 263.7 36.9582C262.784 33.8291 262.531 30.9057 262.943 28.1882C263.766 22.753 266.6 18.3595 271.447 15.0076C276.341 11.6207 282.021 10.4165 288.487 11.3951C294.664 12.3301 299.422 14.9877 302.761 19.368C306.141 23.7545 307.429 28.6035 306.625 33.9151C305.322 42.5207 298.505 49.0072 286.175 53.3745L299.289 76.5239C301.691 73.181 303.768 69.1993 305.521 64.5789L316.698 68.7978C313.525 76.4042 309.863 82.5047 305.713 87.0993C309.037 93.2463 313.051 98.5922 317.755 103.137L308.943 110.838C304.89 107.276 300.902 102.313 296.979 95.9491ZM281.514 45.3405C286.763 43.2287 290.25 41.2082 291.974 39.279C293.74 37.3561 294.819 35.0976 295.212 32.5036C295.679 29.4154 295.071 26.7542 293.387 24.5197C291.751 22.2504 289.471 20.8944 286.547 20.4518C283.54 19.9968 280.882 20.5842 278.571 22.214C276.301 23.85 274.954 26.068 274.53 28.8679C274.318 30.2679 274.444 31.8032 274.907 33.4738C275.418 35.1094 276.263 36.901 277.442 38.8486L281.514 45.3405ZM291.327 86.1223L274.766 57.776C268.211 60.4481 263.649 63.1693 261.081 65.9396C258.52 68.6686 257.011 71.5361 256.556 74.5418C256.001 78.2064 256.887 82.2364 259.212 86.6318C261.538 91.0271 265.377 93.63 270.731 94.4403C274.067 94.9452 277.661 94.4363 281.515 92.9136C285.416 91.3559 288.686 89.0922 291.327 86.1223Z" fill="#2690FF"/>
<path d="M177.314 89.5385L187.079 83.9382C189.253 87.8782 192.086 90.4519 195.579 91.6594C199.111 92.8519 203.27 92.5347 208.056 90.7075C212.881 88.8655 216.089 86.5263 217.681 83.6897C219.258 80.8143 219.542 78.0538 218.531 75.4083C217.625 73.0351 215.881 71.5614 213.298 70.987C211.502 70.6029 207.469 70.783 201.199 71.5272C192.752 72.5232 186.762 72.8928 183.231 72.6361C179.724 72.3256 176.717 71.2224 174.209 69.3267C171.726 67.3773 169.905 64.8853 168.746 61.8507C167.691 59.0885 167.341 56.3025 167.694 53.4929C168.072 50.6295 169.053 48.0038 170.638 45.6157C171.812 43.7858 173.644 41.9275 176.133 40.041C178.647 38.1007 181.519 36.5141 184.748 35.2811C189.612 33.4242 194.141 32.4979 198.333 32.5021C202.565 32.4915 206.017 33.358 208.689 35.1016C211.346 36.8063 213.771 39.536 215.963 43.2907L206.225 48.6129C204.54 45.601 202.227 43.631 199.286 42.703C196.385 41.7601 192.891 42.0685 188.806 43.6283C183.98 45.4703 180.841 47.5825 179.388 49.9649C177.935 52.3473 177.617 54.6083 178.434 56.7481C178.954 58.1098 179.85 59.1719 181.122 59.9344C182.409 60.7358 184.108 61.157 186.219 61.198C187.419 61.186 190.854 60.8999 196.525 60.3396C204.715 59.4865 210.515 59.1448 213.923 59.3145C217.356 59.4305 220.37 60.3751 222.964 62.1485C225.558 63.9218 227.539 66.5981 228.906 70.1773C230.243 73.6787 230.475 77.3793 229.601 81.279C228.752 85.1249 226.727 88.6391 223.529 91.8215C220.315 94.965 216.277 97.4652 211.413 99.3221C203.358 102.397 196.571 103.071 191.052 101.345C185.571 99.6031 180.992 95.6677 177.314 89.5385Z" fill="#2690FF"/>
<path d="M221.534 85.3245L226.036 94.3264C223.211 95.9025 220.605 97.0615 218.219 97.8035C214.321 99.0153 211.106 99.3388 208.575 98.7738C206.044 98.2089 204.032 97.0683 202.538 95.352C201.032 93.596 199.278 89.497 197.274 83.0549L185.938 46.6096L178.063 49.0581L175.465 40.7073L183.341 38.2588L178.461 22.5712L187.137 12.8088L194.02 34.9385L204.818 31.5811L207.416 39.9319L196.617 43.2893L208.139 80.3311C209.091 83.3931 209.882 85.3058 210.512 86.0694C211.182 86.8206 212.015 87.3248 213.011 87.5821C214.047 87.827 215.36 87.7021 216.951 87.2075C218.144 86.8365 219.672 86.2088 221.534 85.3245Z" fill="#2690FF"/>
<path d="M248.335 90.8672L246.078 81.3872C242.79 89.8751 236.83 95.1459 228.199 97.1996C224.39 98.1059 220.651 98.2251 216.981 97.5573C213.351 96.8798 210.466 95.6401 208.324 93.8381C206.214 91.9859 204.453 89.5367 203.043 86.4905C202.086 84.4493 201.053 81.0993 199.944 76.4404L190.426 36.4544L201.366 33.8511L209.887 69.644C211.246 75.3563 212.385 79.152 213.304 81.031C214.677 83.7435 216.676 85.6651 219.3 86.7959C221.914 87.8861 224.863 88.0407 228.145 87.2597C231.427 86.4787 234.309 84.9154 236.79 82.5699C239.262 80.1838 240.744 77.4127 241.234 74.2567C241.755 71.0505 241.36 66.6926 240.049 61.1829L231.818 26.6053L242.758 24.002L258.121 88.5387L248.335 90.8672Z" fill="#2690FF"/>
<path d="M261.471 92.1216L260.26 83.8391C257.049 90.9579 251.404 95.1074 243.326 96.2876C238.092 97.0523 233.059 96.3146 228.228 94.0744C223.437 91.8282 219.45 88.3074 216.265 83.5118C213.116 78.669 211.051 72.8893 210.069 66.1726C209.111 59.6208 209.336 53.5274 210.744 47.8927C212.145 42.2167 214.822 37.6379 218.776 34.1564C222.729 30.6749 227.405 28.5397 232.804 27.7509C236.761 27.1729 240.408 27.5028 243.746 28.7406C247.078 29.9373 249.908 31.7333 252.237 34.1287L247.485 1.61675L258.551 0L271.795 90.6133L261.471 92.1216ZM221.506 64.5017C222.735 72.9078 225.425 78.9329 229.578 82.5769C233.731 86.2209 238.218 87.6907 243.04 86.9862C247.904 86.2757 251.736 83.6956 254.537 79.246C257.374 74.7492 258.196 68.4213 257.004 60.2624C255.691 51.2794 252.996 44.9393 248.92 41.242C244.843 37.5447 240.271 36.0664 235.201 36.807C230.255 37.5296 226.408 40.1539 223.66 44.6799C220.953 49.1998 220.235 55.8071 221.506 64.5017Z" fill="#2690FF"/>
<path d="M233.372 122.413L231.479 111.952C233.973 112.467 236.134 112.669 237.964 112.557C240.458 112.404 242.428 111.866 243.874 110.943C245.32 110.02 246.475 108.781 247.34 107.227C247.978 106.061 248.95 103.206 250.258 98.6617C250.427 98.0255 250.704 97.0907 251.088 95.8573L221.893 31.0559L233.991 30.3153L250.121 67.8165C252.207 72.5704 254.121 77.585 255.863 82.8606C256.836 77.6274 258.066 72.5037 259.553 67.4895L271.346 28.0285L282.571 27.3413L261.501 96.2211C259.244 103.661 257.451 108.798 256.122 111.633C254.353 115.455 252.232 118.296 249.759 120.158C247.288 122.062 244.265 123.123 240.69 123.342C238.528 123.474 236.089 123.165 233.372 122.413Z" fill="#2690FF"/>
</svg>
