<svg width="870" height="126" viewBox="0 0 870 126" fill="none" xmlns="http://www.w3.org/2000/svg">
<rect x="1.5" y="1.5" width="867" height="123" fill="black" stroke="black" stroke-width="3"/>
<rect x="331.5" y="21.5" width="535" height="95" fill="white" stroke="black" stroke-width="3"/>
<path d="M403 101C403 88.7291 401.583 76.7071 399.089 64.7037C398.205 60.4492 397.861 54.9208 395 52" stroke="black" stroke-width="3" stroke-linecap="round"/>
<path d="M366 50C373.842 49.1933 380.733 44.074 388.5 42.4762C395.459 41.0447 402.646 41.4286 409.704 41.4286C418.891 41.4286 426.906 38 436 38" stroke="black" stroke-width="3" stroke-linecap="round"/>
<path d="M466 103C466 83.737 466 64.474 466 45.211C466 38.8392 467.245 38.4262 473.557 37.0472C477.91 36.0963 476.077 49.7943 476.077 52.6411C476.077 58.9141 474.762 65.1715 474.397 71.6289C474.256 74.1198 465.264 75.6753 470.292 80.6182C475.214 85.4573 480.442 84.3605 486.153 86.8558C489.892 88.4895 497.439 91.4422 489.512 91.4422" stroke="black" stroke-width="3" stroke-linecap="round"/>
<path d="M526 98C534.712 79.9996 539.674 63.2692 544.107 44.1862C545.384 38.6878 546.16 32.2562 546.16 42.1659C546.16 49.8313 549.766 63.0524 553.627 69.532C556.902 75.0296 561.208 79.3836 563.707 85.419C564.87 88.2294 565.464 93.4465 568 94.694" stroke="black" stroke-width="3" stroke-linecap="round"/>
<path d="M539 85H558" stroke="black" stroke-width="3" stroke-linecap="round"/>
<path d="M612 51.3162C603.975 51.3162 592.197 46.8806 585.667 54.2948C581.716 58.7801 586.028 75.3716 586.028 81.4747C586.028 85.0013 592.883 93.6687 596.669 94.7853C601.706 96.2708 612 89.733 612 84.8256" stroke="black" stroke-width="3" stroke-linecap="round"/>
<path d="M637 40V88" stroke="black" stroke-width="3" stroke-linecap="round"/>
<path d="M642 63C647.099 58.9565 658.512 52.0812 665.333 51.6923C668.883 51.4899 672 45.0392 672 42" stroke="black" stroke-width="3" stroke-linecap="round"/>
<path d="M638 66C641.345 69.3018 649.046 73.6965 649.455 78.7436C649.665 81.3423 653.601 85.8159 656 87" stroke="black" stroke-width="3" stroke-linecap="round"/>
<path d="M732.055 105H728.141V70.6406H732.359V82.8984C734.141 80.6641 736.414 79.5469 739.18 79.5469C740.711 79.5469 742.156 79.8594 743.516 80.4844C744.891 81.0938 746.016 81.9609 746.891 83.0859C747.781 84.1953 748.477 85.5391 748.977 87.1172C749.477 88.6953 749.727 90.3828 749.727 92.1797C749.727 96.4453 748.672 99.7422 746.562 102.07C744.453 104.398 741.922 105.562 738.969 105.562C736.031 105.562 733.727 104.336 732.055 101.883V105ZM732.008 92.3672C732.008 95.3516 732.414 97.5078 733.227 98.8359C734.555 101.008 736.352 102.094 738.617 102.094C740.461 102.094 742.055 101.297 743.398 99.7031C744.742 98.0938 745.414 95.7031 745.414 92.5312C745.414 89.2812 744.766 86.8828 743.469 85.3359C742.188 83.7891 740.633 83.0156 738.805 83.0156C736.961 83.0156 735.367 83.8203 734.023 85.4297C732.68 87.0234 732.008 89.3359 732.008 92.3672ZM753.711 88.0547C753.711 83.9922 754.125 80.7266 754.953 78.2578C755.797 75.7734 757.039 73.8594 758.68 72.5156C760.336 71.1719 762.414 70.5 764.914 70.5C766.758 70.5 768.375 70.875 769.766 71.625C771.156 72.3594 772.305 73.4297 773.211 74.8359C774.117 76.2266 774.828 77.9297 775.344 79.9453C775.859 81.9453 776.117 84.6484 776.117 88.0547C776.117 92.0859 775.703 95.3438 774.875 97.8281C774.047 100.297 772.805 102.211 771.148 103.57C769.508 104.914 767.43 105.586 764.914 105.586C761.602 105.586 759 104.398 757.109 102.023C754.844 99.1641 753.711 94.5078 753.711 88.0547ZM758.047 88.0547C758.047 93.6953 758.703 97.4531 760.016 99.3281C761.344 101.188 762.977 102.117 764.914 102.117C766.852 102.117 768.477 101.18 769.789 99.3047C771.117 97.4297 771.781 93.6797 771.781 88.0547C771.781 82.3984 771.117 78.6406 769.789 76.7812C768.477 74.9219 766.836 73.9922 764.867 73.9922C762.93 73.9922 761.383 74.8125 760.227 76.4531C758.773 78.5469 758.047 82.4141 758.047 88.0547ZM780.453 95.9297L784.672 95.3672C785.156 97.7578 785.977 99.4844 787.133 100.547C788.305 101.594 789.727 102.117 791.398 102.117C793.383 102.117 795.055 101.43 796.414 100.055C797.789 98.6797 798.477 96.9766 798.477 94.9453C798.477 93.0078 797.844 91.4141 796.578 90.1641C795.312 88.8984 793.703 88.2656 791.75 88.2656C790.953 88.2656 789.961 88.4219 788.773 88.7344L789.242 85.0312C789.523 85.0625 789.75 85.0781 789.922 85.0781C791.719 85.0781 793.336 84.6094 794.773 83.6719C796.211 82.7344 796.93 81.2891 796.93 79.3359C796.93 77.7891 796.406 76.5078 795.359 75.4922C794.312 74.4766 792.961 73.9688 791.305 73.9688C789.664 73.9688 788.297 74.4844 787.203 75.5156C786.109 76.5469 785.406 78.0938 785.094 80.1562L780.875 79.4062C781.391 76.5781 782.562 74.3906 784.391 72.8438C786.219 71.2812 788.492 70.5 791.211 70.5C793.086 70.5 794.812 70.9062 796.391 71.7188C797.969 72.5156 799.172 73.6094 800 75C800.844 76.3906 801.266 77.8672 801.266 79.4297C801.266 80.9141 800.867 82.2656 800.07 83.4844C799.273 84.7031 798.094 85.6719 796.531 86.3906C798.562 86.8594 800.141 87.8359 801.266 89.3203C802.391 90.7891 802.953 92.6328 802.953 94.8516C802.953 97.8516 801.859 100.398 799.672 102.492C797.484 104.57 794.719 105.609 791.375 105.609C788.359 105.609 785.852 104.711 783.852 102.914C781.867 101.117 780.734 98.7891 780.453 95.9297ZM813.641 86.3672C811.891 85.7266 810.594 84.8125 809.75 83.625C808.906 82.4375 808.484 81.0156 808.484 79.3594C808.484 76.8594 809.383 74.7578 811.18 73.0547C812.977 71.3516 815.367 70.5 818.352 70.5C821.352 70.5 823.766 71.375 825.594 73.125C827.422 74.8594 828.336 76.9766 828.336 79.4766C828.336 81.0703 827.914 82.4609 827.07 83.6484C826.242 84.8203 824.977 85.7266 823.273 86.3672C825.383 87.0547 826.984 88.1641 828.078 89.6953C829.188 91.2266 829.742 93.0547 829.742 95.1797C829.742 98.1172 828.703 100.586 826.625 102.586C824.547 104.586 821.812 105.586 818.422 105.586C815.031 105.586 812.297 104.586 810.219 102.586C808.141 100.57 807.102 98.0625 807.102 95.0625C807.102 92.8281 807.664 90.9609 808.789 89.4609C809.93 87.9453 811.547 86.9141 813.641 86.3672ZM812.797 79.2188C812.797 80.8438 813.32 82.1719 814.367 83.2031C815.414 84.2344 816.773 84.75 818.445 84.75C820.07 84.75 821.398 84.2422 822.43 83.2266C823.477 82.1953 824 80.9375 824 79.4531C824 77.9062 823.461 76.6094 822.383 75.5625C821.32 74.5 819.992 73.9688 818.398 73.9688C816.789 73.9688 815.453 74.4844 814.391 75.5156C813.328 76.5469 812.797 77.7812 812.797 79.2188ZM811.438 95.0859C811.438 96.2891 811.719 97.4531 812.281 98.5781C812.859 99.7031 813.711 100.578 814.836 101.203C815.961 101.812 817.172 102.117 818.469 102.117C820.484 102.117 822.148 101.469 823.461 100.172C824.773 98.875 825.43 97.2266 825.43 95.2266C825.43 93.1953 824.75 91.5156 823.391 90.1875C822.047 88.8594 820.359 88.1953 818.328 88.1953C816.344 88.1953 814.695 88.8516 813.383 90.1641C812.086 91.4766 811.438 93.1172 811.438 95.0859Z" fill="black"/>
</svg>
