<svg width="1753" height="1755" viewBox="0 0 1753 1755" fill="none" xmlns="http://www.w3.org/2000/svg">
<path d="M1340.17 621.638L1389.32 572.628L1394.76 582.902L1365.84 610.164L1355.09 620.312C1355.8 620.128 1360.36 619.006 1368.8 616.945L1408.1 608.089L1413.51 618.308L1384.13 645.105L1374.47 653.97L1387.58 651.344L1426.81 643.44L1431.93 653.106L1363.56 665.827L1358.09 655.498L1388.28 627.563L1397.08 620.005L1345.66 632.023L1340.17 621.638Z" fill="black"/>
<path d="M1390.92 648.425C1402.3 643.793 1412.02 643.528 1420.08 647.628C1426.79 651.063 1431.68 656.583 1434.78 664.186C1438.22 672.639 1438.25 680.678 1434.87 688.303C1431.53 695.913 1424.98 701.704 1415.22 705.676C1407.31 708.894 1400.59 710.233 1395.06 709.693C1389.59 709.175 1384.67 707.15 1380.31 703.616C1375.96 700.12 1372.7 695.69 1370.51 690.326C1367.01 681.719 1366.94 673.63 1370.29 666.058C1373.66 658.526 1380.54 652.648 1390.92 648.425ZM1395.27 659.135C1387.4 662.338 1382.19 666.457 1379.66 671.494C1377.15 676.514 1376.96 681.63 1379.08 686.84C1381.19 692.012 1384.91 695.515 1390.24 697.349C1395.57 699.182 1402.27 698.459 1410.34 695.177C1417.94 692.085 1422.99 688.009 1425.47 682.949C1428.01 677.913 1428.24 672.828 1426.15 667.695C1424.03 662.484 1420.32 658.954 1415.03 657.105C1409.73 655.256 1403.15 655.932 1395.27 659.135Z" fill="black"/>
<path d="M1378.88 709.401L1442 688.872L1445.13 698.5L1435.56 701.613C1440.84 702.613 1444.53 703.912 1446.62 705.508C1448.73 707.144 1450.19 709.21 1451.01 711.707C1452.18 715.312 1452.22 719.351 1451.13 723.823L1440.01 723.367C1440.7 720.249 1440.63 717.382 1439.78 714.767C1439.02 712.429 1437.62 710.561 1435.59 709.163C1433.59 707.752 1431.22 707.056 1428.47 707.075C1424.28 707.124 1419.92 707.883 1415.41 709.352L1382.36 720.1L1378.88 709.401Z" fill="black"/>
<path d="M1387.51 737.03L1476.35 714.612L1479.1 725.52L1428.44 738.304L1461.14 757.514L1464.7 771.634L1434.61 753.055L1400.97 790.358L1397.57 776.905L1425.11 747.331L1415.78 741.5L1390.26 747.938L1387.51 737.03Z" fill="black"/>
<path d="M1416.08 827.457C1411.43 824.431 1407.74 820.917 1405 816.917C1402.31 812.91 1400.57 808.395 1399.78 803.373C1398.33 794.111 1400.31 786.273 1405.72 779.86C1410.14 774.657 1415.49 771.563 1421.79 770.577C1427.39 769.702 1432.71 770.703 1437.76 773.583C1442.85 776.497 1447.67 781.268 1452.21 787.897C1456.26 783.087 1459.65 779.775 1462.36 777.959C1465.07 776.143 1467.78 775.023 1470.5 774.598C1475.93 773.748 1480.98 775.13 1485.63 778.746C1490.34 782.396 1493.19 787.452 1494.21 793.915C1495.17 800.09 1494.07 805.429 1490.89 809.933C1487.72 814.477 1483.48 817.165 1478.17 817.995C1469.57 819.341 1461.33 814.789 1453.45 804.34L1435.31 823.816C1439.22 825.101 1443.64 825.885 1448.58 826.167L1447.92 838.101C1439.7 837.361 1432.78 835.703 1427.15 833.126C1422.28 838.147 1418.39 843.585 1415.47 849.44L1405.47 843.35C1407.65 838.412 1411.18 833.114 1416.08 827.457ZM1459.72 797.476C1463.31 801.848 1466.29 804.567 1468.65 805.632C1471.01 806.738 1473.49 807.088 1476.09 806.682C1479.17 806.199 1481.53 804.818 1483.16 802.539C1484.83 800.296 1485.44 797.712 1484.98 794.789C1484.51 791.784 1483.15 789.424 1480.9 787.71C1478.66 786.037 1476.13 785.419 1473.33 785.857C1471.93 786.076 1470.51 786.658 1469.05 787.602C1467.65 788.582 1466.19 789.927 1464.69 791.638L1459.72 797.476ZM1423.75 819.107L1445.82 794.779C1441.3 789.329 1437.33 785.796 1433.91 784.18C1430.54 782.557 1427.35 781.98 1424.34 782.451C1420.68 783.024 1417.1 785.081 1413.61 788.622C1410.11 792.163 1408.78 796.609 1409.62 801.961C1410.14 805.295 1411.71 808.572 1414.32 811.79C1416.98 815.043 1420.12 817.482 1423.75 819.107Z" fill="black"/>
<path d="M1424.43 827.377L1426.88 838.37C1422.47 839.275 1419.17 841.216 1416.98 844.194C1414.79 847.213 1413.86 851.28 1414.18 856.395C1414.51 861.551 1415.79 865.311 1418.03 867.675C1420.31 870.036 1422.86 871.127 1425.69 870.948C1428.23 870.787 1430.15 869.559 1431.47 867.263C1432.37 865.661 1433.39 861.755 1434.55 855.545C1436.1 847.18 1437.53 841.349 1438.83 838.052C1440.16 834.795 1442.11 832.25 1444.67 830.418C1447.27 828.626 1450.19 827.627 1453.43 827.421C1456.39 827.235 1459.15 827.728 1461.73 828.9C1464.35 830.112 1466.57 831.83 1468.38 834.053C1469.78 835.718 1471.01 838.02 1472.07 840.959C1473.18 843.936 1473.84 847.151 1474.06 850.602C1474.39 855.8 1473.93 860.401 1472.68 864.405C1471.43 868.45 1469.58 871.49 1467.12 873.524C1464.7 875.556 1461.37 877.061 1457.14 878.039L1454.94 867.155C1458.32 866.44 1460.89 864.817 1462.65 862.284C1464.42 859.792 1465.16 856.364 1464.88 851.997C1464.56 846.841 1463.47 843.215 1461.63 841.119C1459.78 839.023 1457.72 838.047 1455.43 838.192C1453.97 838.284 1452.69 838.824 1451.59 839.813C1450.44 840.804 1449.53 842.302 1448.87 844.306C1448.52 845.455 1447.77 848.821 1446.62 854.405C1445.01 862.482 1443.61 868.123 1442.43 871.329C1441.3 874.573 1439.5 877.171 1437.04 879.122C1434.57 881.073 1431.43 882.17 1427.6 882.412C1423.86 882.649 1420.26 881.771 1416.79 879.777C1413.37 877.823 1410.61 874.845 1408.52 870.844C1406.47 866.84 1405.29 862.239 1404.96 857.041C1404.41 848.434 1405.78 841.75 1409.07 836.992C1412.37 832.274 1417.49 829.069 1424.43 827.377Z" fill="black"/>
<path d="M1416.88 900.616L1406.95 902.241C1406.28 899.074 1405.95 896.241 1405.95 893.741C1405.95 889.657 1406.59 886.491 1407.89 884.241C1409.18 881.991 1410.87 880.408 1412.95 879.491C1415.07 878.575 1419.51 878.116 1426.26 878.117L1464.45 878.119L1464.45 869.869L1473.2 869.87L1473.2 878.12L1489.64 878.121L1496.39 889.309L1473.2 889.307L1473.2 900.62L1464.45 900.619L1464.45 889.307L1425.64 889.304C1422.43 889.304 1420.36 889.492 1419.45 889.866C1418.53 890.283 1417.8 890.929 1417.26 891.804C1416.72 892.72 1416.45 894.012 1416.45 895.679C1416.45 896.929 1416.59 898.575 1416.88 900.616Z" fill="black"/>
<path d="M1403.7 943.51L1413.43 944.172C1406.3 938.508 1403.04 931.249 1403.64 922.395C1403.9 918.487 1404.9 914.88 1406.63 911.573C1408.35 908.307 1410.4 905.919 1412.75 904.409C1415.15 902.944 1418.01 901.99 1421.34 901.548C1423.58 901.241 1427.08 901.249 1431.87 901.575L1472.9 904.365L1472.13 915.589L1435.4 913.091C1429.54 912.693 1425.58 912.653 1423.51 912.971C1420.51 913.477 1418.08 914.816 1416.22 916.986C1414.4 919.159 1413.38 921.93 1413.15 925.297C1412.92 928.664 1413.56 931.881 1415.06 934.949C1416.61 938.019 1418.81 940.257 1421.68 941.664C1424.59 943.114 1428.87 944.032 1434.53 944.416L1470.01 946.83L1469.24 958.054L1403.02 953.55L1403.7 943.51Z" fill="black"/>
<path d="M1396.05 989.571L1404.32 990.876C1398.48 985.693 1396.19 979.069 1397.46 971.002C1398.29 965.775 1400.49 961.186 1404.06 957.237C1407.63 953.329 1412.18 950.566 1417.71 948.949C1423.27 947.38 1429.41 947.125 1436.11 948.183C1442.66 949.215 1448.41 951.241 1453.38 954.26C1458.39 957.285 1461.96 961.203 1464.12 966.014C1466.27 970.825 1466.92 975.926 1466.07 981.318C1465.44 985.269 1464.05 988.655 1461.87 991.475C1459.74 994.302 1457.18 996.472 1454.2 997.985L1486.67 1003.11L1484.93 1014.16L1394.43 999.881L1396.05 989.571ZM1434.31 959.604C1425.92 958.28 1419.36 959.06 1414.65 961.944C1409.93 964.827 1407.19 968.677 1406.43 973.492C1405.67 978.349 1406.99 982.776 1410.41 986.775C1413.87 990.821 1419.67 993.486 1427.82 994.772C1436.79 996.187 1443.65 995.497 1448.39 992.702C1453.13 989.907 1455.9 985.978 1456.7 980.916C1457.48 975.977 1456.12 971.523 1452.61 967.553C1449.1 963.624 1443 960.974 1434.31 959.604Z" fill="black"/>
<path d="M1369.9 987.062L1380.46 988.363C1379.23 990.592 1378.39 992.597 1377.96 994.378C1377.36 996.806 1377.29 998.847 1377.74 1000.5C1378.19 1002.16 1379.04 1003.63 1380.26 1004.92C1381.19 1005.87 1383.63 1007.65 1387.58 1010.25C1388.14 1010.6 1388.95 1011.14 1390.01 1011.88L1460.6 1003.25L1457.71 1015.02L1417.09 1019.29C1411.93 1019.87 1406.57 1020.2 1401.01 1020.3C1405.72 1022.78 1410.25 1025.48 1414.6 1028.39L1448.8 1051.38L1446.12 1062.31L1386.57 1021.71C1380.13 1017.35 1375.76 1014.11 1373.44 1012C1370.32 1009.17 1368.23 1006.3 1367.19 1003.39C1366.11 1000.46 1365.99 997.257 1366.84 993.777C1367.36 991.672 1368.38 989.434 1369.9 987.062Z" fill="black"/>
<path d="M1372.07 1068.97L1441.22 1074.97L1436.87 1085.75L1397.39 1081.21L1382.7 1079.53C1383.3 1079.94 1387.1 1082.71 1394.11 1087.84L1426.21 1112.18L1421.88 1122.9L1382.46 1117.71L1369.45 1116.03L1379.91 1124.36L1411.24 1149.27L1407.15 1159.41L1353.36 1115.33L1357.73 1104.49L1398.55 1109.58L1410 1111.43L1367.67 1079.86L1372.07 1068.97Z" fill="black"/>
<path d="M1384.29 1125.04C1395.17 1130.76 1401.64 1138.02 1403.7 1146.82C1405.39 1154.16 1404.33 1161.47 1400.51 1168.73C1396.26 1176.81 1390.13 1182.01 1382.13 1184.34C1374.16 1186.7 1365.51 1185.42 1356.18 1180.51C1348.62 1176.54 1343.26 1172.26 1340.11 1167.69C1336.98 1163.17 1335.36 1158.1 1335.25 1152.49C1335.13 1146.91 1336.41 1141.56 1339.11 1136.44C1343.43 1128.21 1349.57 1122.94 1357.52 1120.63C1365.45 1118.35 1374.37 1119.82 1384.29 1125.04ZM1378.91 1135.27C1371.39 1131.31 1364.88 1129.99 1359.4 1131.29C1353.95 1132.61 1349.91 1135.76 1347.29 1140.74C1344.69 1145.68 1344.41 1150.79 1346.45 1156.05C1348.48 1161.31 1353.35 1165.96 1361.06 1170.02C1368.33 1173.84 1374.69 1175.07 1380.16 1173.71C1385.65 1172.4 1389.68 1169.3 1392.26 1164.4C1394.88 1159.42 1395.19 1154.31 1393.19 1149.07C1391.2 1143.83 1386.43 1139.23 1378.91 1135.27Z" fill="black"/>
<path d="M1329.91 1155.13L1386.28 1190.16L1380.94 1198.76L1372.39 1193.45C1375.03 1198.13 1376.41 1201.79 1376.54 1204.42C1376.65 1207.09 1376.01 1209.53 1374.63 1211.76C1372.62 1214.98 1369.56 1217.62 1365.44 1219.67L1358.62 1210.87C1361.46 1209.39 1363.6 1207.49 1365.05 1205.15C1366.35 1203.06 1366.88 1200.79 1366.64 1198.33C1366.43 1195.9 1365.43 1193.64 1363.64 1191.55C1360.91 1188.37 1357.52 1185.53 1353.49 1183.02L1323.97 1164.68L1329.91 1155.13Z" fill="black"/>
<path d="M1314.35 1179.53L1388.74 1233.02L1382.17 1242.15L1339.75 1211.65L1346.13 1249.03L1337.63 1260.85L1332.45 1225.88L1282.24 1224.19L1290.34 1212.92L1330.7 1214.92L1329.14 1204.03L1307.78 1188.67L1314.35 1179.53Z" fill="black"/>
<path d="M1263.61 1259.65C1262.93 1254.14 1263.23 1249.06 1264.53 1244.39C1265.86 1239.75 1268.19 1235.51 1271.52 1231.67C1277.67 1224.59 1284.94 1221.05 1293.33 1221.06C1300.15 1221.08 1305.97 1223.18 1310.78 1227.36C1315.06 1231.08 1317.73 1235.8 1318.78 1241.51C1319.83 1247.28 1319.29 1254.04 1317.14 1261.78C1323.43 1261.78 1328.15 1262.24 1331.28 1263.14C1334.42 1264.04 1337.02 1265.39 1339.1 1267.2C1343.25 1270.8 1345.44 1275.55 1345.68 1281.44C1345.92 1287.39 1343.9 1292.84 1339.61 1297.78C1335.51 1302.49 1330.71 1305.09 1325.22 1305.56C1319.7 1306.07 1314.92 1304.56 1310.86 1301.03C1304.29 1295.32 1302.46 1286.09 1305.37 1273.33L1278.79 1272.01C1280.32 1275.83 1282.58 1279.71 1285.54 1283.67L1275.99 1290.85C1271.26 1284.1 1268.07 1277.74 1266.41 1271.77C1259.43 1271.28 1252.77 1271.81 1246.41 1273.35L1244.62 1261.78C1249.8 1260.26 1256.13 1259.55 1263.61 1259.65ZM1314.66 1273.7C1313.63 1279.26 1313.47 1283.29 1314.18 1285.78C1314.85 1288.3 1316.18 1290.43 1318.17 1292.15C1320.53 1294.2 1323.1 1295.11 1325.89 1294.88C1328.68 1294.72 1331.05 1293.52 1332.99 1291.28C1334.99 1288.99 1335.91 1286.43 1335.78 1283.6C1335.61 1280.81 1334.46 1278.48 1332.32 1276.62C1331.25 1275.69 1329.88 1274.98 1328.22 1274.47C1326.57 1274.03 1324.6 1273.78 1322.32 1273.74L1314.66 1273.7ZM1274.94 1260.14L1307.76 1261.33C1309.02 1254.36 1309.16 1249.05 1308.2 1245.4C1307.26 1241.77 1305.65 1238.96 1303.35 1236.97C1300.55 1234.53 1296.67 1233.12 1291.71 1232.73C1286.75 1232.34 1282.5 1234.19 1278.94 1238.28C1276.73 1240.83 1275.23 1244.14 1274.46 1248.21C1273.68 1252.34 1273.84 1256.32 1274.94 1260.14Z" fill="black"/>
<path d="M1269.06 1265.99L1262.23 1274.94C1258.7 1272.16 1255.08 1270.88 1251.39 1271.13C1247.68 1271.4 1243.96 1273.31 1240.26 1276.85C1236.53 1280.42 1234.48 1283.82 1234.11 1287.06C1233.78 1290.32 1234.59 1292.98 1236.55 1295.02C1238.31 1296.86 1240.49 1297.54 1243.09 1297.07C1244.89 1296.73 1248.54 1294.99 1254.03 1291.87C1261.43 1287.67 1266.81 1285.01 1270.17 1283.87C1273.52 1282.8 1276.72 1282.64 1279.77 1283.42C1282.82 1284.25 1285.46 1285.84 1287.71 1288.19C1289.76 1290.33 1291.16 1292.76 1291.93 1295.49C1292.69 1298.27 1292.81 1301.08 1292.27 1303.89C1291.9 1306.04 1290.93 1308.46 1289.37 1311.17C1287.81 1313.93 1285.78 1316.51 1283.28 1318.9C1279.52 1322.5 1275.7 1325.12 1271.84 1326.74C1267.94 1328.4 1264.42 1328.94 1261.28 1328.37C1258.17 1327.83 1254.87 1326.25 1251.39 1323.64L1258.3 1314.95C1261.03 1317.07 1263.92 1317.99 1266.99 1317.71C1270.03 1317.45 1273.14 1315.81 1276.3 1312.78C1280.03 1309.21 1282.1 1306.04 1282.52 1303.28C1282.93 1300.52 1282.35 1298.31 1280.76 1296.66C1279.75 1295.6 1278.51 1294.97 1277.05 1294.76C1275.55 1294.52 1273.82 1294.8 1271.86 1295.58C1270.75 1296.05 1267.7 1297.65 1262.69 1300.37C1255.47 1304.34 1250.26 1306.91 1247.05 1308.07C1243.84 1309.3 1240.69 1309.6 1237.61 1308.97C1234.53 1308.34 1231.67 1306.65 1229.02 1303.88C1226.42 1301.17 1224.77 1297.85 1224.06 1293.91C1223.35 1290.03 1223.85 1286.01 1225.57 1281.83C1227.31 1277.69 1230.06 1273.81 1233.82 1270.21C1240.05 1264.25 1246.05 1260.99 1251.81 1260.44C1257.53 1259.91 1263.28 1261.76 1269.06 1265.99Z" fill="black"/>
<path d="M1208.19 1307.41L1200.54 1300.86C1202.53 1298.31 1204.49 1296.23 1206.4 1294.62C1209.52 1291.99 1212.36 1290.44 1214.91 1289.98C1217.46 1289.52 1219.76 1289.79 1221.81 1290.79C1223.88 1291.82 1227.09 1294.92 1231.43 1300.08L1256.04 1329.29L1262.35 1323.97L1267.99 1330.66L1261.68 1335.98L1272.27 1348.55L1268.07 1360.92L1253.13 1343.19L1244.48 1350.47L1238.84 1343.78L1247.49 1336.49L1222.48 1306.81C1220.41 1304.36 1218.94 1302.9 1218.06 1302.45C1217.15 1302.01 1216.19 1301.87 1215.17 1302.02C1214.12 1302.2 1212.96 1302.82 1211.68 1303.9C1210.73 1304.7 1209.56 1305.87 1208.19 1307.41Z" fill="black"/>
<path d="M1166.9 1324.98L1172.66 1332.84C1172.39 1323.74 1175.84 1316.56 1183 1311.32C1186.16 1309 1189.56 1307.44 1193.2 1306.63C1196.81 1305.85 1199.95 1305.87 1202.63 1306.7C1205.29 1307.59 1207.87 1309.16 1210.35 1311.42C1212.02 1312.93 1214.28 1315.62 1217.11 1319.49L1241.42 1352.66L1232.34 1359.31L1210.58 1329.61C1207.11 1324.88 1204.59 1321.82 1203.01 1320.44C1200.69 1318.47 1198.1 1317.48 1195.24 1317.46C1192.41 1317.47 1189.63 1318.47 1186.91 1320.46C1184.19 1322.46 1182.14 1325.02 1180.76 1328.14C1179.41 1331.3 1179.12 1334.43 1179.89 1337.54C1180.66 1340.69 1182.72 1344.56 1186.07 1349.13L1207.09 1377.82L1198.01 1384.46L1158.78 1330.93L1166.9 1324.98Z" fill="black"/>
<path d="M1126.74 1348.81L1131.08 1355.98C1131.27 1348.16 1134.86 1342.15 1141.85 1337.92C1146.38 1335.18 1151.3 1333.91 1156.63 1334.1C1161.92 1334.31 1166.96 1336.01 1171.76 1339.19C1176.54 1342.43 1180.69 1346.96 1184.21 1352.77C1187.64 1358.44 1189.8 1364.15 1190.69 1369.89C1191.6 1375.67 1190.91 1380.93 1188.62 1385.67C1186.33 1390.42 1182.84 1394.2 1178.17 1397.03C1174.75 1399.1 1171.26 1400.21 1167.7 1400.37C1164.17 1400.56 1160.86 1400 1157.78 1398.69L1174.79 1426.83L1165.22 1432.62L1117.81 1354.21L1126.74 1348.81ZM1174.31 1358.75C1169.92 1351.48 1165.09 1346.97 1159.85 1345.22C1154.61 1343.48 1149.9 1343.86 1145.73 1346.39C1141.52 1348.93 1138.99 1352.8 1138.14 1357.99C1137.27 1363.24 1138.97 1369.39 1143.24 1376.45C1147.94 1384.22 1152.88 1389.02 1158.08 1390.85C1163.27 1392.67 1168.06 1392.26 1172.45 1389.61C1176.72 1387.02 1179.25 1383.11 1180.03 1377.87C1180.77 1372.65 1178.86 1366.28 1174.31 1358.75Z" fill="black"/>
<path d="M1111.81 1327.2L1117.62 1336.11C1115.12 1336.6 1113.05 1337.26 1111.41 1338.07C1109.17 1339.18 1107.56 1340.44 1106.58 1341.85C1105.61 1343.27 1105.03 1344.86 1104.83 1346.63C1104.7 1347.95 1104.91 1350.96 1105.47 1355.66C1105.56 1356.31 1105.67 1357.28 1105.8 1358.56L1157.88 1406.98L1147.02 1412.36L1117.58 1384.04C1113.81 1380.47 1110.1 1376.59 1106.44 1372.4C1107.58 1377.61 1108.43 1382.81 1109.01 1388.01L1113.47 1428.97L1103.39 1433.97L1096.05 1362.27C1095.24 1354.54 1094.9 1349.1 1095.03 1345.97C1095.17 1341.76 1096.02 1338.32 1097.58 1335.64C1099.12 1332.93 1101.49 1330.77 1104.7 1329.18C1106.65 1328.22 1109.01 1327.56 1111.81 1327.2Z" fill="black"/>
<path d="M1050.58 1381.64L1090.55 1438.38L1079.5 1442L1057.53 1408.89L1049.35 1396.57C1049.42 1397.3 1049.75 1401.99 1050.35 1410.65L1052.42 1450.88L1041.43 1454.48L1020 1420.99L1012.9 1409.97L1013.27 1423.33L1014.41 1463.34L1004.02 1466.74L1003.06 1397.21L1014.17 1393.57L1036.59 1428.05L1042.54 1438L1039.41 1385.29L1050.58 1381.64Z" fill="black"/>
<path d="M865.933 342.864L845.729 276.456L857.354 276.475L867.854 314.805L871.768 329.061C871.936 328.353 873.089 323.792 875.228 315.379L885.854 276.521L897.416 276.54L907.291 315.056L910.583 327.749L914.416 314.943L925.854 276.586L936.791 276.604L915.933 342.945L904.246 342.926L893.748 303.159L891.204 291.842L877.683 342.883L865.933 342.864Z" fill="black"/>
<path d="M1015.58 1427.12C1018.22 1439.12 1016.83 1448.75 1011.42 1455.99C1006.9 1462.02 1000.63 1465.91 992.616 1467.67C983.704 1469.63 975.775 1468.3 968.832 1463.68C961.897 1459.1 957.3 1451.66 955.04 1441.37C953.208 1433.02 953.027 1426.17 954.496 1420.82C955.934 1415.51 958.763 1411.01 962.985 1407.31C967.166 1403.62 972.085 1401.15 977.741 1399.91C986.817 1397.92 994.802 1399.21 1001.7 1403.8C1008.55 1408.4 1013.18 1416.17 1015.58 1427.12ZM1004.29 1429.6C1002.46 1421.29 999.286 1415.46 994.753 1412.11C990.228 1408.79 985.219 1407.74 979.725 1408.94C974.271 1410.14 970.189 1413.21 967.478 1418.16C964.767 1423.1 964.346 1429.83 966.213 1438.34C967.973 1446.35 971.135 1452.02 975.7 1455.32C980.234 1458.68 985.207 1459.76 990.62 1458.57C996.114 1457.37 1000.22 1454.31 1002.94 1449.41C1005.66 1444.5 1006.11 1437.9 1004.29 1429.6Z" fill="black"/>
<path d="M913.405 310.622C914.66 298.394 918.988 289.686 926.389 284.498C932.57 280.19 939.743 278.454 947.908 279.292C956.985 280.224 964.099 283.969 969.248 290.529C974.401 297.047 976.44 305.55 975.364 316.036C974.492 324.534 972.52 331.096 969.448 335.723C966.422 340.313 962.326 343.704 957.158 345.897C952.032 348.093 946.589 348.896 940.827 348.305C931.584 347.357 924.407 343.625 919.295 337.111C914.224 330.601 912.261 321.772 913.405 310.622ZM924.907 311.802C924.04 320.258 925.234 326.788 928.489 331.395C931.748 335.96 936.176 338.529 941.771 339.103C947.325 339.673 952.164 338.033 956.287 334.184C960.409 330.335 962.915 324.079 963.804 315.416C964.642 307.25 963.41 300.883 960.109 296.314C956.854 291.708 952.47 289.122 946.958 288.556C941.362 287.982 936.505 289.599 932.386 293.407C928.268 297.215 925.775 303.346 924.907 311.802Z" fill="black"/>
<path d="M957.524 1404.92L967.063 1470.61L957.043 1472.06L955.597 1462.11C953.717 1467.14 951.813 1470.55 949.885 1472.35C947.915 1474.15 945.631 1475.24 943.033 1475.61C939.281 1476.16 935.293 1475.52 931.07 1473.69L933.405 1462.8C936.36 1464.01 939.198 1464.42 941.919 1464.03C944.352 1463.68 946.43 1462.62 948.152 1460.85C949.88 1459.13 950.968 1456.9 951.416 1454.19C952.078 1450.05 952.068 1445.63 951.385 1440.93L946.391 1406.54L957.524 1404.92Z" fill="black"/>
<path d="M961.598 349.871L973.097 284.499L983.069 286.253L981.326 296.164C984.685 291.974 987.562 289.328 989.956 288.226C992.391 287.132 994.901 286.812 997.486 287.266C1001.22 287.923 1004.81 289.781 1008.25 292.84L1002.62 302.448C1000.19 300.371 997.627 299.095 994.918 298.618C992.497 298.192 990.192 298.548 988.004 299.687C985.822 300.784 984.094 302.553 982.818 304.993C980.894 308.716 979.521 312.917 978.698 317.595L972.678 351.82L961.598 349.871Z" fill="black"/>
<path d="M928.832 1408.75L935.875 1500.1L924.658 1500.97L920.642 1448.87L896.171 1477.84L881.651 1478.96L905.058 1452.46L873.994 1412.98L887.828 1411.91L912.31 1444.06L919.637 1435.85L917.615 1409.61L928.832 1408.75Z" fill="black"/>
<path d="M990.047 355.217L1011.95 266.249L1022.87 268.938L1010.38 319.673L1042.69 299.821L1056.83 303.302L1026.31 321.147L1043.45 368.365L1029.98 365.048L1016.79 326.851L1007.26 332.357L1000.97 357.907L990.047 355.217Z" fill="black"/>
<path d="M834.872 1421.58C838.642 1417.51 842.73 1414.47 847.136 1412.45C851.541 1410.48 856.285 1409.53 861.368 1409.6C870.742 1409.74 878.131 1413.02 883.535 1419.44C887.915 1424.67 890.057 1430.47 889.961 1436.85C889.876 1442.51 887.987 1447.59 884.294 1452.08C880.558 1456.6 875.04 1460.54 867.739 1463.89C871.792 1468.7 874.484 1472.6 875.814 1475.58C877.144 1478.56 877.789 1481.42 877.747 1484.17C877.665 1489.67 875.447 1494.41 871.095 1498.38C866.701 1502.4 861.233 1504.36 854.692 1504.26C848.443 1504.17 843.368 1502.18 839.468 1498.28C835.526 1494.39 833.596 1489.76 833.677 1484.38C833.808 1475.67 839.69 1468.32 851.323 1462.33L835.203 1441.15C833.273 1444.79 831.75 1449.01 830.636 1453.83L818.988 1451.16C821.108 1443.19 823.915 1436.65 827.409 1431.53C823.285 1425.88 818.585 1421.13 813.31 1417.25L821.006 1408.43C825.503 1411.42 830.125 1415.8 834.872 1421.58ZM857.026 1469.67C852.108 1472.47 848.925 1474.94 847.476 1477.09C845.985 1479.23 845.22 1481.62 845.18 1484.24C845.133 1487.37 846.095 1489.92 848.065 1491.91C849.993 1493.94 852.436 1494.98 855.394 1495.02C858.435 1495.07 860.991 1494.13 863.062 1492.2C865.092 1490.27 866.128 1487.89 866.17 1485.06C866.192 1483.64 865.86 1482.14 865.176 1480.54C864.449 1478.99 863.37 1477.33 861.938 1475.56L857.026 1469.67ZM841.8 1430.56L862.038 1456.43C868.175 1452.9 872.33 1449.58 874.502 1446.49C876.673 1443.44 877.781 1440.39 877.827 1437.35C877.883 1433.65 876.462 1429.77 873.564 1425.72C870.666 1421.68 866.509 1419.62 861.093 1419.54C857.719 1419.49 854.224 1420.47 850.61 1422.5C846.953 1424.57 844.017 1427.26 841.8 1430.56Z" fill="black"/>
<path d="M1083.3 372.439C1078.45 375.123 1073.61 376.734 1068.8 377.271C1064 377.769 1059.19 377.186 1054.39 375.522C1045.53 372.454 1039.54 367.028 1036.42 359.244C1033.89 352.902 1033.68 346.72 1035.76 340.696C1037.62 335.341 1041 331.111 1045.91 328.006C1050.87 324.875 1057.35 322.862 1065.33 321.966C1062.99 316.128 1061.65 311.586 1061.32 308.34C1060.99 305.095 1061.27 302.173 1062.17 299.574C1063.97 294.377 1067.56 290.571 1072.94 288.157C1078.37 285.716 1084.18 285.566 1090.36 287.707C1096.26 289.752 1100.46 293.234 1102.95 298.151C1105.47 303.083 1105.85 308.088 1104.09 313.167C1101.25 321.396 1093.36 326.535 1080.43 328.585L1089.11 353.749C1092.09 350.898 1094.86 347.359 1097.42 343.133L1107.65 349.32C1103.14 356.225 1098.43 361.56 1093.51 365.324C1095.66 371.977 1098.63 377.967 1102.43 383.296L1092.36 389.266C1089.02 385.024 1086 379.415 1083.3 372.439ZM1077.31 319.833C1082.86 318.711 1086.66 317.359 1088.71 315.775C1090.79 314.205 1092.27 312.179 1093.13 309.699C1094.15 306.746 1094.04 304.017 1092.79 301.512C1091.59 298.981 1089.59 297.232 1086.8 296.264C1083.92 295.268 1081.2 295.362 1078.63 296.544C1076.1 297.74 1074.37 299.677 1073.45 302.354C1072.98 303.693 1072.83 305.226 1072.98 306.954C1073.18 308.656 1073.69 310.573 1074.49 312.704L1077.31 319.833ZM1079.53 361.742L1068.41 330.837C1061.48 332.272 1056.49 334.118 1053.46 336.375C1050.45 338.594 1048.44 341.14 1047.44 344.014C1046.23 347.518 1046.37 351.644 1047.85 356.392C1049.34 361.14 1052.64 364.4 1057.76 366.173C1060.95 367.277 1064.58 367.431 1068.65 366.635C1072.77 365.814 1076.4 364.182 1079.53 361.742Z" fill="black"/>
<path d="M833.537 1429.83L822.288 1430.38C822.143 1425.88 820.789 1422.3 818.226 1419.64C815.621 1416.97 811.771 1415.36 806.675 1414.81C801.538 1414.26 797.615 1414.89 794.907 1416.69C792.194 1418.54 790.686 1420.87 790.384 1423.68C790.112 1426.21 790.996 1428.32 793.036 1430C794.462 1431.16 798.138 1432.84 804.063 1435.02C812.043 1437.98 817.548 1440.37 820.578 1442.2C823.562 1444.08 825.74 1446.43 827.112 1449.26C828.438 1452.12 828.928 1455.17 828.581 1458.4C828.265 1461.34 827.31 1463.99 825.717 1466.33C824.079 1468.71 822.01 1470.6 819.512 1472.01C817.634 1473.11 815.157 1473.93 812.081 1474.48C808.958 1475.07 805.678 1475.18 802.24 1474.81C797.061 1474.25 792.605 1473.02 788.871 1471.11C785.095 1469.19 782.414 1466.85 780.825 1464.08C779.233 1461.35 778.313 1457.82 778.068 1453.48L789.165 1453.16C789.297 1456.61 790.462 1459.42 792.66 1461.58C794.817 1463.74 798.07 1465.06 802.42 1465.52C807.557 1466.07 811.315 1465.62 813.693 1464.16C816.071 1462.69 817.383 1460.82 817.628 1458.55C817.783 1457.1 817.468 1455.74 816.681 1454.48C815.899 1453.18 814.576 1452.04 812.714 1451.04C811.64 1450.51 808.449 1449.2 803.14 1447.12C795.455 1444.16 790.132 1441.82 787.172 1440.12C784.165 1438.46 781.91 1436.25 780.404 1433.49C778.899 1430.73 778.351 1427.44 778.761 1423.63C779.161 1419.9 780.637 1416.5 783.189 1413.42C785.695 1410.38 789.097 1408.17 793.394 1406.78C797.687 1405.44 802.423 1405.05 807.601 1405.61C816.177 1406.53 822.531 1409.01 826.664 1413.06C830.755 1417.11 833.046 1422.7 833.537 1429.83Z" fill="black"/>
<path d="M1087.15 365.02L1098.01 368.017C1096.74 372.336 1096.9 376.162 1098.5 379.494C1100.14 382.844 1103.29 385.576 1107.96 387.691C1112.67 389.824 1116.59 390.457 1119.73 389.591C1122.88 388.687 1125.04 386.944 1126.21 384.363C1127.26 382.048 1127.08 379.771 1125.67 377.531C1124.68 375.984 1121.71 373.245 1116.77 369.313C1110.11 364.011 1105.64 360.014 1103.33 357.324C1101.08 354.613 1099.75 351.699 1099.33 348.582C1098.97 345.445 1099.46 342.396 1100.8 339.435C1102.02 336.741 1103.76 334.53 1106 332.803C1108.3 331.055 1110.86 329.904 1113.67 329.348C1115.8 328.894 1118.41 328.887 1121.5 329.328C1124.65 329.749 1127.8 330.672 1130.95 332.099C1135.7 334.249 1139.54 336.815 1142.49 339.797C1145.48 342.797 1147.29 345.86 1147.93 348.987C1148.59 352.076 1148.36 355.721 1147.23 359.923L1136.6 356.75C1137.55 353.431 1137.32 350.4 1135.91 347.657C1134.54 344.931 1131.86 342.666 1127.88 340.86C1123.17 338.728 1119.46 337.984 1116.74 338.629C1114.03 339.274 1112.19 340.64 1111.25 342.728C1110.65 344.056 1110.52 345.441 1110.88 346.882C1111.21 348.361 1112.11 349.865 1113.57 351.394C1114.42 352.238 1117.04 354.478 1121.43 358.114C1127.8 363.333 1132.13 367.214 1134.41 369.756C1136.74 372.278 1138.19 375.084 1138.76 378.177C1139.32 381.269 1138.82 384.562 1137.23 388.053C1135.69 391.469 1133.22 394.239 1129.83 396.364C1126.5 398.469 1122.58 399.505 1118.06 399.472C1113.57 399.402 1108.95 398.292 1104.2 396.143C1096.35 392.584 1091.09 388.235 1088.43 383.097C1085.81 377.976 1085.38 371.95 1087.15 365.02Z" fill="black"/>
<path d="M762.635 1409.98L762.718 1399.91C765.952 1399.79 768.8 1399.95 771.264 1400.37C775.288 1401.06 778.3 1402.23 780.298 1403.89C782.297 1405.54 783.571 1407.47 784.122 1409.68C784.665 1411.93 784.365 1416.38 783.221 1423.04L776.749 1460.67L784.88 1462.07L783.397 1470.69L775.266 1469.29L772.48 1485.49L760.311 1490.25L764.24 1467.4L753.092 1465.48L754.575 1456.86L765.723 1458.77L772.301 1420.52C772.845 1417.36 773.01 1415.3 772.795 1414.33C772.54 1413.36 772.027 1412.53 771.257 1411.85C770.445 1411.16 769.218 1410.67 767.575 1410.39C766.343 1410.18 764.697 1410.04 762.635 1409.98Z" fill="black"/>
<path d="M1148.28 406.062L1145.05 415.599C1141.94 414.701 1139.28 413.666 1137.08 412.492C1133.47 410.575 1130.98 408.519 1129.6 406.322C1128.22 404.125 1127.61 401.892 1127.78 399.622C1127.97 397.316 1129.65 393.182 1132.81 387.222L1150.74 353.503L1143.46 349.631L1147.56 341.905L1154.85 345.777L1162.56 331.263L1175.61 330.555L1164.73 351.029L1174.72 356.339L1170.61 364.065L1160.62 358.755L1142.4 393.026C1140.89 395.858 1140.09 397.768 1139.99 398.753C1139.93 399.758 1140.16 400.705 1140.68 401.594C1141.23 402.503 1142.24 403.348 1143.72 404.13C1144.82 404.717 1146.34 405.361 1148.28 406.062Z" fill="black"/>
<path d="M722.593 1389.73L720.293 1399.2C727.083 1393.13 734.79 1391.14 743.415 1393.24C747.221 1394.16 750.607 1395.76 753.573 1398.02C756.499 1400.27 758.507 1402.69 759.596 1405.27C760.634 1407.88 761.089 1410.86 760.96 1414.22C760.885 1416.47 760.282 1419.93 759.152 1424.59L749.45 1464.55L738.518 1461.9L747.202 1426.12C748.588 1420.41 749.299 1416.51 749.335 1414.42C749.344 1411.38 748.437 1408.76 746.613 1406.56C744.779 1404.4 742.223 1402.92 738.943 1402.12C735.663 1401.33 732.384 1401.41 729.106 1402.37C725.819 1403.37 723.239 1405.17 721.367 1407.76C719.444 1410.38 717.815 1414.44 716.478 1419.95L708.089 1454.51L697.156 1451.86L712.814 1387.35L722.593 1389.73Z" fill="black"/>
<path d="M1179.97 437.833L1185.12 429.554C1176.77 433.193 1168.83 432.669 1161.29 427.981C1157.97 425.912 1155.25 423.339 1153.14 420.26C1151.07 417.204 1149.92 414.28 1149.69 411.49C1149.52 408.685 1150.02 405.71 1151.2 402.563C1151.97 400.445 1153.63 397.352 1156.16 393.284L1177.88 358.363L1187.43 364.306L1167.99 395.564C1164.89 400.553 1162.99 404.035 1162.3 406.01C1161.34 408.897 1161.38 411.67 1162.42 414.331C1163.49 416.957 1165.46 419.161 1168.32 420.944C1171.19 422.726 1174.33 423.674 1177.74 423.786C1181.18 423.862 1184.19 422.964 1186.78 421.09C1189.43 419.203 1192.24 415.853 1195.24 411.042L1214.02 380.845L1223.57 386.787L1188.52 443.148L1179.97 437.833Z" fill="black"/>
<path d="M678.495 1374.38L675.808 1382.31C681.906 1377.43 688.823 1376.3 696.557 1378.92C701.569 1380.62 705.718 1383.56 709.005 1387.75C712.252 1391.93 714.204 1396.88 714.861 1402.61C715.465 1408.35 714.677 1414.44 712.498 1420.88C710.372 1427.15 707.401 1432.48 703.584 1436.86C699.754 1441.28 695.287 1444.15 690.181 1445.45C685.075 1446.76 679.938 1446.54 674.768 1444.78C670.98 1443.5 667.88 1441.55 665.468 1438.93C663.043 1436.35 661.338 1433.46 660.352 1430.26L649.802 1461.4L639.207 1457.81L668.61 1371.03L678.495 1374.38ZM701.547 1417.17C704.275 1409.12 704.617 1402.52 702.573 1397.39C700.53 1392.25 697.2 1388.9 692.583 1387.34C687.926 1385.76 683.338 1386.32 678.818 1389.01C674.246 1391.73 670.636 1396.99 667.988 1404.81C665.074 1413.41 664.592 1420.28 666.543 1425.43C668.494 1430.58 671.896 1433.98 676.75 1435.62C681.486 1437.23 686.107 1436.64 690.614 1433.85C695.081 1431.06 698.726 1425.49 701.547 1417.17Z" fill="black"/>
<path d="M1217.05 466.21L1222.08 459.517C1214.76 462.248 1207.84 461.158 1201.31 456.248C1197.09 453.067 1194.07 448.97 1192.26 443.959C1190.48 438.973 1190.18 433.66 1191.34 428.02C1192.57 422.372 1195.22 416.835 1199.31 411.408C1203.29 406.114 1207.78 401.983 1212.78 399.016C1217.8 396.015 1222.94 394.693 1228.19 395.051C1233.45 395.409 1238.26 397.229 1242.62 400.511C1245.82 402.916 1248.15 405.74 1249.62 408.984C1251.12 412.195 1251.83 415.471 1251.77 418.812L1271.54 392.542L1280.48 399.269L1225.39 472.485L1217.05 466.21ZM1208.55 418.359C1203.44 425.151 1201.05 431.306 1201.38 436.823C1201.71 442.34 1203.83 446.564 1207.72 449.495C1211.65 452.451 1216.19 453.358 1221.32 452.216C1226.51 451.066 1231.59 447.194 1236.55 440.602C1242.01 433.343 1244.62 426.964 1244.38 421.464C1244.14 415.963 1241.97 411.672 1237.87 408.591C1233.88 405.585 1229.31 404.699 1224.15 405.933C1219.03 407.192 1213.83 411.334 1208.55 418.359Z" fill="black"/>
<path d="M685.399 1349.04L682.328 1359.22C680.34 1357.63 678.506 1356.47 676.825 1355.73C674.533 1354.74 672.533 1354.32 670.825 1354.49C669.117 1354.65 667.524 1355.23 666.047 1356.22C664.948 1356.97 662.783 1359.07 659.552 1362.53C659.111 1363.02 658.44 1363.73 657.537 1364.65L654.084 1435.68L642.967 1430.84L645.647 1390.08C645.95 1384.9 646.525 1379.56 647.372 1374.06C644.125 1378.29 640.699 1382.29 637.094 1386.08L608.642 1415.89L598.327 1411.4L648.424 1359.59C653.818 1353.99 657.751 1350.22 660.224 1348.3C663.538 1345.7 666.721 1344.13 669.771 1343.6C672.838 1343.02 676.015 1343.45 679.3 1344.88C681.287 1345.75 683.319 1347.13 685.399 1349.04Z" fill="black"/>
<path d="M1202.56 488.119L1208.67 479.409C1210.06 481.543 1211.43 483.221 1212.8 484.442C1214.67 486.108 1216.44 487.129 1218.11 487.507C1219.78 487.884 1221.48 487.833 1223.19 487.352C1224.47 486.985 1227.18 485.666 1231.33 483.396C1231.9 483.068 1232.76 482.607 1233.91 482.011L1259.42 415.633L1268.46 423.71L1253.16 461.579C1251.25 466.409 1249.03 471.3 1246.51 476.253C1250.92 473.259 1255.42 470.526 1260.04 468.052L1296.39 448.647L1304.78 456.141L1240.98 489.667C1234.11 493.302 1229.19 495.645 1226.24 496.697C1222.28 498.131 1218.77 498.624 1215.7 498.178C1212.61 497.762 1209.73 496.361 1207.05 493.974C1205.44 492.531 1203.94 490.579 1202.56 488.119Z" fill="black"/>
<path d="M604.31 1337.3L586.678 1404.43L576.79 1398.32L587.956 1360.18L592.102 1345.99C591.587 1346.5 588.213 1349.78 581.979 1355.82L552.55 1383.33L542.716 1377.25L554.512 1339.28L558.367 1326.74L548.386 1335.64L518.529 1362.29L509.226 1356.54L561.783 1311L571.724 1317.15L559.802 1356.51L556.032 1367.48L594.316 1331.12L604.31 1337.3Z" fill="black"/>
<path d="M1275.9 524.65L1313.66 466.405L1321.14 475.307L1298.6 508.037L1290.22 520.217C1290.87 519.889 1295.1 517.832 1302.91 514.046L1339.47 497.129L1346.91 505.983L1323.82 538.355L1316.23 549.052L1328.5 543.73L1365.2 527.758L1372.23 536.132L1308.06 562.936L1300.54 553.987L1324.19 520.332L1331.2 511.094L1283.46 533.647L1275.9 524.65Z" fill="black"/>
<path d="M546.98 1339.84C539.498 1349.6 531.246 1354.74 522.223 1355.27C514.701 1355.7 507.684 1353.42 501.171 1348.42C493.932 1342.86 489.84 1335.94 488.897 1327.66C487.929 1319.41 490.653 1311.1 497.07 1302.73C502.27 1295.96 507.39 1291.4 512.433 1289.08C517.417 1286.76 522.684 1286.02 528.233 1286.86C533.749 1287.68 538.805 1289.85 543.4 1293.38C550.772 1299.03 554.926 1305.97 555.861 1314.2C556.763 1322.4 553.803 1330.95 546.98 1339.84ZM537.807 1332.81C542.981 1326.06 545.39 1319.88 545.035 1314.25C544.654 1308.65 542.233 1304.14 537.77 1300.72C533.34 1297.32 528.36 1296.18 522.831 1297.29C517.302 1298.4 511.887 1302.42 506.586 1309.33C501.59 1315.84 499.298 1321.91 499.712 1327.53C500.067 1333.16 502.443 1337.66 506.84 1341.03C511.303 1344.45 516.286 1345.63 521.79 1344.54C527.294 1343.46 532.633 1339.55 537.807 1332.81Z" fill="black"/>
<path d="M1331.15 540.174C1341.3 533.253 1350.75 530.951 1359.49 533.267C1366.77 535.216 1372.72 539.583 1377.34 546.367C1382.47 553.908 1384.19 561.761 1382.5 569.926C1380.83 578.067 1375.65 585.105 1366.93 591.04C1359.87 595.849 1353.59 598.57 1348.07 599.204C1342.61 599.848 1337.37 598.901 1332.37 596.362C1327.39 593.858 1323.26 590.213 1320 585.426C1314.77 577.747 1313 569.854 1314.69 561.748C1316.4 553.675 1321.88 546.484 1331.15 540.174ZM1337.66 549.729C1330.63 554.515 1326.41 559.637 1324.98 565.094C1323.59 570.528 1324.48 575.57 1327.65 580.218C1330.79 584.833 1335.16 587.476 1340.76 588.148C1346.36 588.82 1352.76 586.704 1359.96 581.801C1366.74 577.18 1370.82 572.135 1372.18 566.666C1373.61 561.209 1372.76 556.19 1369.64 551.61C1366.47 546.961 1362.11 544.289 1356.54 543.594C1350.98 542.898 1344.68 544.944 1337.66 549.729Z" fill="black"/>
<path d="M526.536 1281.15L482.456 1330.77L474.887 1324.05L481.569 1316.53C476.511 1318.33 472.674 1319.07 470.058 1318.76C467.411 1318.41 465.106 1317.37 463.143 1315.62C460.308 1313.11 458.229 1309.64 456.906 1305.24L466.735 1300.01C467.712 1303.05 469.228 1305.48 471.284 1307.31C473.122 1308.94 475.271 1309.84 477.731 1310.02C480.164 1310.23 482.563 1309.63 484.93 1308.23C488.521 1306.07 491.893 1303.21 495.048 1299.66L518.126 1273.68L526.536 1281.15Z" fill="black"/>
<path d="M505.121 1261.68L439.805 1325.93L431.916 1317.91L469.163 1281.27L431.243 1281.22L421.031 1270.84L456.38 1271.66L466.55 1222.47L476.28 1232.36L467.472 1271.8L478.475 1272.11L497.232 1253.66L505.121 1261.68Z" fill="black"/>
<path d="M434.761 1198.1C440.302 1198.36 445.263 1199.52 449.645 1201.59C453.994 1203.69 457.778 1206.7 460.995 1210.64C466.928 1217.9 469.183 1225.66 467.759 1233.93C466.581 1240.65 463.523 1246.03 458.587 1250.06C454.2 1253.65 449.1 1255.47 443.29 1255.54C437.421 1255.6 430.853 1253.92 423.587 1250.5C422.52 1256.7 421.276 1261.27 419.856 1264.2C418.435 1267.14 416.661 1269.48 414.531 1271.22C410.273 1274.7 405.221 1276.06 399.376 1275.29C393.472 1274.52 388.45 1271.6 384.31 1266.54C380.354 1261.7 378.608 1256.53 379.071 1251.04C379.508 1245.52 381.807 1241.06 385.969 1237.66C392.711 1232.14 402.122 1231.91 414.201 1236.94L420.01 1210.96C415.984 1211.83 411.771 1213.39 407.369 1215.64L401.908 1205.01C409.368 1201.5 416.18 1199.43 422.342 1198.8C424.002 1192.01 424.612 1185.35 424.173 1178.82L435.879 1179.02C436.495 1184.38 436.122 1190.74 434.761 1198.1ZM412.266 1246.03C406.955 1244.07 403.012 1243.23 400.438 1243.51C397.838 1243.75 395.521 1244.7 393.489 1246.36C391.069 1248.34 389.734 1250.72 389.483 1253.51C389.174 1256.29 389.956 1258.83 391.828 1261.12C393.753 1263.47 396.119 1264.82 398.928 1265.16C401.71 1265.47 404.198 1264.73 406.391 1262.94C407.488 1262.04 408.425 1260.82 409.203 1259.27C409.922 1257.71 410.498 1255.81 410.93 1253.58L412.266 1246.03ZM432.359 1209.18L425.619 1241.33C432.276 1243.75 437.486 1244.79 441.251 1244.45C444.983 1244.15 448.026 1243.03 450.381 1241.11C453.253 1238.76 455.301 1235.18 456.526 1230.36C457.751 1225.53 456.649 1221.03 453.221 1216.83C451.085 1214.22 448.077 1212.18 444.196 1210.73C440.257 1209.27 436.311 1208.75 432.359 1209.18Z" fill="black"/>
<path d="M427.591 1202.39L419.92 1194.15C423.267 1191.14 425.134 1187.79 425.519 1184.11C425.881 1180.4 424.629 1176.42 421.764 1172.17C418.876 1167.89 415.869 1165.29 412.744 1164.39C409.584 1163.5 406.83 1163.85 404.481 1165.43C402.373 1166.85 401.332 1168.89 401.358 1171.53C401.391 1173.37 402.48 1177.26 404.626 1183.2C407.511 1191.21 409.228 1196.96 409.778 1200.46C410.27 1203.94 409.876 1207.12 408.597 1210C407.26 1212.86 405.244 1215.2 402.549 1217.01C400.096 1218.67 397.461 1219.64 394.643 1219.93C391.766 1220.21 388.985 1219.85 386.299 1218.85C384.25 1218.12 382.024 1216.76 379.621 1214.76C377.161 1212.75 374.964 1210.31 373.03 1207.44C370.119 1203.13 368.19 1198.92 367.244 1194.84C366.275 1190.72 366.337 1187.16 367.431 1184.16C368.49 1181.18 370.601 1178.2 373.763 1175.22L381.156 1183.5C378.603 1185.82 377.207 1188.52 376.969 1191.6C376.708 1194.64 377.8 1197.97 380.246 1201.6C383.134 1205.88 385.904 1208.46 388.555 1209.34C391.206 1210.22 393.481 1210.01 395.381 1208.73C396.59 1207.92 397.422 1206.8 397.877 1205.39C398.367 1203.95 398.392 1202.2 397.954 1200.14C397.67 1198.97 396.613 1195.69 394.782 1190.29C392.095 1182.5 390.448 1176.93 389.841 1173.57C389.176 1170.2 389.414 1167.05 390.554 1164.12C391.695 1161.19 393.854 1158.65 397.032 1156.51C400.142 1154.41 403.695 1153.35 407.694 1153.32C411.634 1153.27 415.518 1154.45 419.344 1156.84C423.135 1159.26 426.487 1162.63 429.399 1166.95C434.22 1174.1 436.415 1180.56 435.983 1186.33C435.528 1192.07 432.73 1197.42 427.591 1202.39Z" fill="black"/>
<path d="M397.075 1135.39L404.827 1128.96C407.003 1131.36 408.723 1133.63 409.987 1135.79C412.051 1139.31 413.095 1142.37 413.118 1144.96C413.141 1147.56 412.485 1149.78 411.151 1151.62C409.781 1153.49 406.184 1156.13 400.36 1159.54L367.411 1178.84L371.582 1185.96L364.032 1190.38L359.862 1183.27L345.679 1191.58L334.2 1185.34L354.206 1173.61L348.488 1163.85L356.037 1159.43L361.756 1169.19L395.244 1149.57C398.012 1147.95 399.697 1146.74 400.298 1145.96C400.878 1145.13 401.181 1144.21 401.206 1143.18C401.21 1142.11 400.791 1140.86 399.948 1139.42C399.316 1138.35 398.358 1137 397.075 1135.39Z" fill="black"/>
<path d="M386.758 1091.71L378.031 1096.06C387.047 1097.34 393.534 1101.95 397.491 1109.9C399.238 1113.4 400.201 1117.02 400.382 1120.75C400.544 1124.44 399.99 1127.53 398.719 1130.03C397.392 1132.5 395.404 1134.77 392.755 1136.84C390.983 1138.23 387.952 1140 383.663 1142.13L346.852 1160.47L341.836 1150.4L374.787 1133.99C380.046 1131.37 383.487 1129.4 385.11 1128.08C387.442 1126.12 388.862 1123.74 389.369 1120.93C389.839 1118.13 389.322 1115.23 387.817 1112.2C386.312 1109.18 384.136 1106.73 381.288 1104.84C378.402 1102.98 375.366 1102.16 372.179 1102.4C368.937 1102.62 364.779 1103.99 359.707 1106.52L327.875 1122.37L322.859 1112.3L382.271 1082.71L386.758 1091.71Z" fill="black"/>
<path d="M370.075 1048.1L362.277 1051.16C369.943 1052.68 375.265 1057.24 378.246 1064.84C380.177 1069.77 380.599 1074.84 379.51 1080.05C378.407 1085.23 375.879 1089.91 371.927 1094.1C367.921 1098.27 362.757 1101.59 356.434 1104.07C350.266 1106.49 344.276 1107.65 338.466 1107.55C332.617 1107.47 327.548 1105.9 323.26 1102.84C318.971 1099.78 315.831 1095.71 313.839 1090.62C312.379 1086.9 311.874 1083.27 312.324 1079.74C312.735 1076.22 313.844 1073.06 315.651 1070.24L285.044 1082.24L280.961 1071.83L366.266 1038.39L370.075 1048.1ZM352.214 1093.3C360.127 1090.2 365.389 1086.21 368 1081.34C370.61 1076.47 371.025 1071.76 369.246 1067.23C367.452 1062.65 364.069 1059.5 359.098 1057.78C354.073 1056.03 347.72 1056.67 340.039 1059.68C331.582 1062.99 326.014 1067.05 323.335 1071.86C320.655 1076.67 320.251 1081.46 322.121 1086.24C323.946 1090.89 327.375 1094.04 332.409 1095.7C337.427 1097.31 344.028 1096.51 352.214 1093.3Z" fill="black"/>
<path d="M393.903 1037.05L384.138 1041.27C384.075 1038.72 383.781 1036.57 383.257 1034.81C382.543 1032.41 381.573 1030.62 380.346 1029.42C379.119 1028.22 377.65 1027.37 375.938 1026.88C374.658 1026.53 371.655 1026.22 366.931 1025.98C366.272 1025.96 365.298 1025.9 364.009 1025.81L307.473 1068.94L304.01 1057.32L336.902 1033.1C341.062 1029.99 345.515 1026.99 350.262 1024.1C344.941 1024.34 339.669 1024.3 334.446 1023.99L293.318 1021.44L290.105 1010.66L362.005 1015.58C369.766 1016.09 375.179 1016.67 378.243 1017.33C382.368 1018.18 385.618 1019.61 387.993 1021.59C390.408 1023.57 392.127 1026.28 393.15 1029.71C393.769 1031.79 394.02 1034.23 393.903 1037.05Z" fill="black"/>
<path d="M350.627 967.48L287.928 997.262L286.231 985.762L322.591 969.721L336.114 963.745C335.389 963.684 330.708 963.216 322.072 962.342L282.071 957.567L280.384 946.128L317.021 930.678L329.089 925.549L315.857 923.648L276.233 917.995L274.637 907.175L343.329 918.015L345.035 929.577L307.253 945.828L296.435 950.015L348.912 955.855L350.627 967.48Z" fill="black"/>
<path d="M311.732 925.283C299.453 925.847 290.202 922.851 283.978 916.296C278.805 910.819 276.03 903.981 275.654 895.781C275.236 886.666 277.891 879.078 283.619 873.017C289.305 866.958 297.414 863.687 307.944 863.204C316.477 862.812 323.258 863.794 328.288 866.15C333.275 868.465 337.233 872.017 340.164 876.804C343.093 881.55 344.69 886.815 344.956 892.601C345.382 901.883 342.751 909.532 337.062 915.549C331.372 921.525 322.928 924.769 311.732 925.283ZM311.202 913.733C319.693 913.343 325.976 911.199 330.052 907.3C334.085 903.402 335.974 898.644 335.716 893.025C335.46 887.447 333.124 882.904 328.708 879.394C324.293 875.885 317.736 874.329 309.036 874.729C300.837 875.105 294.721 877.262 290.689 881.201C286.613 885.101 284.703 889.818 284.957 895.354C285.214 900.973 287.53 905.538 291.904 909.05C296.278 912.562 302.711 914.122 311.202 913.733Z" fill="black"/>
<path d="M343.44 871.826L277.087 870.1L277.351 859.978L287.41 860.24C282.77 857.535 279.729 855.08 278.286 852.875C276.844 850.629 276.157 848.193 276.225 845.569C276.324 841.779 277.632 837.957 280.15 834.105L290.483 838.25C288.787 840.957 287.903 843.685 287.832 846.434C287.768 848.891 288.46 851.118 289.909 853.115C291.316 855.111 293.32 856.559 295.923 857.461C299.889 858.814 304.246 859.553 308.994 859.676L343.733 860.58L343.44 871.826Z" fill="black"/>
<path d="M344.531 842.901L253.304 834.366L254.352 823.165L306.375 828.032L281.972 799.008L283.329 784.509L305.483 812.067L349.654 788.14L348.362 801.955L312.528 820.636L319.381 829.249L345.579 831.7L344.531 842.901Z" fill="black"/>
<path d="M347.8 748.127C351.172 752.532 353.478 757.076 354.72 761.76C355.92 766.436 356.052 771.273 355.116 776.269C353.389 785.484 348.906 792.21 341.668 796.449C335.768 799.88 329.686 801.008 323.42 799.833C317.85 798.789 313.167 796.067 309.371 791.668C305.542 787.219 302.595 781.114 300.532 773.351C295.103 776.53 290.808 778.523 287.647 779.329C284.486 780.136 281.554 780.286 278.851 779.779C273.446 778.766 269.152 775.778 265.97 770.815C262.755 765.804 261.75 760.083 262.955 753.653C264.106 747.51 266.931 742.847 271.428 739.662C275.932 736.437 280.826 735.319 286.109 736.31C294.668 737.914 300.915 744.956 304.85 757.436L328.457 745.137C325.199 742.619 321.29 740.403 316.732 738.488L321.342 727.462C328.837 730.901 334.808 734.776 339.257 739.086C345.52 735.978 351.006 732.153 355.716 727.609L363.107 736.689C359.404 740.615 354.301 744.428 347.8 748.127ZM296.653 761.814C294.726 756.493 292.828 752.936 290.959 751.145C289.098 749.312 286.878 748.154 284.297 747.67C281.226 747.095 278.544 747.609 276.25 749.214C273.924 750.771 272.488 753.003 271.943 755.91C271.383 758.9 271.877 761.579 273.425 763.946C274.982 766.273 277.152 767.697 279.937 768.219C281.33 768.48 282.869 768.408 284.556 768.004C286.209 767.55 288.031 766.768 290.019 765.657L296.653 761.814ZM337.776 753.434L308.851 768.996C311.294 775.643 313.855 780.299 316.535 782.963C319.174 785.62 321.988 787.229 324.978 787.789C328.623 788.472 332.683 787.728 337.16 785.558C341.637 783.387 344.374 779.639 345.372 774.315C345.993 770.998 345.611 767.387 344.223 763.481C342.802 759.526 340.653 756.177 337.776 753.434Z" fill="black"/>
<path d="M339.898 745.411L341.26 734.232C345.719 734.851 349.479 734.123 352.538 732.048C355.61 729.933 357.847 726.411 359.25 721.482C360.664 716.512 360.712 712.54 359.392 709.565C358.033 706.579 355.99 704.698 353.265 703.923C350.821 703.227 348.595 703.741 346.588 705.466C345.204 706.675 342.932 710.014 339.773 715.483C335.511 722.848 332.219 727.868 329.898 730.543C327.549 733.167 324.863 734.915 321.842 735.788C318.792 736.61 315.705 736.576 312.579 735.686C309.733 734.876 307.291 733.488 305.252 731.521C303.183 729.503 301.667 727.143 300.703 724.443C299.94 722.406 299.548 719.825 299.527 716.7C299.478 713.524 299.927 710.273 300.874 706.946C302.3 701.937 304.27 697.754 306.785 694.398C309.311 691.001 312.073 688.755 315.071 687.659C318.029 686.551 321.669 686.244 325.99 686.737L324.422 697.728C320.999 697.274 318.035 697.946 315.53 699.746C313.036 701.506 311.191 704.489 309.993 708.697C308.579 713.666 308.391 717.447 309.429 720.039C310.468 722.63 312.089 724.24 314.293 724.867C315.696 725.266 317.084 725.185 318.457 724.622C319.87 724.071 321.225 722.963 322.523 721.296C323.232 720.328 325.06 717.404 328.008 712.525C332.231 705.452 335.431 700.601 337.609 697.972C339.758 695.291 342.32 693.443 345.295 692.427C348.27 691.411 351.601 691.427 355.288 692.477C358.895 693.503 361.999 695.535 364.601 698.571C367.174 701.556 368.777 705.283 369.411 709.753C370.005 714.211 369.589 718.944 368.164 723.954C365.803 732.249 362.277 738.091 357.587 741.478C352.909 744.825 347.013 746.136 339.898 745.411Z" fill="black"/>
<path d="M371.47 678.897L381.38 680.684C380.95 683.892 380.318 686.673 379.483 689.03C378.12 692.879 376.453 695.648 374.484 697.337C372.515 699.027 370.396 699.956 368.126 700.124C365.817 700.278 361.481 699.228 355.119 696.974L319.124 684.22L316.369 691.996L308.121 689.073L310.876 681.297L295.383 675.807L292.757 663.008L314.613 670.752L318.391 660.089L326.639 663.012L322.86 673.674L359.444 686.637C362.468 687.709 364.475 688.221 365.464 688.174C366.468 688.087 367.371 687.722 368.173 687.078C368.99 686.395 369.677 685.268 370.233 683.697C370.651 682.519 371.063 680.919 371.47 678.897Z" fill="black"/>
<path d="M398.215 642.866L389.267 638.994C394.098 646.714 394.752 654.647 391.227 662.792C389.672 666.386 387.527 669.454 384.794 671.994C382.077 674.495 379.355 676.064 376.628 676.7C373.88 677.282 370.863 677.225 367.577 676.529C365.368 676.073 362.065 674.893 357.667 672.991L319.924 656.659L324.392 646.334L358.177 660.953C363.569 663.286 367.293 664.648 369.348 665.038C372.345 665.563 375.082 665.113 377.56 663.688C380 662.247 381.89 659.977 383.23 656.88C384.57 653.782 385.044 650.537 384.651 647.143C384.219 643.733 382.886 640.886 380.651 638.603C378.394 636.264 374.665 633.97 369.465 631.719L336.827 617.597L341.294 607.272L402.211 633.631L398.215 642.866Z" fill="black"/>
<path d="M420.811 602.005L413.449 598.012C417.23 604.85 417.173 611.858 413.28 619.037C410.758 623.689 407.152 627.279 402.462 629.808C397.793 632.3 392.583 633.385 386.833 633.063C381.066 632.685 375.197 630.877 369.227 627.639C363.403 624.481 358.655 620.65 354.983 616.146C351.274 611.622 349.209 606.734 348.787 601.481C348.365 596.228 349.455 591.202 352.058 586.404C353.964 582.888 356.414 580.164 359.405 578.231C362.36 576.279 365.495 575.087 368.809 574.657L339.91 558.984L345.243 549.15L425.787 592.83L420.811 602.005ZM374.739 617.475C382.211 621.527 388.65 622.981 394.058 621.837C399.466 620.694 403.331 617.979 405.656 613.694C407.999 609.372 408.228 604.756 406.34 599.845C404.436 594.878 399.858 590.429 392.606 586.496C384.621 582.165 377.926 580.526 372.522 581.576C367.117 582.627 363.193 585.405 360.75 589.91C358.367 594.305 358.165 598.959 360.146 603.873C362.146 608.75 367.01 613.284 374.739 617.475Z" fill="black"/>
<path d="M444.62 613.101L435.104 608.349C437.01 606.66 438.466 605.049 439.473 603.516C440.844 601.426 441.594 599.526 441.72 597.815C441.847 596.103 441.546 594.436 440.818 592.811C440.266 591.602 438.561 589.112 435.703 585.342C435.294 584.825 434.711 584.043 433.952 582.997L364.538 567.561L371.191 557.425L410.904 566.97C415.963 568.148 421.127 569.619 426.398 571.384C422.788 567.469 419.419 563.414 416.292 559.218L391.735 526.128L397.909 516.723L440.482 574.872C445.091 581.138 448.134 585.652 449.61 588.415C451.612 592.122 452.619 595.524 452.629 598.621C452.675 601.741 451.714 604.799 449.748 607.794C448.559 609.605 446.85 611.374 444.62 613.101Z" fill="black"/>
<path d="M469.928 535.175L406.749 506.424L414.449 497.716L450.147 515.182L463.431 521.671C463.011 521.077 460.352 517.197 455.454 510.029L433.328 476.365L440.987 467.703L476.412 485.762L488.111 491.685L481.038 480.341L459.825 446.4L467.07 438.206L503.049 497.718L495.307 506.474L458.532 488.056L448.36 482.482L477.711 526.373L469.928 535.175Z" fill="black"/>
<path d="M477.13 478.241C468.786 469.215 465.115 460.211 466.116 451.227C466.971 443.742 470.412 437.214 476.439 431.642C483.14 425.448 490.653 422.588 498.979 423.062C507.276 423.506 515.003 427.599 522.159 435.34C527.957 441.612 531.576 447.43 533.017 452.794C534.459 458.099 534.295 463.415 532.523 468.741C530.781 474.039 527.784 478.654 523.531 482.585C516.708 488.892 509.163 491.81 500.897 491.338C492.66 490.837 484.738 486.472 477.13 478.241ZM485.62 470.393C491.39 476.634 497.079 480.057 502.687 480.66C508.267 481.233 513.122 479.611 517.252 475.793C521.352 472.003 523.321 467.289 523.16 461.65C522.998 456.012 519.961 449.996 514.05 443.601C508.478 437.574 502.887 434.288 497.277 433.743C491.669 433.139 486.83 434.718 482.761 438.48C478.63 442.298 476.632 447.011 476.765 452.619C476.899 458.226 479.85 464.151 485.62 470.393Z" fill="black"/>
<path d="M538.439 468.038L497 416.188L504.909 409.867L511.191 417.728C510.27 412.437 510.187 408.529 510.943 406.005C511.731 403.454 513.151 401.36 515.202 399.721C518.164 397.353 521.929 395.891 526.497 395.334L529.986 405.906C526.824 406.354 524.168 407.436 522.02 409.153C520.1 410.688 518.843 412.652 518.249 415.047C517.63 417.409 517.814 419.875 518.802 422.446C520.323 426.351 522.566 430.159 525.532 433.869L547.227 461.015L538.439 468.038Z" fill="black"/>
<path d="M561.259 450.231L508.997 374.973L518.237 368.556L548.04 411.473L554.508 374.109L566.47 365.803L559.674 400.503L606.435 418.859L595.038 426.774L557.662 411.412L555.491 422.202L570.5 443.814L561.259 450.231Z" fill="black"/>
<path d="M635.839 391.658C634.643 397.074 632.655 401.766 629.873 405.734C627.072 409.666 623.459 412.884 619.035 415.387C610.876 420.005 602.843 420.912 594.937 418.109C588.512 415.809 583.73 411.884 580.59 406.336C577.799 401.404 576.862 396.07 577.78 390.332C578.714 384.537 581.484 378.349 586.09 371.768C580.161 369.666 575.869 367.666 573.215 365.769C570.562 363.872 568.558 361.726 567.203 359.333C564.494 354.546 564.012 349.337 565.756 343.706C567.516 338.018 571.243 333.563 576.936 330.341C582.376 327.263 587.762 326.417 593.095 327.804C598.464 329.17 602.472 332.191 605.12 336.869C609.409 344.448 608.05 353.763 601.042 364.815L625.66 374.94C625.486 370.826 624.662 366.409 623.188 361.689L634.591 358.109C636.79 366.056 637.676 373.119 637.247 379.299C643.659 382.085 650.12 383.815 656.629 384.488L654.45 395.991C649.061 395.69 642.857 394.245 635.839 391.658ZM592.413 361.368C595.239 356.465 596.736 352.721 596.901 350.138C597.103 347.534 596.558 345.09 595.265 342.805C593.726 340.086 591.604 338.366 588.899 337.647C586.209 336.871 583.577 337.211 581.003 338.668C578.355 340.167 576.626 342.271 575.813 344.981C575.037 347.67 575.347 350.248 576.743 352.713C577.44 353.946 578.487 355.077 579.884 356.106C581.296 357.079 583.067 357.967 585.198 358.772L592.413 361.368ZM625.321 387.412L594.781 375.324C591.272 381.475 589.363 386.434 589.053 390.2C588.722 393.93 589.306 397.119 590.804 399.766C592.63 402.993 595.816 405.619 600.361 407.643C604.905 409.667 609.535 409.345 614.249 406.677C617.186 405.015 619.701 402.395 621.793 398.817C623.902 395.182 625.078 391.381 625.321 387.412Z" fill="black"/>
<path d="M632.822 383.863L642.248 377.7C644.648 381.509 647.627 383.915 651.186 384.917C654.782 385.903 658.917 385.344 663.591 383.24C668.302 381.119 671.37 378.595 672.794 375.669C674.202 372.706 674.324 369.932 673.161 367.348C672.117 365.031 670.29 363.66 667.677 363.237C665.861 362.958 661.844 363.373 655.626 364.481C647.248 365.968 641.288 366.686 637.747 366.635C634.226 366.529 631.159 365.603 628.544 363.855C625.951 362.053 623.987 359.67 622.653 356.706C621.439 354.008 620.926 351.246 621.116 348.419C621.326 345.537 622.153 342.857 623.597 340.38C624.662 338.483 626.383 336.521 628.76 334.491C631.157 332.407 633.932 330.655 637.086 329.235C641.835 327.097 646.303 325.908 650.491 325.668C654.716 325.411 658.213 326.075 660.984 327.661C663.737 329.209 666.317 331.795 668.725 335.417L659.31 341.301C657.451 338.39 655.027 336.557 652.037 335.802C649.084 335.029 645.613 335.54 641.624 337.336C636.912 339.457 633.901 341.75 632.588 344.214C631.276 346.678 631.09 348.955 632.031 351.045C632.629 352.375 633.586 353.383 634.901 354.071C636.233 354.797 637.954 355.118 640.065 355.036C641.262 354.954 644.676 354.469 650.307 353.579C658.436 352.249 664.207 351.57 667.621 351.541C671.056 351.457 674.121 352.225 676.815 353.845C679.509 355.466 681.643 358.023 683.217 361.519C684.756 364.938 685.203 368.621 684.558 372.567C683.933 376.458 682.116 380.086 679.108 383.451C676.082 386.778 672.194 389.511 667.445 391.649C659.58 395.189 652.841 396.258 647.229 394.855C641.655 393.435 636.852 389.771 632.822 383.863Z" fill="black"/>
<path d="M704.029 365.141L709.048 373.87C706.319 375.609 703.784 376.919 701.444 377.799C697.622 379.236 694.431 379.747 691.87 379.33C689.31 378.913 687.234 377.891 685.642 376.264C684.036 374.597 682.045 370.605 679.669 364.287L666.225 328.544L658.503 331.449L655.423 323.259L663.145 320.355L657.358 304.969L665.453 294.713L673.616 316.416L684.204 312.434L687.285 320.623L676.696 324.606L690.36 360.934C691.489 363.937 692.391 365.801 693.065 366.527C693.777 367.238 694.639 367.694 695.648 367.893C696.697 368.077 698.001 367.876 699.561 367.289C700.731 366.849 702.22 366.133 704.029 365.141Z" fill="black"/>
<path d="M748.815 362.373L746.009 353.036C743.22 361.705 737.575 367.317 729.075 369.871C725.324 370.998 721.597 371.335 717.893 370.882C714.229 370.417 711.276 369.346 709.032 367.671C706.816 365.944 704.915 363.6 703.33 360.64C702.255 358.657 701.029 355.371 699.65 350.782L687.815 311.396L698.589 308.159L709.183 343.414C710.873 349.041 712.232 352.766 713.258 354.589C714.788 357.218 716.896 359.021 719.583 359.998C722.257 360.935 725.21 360.917 728.442 359.946C731.675 358.975 734.462 357.245 736.803 354.758C739.133 352.231 740.45 349.377 740.756 346.196C741.09 342.963 740.442 338.633 738.811 333.206L728.577 299.148L739.351 295.91L758.452 359.478L748.815 362.373Z" fill="black"/>
<path d="M794.622 353.319L792.93 345.116C790.138 352.414 784.743 356.887 776.745 358.537C771.562 359.605 766.493 359.162 761.537 357.205C756.623 355.241 752.436 351.956 748.976 347.352C745.549 342.698 743.149 337.045 741.778 330.394C740.44 323.905 740.309 317.806 741.387 312.096C742.456 306.344 744.863 301.615 748.608 297.907C752.353 294.2 756.898 291.795 762.244 290.692C766.161 289.884 769.823 290.001 773.229 291.043C776.626 292.045 779.557 293.674 782.022 295.931L775.382 263.733L786.339 261.474L804.844 351.211L794.622 353.319ZM753.102 328.058C754.819 336.383 757.857 342.245 762.216 345.643C766.576 349.041 771.142 350.247 775.917 349.263C780.732 348.27 784.409 345.469 786.948 340.862C789.519 336.205 789.971 329.837 788.305 321.757C786.47 312.86 783.41 306.685 779.124 303.229C774.837 299.773 770.185 298.563 765.165 299.598C760.268 300.608 756.579 303.453 754.099 308.134C751.659 312.806 751.326 319.448 753.102 328.058Z" fill="black"/>
<path d="M801.479 378.674L798.98 368.335C801.5 368.705 803.671 368.78 805.491 368.561C807.973 368.264 809.909 367.612 811.299 366.606C812.689 365.599 813.771 364.295 814.543 362.691C815.113 361.49 815.918 358.582 816.959 353.966C817.091 353.321 817.313 352.371 817.624 351.117L784.694 288.091L796.733 286.646L815.026 323.165C817.385 327.792 819.589 332.689 821.636 337.857C822.303 332.573 823.233 327.384 824.426 322.289L833.903 282.187L845.073 280.846L828.044 350.874C826.224 358.436 824.733 363.672 823.571 366.581C822.027 370.501 820.074 373.463 817.713 375.467C815.357 377.512 812.399 378.748 808.842 379.175C806.69 379.433 804.236 379.266 801.479 378.674Z" fill="black"/>
</svg>
