<svg width="181" height="98" viewBox="0 0 181 98" fill="none" xmlns="http://www.w3.org/2000/svg">
<g id="Frame 32">
<path id="Vector 25" d="M45.1914 2L24.9045 53.1218" stroke="#131313" stroke-width="3" stroke-linecap="round"/>
<path id="Vector 26" d="M24.846 31.5812C21.5885 30.6435 15.5271 30.0885 11.9605 29.7113C7.9997 29.2925 5.39454 31.7979 4.05785 35.1663C0.520874 44.0793 2.24751 46.2823 11.1543 49.8169" stroke="#131313" stroke-width="3" stroke-linecap="round"/>
<path id="Vector 27" d="M47.3685 49.649C54.2533 49.2271 72.2762 51.3044 70.5401 41.1228C69.2849 33.7618 58.4259 31.413 52.9723 35.5277C46.2947 40.5657 44.0616 45.5159 40.9709 53.3041C39.1324 57.9371 38.7228 58.6059 43.8337 60.6341C46.3684 61.6399 49.964 60.7546 51.8373 59.1648" stroke="#131313" stroke-width="3" stroke-linecap="round"/>
<path id="Vector 28" d="M66.5244 62.1073C70.4422 52.2347 77.6755 44.6732 80.6752 34.0176C81.7687 30.1334 80.5325 26.8077 82.1111 22.8297C83.1861 20.121 84.261 17.4122 85.3359 14.7034" stroke="#131313" stroke-width="3" stroke-linecap="round"/>
<path id="Vector 29" d="M99.8535 26.9197C95.2956 38.4054 90.7377 49.8911 86.1797 61.3768C81.3403 73.572 92.4981 77.9881 97.0655 66.4787" stroke="#131313" stroke-width="3" stroke-linecap="round"/>
<path id="Vector 30" d="M81.5449 54.0813L92.6988 58.5075" stroke="#131313" stroke-width="3" stroke-linecap="round"/>
<path id="Vector 31" d="M135.098 79.0842C133.806 76.2607 126.424 58.5099 120.723 61.6034C117.345 63.4362 107.108 72.5195 109.641 78.0539C110.231 79.3446 111.987 71.2241 112.436 70.0912C113.736 66.8161 115.758 63.2755 116.425 59.8106C118.153 50.8358 115.519 41.6661 118.812 33.3674" stroke="#131313" stroke-width="3" stroke-linecap="round"/>
<path id="Vector 32" d="M161.766 84.8397C164.578 79.3334 181.393 67.1675 173.632 61.3248C168.303 57.3133 162.126 56.0477 155.46 59.6715C149.728 62.7879 148.151 64.5268 149.184 70.468C150.152 76.027 152.344 81.1008 157.543 83.1639" stroke="#131313" stroke-width="3" stroke-linecap="round"/>
<path id="Vector 33" d="M179.422 59.5708L165.037 95.8208" stroke="#131313" stroke-width="3" stroke-linecap="round"/>
</g>
</svg>
