<svg width="1244" height="1243" viewBox="0 0 1244 1243" fill="none" xmlns="http://www.w3.org/2000/svg">
<path d="M1087.12 360.278L1136.28 311.268L1141.72 321.542L1102.05 358.952C1102.76 358.768 1107.32 357.645 1115.76 355.585L1155.06 346.729L1160.47 356.948L1131.09 383.745L1121.43 392.61L1134.54 389.984L1173.77 382.08L1178.89 391.746L1110.52 404.466L1105.05 394.137L1135.24 366.203L1144.04 358.644L1092.62 370.662L1087.12 360.278Z" fill="black"/>
<path d="M1137.88 387.064C1149.26 382.433 1158.98 382.168 1167.04 386.268C1173.74 389.703 1178.64 395.222 1181.74 402.826C1185.17 411.278 1185.21 419.317 1181.83 426.943C1178.49 434.553 1171.94 440.344 1162.18 444.316C1154.27 447.534 1147.55 448.873 1142.02 448.332C1136.54 447.815 1131.63 445.789 1127.27 442.255C1122.92 438.76 1119.66 434.33 1117.47 428.965C1113.97 420.358 1113.9 412.269 1117.25 404.698C1120.62 397.166 1127.5 391.288 1137.88 387.064ZM1142.23 397.775C1134.36 400.978 1129.15 405.097 1126.61 410.133C1124.11 415.154 1123.92 420.27 1126.04 425.48C1128.15 430.652 1131.87 434.155 1137.2 435.988C1142.53 437.822 1149.23 437.098 1157.3 433.817C1164.9 430.724 1169.95 426.648 1172.43 421.589C1174.97 416.553 1175.2 411.468 1173.11 406.335C1170.99 401.124 1167.28 397.594 1161.99 395.745C1156.69 393.896 1150.11 394.572 1142.23 397.775Z" fill="black"/>
<path d="M1125.84 448.041L1188.96 427.512L1192.09 437.14L1182.52 440.253C1187.8 441.253 1191.49 442.551 1193.58 444.148C1195.69 445.784 1197.15 447.85 1197.96 450.346C1199.14 453.952 1199.18 457.991 1198.09 462.463L1186.97 462.006C1187.66 458.889 1187.59 456.022 1186.74 453.407C1185.98 451.069 1184.58 449.201 1182.55 447.803C1180.55 446.392 1178.18 445.696 1175.43 445.715C1171.24 445.764 1166.88 446.522 1162.37 447.992L1129.32 458.74L1125.84 448.041Z" fill="black"/>
<path d="M1134.47 475.67L1223.31 453.252L1226.06 464.16L1175.4 476.944L1208.1 496.153L1211.66 510.273L1181.57 491.695L1147.93 528.998L1144.53 515.545L1172.07 485.97L1162.74 480.14L1137.22 486.578L1134.47 475.67Z" fill="black"/>
<path d="M1163.03 566.097C1158.39 563.07 1154.69 559.557 1151.96 555.557C1149.27 551.55 1147.53 547.035 1146.74 542.013C1145.29 532.751 1147.27 524.913 1152.68 518.5C1157.09 513.297 1162.45 510.203 1168.75 509.217C1174.35 508.341 1179.67 509.343 1184.72 512.223C1189.81 515.137 1194.63 519.908 1199.17 526.536C1203.22 521.727 1206.61 518.414 1209.32 516.599C1212.03 514.783 1214.74 513.662 1217.46 513.237C1222.89 512.387 1227.94 513.77 1232.59 517.385C1237.3 521.036 1240.15 526.092 1241.16 532.555C1242.13 538.73 1241.03 544.069 1237.85 548.572C1234.68 553.117 1230.44 555.804 1225.13 556.635C1216.53 557.981 1208.29 553.429 1200.41 542.979L1182.27 562.455C1186.18 563.741 1190.6 564.525 1195.54 564.807L1194.88 576.741C1186.66 576.001 1179.74 574.343 1174.11 571.766C1169.24 576.787 1165.35 582.225 1162.43 588.08L1152.43 581.99C1154.61 577.052 1158.14 571.754 1163.03 566.097ZM1206.68 536.116C1210.27 540.488 1213.25 543.207 1215.61 544.271C1217.97 545.377 1220.45 545.727 1223.05 545.322C1226.13 544.839 1228.49 543.458 1230.11 541.179C1231.79 538.935 1232.4 536.352 1231.94 533.429C1231.47 530.424 1230.11 528.064 1227.86 526.35C1225.61 524.677 1223.09 524.059 1220.29 524.497C1218.89 524.716 1217.47 525.297 1216.01 526.242C1214.6 527.221 1213.15 528.567 1211.65 530.278L1206.68 536.116ZM1170.71 557.747L1192.78 533.419C1188.26 527.969 1184.29 524.436 1180.87 522.819C1177.5 521.197 1174.31 520.62 1171.3 521.09C1167.64 521.663 1164.06 523.721 1160.57 527.262C1157.07 530.803 1155.74 535.249 1156.58 540.6C1157.1 543.935 1158.67 547.211 1161.28 550.43C1163.94 553.683 1167.08 556.122 1170.71 557.747Z" fill="black"/>
<path d="M1171.39 566.017L1173.84 577.009C1169.43 577.915 1166.13 579.856 1163.94 582.834C1161.75 585.853 1160.82 589.92 1161.14 595.035C1161.47 600.191 1162.75 603.951 1164.99 606.315C1167.27 608.675 1169.82 609.766 1172.65 609.587C1175.18 609.427 1177.11 608.199 1178.43 605.903C1179.33 604.301 1180.35 600.395 1181.5 594.185C1183.06 585.82 1184.49 579.989 1185.78 576.692C1187.12 573.435 1189.07 570.89 1191.63 569.058C1194.23 567.265 1197.15 566.266 1200.39 566.061C1203.34 565.874 1206.11 566.367 1208.69 567.54C1211.31 568.752 1213.53 570.47 1215.34 572.693C1216.74 574.358 1217.97 576.66 1219.03 579.599C1220.14 582.576 1220.8 585.791 1221.02 589.242C1221.35 594.44 1220.89 599.041 1219.64 603.044C1218.39 607.09 1216.54 610.129 1214.08 612.164C1211.66 614.196 1208.33 615.7 1204.1 616.678L1201.9 605.795C1205.28 605.08 1207.85 603.456 1209.61 600.924C1211.37 598.432 1212.12 595.003 1211.84 590.637C1211.52 585.481 1210.43 581.855 1208.59 579.759C1206.74 577.663 1204.68 576.687 1202.39 576.832C1200.93 576.924 1199.65 577.464 1198.55 578.452C1197.4 579.444 1196.49 580.941 1195.82 582.946C1195.48 584.095 1194.73 587.461 1193.58 593.045C1191.96 601.122 1190.57 606.763 1189.39 609.968C1188.26 613.213 1186.46 615.811 1184 617.762C1181.53 619.713 1178.39 620.81 1174.56 621.052C1170.82 621.289 1167.22 620.41 1163.75 618.417C1160.33 616.462 1157.57 613.485 1155.48 609.484C1153.43 605.48 1152.24 600.879 1151.92 595.681C1151.37 587.073 1152.74 580.39 1156.03 575.631C1159.32 570.914 1164.44 567.709 1171.39 566.017Z" fill="black"/>
<path d="M1163.84 639.256L1153.91 640.88C1153.24 637.714 1152.91 634.88 1152.91 632.38C1152.91 628.297 1153.55 625.13 1154.85 622.881C1156.14 620.631 1157.83 619.047 1159.91 618.131C1162.03 617.214 1166.47 616.756 1173.22 616.757L1211.41 616.759L1211.41 608.509L1220.16 608.51L1220.16 616.76L1236.6 616.761L1243.35 627.948L1220.16 627.947L1220.16 639.26L1211.41 639.259L1211.41 627.947L1172.6 627.944C1169.39 627.944 1167.32 628.131 1166.41 628.506C1165.49 628.923 1164.76 629.569 1164.22 630.444C1163.68 631.36 1163.41 632.652 1163.41 634.319C1163.41 635.569 1163.55 637.214 1163.84 639.256Z" fill="black"/>
<path d="M1150.66 682.15L1160.39 682.812C1153.26 677.148 1149.99 669.889 1150.6 661.034C1150.86 657.127 1151.86 653.519 1153.59 650.212C1155.31 646.947 1157.36 644.559 1159.71 643.049C1162.11 641.583 1164.97 640.63 1168.3 640.188C1170.54 639.88 1174.04 639.889 1178.82 640.214L1219.86 643.005L1219.09 654.229L1182.36 651.731C1176.5 651.332 1172.54 651.292 1170.47 651.611C1167.47 652.117 1165.04 653.455 1163.18 655.626C1161.36 657.799 1160.34 660.569 1160.11 663.937C1159.88 667.304 1160.52 670.521 1162.02 673.589C1163.57 676.659 1165.77 678.897 1168.64 680.303C1171.55 681.754 1175.83 682.672 1181.49 683.056L1216.97 685.469L1216.2 696.693L1149.98 692.189L1150.66 682.15Z" fill="black"/>
<path d="M1143.01 728.211L1151.28 729.516C1145.44 724.333 1143.15 717.708 1144.42 709.641C1145.25 704.414 1147.45 699.826 1151.02 695.877C1154.59 691.968 1159.14 689.206 1164.67 687.589C1170.23 686.02 1176.37 685.765 1183.07 686.823C1189.62 687.855 1195.37 689.881 1200.34 692.9C1205.35 695.925 1208.92 699.843 1211.08 704.654C1213.23 709.464 1213.88 714.566 1213.03 719.957C1212.4 723.908 1211.01 727.294 1208.83 730.115C1206.7 732.942 1204.14 735.112 1201.16 736.624L1233.63 741.747L1231.89 752.798L1141.39 738.521L1143.01 728.211ZM1181.27 698.244C1172.88 696.92 1166.32 697.699 1161.61 700.583C1156.89 703.467 1154.15 707.317 1153.39 712.132C1152.63 716.989 1153.95 721.416 1157.37 725.414C1160.83 729.46 1166.63 732.126 1174.78 733.411C1183.75 734.827 1190.61 734.137 1195.35 731.342C1200.09 728.547 1202.86 724.618 1203.66 719.556C1204.44 714.617 1203.08 710.162 1199.57 706.192C1196.06 702.263 1189.96 699.614 1181.27 698.244Z" fill="black"/>
<path d="M1116.86 725.702L1127.42 727.003C1126.19 729.232 1125.35 731.237 1124.92 733.017C1124.32 735.446 1124.25 737.487 1124.7 739.142C1125.15 740.798 1126 742.269 1127.22 743.557C1128.15 744.513 1130.59 746.291 1134.54 748.89C1135.1 749.241 1135.91 749.783 1136.97 750.516L1207.56 741.886L1204.67 753.662L1164.05 757.926C1158.89 758.505 1153.53 758.843 1147.97 758.939C1152.68 761.424 1157.21 764.122 1161.56 767.032L1195.76 790.023L1193.08 800.95L1133.53 760.354C1127.09 755.988 1122.72 752.749 1120.4 750.637C1117.28 747.812 1115.19 744.941 1114.15 742.025C1113.07 739.1 1112.95 735.897 1113.8 732.416C1114.32 730.312 1115.34 728.074 1116.86 725.702Z" fill="black"/>
<path d="M1119.03 807.606L1188.18 813.609L1183.83 824.389L1129.66 818.165C1130.26 818.585 1134.06 821.355 1141.07 826.475L1173.17 850.818L1168.84 861.541L1129.42 856.348L1116.41 854.672L1126.87 863.002L1158.2 887.912L1154.1 898.055L1100.32 853.973L1104.69 843.134L1145.51 848.215L1156.96 850.072L1114.63 818.502L1119.03 807.606Z" fill="black"/>
<path d="M1131.25 863.676C1142.13 869.398 1148.6 876.66 1150.66 885.462C1152.35 892.803 1151.29 900.106 1147.47 907.37C1143.22 915.447 1137.09 920.651 1129.09 922.984C1121.12 925.336 1112.47 924.059 1103.14 919.152C1095.58 915.176 1090.22 910.9 1087.07 906.325C1083.94 901.806 1082.32 896.741 1082.21 891.129C1082.09 885.553 1083.37 880.203 1086.07 875.077C1090.39 866.853 1096.53 861.584 1104.48 859.268C1112.41 856.99 1121.33 858.459 1131.25 863.676ZM1125.87 873.91C1118.35 869.953 1111.84 868.627 1106.36 869.93C1100.91 871.253 1096.87 874.404 1094.25 879.383C1091.65 884.324 1091.37 889.425 1093.41 894.686C1095.44 899.946 1100.31 904.603 1108.02 908.657C1115.29 912.478 1121.65 913.708 1127.12 912.348C1132.61 911.044 1136.64 907.94 1139.22 903.036C1141.84 898.057 1142.15 892.947 1140.15 887.706C1138.16 882.465 1133.39 877.867 1125.87 873.91Z" fill="black"/>
<path d="M1076.87 893.767L1133.24 928.803L1127.9 937.402L1119.35 932.091C1121.99 936.77 1123.37 940.426 1123.5 943.058C1123.61 945.725 1122.97 948.174 1121.59 950.403C1119.59 953.624 1116.52 956.259 1112.4 958.31L1105.59 949.51C1108.42 948.032 1110.56 946.125 1112.01 943.789C1113.31 941.701 1113.84 939.43 1113.6 936.975C1113.39 934.542 1112.39 932.278 1110.6 930.185C1107.87 927.012 1104.48 924.172 1100.45 921.664L1070.93 903.322L1076.87 893.767Z" fill="black"/>
<path d="M1061.31 918.172L1135.7 971.658L1129.13 980.792L1086.71 950.291L1093.09 987.67L1084.59 999.494L1079.41 964.516L1029.2 962.828L1037.3 951.563L1077.66 953.562L1076.1 942.666L1054.74 927.306L1061.31 918.172Z" fill="black"/>
<path d="M1010.57 998.288C1009.89 992.783 1010.19 987.696 1011.49 983.027C1012.82 978.385 1015.15 974.146 1018.48 970.308C1024.63 963.232 1031.9 959.694 1040.29 959.696C1047.11 959.719 1052.93 961.821 1057.74 966.003C1062.02 969.719 1064.69 974.435 1065.74 980.15C1066.79 985.924 1066.25 992.682 1064.1 1000.42C1070.39 1000.42 1075.11 1000.88 1078.24 1001.78C1081.38 1002.68 1083.98 1004.03 1086.06 1005.84C1090.21 1009.44 1092.4 1014.19 1092.64 1020.08C1092.88 1026.03 1090.86 1031.48 1086.56 1036.42C1082.47 1041.13 1077.67 1043.73 1072.18 1044.2C1066.66 1044.71 1061.88 1043.2 1057.82 1039.67C1051.25 1033.96 1049.42 1024.73 1052.33 1011.97L1025.74 1010.65C1027.28 1014.47 1029.53 1018.35 1032.5 1022.31L1022.95 1029.49C1018.22 1022.74 1015.03 1016.38 1013.37 1010.41C1006.39 1009.92 999.725 1010.45 993.365 1011.99L991.578 1000.42C996.759 998.902 1003.09 998.192 1010.57 998.288ZM1061.62 1012.34C1060.59 1017.9 1060.43 1021.93 1061.14 1024.42C1061.81 1026.94 1063.14 1029.07 1065.13 1030.79C1067.48 1032.84 1070.06 1033.75 1072.85 1033.52C1075.64 1033.36 1078.01 1032.16 1079.95 1029.92C1081.95 1027.63 1082.87 1025.07 1082.73 1022.24C1082.57 1019.45 1081.42 1017.12 1079.28 1015.26C1078.21 1014.33 1076.84 1013.62 1075.18 1013.11C1073.53 1012.67 1071.56 1012.42 1069.28 1012.38L1061.62 1012.34ZM1021.9 998.777L1054.72 999.973C1055.98 993.004 1056.12 987.692 1055.16 984.038C1054.22 980.412 1052.61 977.601 1050.31 975.606C1047.51 973.174 1043.63 971.763 1038.67 971.373C1033.71 970.982 1029.46 972.832 1025.9 976.921C1023.69 979.468 1022.19 982.778 1021.42 986.849C1020.64 990.979 1020.8 994.955 1021.9 998.777Z" fill="black"/>
<path d="M1016.02 1004.63L1009.19 1013.58C1005.65 1010.8 1002.04 1009.52 998.354 1009.77C994.634 1010.04 990.924 1011.95 987.221 1015.49C983.488 1019.06 981.439 1022.46 981.074 1025.7C980.737 1028.96 981.548 1031.62 983.507 1033.66C985.264 1035.5 987.445 1036.18 990.049 1035.71C991.854 1035.37 995.502 1033.63 1000.99 1030.51C1008.39 1026.31 1013.77 1023.65 1017.13 1022.51C1020.48 1021.43 1023.68 1021.28 1026.73 1022.06C1029.78 1022.89 1032.42 1024.48 1034.67 1026.83C1036.71 1028.97 1038.12 1031.4 1038.89 1034.13C1039.65 1036.91 1039.76 1039.72 1039.23 1042.53C1038.86 1044.68 1037.89 1047.1 1036.33 1049.81C1034.77 1052.57 1032.74 1055.15 1030.24 1057.54C1026.48 1061.14 1022.66 1063.76 1018.79 1065.38C1014.9 1067.03 1011.38 1067.58 1008.24 1067.01C1005.13 1066.47 1001.83 1064.89 998.351 1062.28L1005.26 1053.59C1007.98 1055.71 1010.88 1056.63 1013.95 1056.35C1016.99 1056.09 1020.09 1054.45 1023.26 1051.42C1026.99 1047.85 1029.06 1044.68 1029.48 1041.92C1029.89 1039.16 1029.3 1036.95 1027.72 1035.3C1026.71 1034.24 1025.47 1033.61 1024 1033.4C1022.51 1033.16 1020.78 1033.44 1018.81 1034.22C1017.71 1034.69 1014.66 1036.29 1009.65 1039.01C1002.43 1042.98 997.215 1045.55 994.007 1046.71C990.797 1047.94 987.652 1048.24 984.571 1047.61C981.491 1046.98 978.625 1045.29 975.975 1042.52C973.382 1039.81 971.731 1036.49 971.022 1032.55C970.311 1028.67 970.812 1024.65 972.524 1020.47C974.265 1016.32 977.017 1012.45 980.78 1008.85C987.011 1002.89 993.006 999.629 998.765 999.077C1004.49 998.555 1010.24 1000.4 1016.02 1004.63Z" fill="black"/>
<path d="M955.147 1046.05L947.501 1039.5C949.493 1036.95 951.445 1034.87 953.356 1033.26C956.479 1030.63 959.317 1029.08 961.869 1028.62C964.422 1028.16 966.721 1028.43 968.764 1029.43C970.834 1030.46 974.044 1033.56 978.394 1038.72L1003 1067.92L1009.31 1062.61L1014.95 1069.3L1008.64 1074.62L1019.23 1087.19L1015.03 1099.56L1000.08 1081.82L991.434 1089.11L985.796 1082.42L994.446 1075.13L969.436 1045.45C967.369 1043 965.896 1041.54 965.019 1041.08C964.109 1040.65 963.146 1040.51 962.128 1040.66C961.078 1040.84 959.915 1041.46 958.641 1042.54C957.685 1043.34 956.52 1044.51 955.147 1046.05Z" fill="black"/>
<path d="M913.855 1063.62L919.618 1071.48C919.352 1062.38 922.799 1055.2 929.958 1049.96C933.117 1047.64 936.518 1046.08 940.161 1045.27C943.77 1044.49 946.911 1044.51 949.586 1045.34C952.251 1046.23 954.825 1047.8 957.308 1050.06C958.983 1051.57 961.237 1054.26 964.069 1058.13L988.377 1091.3L979.302 1097.95L957.544 1068.25C954.071 1063.51 951.547 1060.46 949.97 1059.08C947.65 1057.11 945.061 1056.12 942.203 1056.09C939.369 1056.1 936.591 1057.11 933.869 1059.1C931.147 1061.1 929.097 1063.66 927.721 1066.78C926.369 1069.94 926.08 1073.07 926.854 1076.18C927.618 1079.33 929.676 1083.2 933.025 1087.77L954.044 1116.46L944.97 1123.1L905.738 1069.56L913.855 1063.62Z" fill="black"/>
<path d="M873.702 1087.45L878.035 1094.61C878.23 1086.8 881.822 1080.79 888.81 1076.56C893.339 1073.82 898.265 1072.55 903.589 1072.74C908.878 1072.95 913.921 1074.65 918.72 1077.83C923.504 1081.07 927.654 1085.6 931.168 1091.41C934.596 1097.08 936.755 1102.79 937.647 1108.53C938.56 1114.31 937.87 1119.57 935.578 1124.31C933.286 1129.06 929.805 1132.84 925.134 1135.67C921.711 1137.74 918.221 1138.85 914.662 1139C911.126 1139.2 907.819 1138.64 904.742 1137.33L921.752 1165.47L912.178 1171.26L864.77 1092.85L873.702 1087.45ZM921.273 1097.39C916.875 1090.12 912.055 1085.61 906.811 1083.86C901.567 1082.12 896.859 1082.5 892.687 1085.03C888.48 1087.57 885.949 1091.44 885.095 1096.63C884.227 1101.88 885.927 1108.03 890.196 1115.09C894.896 1122.86 899.843 1127.66 905.037 1129.49C910.231 1131.31 915.021 1130.9 919.406 1128.25C923.685 1125.66 926.212 1121.75 926.987 1116.51C927.727 1111.29 925.822 1104.92 921.273 1097.39Z" fill="black"/>
<path d="M858.77 1065.84L864.579 1074.75C862.08 1075.24 860.009 1075.9 858.366 1076.71C856.126 1077.82 854.519 1079.08 853.544 1080.49C852.57 1081.91 851.986 1083.5 851.793 1085.27C851.658 1086.59 851.87 1089.6 852.43 1094.3C852.521 1094.95 852.629 1095.92 852.755 1097.2L904.841 1145.62L893.975 1151L864.538 1122.68C860.768 1119.11 857.056 1115.23 853.401 1111.04C854.537 1116.25 855.393 1121.45 855.97 1126.65L860.427 1167.61L850.346 1172.61L843.014 1100.91C842.204 1093.18 841.861 1087.74 841.985 1084.61C842.131 1080.4 842.983 1076.96 844.539 1074.28C846.078 1071.57 848.452 1069.41 851.663 1067.82C853.605 1066.86 855.974 1066.2 858.77 1065.84Z" fill="black"/>
<path d="M797.536 1120.27L837.51 1177.02L826.463 1180.64L796.314 1135.21C796.376 1135.94 796.708 1140.63 797.31 1149.29L799.38 1189.52L788.393 1193.12L766.959 1159.63L759.86 1148.61L760.227 1161.97L761.37 1201.98L750.976 1205.38L750.022 1135.85L761.128 1132.21L783.546 1166.69L789.504 1176.64L786.37 1123.93L797.536 1120.27Z" fill="black"/>
<path d="M762.54 1165.76C765.175 1177.76 763.79 1187.39 758.384 1194.63C753.863 1200.66 747.593 1204.55 739.576 1206.31C730.663 1208.27 722.735 1206.94 715.792 1202.32C708.857 1197.74 704.26 1190.3 701.999 1180.01C700.168 1171.66 699.987 1164.81 701.456 1159.46C702.893 1154.15 705.723 1149.65 709.944 1145.95C714.125 1142.26 719.044 1139.79 724.701 1138.55C733.777 1136.56 741.761 1137.85 748.655 1142.44C755.508 1147.04 760.136 1154.81 762.54 1165.76ZM751.246 1168.23C749.423 1159.93 746.246 1154.1 741.712 1150.75C737.188 1147.43 732.179 1146.38 726.684 1147.58C721.231 1148.78 717.149 1151.85 714.438 1156.8C711.727 1161.74 711.305 1168.47 713.172 1176.98C714.932 1184.99 718.095 1190.66 722.66 1193.96C727.193 1197.32 732.166 1198.4 737.579 1197.21C743.073 1196.01 747.18 1192.95 749.9 1188.05C752.62 1183.14 753.068 1176.54 751.246 1168.23Z" fill="black"/>
<path d="M704.484 1143.56L714.023 1209.25L704.004 1210.7L702.557 1200.74C700.678 1205.78 698.773 1209.19 696.845 1210.98C694.875 1212.79 692.591 1213.88 689.993 1214.25C686.241 1214.8 682.253 1214.16 678.03 1212.33L680.365 1201.44C683.32 1202.65 686.158 1203.06 688.879 1202.67C691.312 1202.31 693.39 1201.26 695.112 1199.49C696.841 1197.76 697.928 1195.54 698.376 1192.83C699.038 1188.69 699.028 1184.27 698.345 1179.57L693.351 1145.18L704.484 1143.56Z" fill="black"/>
<path d="M675.791 1147.39L682.835 1238.74L671.618 1239.61L667.601 1187.51L643.131 1216.48L628.611 1217.6L652.018 1191.09L620.954 1151.62L634.788 1150.55L659.269 1182.7L666.597 1174.49L664.575 1148.25L675.791 1147.39Z" fill="black"/>
<path d="M581.833 1160.22C585.603 1156.15 589.69 1153.11 594.096 1151.09C598.502 1149.11 603.246 1148.17 608.328 1148.24C617.702 1148.38 625.091 1151.66 630.495 1158.08C634.875 1163.31 637.017 1169.11 636.922 1175.49C636.836 1181.15 634.947 1186.23 631.254 1190.72C627.519 1195.24 622.001 1199.18 614.699 1202.53C618.753 1207.34 621.444 1211.24 622.774 1214.22C624.105 1217.2 624.749 1220.06 624.708 1222.81C624.625 1228.31 622.408 1233.05 618.056 1237.02C613.661 1241.04 608.194 1243 601.653 1242.9C595.404 1242.81 590.329 1240.81 586.429 1236.92C582.487 1233.03 580.556 1228.4 580.637 1223.02C580.768 1214.31 586.65 1206.96 598.284 1200.97L582.163 1179.79C580.233 1183.43 578.711 1187.65 577.597 1192.47L565.948 1189.8C568.068 1181.83 570.875 1175.29 574.369 1170.17C570.246 1164.52 565.546 1159.77 560.27 1155.89L567.966 1147.07C572.464 1150.06 577.086 1154.44 581.833 1160.22ZM603.986 1208.31C599.069 1211.11 595.885 1213.58 594.436 1215.73C592.945 1217.87 592.18 1220.26 592.141 1222.88C592.094 1226.01 593.055 1228.56 595.026 1230.55C596.954 1232.58 599.397 1233.62 602.355 1233.66C605.396 1233.71 607.952 1232.77 610.023 1230.84C612.052 1228.91 613.088 1226.53 613.131 1223.7C613.152 1222.28 612.82 1220.78 612.136 1219.18C611.409 1217.63 610.33 1215.97 608.898 1214.2L603.986 1208.31ZM588.761 1169.2L608.999 1195.07C615.136 1191.54 619.29 1188.22 621.462 1185.13C623.633 1182.08 624.742 1179.03 624.788 1175.99C624.843 1172.28 623.422 1168.41 620.525 1164.36C617.627 1160.32 613.47 1158.26 608.054 1158.18C604.679 1158.13 601.185 1159.11 597.57 1161.14C593.914 1163.21 590.977 1165.9 588.761 1169.2Z" fill="black"/>
<path d="M580.496 1168.47L569.248 1169.02C569.103 1164.52 567.748 1160.94 565.185 1158.28C562.58 1155.61 558.73 1154 553.634 1153.45C548.497 1152.9 544.574 1153.53 541.866 1155.33C539.153 1157.18 537.646 1159.51 537.343 1162.32C537.071 1164.85 537.956 1166.96 539.995 1168.64C541.421 1169.8 545.097 1171.48 551.022 1173.66C559.003 1176.62 564.507 1179.01 567.537 1180.84C570.521 1182.72 572.699 1185.07 574.071 1187.9C575.398 1190.76 575.887 1193.81 575.54 1197.04C575.224 1199.98 574.269 1202.63 572.677 1204.97C571.038 1207.35 568.969 1209.24 566.471 1210.65C564.593 1211.75 562.116 1212.57 559.04 1213.12C555.918 1213.71 552.637 1213.82 549.199 1213.45C544.02 1212.89 539.564 1211.66 535.83 1209.75C532.055 1207.83 529.373 1205.49 527.785 1202.72C526.192 1199.99 525.273 1196.46 525.027 1192.12L536.124 1191.8C536.256 1195.25 537.421 1198.06 539.619 1200.22C541.776 1202.38 545.029 1203.7 549.379 1204.16C554.516 1204.71 558.274 1204.26 560.652 1202.8C563.03 1201.33 564.342 1199.46 564.587 1197.19C564.743 1195.74 564.427 1194.38 563.64 1193.12C562.858 1191.82 561.536 1190.68 559.673 1189.68C558.599 1189.15 555.408 1187.84 550.1 1185.76C542.414 1182.8 537.091 1180.46 534.131 1178.76C531.125 1177.1 528.869 1174.89 527.364 1172.13C525.858 1169.37 525.31 1166.08 525.72 1162.27C526.121 1158.54 527.597 1155.14 530.149 1152.06C532.655 1149.02 536.056 1146.81 540.353 1145.42C544.646 1144.08 549.382 1143.69 554.56 1144.25C563.136 1145.17 569.49 1147.65 573.623 1151.7C577.714 1155.75 580.005 1161.34 580.496 1168.47Z" fill="black"/>
<path d="M509.594 1148.62L509.677 1138.55C512.911 1138.43 515.76 1138.58 518.224 1139.01C522.248 1139.7 525.259 1140.87 527.258 1142.53C529.256 1144.18 530.531 1146.11 531.081 1148.32C531.624 1150.57 531.324 1155.02 530.18 1161.68L523.708 1199.31L531.839 1200.71L530.356 1209.33L522.225 1207.93L519.44 1224.13L507.27 1228.89L511.2 1206.04L500.051 1204.12L501.534 1195.5L512.683 1197.41L519.26 1159.16C519.804 1156 519.969 1153.94 519.755 1152.97C519.499 1152 518.986 1151.17 518.216 1150.49C517.404 1149.8 516.177 1149.31 514.535 1149.03C513.303 1148.82 511.656 1148.68 509.594 1148.62Z" fill="black"/>
<path d="M469.553 1128.37L467.253 1137.84C474.043 1131.77 481.75 1129.78 490.375 1131.88C494.181 1132.8 497.567 1134.4 500.534 1136.66C503.46 1138.91 505.467 1141.33 506.556 1143.91C507.594 1146.52 508.049 1149.5 507.921 1152.86C507.845 1155.11 507.242 1158.57 506.112 1163.23L496.41 1203.19L485.478 1200.54L494.162 1164.76C495.548 1159.05 496.259 1155.15 496.295 1153.06C496.305 1150.02 495.397 1147.4 493.573 1145.2C491.74 1143.04 489.183 1141.56 485.903 1140.76C482.623 1139.97 479.345 1140.05 476.067 1141.01C472.779 1142.01 470.199 1143.81 468.327 1146.4C466.405 1149.02 464.775 1153.08 463.438 1158.59L455.049 1193.15L444.117 1190.5L459.774 1125.99L469.553 1128.37Z" fill="black"/>
<path d="M425.455 1113.02L422.767 1120.95C428.866 1116.07 435.782 1114.94 443.517 1117.56C448.529 1119.26 452.678 1122.2 455.964 1126.39C459.212 1130.57 461.164 1135.52 461.82 1141.25C462.425 1146.99 461.637 1153.08 459.457 1159.52C457.331 1165.79 454.36 1171.12 450.544 1175.5C446.714 1179.92 442.246 1182.79 437.14 1184.09C432.035 1185.4 426.897 1185.18 421.727 1183.42C417.939 1182.14 414.839 1180.19 412.428 1177.57C410.003 1174.99 408.297 1172.1 407.312 1168.9L396.762 1200.04L386.166 1196.45L415.569 1109.67L425.455 1113.02ZM448.506 1155.81C451.234 1147.76 451.576 1141.16 449.533 1136.03C447.49 1130.89 444.159 1127.54 439.542 1125.98C434.886 1124.4 430.297 1124.96 425.778 1127.65C421.205 1130.37 417.595 1135.63 414.948 1143.45C412.033 1152.05 411.551 1158.92 413.502 1164.07C415.453 1169.22 418.856 1172.62 423.71 1174.26C428.445 1175.87 433.066 1175.28 437.573 1172.49C442.041 1169.7 445.685 1164.13 448.506 1155.81Z" fill="black"/>
<path d="M432.358 1087.68L429.287 1097.86C427.299 1096.27 425.465 1095.11 423.784 1094.37C421.492 1093.38 419.492 1092.96 417.784 1093.13C416.076 1093.29 414.483 1093.87 413.006 1094.86C411.907 1095.61 409.742 1097.71 406.511 1101.17C406.07 1101.66 405.399 1102.37 404.496 1103.29L401.043 1174.32L389.926 1169.48L392.606 1128.72C392.909 1123.54 393.485 1118.2 394.331 1112.7C391.084 1116.92 387.658 1120.93 384.053 1124.72L355.601 1154.53L345.286 1150.04L395.383 1098.23C400.777 1092.63 404.71 1088.86 407.183 1086.94C410.497 1084.34 413.68 1082.77 416.73 1082.24C419.797 1081.66 422.974 1082.09 426.259 1083.52C428.246 1084.39 430.278 1085.77 432.358 1087.68Z" fill="black"/>
<path d="M351.269 1075.94L333.637 1143.07L323.75 1136.96L339.061 1084.63C338.547 1085.14 335.173 1088.42 328.939 1094.46L299.51 1121.97L289.676 1115.89L301.472 1077.92L305.327 1065.38L295.346 1074.28L265.489 1100.93L256.186 1095.18L308.743 1049.64L318.684 1055.79L306.762 1095.15L302.992 1106.12L341.276 1069.76L351.269 1075.94Z" fill="black"/>
<path d="M293.939 1078.48C286.457 1088.24 278.205 1093.38 269.182 1093.91C261.66 1094.34 254.643 1092.06 248.13 1087.06C240.891 1081.5 236.799 1074.58 235.857 1066.3C234.888 1058.05 237.613 1049.74 244.029 1041.37C249.229 1034.6 254.35 1030.04 259.392 1027.72C264.376 1025.4 269.643 1024.66 275.192 1025.5C280.708 1026.32 285.764 1028.49 290.359 1032.02C297.731 1037.67 301.885 1044.61 302.82 1052.84C303.722 1061.04 300.762 1069.59 293.939 1078.48ZM284.766 1071.45C289.94 1064.7 292.349 1058.52 291.994 1052.89C291.613 1047.29 289.192 1042.78 284.729 1039.36C280.299 1035.96 275.319 1034.82 269.79 1035.93C264.261 1037.04 258.846 1041.06 253.545 1047.97C248.549 1054.48 246.257 1060.55 246.671 1066.17C247.026 1071.8 249.402 1076.3 253.799 1079.67C258.262 1083.09 263.245 1084.27 268.749 1083.18C274.253 1082.1 279.592 1078.19 284.766 1071.45Z" fill="black"/>
<path d="M273.496 1019.79L229.416 1069.41L221.846 1062.69L228.529 1055.17C223.471 1056.97 219.633 1057.71 217.017 1057.4C214.37 1057.05 212.065 1056.01 210.103 1054.26C207.268 1051.75 205.189 1048.28 203.866 1043.88L213.694 1038.65C214.671 1041.69 216.188 1044.12 218.244 1045.95C220.082 1047.58 222.231 1048.48 224.691 1048.66C227.124 1048.87 229.523 1048.27 231.889 1046.87C235.48 1044.71 238.853 1041.85 242.008 1038.3L265.085 1012.32L273.496 1019.79Z" fill="black"/>
<path d="M252.081 1000.32L186.765 1064.57L178.875 1056.55L216.122 1019.91L178.203 1019.86L167.99 1009.48L203.34 1010.3L213.509 961.108L223.24 970.999L214.432 1010.44L225.434 1010.75L244.191 992.295L252.081 1000.32Z" fill="black"/>
<path d="M181.72 936.737C187.261 936.998 192.222 938.163 196.604 940.232C200.954 942.327 204.737 945.343 207.954 949.279C213.887 956.538 216.142 964.301 214.719 972.567C213.54 979.289 210.482 984.667 205.546 988.701C201.159 992.287 196.06 994.114 190.249 994.182C184.38 994.243 177.812 992.562 170.547 989.137C169.479 995.337 168.235 999.905 166.815 1002.84C165.395 1005.78 163.62 1008.12 161.491 1009.86C157.232 1013.34 152.18 1014.7 146.335 1013.93C140.431 1013.16 135.409 1010.24 131.269 1005.18C127.314 1000.34 125.568 995.173 126.031 989.682C126.467 984.159 128.766 979.696 132.928 976.295C139.671 970.784 149.082 970.545 161.16 975.579L166.969 949.602C162.944 950.47 158.73 952.031 154.329 954.283L148.868 943.651C156.328 940.137 163.139 938.068 169.302 937.444C170.961 930.652 171.572 923.991 171.132 917.462L182.838 917.662C183.454 923.024 183.081 929.383 181.72 936.737ZM159.225 984.668C153.914 982.713 149.971 981.872 147.397 982.146C144.797 982.388 142.48 983.34 140.448 985.001C138.028 986.979 136.693 989.362 136.443 992.15C136.133 994.932 136.915 997.468 138.787 999.758C140.712 1002.11 143.079 1003.46 145.887 1003.8C148.669 1004.11 151.157 1003.37 153.351 1001.58C154.448 1000.68 155.385 999.457 156.162 997.907C156.881 996.351 157.457 994.454 157.889 992.217L159.225 984.668ZM179.318 947.822L172.578 979.969C179.235 982.385 184.446 983.427 188.21 983.095C191.942 982.789 194.986 981.673 197.341 979.748C200.212 977.401 202.26 973.817 203.485 968.995C204.71 964.173 203.608 959.665 200.18 955.471C198.045 952.858 195.036 950.823 191.156 949.367C187.216 947.905 183.27 947.39 179.318 947.822Z" fill="black"/>
<path d="M174.549 941.032L166.879 932.786C170.226 929.775 172.092 926.431 172.478 922.754C172.839 919.043 171.588 915.062 168.723 910.813C165.834 906.529 162.828 903.933 159.703 903.025C156.543 902.14 153.789 902.49 151.44 904.074C149.332 905.495 148.291 907.528 148.317 910.175C148.349 912.012 149.439 915.901 151.585 921.841C154.469 929.846 156.187 935.598 156.736 939.097C157.229 942.584 156.835 945.764 155.556 948.637C154.219 951.498 152.203 953.837 149.508 955.654C147.055 957.308 144.419 958.281 141.601 958.573C138.725 958.854 135.944 958.493 133.258 957.49C131.208 956.761 128.982 955.398 126.58 953.399C124.119 951.39 121.922 948.951 119.989 946.084C117.077 941.766 115.148 937.563 114.203 933.477C113.233 929.357 113.296 925.797 114.389 922.798C115.449 919.823 117.559 916.842 120.722 913.855L128.115 922.137C125.562 924.462 124.166 927.162 123.928 930.237C123.666 933.278 124.758 936.612 127.204 940.239C130.093 944.523 132.862 947.103 135.513 947.979C138.164 948.855 140.44 948.652 142.34 947.371C143.549 946.556 144.381 945.442 144.836 944.03C145.325 942.594 145.351 940.843 144.913 938.777C144.629 937.611 143.572 934.329 141.741 928.93C139.054 921.144 137.407 915.571 136.8 912.211C136.135 908.84 136.373 905.69 137.513 902.76C138.653 899.83 140.813 897.294 143.991 895.151C147.1 893.054 150.654 891.99 154.652 891.957C158.593 891.914 162.476 893.089 166.302 895.485C170.094 897.903 173.446 901.272 176.357 905.59C181.179 912.742 183.374 919.202 182.942 924.971C182.486 930.705 179.689 936.059 174.549 941.032Z" fill="black"/>
<path d="M144.034 874.026L151.787 867.6C153.963 869.995 155.683 872.271 156.947 874.428C159.011 877.952 160.055 881.01 160.078 883.605C160.101 886.199 159.445 888.418 158.111 890.262C156.741 892.127 153.144 894.766 147.32 898.178L114.371 917.483L118.542 924.601L110.992 929.024L106.822 921.906L92.639 930.216L81.1595 923.975L101.166 912.253L95.4473 902.493L102.997 898.07L108.716 907.83L142.204 888.21C144.972 886.588 146.657 885.383 147.258 884.596C147.838 883.773 148.141 882.848 148.166 881.819C148.17 880.754 147.751 879.503 146.908 878.065C146.276 876.986 145.318 875.64 144.034 874.026Z" fill="black"/>
<path d="M133.718 830.354L124.991 834.702C134.008 835.982 140.495 840.595 144.452 848.539C146.198 852.044 147.162 855.661 147.342 859.388C147.505 863.078 146.95 866.17 145.679 868.665C144.353 871.141 142.365 873.412 139.715 875.476C137.943 876.871 134.912 878.637 130.623 880.773L93.8124 899.109L88.7964 889.039L121.747 872.626C127.006 870.007 130.447 868.037 132.07 866.716C134.402 864.763 135.822 862.38 136.329 859.567C136.8 856.773 136.282 853.865 134.777 850.844C133.273 847.823 131.096 845.369 128.248 843.483C125.363 841.615 122.326 840.8 119.14 841.038C115.897 841.256 111.74 842.629 106.667 845.155L74.8353 861.011L69.8194 850.942L129.232 821.347L133.718 830.354Z" fill="black"/>
<path d="M117.035 786.744L109.237 789.801C116.903 791.316 122.225 795.876 125.206 803.479C127.137 808.406 127.559 813.477 126.47 818.692C125.367 823.869 122.839 828.552 118.887 832.741C114.881 836.907 109.717 840.23 103.393 842.708C97.2254 845.126 91.2363 846.288 85.4261 846.194C79.5771 846.114 74.5083 844.544 70.2197 841.481C65.9311 838.418 62.7908 834.346 60.7987 829.264C59.3388 825.54 58.8339 821.911 59.2839 818.378C59.6951 814.861 60.8041 811.696 62.6109 808.884L32.0035 820.882L27.9205 810.467L113.225 777.027L117.035 786.744ZM99.1736 831.943C107.087 828.841 112.349 824.854 114.96 819.982C117.57 815.11 117.985 810.405 116.206 805.866C114.412 801.288 111.029 798.139 106.058 796.418C101.033 794.673 94.6799 795.306 86.999 798.317C78.5422 801.632 72.9741 805.695 70.2946 810.504C67.6151 815.314 67.2106 820.104 69.081 824.876C70.9059 829.531 74.335 832.685 79.3684 834.337C84.3866 835.95 90.9883 835.152 99.1736 831.943Z" fill="black"/>
<path d="M140.862 775.69L131.096 779.905C131.033 777.359 130.74 775.207 130.216 773.45C129.502 771.054 128.532 769.256 127.305 768.057C126.077 766.857 124.608 766.013 122.897 765.523C121.617 765.165 118.614 764.864 113.889 764.62C113.231 764.599 112.257 764.542 110.968 764.447L54.4321 807.579L50.969 795.959L83.8604 771.744C88.0206 768.634 92.4739 765.633 97.2204 762.74C91.9 762.978 86.6281 762.941 81.4045 762.628L40.2764 760.081L37.0632 749.3L108.963 754.219C116.725 754.732 122.137 755.314 125.201 755.966C129.326 756.824 132.576 758.247 134.951 760.234C137.366 762.21 139.086 764.915 140.109 768.349C140.728 770.426 140.979 772.873 140.862 775.69Z" fill="black"/>
<path d="M97.5863 706.119L34.8868 735.902L33.1901 724.402L83.0734 702.385C82.3483 702.324 77.6674 701.856 69.0307 700.982L29.0304 696.207L27.3428 684.768L63.9801 669.318L76.0483 664.189L62.8165 662.287L23.1923 656.635L21.5959 645.815L90.2887 656.655L91.9945 668.217L54.2118 684.468L43.3944 688.654L95.8714 694.495L97.5863 706.119Z" fill="black"/>
<path d="M58.6913 663.923C46.4126 664.486 37.1613 661.491 30.9377 654.936C25.7645 649.459 22.9898 642.62 22.6135 634.421C22.1952 625.305 24.8502 617.717 30.5784 611.657C36.265 605.598 44.3736 602.327 54.9041 601.844C63.4368 601.452 70.2181 602.434 75.248 604.789C80.2344 607.105 84.1931 610.656 87.1239 615.444C90.0529 620.189 91.6501 625.455 91.9156 631.241C92.3415 640.523 89.7102 648.172 84.0217 654.189C78.3313 660.165 69.8879 663.409 58.6913 663.923ZM58.1613 652.373C66.6523 651.983 72.9356 649.839 77.0112 645.939C81.0451 642.042 82.9331 637.284 82.6753 631.665C82.4194 626.087 80.0836 621.544 75.6681 618.034C71.2526 614.524 64.6952 612.969 55.9961 613.368C47.7964 613.745 41.6805 615.902 37.6485 619.841C33.5729 623.741 31.6622 628.458 31.9162 633.994C32.1741 639.613 34.4899 644.178 38.8638 647.69C43.2377 651.201 49.6702 652.762 58.1613 652.373Z" fill="black"/>
<path d="M90.3995 610.466L24.047 608.74L24.3104 598.618L34.3695 598.88C29.7299 596.175 26.6886 593.72 25.2455 591.515C23.8034 589.268 23.1165 586.833 23.1848 584.209C23.2835 580.419 24.5916 576.597 27.1094 572.745L37.4425 576.89C35.7466 579.597 34.8628 582.325 34.7913 585.074C34.7273 587.531 35.4196 589.758 36.8682 591.755C38.2751 593.751 40.2797 595.199 42.8822 596.1C46.8483 597.454 51.2055 598.193 55.9539 598.316L90.6922 599.22L90.3995 610.466Z" fill="black"/>
<path d="M91.4903 581.541L0.263672 573.006L1.31165 561.805L53.3345 566.672L28.9321 537.648L30.2886 523.149L52.4428 550.707L96.6137 526.78L95.3212 540.595L59.4877 559.276L66.3402 567.889L92.5382 570.34L91.4903 581.541Z" fill="black"/>
<path d="M94.7607 486.767C98.1319 491.172 100.438 495.716 101.68 500.4C102.881 505.076 103.013 509.912 102.076 514.909C100.349 524.123 95.8666 530.85 88.6284 535.089C82.7289 538.519 76.6461 539.647 70.3802 538.473C64.8106 537.429 60.1277 534.707 56.3316 530.307C52.5022 525.859 49.5557 519.754 47.4922 511.991C42.0636 515.17 37.7688 517.163 34.6078 517.969C31.4468 518.776 28.5148 518.926 25.8119 518.419C20.406 517.406 16.1122 514.418 12.9303 509.455C9.71518 504.443 8.71019 498.723 9.91534 492.293C11.0668 486.15 13.8909 481.486 18.3879 478.302C22.8925 475.077 27.7863 473.959 33.0693 474.949C41.6286 476.554 47.8757 483.596 51.8105 496.076L75.4179 483.777C72.1594 481.259 68.2508 479.043 63.6921 477.128L68.3024 466.101C75.7971 469.541 81.7688 473.416 86.2176 477.726C92.4806 474.618 97.9668 470.792 102.676 466.249L110.067 475.329C106.364 479.255 101.262 483.068 94.7607 486.767ZM43.6138 500.454C41.6861 495.132 39.788 491.576 37.9194 489.784C36.0584 487.952 33.8379 486.794 31.2579 486.31C28.1864 485.734 25.504 486.249 23.2107 487.854C20.8842 489.41 19.4484 491.642 18.9034 494.55C18.343 497.54 18.8372 500.218 20.3859 502.586C21.9422 504.912 24.1128 506.337 26.8977 506.859C28.2901 507.12 29.8297 507.048 31.5164 506.643C33.1698 506.19 34.9909 505.408 36.9796 504.297L43.6138 500.454ZM84.7365 492.073L55.8118 507.636C58.2541 514.283 60.8152 518.939 63.4952 521.603C66.1343 524.26 68.9487 525.868 71.9383 526.429C75.5831 527.112 79.6438 526.368 84.1204 524.197C88.5969 522.027 91.3341 518.279 92.332 512.955C92.9538 509.638 92.5709 506.026 91.1834 502.121C89.7626 498.166 87.6136 494.817 84.7365 492.073Z" fill="black"/>
<path d="M86.8563 484.05L88.2185 472.871C92.6777 473.491 96.4372 472.763 99.4971 470.688C102.568 468.573 104.805 465.051 106.208 460.121C107.623 455.152 107.67 451.18 106.351 448.205C104.991 445.219 102.949 443.338 100.224 442.563C97.7793 441.867 95.5535 442.381 93.5463 444.106C92.1625 445.315 89.8909 448.654 86.7314 454.123C82.4693 461.488 79.1777 466.508 76.8568 469.183C74.5072 471.806 71.8218 473.555 68.8008 474.428C65.7511 475.249 62.6633 475.215 59.5374 474.326C56.6921 473.516 54.2496 472.128 52.2101 470.161C50.1419 468.143 48.6257 465.783 47.6614 463.083C46.8982 461.046 46.5063 458.465 46.486 455.34C46.437 452.164 46.8858 448.913 47.8325 445.586C49.2582 440.577 51.2285 436.394 53.7434 433.038C56.2697 429.641 59.0318 427.395 62.0297 426.298C64.9875 425.191 68.6273 424.884 72.9489 425.377L71.3804 436.368C67.9574 435.913 64.9934 436.586 62.4884 438.386C59.9948 440.145 58.1492 443.129 56.9516 447.337C55.5373 452.306 55.3494 456.087 56.3879 458.678C57.4265 461.27 59.0479 462.879 61.252 463.507C62.6546 463.906 64.0424 463.824 65.4155 463.262C66.8286 462.711 68.1839 461.602 69.4814 459.936C70.1901 458.968 72.0186 456.044 74.9669 451.165C79.1893 444.092 82.3894 439.241 84.5673 436.612C86.7166 433.931 89.2788 432.083 92.2539 431.067C95.229 430.051 98.56 430.067 102.247 431.117C105.854 432.143 108.958 434.175 111.559 437.211C114.132 440.196 115.736 443.923 116.37 448.392C116.964 452.85 116.548 457.584 115.122 462.593C112.761 470.889 109.236 476.73 104.546 480.118C99.8678 483.465 93.9712 484.776 86.8563 484.05Z" fill="black"/>
<path d="M118.429 417.537L128.339 419.324C127.909 422.531 127.277 425.313 126.442 427.67C125.079 431.519 123.412 434.288 121.443 435.977C119.474 437.667 117.355 438.595 115.085 438.764C112.776 438.918 108.44 437.868 102.078 435.613L66.0831 422.859L63.3277 430.636L55.0801 427.713L57.8355 419.937L42.3419 414.447L39.7159 401.648L61.572 409.392L65.3502 398.729L73.5977 401.651L69.8195 412.314L106.403 425.277C109.427 426.349 111.434 426.861 112.423 426.813C113.427 426.727 114.33 426.362 115.132 425.718C115.949 425.035 116.636 423.908 117.192 422.337C117.61 421.158 118.022 419.558 118.429 417.537Z" fill="black"/>
<path d="M145.175 381.505L136.227 377.633C141.058 385.354 141.712 393.286 138.187 401.432C136.632 405.026 134.488 408.093 131.754 410.633C129.037 413.135 126.315 414.704 123.588 415.34C120.84 415.922 117.823 415.865 114.537 415.169C112.328 414.713 109.025 413.533 104.627 411.63L66.8843 395.299L71.3519 384.974L105.137 399.593C110.529 401.926 114.253 403.288 116.309 403.678C119.305 404.203 122.042 403.752 124.52 402.328C126.96 400.886 128.85 398.617 130.19 395.519C131.53 392.422 132.004 389.177 131.611 385.783C131.18 382.373 129.846 379.526 127.611 377.242C125.354 374.904 121.625 372.609 116.425 370.359L83.7867 356.236L88.2543 345.912L149.171 372.27L145.175 381.505Z" fill="black"/>
<path d="M167.771 340.645L160.409 336.652C164.189 343.49 164.133 350.498 160.24 357.677C157.717 362.329 154.111 365.919 149.422 368.448C144.753 370.94 139.543 372.025 133.792 371.703C128.025 371.324 122.157 369.516 116.186 366.279C110.363 363.12 105.615 359.289 101.943 354.786C98.2338 350.262 96.1686 345.374 95.7468 340.121C95.3251 334.868 96.4152 329.842 99.0173 325.044C100.924 321.528 103.373 318.803 106.365 316.871C109.32 314.918 112.454 313.727 115.769 313.296L86.8698 297.624L92.2031 287.79L172.746 331.47L167.771 340.645ZM121.699 356.115C129.17 360.167 135.61 361.621 141.018 360.477C146.425 359.333 150.291 356.619 152.615 352.333C154.959 348.011 155.187 343.395 153.3 338.485C151.396 333.518 146.818 329.068 139.565 325.135C131.581 320.805 124.886 319.165 119.482 320.216C114.077 321.267 110.153 324.044 107.71 328.55C105.326 332.945 105.125 337.599 107.105 342.513C109.106 347.389 113.97 351.923 121.699 356.115Z" fill="black"/>
<path d="M191.58 351.74L182.064 346.989C183.97 345.3 185.426 343.689 186.432 342.156C187.804 340.066 188.553 338.166 188.68 336.454C188.806 334.743 188.505 333.075 187.777 331.451C187.226 330.242 185.521 327.752 182.662 323.982C182.254 323.464 181.671 322.683 180.912 321.637L111.497 306.201L118.151 296.065L157.864 305.61C162.922 306.788 168.087 308.259 173.358 310.024C169.747 306.109 166.379 302.054 163.252 297.858L138.695 264.767L144.868 255.363L187.441 313.512C192.051 319.777 195.094 324.292 196.569 327.055C198.572 330.762 199.579 334.164 199.589 337.261C199.634 340.381 198.674 343.438 196.708 346.434C195.519 348.245 193.809 350.014 191.58 351.74Z" fill="black"/>
<path d="M216.888 273.815L153.709 245.064L161.409 236.355L210.391 260.311C209.971 259.717 207.312 255.836 202.414 248.669L180.288 215.005L187.947 206.343L223.372 224.402L235.071 230.324L227.998 218.981L206.785 185.04L214.03 176.846L250.009 236.358L242.267 245.114L205.492 226.696L195.32 221.122L224.671 265.013L216.888 273.815Z" fill="black"/>
<path d="M224.089 216.881C215.745 207.855 212.074 198.85 213.075 189.867C213.93 182.382 217.371 175.853 223.398 170.282C230.099 164.087 237.612 161.228 245.938 161.702C254.235 162.146 261.962 166.238 269.118 173.979C274.916 180.252 278.535 186.07 279.975 191.434C281.418 196.739 281.254 202.054 279.482 207.381C277.74 212.679 274.743 217.293 270.49 221.225C263.667 227.532 256.122 230.45 247.855 229.977C239.619 229.477 231.697 225.111 224.089 216.881ZM232.579 209.032C238.349 215.274 244.038 218.697 249.646 219.3C255.226 219.873 260.081 218.251 264.211 214.432C268.311 210.642 270.28 205.928 270.118 200.29C269.957 194.652 266.92 188.636 261.009 182.241C255.437 176.214 249.846 172.927 244.235 172.383C238.627 171.779 233.789 173.358 229.719 177.12C225.589 180.938 223.59 185.651 223.724 191.259C223.858 196.866 226.809 202.791 232.579 209.032Z" fill="black"/>
<path d="M285.398 206.678L243.959 154.828L251.868 148.507L258.15 156.367C257.229 151.077 257.146 147.169 257.902 144.644C258.691 142.094 260.11 139.999 262.161 138.36C265.123 135.993 268.888 134.531 273.456 133.973L276.946 144.546C273.783 144.994 271.128 146.076 268.979 147.793C267.059 149.327 265.802 151.292 265.209 153.686C264.589 156.048 264.774 158.515 265.762 161.085C267.282 164.991 269.526 168.798 272.491 172.509L294.186 199.654L285.398 206.678Z" fill="black"/>
<path d="M308.22 188.871L255.957 113.613L265.197 107.196L295 150.113L301.469 112.749L313.43 104.442L306.634 139.143L353.395 157.499L341.998 165.413L304.622 150.051L302.451 160.842L317.46 182.454L308.22 188.871Z" fill="black"/>
<path d="M382.798 130.298C381.603 135.714 379.614 140.406 376.833 144.374C374.031 148.306 370.418 151.523 365.994 154.027C357.835 158.645 349.802 159.552 341.896 156.749C335.471 154.448 330.689 150.524 327.549 144.976C324.758 140.044 323.822 134.709 324.74 128.971C325.673 123.176 328.443 116.989 333.049 110.408C327.12 108.306 322.828 106.306 320.175 104.409C317.521 102.511 315.517 100.366 314.162 97.9727C311.453 93.1861 310.971 87.9772 312.716 82.346C314.476 76.658 318.202 72.203 323.895 68.981C329.335 65.9027 334.721 65.0568 340.054 66.4433C345.423 67.8093 349.431 70.8312 352.079 75.509C356.368 83.0879 355.009 92.403 348.001 103.454L372.619 113.58C372.445 109.466 371.621 105.049 370.147 100.329L381.55 96.7485C383.75 104.696 384.635 111.759 384.206 117.939C390.619 120.725 397.079 122.455 403.589 123.128L401.409 134.631C396.02 134.329 389.816 132.885 382.798 130.298ZM339.372 100.008C342.199 95.1045 343.695 91.3612 343.861 88.7778C344.063 86.1739 343.517 83.7297 342.224 81.4451C340.685 78.7255 338.563 77.006 335.858 76.2867C333.168 75.5107 330.536 75.8512 327.962 77.3083C325.315 78.8064 323.585 80.9104 322.773 83.6203C321.997 86.3097 322.306 88.8873 323.702 91.3531C324.4 92.5861 325.447 93.7171 326.843 94.7462C328.255 95.7185 330.027 96.607 332.158 97.4117L339.372 100.008ZM372.281 126.052L341.74 113.964C338.232 120.115 336.322 125.073 336.012 128.84C335.681 132.57 336.265 135.758 337.763 138.406C339.589 141.633 342.775 144.259 347.32 146.283C351.864 148.307 356.494 147.985 361.208 145.317C364.145 143.655 366.66 141.035 368.753 137.457C370.861 133.822 372.037 130.02 372.281 126.052Z" fill="black"/>
<path d="M379.781 122.502L389.207 116.34C391.607 120.149 394.587 122.554 398.145 123.557C401.742 124.543 405.877 123.983 410.55 121.88C415.261 119.759 418.329 117.235 419.753 114.309C421.161 111.345 421.283 108.572 420.12 105.988C419.077 103.67 417.249 102.3 414.636 101.877C412.82 101.598 408.803 102.012 402.585 103.121C394.207 104.608 388.247 105.326 384.706 105.275C381.185 105.169 378.118 104.242 375.504 102.495C372.91 100.692 370.946 98.3093 369.612 95.3458C368.398 92.6482 367.885 89.8859 368.075 87.0589C368.285 84.1768 369.112 81.497 370.556 79.0194C371.621 77.1232 373.342 75.1604 375.719 73.1311C378.116 71.0466 380.891 69.2945 384.045 67.8749C388.794 65.7369 393.262 64.5479 397.45 64.3079C401.675 64.0508 405.173 64.7152 407.943 66.3012C410.696 67.8492 413.276 70.4345 415.684 74.0571L406.269 79.9404C404.411 77.0301 401.986 75.1971 398.996 74.4414C396.043 73.6686 392.572 74.1802 388.583 75.9761C383.872 78.097 380.86 80.3896 379.547 82.8539C378.235 85.3181 378.049 87.5951 378.99 89.6848C379.588 91.0146 380.545 92.0233 381.86 92.7108C383.192 93.4364 384.913 93.7581 387.024 93.6761C388.221 93.5943 391.635 93.1084 397.266 92.2184C405.395 90.8892 411.166 90.2102 414.58 90.1812C418.015 90.0971 421.08 90.8651 423.774 92.4853C426.468 94.1054 428.602 96.6633 430.176 100.159C431.715 103.578 432.162 107.261 431.517 111.207C430.892 115.098 429.076 118.726 426.067 122.091C423.041 125.418 419.153 128.151 414.404 130.289C406.539 133.829 399.801 134.898 394.188 133.495C388.614 132.074 383.812 128.41 379.781 122.502Z" fill="black"/>
<path d="M450.987 103.781L456.007 112.51C453.278 114.249 450.743 115.558 448.403 116.439C444.581 117.876 441.39 118.386 438.829 117.97C436.268 117.553 434.192 116.531 432.601 114.903C430.995 113.237 429.004 109.245 426.627 102.927L413.184 67.1842L405.462 70.0885L402.381 61.8987L410.103 58.9943L404.317 43.6091L412.412 33.3527L420.575 55.0559L431.163 51.0734L434.243 59.2632L423.655 63.2457L437.319 99.5736C438.448 102.577 439.35 104.441 440.023 105.167C440.736 105.878 441.597 106.333 442.607 106.532C443.656 106.717 444.96 106.515 446.52 105.929C447.69 105.489 449.179 104.773 450.987 103.781Z" fill="black"/>
<path d="M495.775 101.013L492.969 91.6756C490.179 100.345 484.535 105.957 476.035 108.511C472.284 109.638 468.557 109.975 464.853 109.522C461.189 109.056 458.235 107.986 455.991 106.311C453.776 104.584 451.875 102.24 450.289 99.2795C449.215 97.2965 447.988 94.0105 446.609 89.4215L434.774 50.0362L445.548 46.7987L456.142 82.0539C457.833 87.6804 459.192 91.4054 460.218 93.2288C461.748 95.8581 463.856 97.6611 466.542 98.6376C469.216 99.5743 472.17 99.557 475.402 98.5858C478.634 97.6145 481.421 95.8852 483.763 93.3978C486.092 90.8705 487.41 88.0164 487.716 84.8354C488.05 81.6026 487.401 77.2727 485.77 71.8458L475.536 37.7877L486.31 34.5502L505.412 98.1174L495.775 101.013Z" fill="black"/>
<path d="M541.581 91.9584L539.89 83.756C537.098 91.0536 531.703 95.5271 523.704 97.1764C518.522 98.2451 513.453 97.8014 508.497 95.8452C503.582 93.8806 499.395 90.5961 495.936 85.9916C492.509 81.3378 490.109 75.6851 488.738 69.0334C487.4 62.5449 487.269 56.4455 488.347 50.7353C489.415 44.9843 491.822 40.2549 495.567 36.5471C499.312 32.8394 503.858 30.4343 509.204 29.3319C513.121 28.5241 516.783 28.6412 520.189 29.6832C523.586 30.6844 526.517 32.3135 528.982 34.5705L522.342 2.37295L533.299 0.113525L551.804 89.8505L541.581 91.9584ZM500.062 66.6982C501.778 75.0231 504.817 80.8845 509.176 84.2824C513.535 87.6803 518.102 88.887 522.877 87.9024C527.692 86.9095 531.369 84.1092 533.908 79.5016C536.478 74.8447 536.931 68.4763 535.265 60.3963C533.43 51.5002 530.37 45.3243 526.083 41.8687C521.797 38.4132 517.144 37.2029 512.125 38.238C507.228 39.2478 503.539 42.0931 501.058 46.7739C498.618 51.4463 498.286 58.0877 500.062 66.6982Z" fill="black"/>
<path d="M548.44 117.314L545.94 106.975C548.461 107.344 550.631 107.42 552.451 107.201C554.933 106.903 556.869 106.251 558.26 105.245C559.65 104.239 560.731 102.934 561.504 101.331C562.073 100.13 562.878 97.2213 563.919 92.6061C564.052 91.9607 564.273 91.0109 564.584 89.7566L531.654 26.7307L543.693 25.2862L561.986 61.8046C564.346 66.4314 566.549 71.3288 568.596 76.4968C569.263 71.213 570.193 66.0236 571.386 60.9285L580.864 20.8264L592.034 19.4862L575.005 89.5135C573.184 97.0759 571.693 102.312 570.531 105.221C568.987 109.141 567.035 112.103 564.673 114.107C562.317 116.152 559.36 117.388 555.802 117.815C553.651 118.073 551.197 117.906 548.44 117.314Z" fill="black"/>
</svg>
