<svg width="486" height="480" viewBox="0 0 486 480" fill="none" xmlns="http://www.w3.org/2000/svg">
<path d="M376.94 176.724L426.095 127.714L431.535 137.987L391.866 175.397C392.57 175.213 397.139 174.091 405.572 172.031L444.87 163.175L450.281 173.393L420.906 200.191L411.243 209.055L424.35 206.429L463.588 198.525L468.706 208.192L400.336 220.912L394.867 210.583L425.054 182.648L433.853 175.09L382.438 187.108L376.94 176.724Z" fill="#2690FF"/>
<path d="M408.142 165.487C419.527 160.856 429.248 160.59 437.303 164.691C444.008 168.126 448.907 173.645 452 181.248C455.438 189.701 455.47 197.74 452.094 205.365C448.757 212.975 442.206 218.766 432.441 222.738C424.529 225.956 417.809 227.295 412.282 226.755C406.808 226.238 401.891 224.212 397.53 220.678C393.184 217.183 389.92 212.753 387.738 207.388C384.237 198.781 384.163 190.692 387.516 183.121C390.884 175.588 397.759 169.71 408.142 165.487ZM412.498 176.197C404.625 179.4 399.418 183.52 396.879 188.556C394.378 193.577 394.187 198.692 396.306 203.903C398.41 209.074 402.129 212.577 407.463 214.411C412.797 216.245 419.497 215.521 427.564 212.24C435.167 209.147 440.212 205.071 442.697 200.012C445.236 194.975 445.462 189.89 443.374 184.757C441.255 179.547 437.547 176.017 432.252 174.167C426.956 172.318 420.372 172.995 412.498 176.197Z" fill="#2690FF"/>
<path d="M383.914 195.482L447.034 174.952L450.166 184.581L440.597 187.693C445.873 188.693 449.56 189.992 451.656 191.588C453.766 193.224 455.227 195.291 456.039 197.787C457.211 201.393 457.254 205.432 456.168 209.904L445.043 209.447C445.738 206.329 445.66 203.463 444.81 200.848C444.049 198.51 442.653 196.642 440.621 195.243C438.628 193.832 436.255 193.136 433.501 193.156C429.31 193.204 424.957 193.963 420.44 195.432L387.394 206.18L383.914 195.482Z" fill="#2690FF"/>
<path d="M385.859 202.491L474.699 180.074L477.452 190.982L426.79 203.766L459.484 222.975L463.047 237.095L432.962 218.516L399.316 255.82L395.921 242.367L423.46 212.792L414.125 206.962L388.612 213.4L385.859 202.491Z" fill="#2690FF"/>
<path d="M406.906 262.867C402.257 259.841 398.566 256.328 395.831 252.327C393.138 248.321 391.398 243.806 390.613 238.784C389.164 229.521 391.143 221.684 396.55 215.271C400.965 210.068 406.322 206.973 412.621 205.988C418.219 205.112 423.542 206.114 428.59 208.994C433.685 211.908 438.501 216.679 443.038 223.307C447.094 218.498 450.476 215.185 453.187 213.369C455.897 211.554 458.611 210.433 461.327 210.008C466.761 209.158 471.807 210.541 476.463 214.156C481.167 217.806 484.025 222.863 485.036 229.326C486.002 235.501 484.897 240.84 481.721 245.343C478.552 249.888 474.313 252.575 469.002 253.406C460.399 254.752 452.159 250.2 444.282 239.75L426.137 259.226C430.049 260.512 434.474 261.296 439.41 261.578L438.746 273.512C430.533 272.772 423.61 271.114 417.978 268.537C413.112 273.558 409.218 278.996 406.296 284.851L396.297 278.761C398.477 273.823 402.013 268.525 406.906 262.867ZM450.547 232.887C454.141 237.259 457.117 239.977 459.477 241.042C461.843 242.148 464.323 242.498 466.916 242.093C470.004 241.61 472.36 240.229 473.986 237.95C475.659 235.706 476.267 233.123 475.81 230.2C475.34 227.195 473.979 224.835 471.729 223.121C469.485 221.447 466.964 220.83 464.164 221.268C462.765 221.487 461.337 222.068 459.883 223.013C458.475 223.992 457.02 225.337 455.516 227.049L450.547 232.887ZM414.583 254.518L436.65 230.19C432.129 224.74 428.16 221.207 424.744 219.59C421.369 217.967 418.179 217.391 415.174 217.861C411.51 218.434 407.931 220.491 404.436 224.032C400.942 227.573 399.613 232.02 400.45 237.371C400.972 240.706 402.539 243.982 405.151 247.2C407.811 250.453 410.955 252.893 414.583 254.518Z" fill="#2690FF"/>
<path d="M409.595 223.556L412.044 234.548C407.634 235.453 404.333 237.395 402.142 240.372C399.953 243.392 399.021 247.459 399.344 252.573C399.67 257.73 400.952 261.49 403.189 263.853C405.468 266.214 408.021 267.305 410.849 267.126C413.385 266.966 415.311 265.737 416.627 263.441C417.528 261.84 418.554 257.934 419.706 251.723C421.264 243.358 422.691 237.528 423.985 234.231C425.324 230.973 427.271 228.428 429.827 226.597C432.428 224.804 435.349 223.805 438.593 223.6C441.545 223.413 444.311 223.906 446.89 225.079C449.514 226.291 451.731 228.008 453.542 230.232C454.941 231.897 456.172 234.198 457.235 237.137C458.342 240.115 459.005 243.329 459.223 246.781C459.552 251.979 459.091 256.58 457.842 260.583C456.595 264.628 454.741 267.668 452.281 269.702C449.863 271.734 446.535 273.239 442.297 274.217L440.105 263.334C443.483 262.619 446.053 260.995 447.813 258.462C449.576 255.971 450.319 252.542 450.043 248.176C449.716 243.019 448.631 239.393 446.787 237.297C444.942 235.201 442.877 234.225 440.59 234.37C439.134 234.462 437.853 235.003 436.747 235.991C435.599 236.982 434.691 238.48 434.025 240.484C433.68 241.633 432.933 245 431.783 250.584C430.165 258.66 428.768 264.301 427.594 267.507C426.463 270.751 424.665 273.349 422.2 275.301C419.735 277.252 416.589 278.348 412.764 278.59C409.021 278.827 405.417 277.949 401.951 275.956C398.529 274.001 395.773 271.023 393.683 267.022C391.634 263.019 390.445 258.418 390.117 253.22C389.572 244.612 390.944 237.929 394.234 233.17C397.526 228.453 402.646 225.248 409.595 223.556Z" fill="#2690FF"/>
<path d="M400.482 267.048L390.545 268.673C389.878 265.506 389.545 262.673 389.545 260.173C389.545 256.089 390.191 252.923 391.483 250.673C392.775 248.423 394.463 246.84 396.546 245.923C398.671 245.007 403.109 244.549 409.859 244.549L448.046 244.551L448.047 236.301L456.797 236.302L456.796 244.552L473.234 244.553L479.983 255.741L456.795 255.739L456.795 267.052L448.045 267.051L448.045 255.739L409.233 255.736C406.025 255.736 403.962 255.924 403.045 256.299C402.129 256.715 401.399 257.361 400.858 258.236C400.316 259.153 400.045 260.444 400.045 262.111C400.045 263.361 400.191 265.007 400.482 267.048Z" fill="#2690FF"/>
<path d="M387.225 291.001L396.952 291.663C389.82 285.999 386.555 278.74 387.157 269.886C387.423 265.978 388.42 262.371 390.149 259.064C391.874 255.798 393.916 253.41 396.274 251.9C398.67 250.435 401.533 249.481 404.863 249.039C407.097 248.732 410.605 248.74 415.385 249.066L456.415 251.856L455.652 263.08L418.924 260.582C413.063 260.184 409.098 260.144 407.03 260.462C404.031 260.968 401.601 262.307 399.741 264.477C397.923 266.65 396.899 269.421 396.67 272.788C396.441 276.155 397.078 279.372 398.582 282.44C400.127 285.51 402.334 287.748 405.204 289.155C408.112 290.605 412.393 291.523 418.047 291.907L453.527 294.321L452.764 305.545L386.542 301.041L387.225 291.001Z" fill="#2690FF"/>
<path d="M382.123 303.175L390.396 304.48C384.549 299.298 382.261 292.673 383.534 284.606C384.358 279.379 386.559 274.791 390.134 270.841C393.704 266.933 398.252 264.17 403.78 262.554C409.342 260.985 415.478 260.729 422.187 261.787C428.731 262.82 434.485 264.845 439.451 267.864C444.457 270.889 448.036 274.808 450.188 279.618C452.339 284.429 452.99 289.53 452.139 294.922C451.516 298.873 450.117 302.259 447.943 305.079C445.81 307.907 443.253 310.076 440.273 311.589L472.746 316.711L471.003 327.762L380.497 313.485L382.123 303.175ZM420.385 273.209C411.989 271.884 405.433 272.664 400.718 275.548C396.002 278.432 393.265 282.281 392.505 287.097C391.739 291.953 393.066 296.381 396.484 300.379C399.938 304.425 405.739 307.09 413.888 308.376C422.861 309.791 429.719 309.101 434.462 306.306C439.206 303.511 441.977 299.583 442.775 294.52C443.554 289.581 442.19 285.127 438.682 281.157C435.168 277.228 429.069 274.579 420.385 273.209Z" fill="#2690FF"/>
<path d="M361.53 267.335L372.087 268.635C370.854 270.864 370.019 272.869 369.583 274.65C368.987 277.078 368.916 279.119 369.368 280.775C369.82 282.43 370.661 283.902 371.889 285.189C372.813 286.145 375.252 287.923 379.205 290.522C379.763 290.873 380.574 291.415 381.638 292.148L452.223 283.518L449.336 295.294L408.715 299.558C403.554 300.137 398.194 300.475 392.636 300.571C397.347 303.056 401.876 305.754 406.225 308.665L440.422 331.655L437.744 342.582L378.197 301.987C371.759 297.62 367.384 294.381 365.07 292.269C361.945 289.444 359.86 286.573 358.816 283.658C357.731 280.732 357.615 277.529 358.469 274.049C358.984 271.944 360.005 269.706 361.53 267.335Z" fill="#2690FF"/>
<path d="M376.682 301.758L445.835 307.761L441.485 318.542L387.316 312.317C387.91 312.737 391.712 315.507 398.722 320.627L430.819 344.971L426.492 355.693L387.071 350.5L374.066 348.824L384.52 357.154L415.85 382.064L411.757 392.207L357.97 348.125L362.344 337.287L403.159 342.367L414.608 344.225L372.285 312.654L376.682 301.758Z" fill="#2690FF"/>
<path d="M405.381 318.376C416.26 324.097 422.727 331.359 424.783 340.161C426.477 347.502 425.414 354.805 421.593 362.07C417.345 370.146 411.218 375.35 403.212 377.683C395.243 380.036 386.593 378.758 377.263 373.851C369.703 369.875 364.349 365.599 361.2 361.024C358.068 356.506 356.448 351.44 356.34 345.828C356.212 340.253 357.496 334.902 360.192 329.776C364.518 321.552 370.655 316.283 378.605 313.967C386.536 311.689 395.461 313.158 405.381 318.376ZM399.999 328.609C392.476 324.652 385.971 323.326 380.483 324.63C375.032 325.953 370.997 329.103 368.379 334.082C365.78 339.023 365.498 344.124 367.533 349.385C369.569 354.645 374.44 359.302 382.147 363.356C389.412 367.177 395.78 368.407 401.25 367.047C406.738 365.744 410.771 362.639 413.351 357.735C415.969 352.756 416.279 347.647 414.281 342.406C412.282 337.165 407.522 332.566 399.999 328.609Z" fill="#2690FF"/>
<path d="M366.831 319.179L423.206 354.214L417.862 362.814L409.315 357.502C411.951 362.182 413.333 365.838 413.464 368.47C413.572 371.137 412.934 373.585 411.548 375.815C409.547 379.035 406.486 381.671 402.366 383.722L395.546 374.921C398.378 373.443 400.52 371.537 401.971 369.201C403.269 367.113 403.798 364.842 403.557 362.386C403.352 359.953 402.355 357.69 400.565 355.597C397.828 352.424 394.442 349.584 390.408 347.076L360.893 328.734L366.831 319.179Z" fill="#2690FF"/>
<path d="M362.725 325.184L437.119 378.67L430.552 387.804L388.128 357.303L394.508 394.682L386.007 406.506L380.826 371.528L330.619 369.84L338.719 358.575L379.08 360.574L377.522 349.678L356.158 334.318L362.725 325.184Z" fill="#2690FF"/>
<path d="M330.122 380.186C329.441 374.681 329.748 369.594 331.045 364.925C332.373 360.283 334.704 356.044 338.038 352.207C344.187 345.13 351.456 341.592 359.844 341.594C366.668 341.617 372.486 343.72 377.299 347.901C381.576 351.617 384.241 356.333 385.291 362.048C386.346 367.822 385.802 374.58 383.657 382.321C389.948 382.322 394.661 382.774 397.796 383.677C400.931 384.579 403.537 385.932 405.613 387.736C409.765 391.343 411.959 396.092 412.195 401.982C412.435 407.931 410.41 413.375 406.12 418.313C402.02 423.031 397.226 425.627 391.736 426.101C386.219 426.606 381.432 425.096 377.374 421.571C370.8 415.86 368.971 406.625 371.886 393.868L345.3 392.544C346.838 396.365 349.09 400.253 352.055 404.209L342.502 411.392C337.775 404.635 334.582 398.273 332.922 392.305C325.948 391.82 319.28 392.347 312.92 393.886L311.133 382.316C316.314 380.8 322.643 380.09 330.122 380.186ZM381.171 394.236C380.144 399.801 379.983 403.829 380.69 406.32C381.369 408.842 382.699 410.963 384.681 412.685C387.04 414.735 389.614 415.647 392.404 415.421C395.198 415.255 397.566 414.055 399.506 411.822C401.501 409.526 402.429 406.965 402.289 404.139C402.123 401.345 400.97 399.019 398.831 397.161C397.762 396.231 396.397 395.515 394.738 395.011C393.082 394.566 391.115 394.32 388.838 394.273L381.171 394.236ZM341.454 380.675L374.278 381.872C375.531 374.902 375.675 369.59 374.71 365.936C373.776 362.31 372.161 359.499 369.865 357.505C367.066 355.072 363.186 353.661 358.227 353.271C353.267 352.881 349.011 354.73 345.458 358.819C343.244 361.366 341.749 364.676 340.971 368.747C340.198 372.877 340.359 376.853 341.454 380.675Z" fill="#2690FF"/>
<path d="M361.915 356.908L355.088 365.865C351.554 363.076 347.942 361.803 344.253 362.046C340.534 362.318 336.823 364.226 333.12 367.77C329.388 371.342 327.339 374.745 326.973 377.979C326.636 381.243 327.447 383.898 329.406 385.945C331.164 387.781 333.344 388.462 335.948 387.989C337.753 387.646 341.401 385.913 346.892 382.792C354.293 378.593 359.671 375.926 363.026 374.791C366.379 373.715 369.58 373.565 372.628 374.339C375.675 375.172 378.321 376.762 380.569 379.11C382.614 381.247 384.02 383.68 384.785 386.408C385.549 389.195 385.664 391.997 385.131 394.815C384.76 396.958 383.793 399.382 382.231 402.089C380.667 404.854 378.636 407.433 376.138 409.824C372.375 413.425 368.56 416.038 364.693 417.662C360.797 419.315 357.278 419.857 354.137 419.287C351.025 418.747 347.729 417.172 344.25 414.561L351.16 405.872C353.884 407.995 356.781 408.913 359.852 408.627C362.893 408.369 365.994 406.728 369.155 403.703C372.887 400.131 374.961 396.964 375.375 394.203C375.789 391.442 375.204 389.233 373.62 387.578C372.611 386.524 371.373 385.893 369.904 385.684C368.406 385.445 366.676 385.716 364.714 386.498C363.613 386.975 360.557 388.573 355.547 391.292C348.328 395.26 343.114 397.827 339.906 398.995C336.696 400.221 333.551 400.52 330.471 399.893C327.39 399.265 324.525 397.567 321.874 394.797C319.281 392.088 317.63 388.766 316.921 384.831C316.21 380.955 316.711 376.929 318.424 372.752C320.165 368.605 322.917 364.732 326.68 361.13C332.911 355.167 338.905 351.909 344.664 351.358C350.393 350.835 356.143 352.685 361.915 356.908Z" fill="#2690FF"/>
<path d="M322.785 377.968L315.139 371.416C317.131 368.866 319.083 366.785 320.994 365.174C324.117 362.543 326.955 360.996 329.507 360.534C332.06 360.072 334.359 360.342 336.402 361.344C338.472 362.379 341.682 365.477 346.032 370.638L370.639 399.84L376.948 394.524L382.587 401.215L376.278 406.532L386.87 419.101L382.664 431.472L367.723 413.741L359.072 421.03L353.434 414.339L362.084 407.05L337.074 377.37C335.007 374.916 333.534 373.46 332.657 373.001C331.747 372.568 330.784 372.427 329.766 372.576C328.716 372.753 327.553 373.378 326.279 374.452C325.323 375.257 324.158 376.429 322.785 377.968Z" fill="#2690FF"/>
<path d="M295.926 383.266L301.689 391.131C301.423 382.027 304.87 374.853 312.029 369.607C315.188 367.292 318.589 365.73 322.232 364.92C325.84 364.135 328.982 364.158 331.656 364.988C334.322 365.876 336.896 367.45 339.379 369.711C341.054 371.222 343.308 373.91 346.14 377.775L370.447 410.947L361.373 417.597L339.614 387.903C336.142 383.164 333.617 380.106 332.041 378.73C329.721 376.763 327.132 375.767 324.274 375.744C321.44 375.754 318.662 376.756 315.94 378.751C313.217 380.746 311.168 383.307 309.791 386.433C308.439 389.593 308.15 392.724 308.924 395.824C309.689 398.983 311.746 402.848 315.096 407.419L336.115 436.104L327.041 442.754L287.809 389.214L295.926 383.266Z" fill="#2690FF"/>
<path d="M283.329 387.211L287.662 394.378C287.857 386.567 291.449 380.548 298.437 376.323C302.965 373.585 307.892 372.31 313.216 372.5C318.504 372.71 323.548 374.408 328.347 377.593C333.131 380.835 337.28 385.362 340.794 391.174C344.222 396.843 346.382 402.549 347.273 408.291C348.186 414.069 347.497 419.331 345.205 424.076C342.913 428.822 339.431 432.607 334.76 435.431C331.338 437.5 327.847 438.613 324.289 438.768C320.752 438.959 317.446 438.402 314.368 437.097L331.378 465.23L321.805 471.018L274.397 392.612L283.329 387.211ZM330.9 397.157C326.502 389.883 321.681 385.373 316.437 383.625C311.193 381.878 306.486 382.266 302.314 384.788C298.107 387.332 295.576 391.2 294.722 396.39C293.853 401.638 295.554 407.792 299.822 414.852C304.522 422.625 309.469 427.424 314.663 429.25C319.857 431.076 324.647 430.663 329.033 428.012C333.312 425.424 335.839 421.511 336.614 416.27C337.354 411.051 335.449 404.68 330.9 397.157Z" fill="#2690FF"/>
<path d="M297.465 348.368L303.273 357.278C300.775 357.772 298.704 358.426 297.061 359.239C294.821 360.349 293.213 361.61 292.239 363.023C291.265 364.435 290.681 366.026 290.488 367.796C290.353 369.118 290.565 372.128 291.125 376.826C291.216 377.479 291.324 378.448 291.449 379.734L343.535 428.146L332.67 433.528L303.233 405.214C299.463 401.641 295.751 397.76 292.096 393.573C293.232 398.776 294.088 403.978 294.665 409.179L299.122 450.144L289.041 455.137L281.708 383.443C280.899 375.707 280.556 370.274 280.68 367.144C280.826 362.933 281.678 359.489 283.234 356.811C284.773 354.097 287.147 351.944 290.358 350.354C292.3 349.392 294.669 348.73 297.465 348.368Z" fill="#2690FF"/>
<path d="M280.906 382.137L320.881 438.884L309.834 442.505L279.685 397.073C279.747 397.798 280.079 402.49 280.681 411.15L282.751 451.381L271.764 454.982L250.33 421.492L243.231 410.467L243.598 423.83L244.741 463.839L234.347 467.245L233.393 397.709L244.499 394.069L266.916 428.552L272.875 438.504L269.741 385.796L280.906 382.137Z" fill="#2690FF"/>
<path d="M286.183 103.269L279.352 34.1921L290.749 36.4835L294.604 90.8728C294.907 90.2112 296.93 85.9641 300.672 78.1314L318.69 42.1009L330.026 44.3799L332.18 84.0834L332.926 97.1749L339.19 85.3652L357.905 49.9851L368.628 52.1409L335.203 113.124L323.744 110.82L321.224 69.7681L320.941 58.1725L297.703 105.585L286.183 103.269Z" fill="#2690FF"/>
<path d="M286.695 414.791C289.331 426.797 287.945 436.422 282.54 443.666C278.018 449.693 271.749 453.586 263.731 455.346C254.819 457.302 246.891 455.971 239.947 451.352C233.013 446.774 228.415 439.337 226.155 429.041C224.324 420.698 224.142 413.848 225.611 408.492C227.049 403.185 229.878 398.682 234.1 394.983C238.281 391.292 243.2 388.826 248.857 387.584C257.932 385.592 265.917 386.889 272.811 391.476C279.664 396.072 284.292 403.844 286.695 414.791ZM275.402 417.27C273.579 408.968 270.401 403.139 265.868 399.783C261.343 396.468 256.334 395.413 250.84 396.619C245.386 397.816 241.304 400.888 238.593 405.834C235.883 410.78 235.461 417.506 237.328 426.012C239.088 434.03 242.25 439.692 246.816 442.998C251.349 446.354 256.322 447.438 261.735 446.25C267.229 445.044 271.336 441.988 274.056 437.082C276.775 432.177 277.224 425.573 275.402 417.27Z" fill="#2690FF"/>
<path d="M297.232 71.9999C300.853 60.2537 306.8 52.5601 315.073 48.919C321.977 45.9021 329.35 45.6027 337.195 48.0208C345.915 50.7089 352.158 55.7729 355.925 63.2128C359.705 70.6129 360.042 79.3498 356.936 89.4237C354.42 97.5863 351.203 103.636 347.286 107.574C343.421 111.484 338.741 114.009 333.244 115.148C327.788 116.3 322.292 116.023 316.758 114.317C307.878 111.58 301.569 106.517 297.829 99.1297C294.129 91.7542 293.93 82.7109 297.232 71.9999ZM308.282 75.4061C305.778 83.5289 305.671 90.1672 307.963 95.3211C310.267 100.435 314.107 103.821 319.482 105.478C324.818 107.122 329.884 106.46 334.679 103.491C339.475 100.522 343.156 94.877 345.721 86.5551C348.139 78.711 348.176 72.2258 345.832 67.0995C343.541 61.9457 339.747 58.5525 334.451 56.92C329.076 55.263 323.996 55.899 319.213 58.8282C314.429 61.7573 310.786 67.2833 308.282 75.4061Z" fill="#2690FF"/>
<path d="M261.238 385.832L270.777 451.518L260.757 452.973L259.311 443.015C257.431 448.045 255.527 451.459 253.599 453.254C251.629 455.056 249.345 456.146 246.747 456.523C242.995 457.068 239.007 456.426 234.784 454.597L237.118 443.711C240.073 444.924 242.912 445.333 245.633 444.938C248.066 444.585 250.144 443.525 251.866 441.759C253.594 440.035 254.682 437.813 255.13 435.096C255.792 430.958 255.782 426.538 255.099 421.838L250.105 387.448L261.238 385.832Z" fill="#2690FF"/>
<path d="M305.12 109.743L329.177 47.8808L338.614 51.5506L334.967 60.9289C339.081 57.4771 342.419 55.4448 344.982 54.8321C347.584 54.2345 350.109 54.4114 352.555 55.3629C356.089 56.7372 359.243 59.2603 362.017 62.9322L354.623 71.2555C352.649 68.7443 350.38 66.9903 347.817 65.9935C345.526 65.1025 343.196 65.0011 340.827 65.6893C338.473 66.3387 336.433 67.7356 334.704 69.8801C332.09 73.155 329.921 77.006 328.2 81.433L315.605 113.82L305.12 109.743Z" fill="#2690FF"/>
<path d="M253.999 386.562L261.042 477.916L249.826 478.78L245.809 426.685L221.339 455.652L206.819 456.771L230.226 430.269L199.162 390.79L212.996 389.723L237.477 421.874L244.805 413.661L242.783 387.427L253.999 386.562Z" fill="#2690FF"/>
<path d="M311.78 112.673L350.655 29.704L360.842 34.4772L338.673 81.7912L374.239 68.6383L387.425 74.8169L354 86.3495L361.584 136.009L349.02 130.122L343.554 90.0827L333.131 93.6197L321.967 117.446L311.78 112.673Z" fill="#2690FF"/>
<path d="M190.931 397.076C194.701 393.007 198.789 389.964 203.195 387.947C207.6 385.971 212.344 385.022 217.427 385.098C226.801 385.239 234.19 388.517 239.594 394.933C243.974 400.166 246.116 405.97 246.02 412.344C245.935 418.01 244.045 423.086 240.352 427.573C236.617 432.101 231.099 436.039 223.798 439.388C227.851 444.199 230.542 448.094 231.873 451.073C233.203 454.052 233.848 456.916 233.806 459.666C233.723 465.165 231.506 469.903 227.154 473.88C222.76 477.897 217.292 479.857 210.751 479.758C204.502 479.664 199.427 477.671 195.527 473.779C191.585 469.885 189.655 465.252 189.736 459.877C189.867 451.17 195.749 443.82 207.382 437.828L191.261 416.645C189.331 420.283 187.809 424.511 186.695 429.328L175.046 426.652C177.167 418.683 179.974 412.142 183.468 407.027C179.344 401.381 174.644 396.622 169.368 392.751L177.065 383.928C181.562 386.913 186.184 391.295 190.931 397.076ZM213.085 445.165C208.167 447.966 204.983 450.439 203.534 452.584C202.044 454.729 201.278 457.113 201.239 459.738C201.192 462.863 202.154 465.419 204.124 467.407C206.052 469.436 208.495 470.473 211.453 470.518C214.494 470.564 217.05 469.623 219.121 467.695C221.15 465.767 222.186 463.387 222.229 460.554C222.25 459.137 221.919 457.632 221.234 456.038C220.508 454.486 219.428 452.823 217.997 451.052L213.085 445.165ZM197.859 406.056L218.097 431.926C224.234 428.393 228.389 425.08 230.56 421.987C232.732 418.936 233.84 415.89 233.886 412.849C233.942 409.141 232.521 405.265 229.623 401.221C226.725 397.177 222.568 395.114 217.152 395.033C213.777 394.982 210.283 395.971 206.669 398C203.012 400.07 200.076 402.756 197.859 406.056Z" fill="#2690FF"/>
<path d="M371.842 134.593C366.557 136.277 361.501 136.911 356.673 136.496C351.866 136.045 347.27 134.534 342.884 131.964C334.796 127.223 329.981 120.73 328.439 112.485C327.205 105.773 328.2 99.6675 331.424 94.1676C334.289 89.2788 338.434 85.7919 343.858 83.7067C349.339 81.6067 356.081 80.898 364.085 81.5806C362.928 75.3967 362.504 70.681 362.814 67.4335C363.124 64.186 363.974 61.376 365.365 59.0035C368.146 54.2585 372.409 51.2277 378.156 49.911C383.959 48.5795 389.683 49.5677 395.326 52.8757C400.718 56.0361 404.153 60.2708 405.629 65.5795C407.142 70.9093 406.539 75.8928 403.821 80.5299C399.417 88.0428 390.678 91.5411 377.602 91.0249L381.195 117.4C384.667 115.185 388.074 112.256 391.417 108.613L400.236 116.68C394.465 122.57 388.8 126.88 383.239 129.61C384.047 136.555 385.792 143.011 388.476 148.979L377.432 152.866C374.989 148.053 373.126 141.962 371.842 134.593ZM376.254 81.8309C381.913 81.8158 385.902 81.2318 388.22 80.0789C390.573 78.9471 392.414 77.2489 393.741 74.9843C395.322 72.2882 395.744 69.5898 395.009 66.889C394.331 64.1732 392.716 62.0674 390.163 60.5714C387.539 59.0333 384.851 58.5928 382.1 59.2499C379.384 59.9281 377.31 61.4893 375.877 63.9337C375.161 65.1559 374.708 66.6291 374.518 68.3532C374.386 70.0625 374.506 72.0408 374.879 74.288L376.254 81.8309ZM370.237 123.365L365.37 90.8824C358.289 90.9336 353.041 91.7699 349.628 93.3913C346.235 94.9769 343.77 97.0817 342.232 99.7058C340.357 102.905 339.684 106.978 340.213 111.925C340.743 116.872 343.344 120.715 348.017 123.454C350.929 125.161 354.457 126.021 358.602 126.036C362.804 126.036 366.682 125.145 370.237 123.365Z" fill="#2690FF"/>
<path d="M229.219 406.386L217.97 406.937C217.825 402.437 216.471 398.856 213.908 396.191C211.303 393.523 207.453 391.915 202.357 391.367C197.22 390.815 193.297 391.441 190.589 393.246C187.876 395.091 186.368 397.423 186.066 400.24C185.794 402.767 186.678 404.874 188.718 406.559C190.144 407.718 193.82 409.392 199.745 411.579C207.725 414.532 213.23 416.925 216.26 418.759C219.244 420.631 221.422 422.981 222.794 425.81C224.12 428.677 224.61 431.726 224.263 434.957C223.947 437.899 222.992 440.541 221.399 442.884C219.761 445.264 217.692 447.158 215.194 448.566C213.316 449.663 210.839 450.487 207.763 451.036C204.641 451.623 201.36 451.731 197.922 451.362C192.743 450.805 188.287 449.572 184.553 447.662C180.777 445.748 178.096 443.406 176.507 440.637C174.915 437.91 173.995 434.375 173.75 430.032L184.847 429.716C184.979 433.166 186.144 435.974 188.342 438.138C190.499 440.297 193.752 441.61 198.102 442.078C203.239 442.63 206.997 442.175 209.375 440.712C211.753 439.249 213.065 437.379 213.31 435.1C213.465 433.65 213.15 432.296 212.363 431.038C211.581 429.739 210.258 428.591 208.396 427.595C207.322 427.06 204.131 425.754 198.822 423.675C191.137 420.711 185.814 418.379 182.854 416.678C179.847 415.014 177.592 412.802 176.086 410.042C174.581 407.282 174.033 403.997 174.443 400.185C174.843 396.457 176.319 393.053 178.871 389.975C181.377 386.934 184.779 384.722 189.076 383.34C193.369 381.999 198.105 381.607 203.283 382.164C211.859 383.085 218.213 385.57 222.346 389.618C226.437 393.662 228.728 399.251 229.219 406.386Z" fill="#2690FF"/>
<path d="M343.109 107.629L353.169 112.691C351.079 116.678 350.493 120.462 351.411 124.043C352.363 127.649 354.922 130.945 359.086 133.932C363.285 136.943 367.007 138.33 370.253 138.094C373.523 137.825 375.983 136.539 377.635 134.236C379.116 132.171 379.384 129.902 378.439 127.43C377.769 125.719 375.395 122.452 371.316 117.63C365.826 111.129 362.215 106.334 360.482 103.245C358.807 100.147 358.069 97.0284 358.269 93.8901C358.527 90.7422 359.603 87.8478 361.497 85.2068C363.221 82.8028 365.354 80.9735 367.894 79.719C370.493 78.4549 373.226 77.8256 376.093 77.8311C378.268 77.8014 380.829 78.3052 383.777 79.3425C386.783 80.3703 389.691 81.8919 392.501 83.9074C396.734 86.9428 400.004 90.2112 402.313 93.7127C404.655 97.2386 405.836 100.597 405.854 103.789C405.896 106.948 404.955 110.477 403.029 114.377L393.216 109.185C394.801 106.118 395.17 103.101 394.323 100.135C393.51 97.193 391.326 94.4474 387.771 91.8976C383.572 88.8865 380.078 87.4316 377.288 87.5328C374.498 87.6341 372.435 88.6158 371.099 90.4781C370.249 91.6631 369.857 92.9968 369.922 94.4791C369.963 95.9952 370.548 97.6456 371.678 99.4303C372.349 100.424 374.483 103.134 378.078 107.558C383.307 113.923 386.79 118.575 388.528 121.513C390.324 124.442 391.198 127.478 391.148 130.622C391.098 133.765 389.957 136.895 387.723 140.01C385.537 143.057 382.576 145.291 378.839 146.713C375.159 148.125 371.11 148.374 366.689 147.46C362.293 146.512 357.979 144.52 353.746 141.485C346.737 136.458 342.432 131.166 340.829 125.607C339.261 120.073 340.021 114.08 343.109 107.629Z" fill="#2690FF"/>
<path d="M187.899 390.037L187.982 379.967C191.216 379.847 194.064 379.999 196.528 380.422C200.553 381.114 203.564 382.288 205.563 383.942C207.561 385.596 208.836 387.528 209.386 389.736C209.929 391.986 209.629 396.437 208.485 403.089L202.013 440.724L210.144 442.122L208.661 450.746L200.53 449.348L197.745 465.547L185.575 470.304L189.505 447.452L178.356 445.535L179.839 436.911L190.987 438.828L197.565 400.577C198.109 397.415 198.274 395.351 198.059 394.384C197.804 393.41 197.291 392.582 196.521 391.9C195.709 391.21 194.482 390.725 192.839 390.442C191.607 390.23 189.961 390.095 187.899 390.037Z" fill="#2690FF"/>
<path d="M371.014 142.213L365.982 150.935C363.108 149.446 360.704 147.911 358.768 146.328C355.607 143.744 353.564 141.239 352.64 138.815C351.716 136.391 351.558 134.082 352.167 131.889C352.803 129.664 355.257 125.938 359.53 120.713L383.702 91.1496L377.315 85.9274L382.854 79.1535L389.241 84.3756L399.645 71.6504L412.579 73.5064L397.901 91.4572L406.659 98.6179L401.12 105.392L392.363 98.2311L367.795 128.278C365.764 130.762 364.604 132.477 364.314 133.424C364.056 134.398 364.094 135.371 364.429 136.344C364.796 137.344 365.624 138.371 366.915 139.426C367.882 140.217 369.249 141.146 371.014 142.213Z" fill="#2690FF"/>
<path d="M166.538 372.912L164.238 382.387C171.028 376.318 178.735 374.33 187.36 376.423C191.166 377.347 194.552 378.941 197.519 381.205C200.445 383.458 202.452 385.875 203.541 388.455C204.579 391.065 205.034 394.048 204.906 397.404C204.83 399.658 204.227 403.114 203.097 407.77L193.396 447.735L182.463 445.081L191.147 409.307C192.533 403.598 193.244 399.697 193.28 397.605C193.29 394.563 192.383 391.942 190.559 389.741C188.725 387.581 186.168 386.103 182.888 385.306C179.609 384.51 176.33 384.593 173.052 385.556C169.764 386.558 167.184 388.355 165.312 390.944C163.39 393.565 161.76 397.629 160.423 403.135L152.034 437.694L141.102 435.04L156.76 370.539L166.538 372.912Z" fill="#2690FF"/>
<path d="M381.166 167.638L387.835 160.526C378.936 162.463 371.25 160.396 364.776 154.325C361.919 151.646 359.757 148.591 358.291 145.16C356.855 141.757 356.299 138.665 356.622 135.883C357.004 133.1 358.078 130.28 359.843 127.423C361.019 125.498 363.246 122.789 366.524 119.293L394.654 89.294L402.86 96.9892L377.68 123.843C373.661 128.128 371.121 131.172 370.059 132.975C368.552 135.618 368.05 138.346 368.553 141.16C369.085 143.943 370.582 146.489 373.044 148.797C375.506 151.106 378.4 152.649 381.726 153.426C385.081 154.173 388.211 153.881 391.116 152.55C394.08 151.216 397.5 148.483 401.376 144.349L425.702 118.407L433.908 126.103L388.507 174.521L381.166 167.638Z" fill="#2690FF"/>
<path d="M155.405 365.823L152.717 373.755C158.816 368.87 165.732 367.738 173.467 370.359C178.479 372.057 182.628 375.002 185.915 379.196C189.162 383.375 191.114 388.326 191.771 394.048C192.375 399.796 191.587 405.886 189.407 412.318C187.281 418.593 184.31 423.921 180.494 428.303C176.664 432.725 172.196 435.588 167.091 436.894C161.985 438.2 156.847 437.977 151.678 436.225C147.889 434.941 144.789 432.989 142.378 430.368C139.953 427.787 138.248 424.899 137.262 421.706L126.712 452.842L116.116 449.252L145.52 362.473L155.405 365.823ZM178.456 408.608C181.184 400.557 181.526 393.964 179.483 388.829C177.44 383.693 174.11 380.343 169.492 378.779C164.836 377.201 160.248 377.758 155.728 380.45C151.156 383.168 147.546 388.434 144.898 396.247C141.983 404.85 141.501 411.726 143.452 416.874C145.403 422.023 148.806 425.419 153.66 427.064C158.395 428.669 163.017 428.079 167.523 425.294C171.991 422.497 175.635 416.935 178.456 408.608Z" fill="#2690FF"/>
<path d="M387.364 179.293L393.61 173.714C385.897 174.96 379.32 172.538 373.88 166.447C370.355 162.5 368.195 157.893 367.401 152.625C366.634 147.388 367.375 142.118 369.622 136.815C371.928 131.515 375.613 126.603 380.679 122.079C385.62 117.666 390.831 114.493 396.31 112.56C401.821 110.599 407.12 110.308 412.206 111.687C417.293 113.066 421.654 115.791 425.29 119.862C427.954 122.845 429.69 126.071 430.498 129.54C431.336 132.981 431.398 136.334 430.682 139.599L455.202 117.7L462.654 126.044L394.316 187.077L387.364 179.293ZM388.381 130.703C382.041 136.365 378.495 141.934 377.743 147.41C376.992 152.886 378.239 157.442 381.487 161.078C384.762 164.745 389.029 166.52 394.288 166.404C399.606 166.291 405.342 163.487 411.495 157.992C418.27 151.941 422.077 146.195 422.915 140.754C423.754 135.312 422.466 130.68 419.052 126.858C415.721 123.128 411.409 121.365 406.115 121.568C400.85 121.802 394.938 124.847 388.381 130.703Z" fill="#2690FF"/>
<path d="M194.216 351.6L191.146 361.783C189.158 360.191 187.323 359.028 185.642 358.297C183.35 357.299 181.35 356.882 179.642 357.048C177.934 357.213 176.341 357.792 174.864 358.785C173.766 359.533 171.601 361.635 168.369 365.091C167.929 365.581 167.257 366.288 166.354 367.213L162.902 438.24L151.785 433.399L154.464 392.643C154.768 387.459 155.343 382.119 156.19 376.626C152.943 380.847 149.517 384.854 145.911 388.647L117.46 418.455L107.145 413.964L157.241 362.155C162.635 356.55 166.569 352.787 169.042 350.864C172.356 348.263 175.538 346.694 178.589 346.159C181.656 345.586 184.832 346.015 188.117 347.445C190.104 348.31 192.137 349.695 194.216 351.6Z" fill="#2690FF"/>
<path d="M346.581 172.55L354.27 165.2C355.215 167.566 356.239 169.481 357.341 170.946C358.844 172.943 360.38 174.291 361.948 174.989C363.515 175.686 365.187 175.967 366.961 175.831C368.286 175.72 371.206 174.958 375.72 173.542C376.345 173.333 377.278 173.048 378.519 172.688L416.514 112.579L423.804 122.268L401.394 156.415C398.576 160.778 395.445 165.141 392.002 169.505C396.907 167.43 401.862 165.631 406.868 164.107L446.312 152.183L453.076 161.173L383.958 181.579C376.503 183.799 371.226 185.137 368.126 185.591C363.961 186.223 360.419 186.02 357.5 184.983C354.549 183.971 351.996 182.033 349.841 179.17C348.539 177.438 347.452 175.232 346.581 172.55Z" fill="#2690FF"/>
<path d="M157.723 360.7L140.091 427.837L130.204 421.723L145.515 369.391C145.001 369.906 141.627 373.184 135.393 379.225L105.964 406.734L96.1296 400.653L107.926 362.681L111.781 350.148L101.8 359.04L71.9427 385.697L62.64 379.944L115.197 334.404L125.137 340.55L113.216 379.914L109.446 390.883L147.73 354.52L157.723 360.7Z" fill="#2690FF"/>
<path d="M136.484 386.17C129.002 395.922 120.75 401.065 111.727 401.6C104.205 402.026 97.1877 399.741 90.6752 394.745C83.4355 389.19 79.3442 382.27 78.4013 373.984C77.433 365.732 80.1573 357.423 86.574 349.06C91.7734 342.283 96.8943 337.73 101.937 335.402C106.921 333.081 112.187 332.343 117.737 333.187C123.253 334.005 128.309 336.177 132.904 339.703C140.276 345.359 144.43 352.3 145.365 360.528C146.267 368.73 143.307 377.277 136.484 386.17ZM127.31 379.131C132.484 372.388 134.894 366.201 134.539 360.572C134.158 354.976 131.736 350.466 127.274 347.042C122.844 343.643 117.864 342.501 112.335 343.616C106.806 344.73 101.391 348.742 96.0901 355.651C91.0937 362.164 88.8023 368.231 89.2159 373.852C89.5711 379.482 91.947 383.983 96.3438 387.356C100.807 390.78 105.79 391.951 111.294 390.87C116.798 389.788 122.136 385.875 127.31 379.131Z" fill="#2690FF"/>
<path d="M142.223 348.042L98.1429 397.666L90.5731 390.942L97.2557 383.419C92.1974 385.224 88.3603 385.967 85.7442 385.65C83.097 385.305 80.7922 384.26 78.8296 382.517C75.9948 379.999 73.9158 376.536 72.5924 372.128L82.4212 366.898C83.398 369.939 84.9144 372.373 86.9704 374.199C88.8083 375.832 90.9575 376.738 93.4177 376.917C95.8504 377.127 98.2498 376.528 100.616 375.118C104.207 372.958 107.58 370.102 110.734 366.551L133.812 340.571L142.223 348.042Z" fill="#2690FF"/>
<path d="M137 342.977L71.6837 407.234L63.794 399.215L101.041 362.571L63.1215 362.527L52.9088 352.146L88.2586 352.965L98.4279 303.77L108.158 313.661L99.3506 353.1L110.353 353.411L129.11 334.958L137 342.977Z" fill="#2690FF"/>
<path d="M88.3173 301.526C93.858 301.787 98.8192 302.952 103.201 305.021C107.551 307.116 111.334 310.132 114.551 314.068C120.484 321.327 122.739 329.089 121.316 337.356C120.137 344.078 117.079 349.456 112.143 353.49C107.756 357.076 102.657 358.903 96.8461 358.971C90.9769 359.032 84.4093 357.351 77.1435 353.926C76.0762 360.126 74.8324 364.694 73.412 367.631C71.9916 370.568 70.2168 372.906 68.0875 374.647C63.829 378.127 58.7771 379.485 52.9317 378.72C47.0278 377.949 42.0058 375.031 37.8659 369.966C33.9106 365.127 32.1645 359.962 32.6275 354.471C33.0641 348.948 35.3633 344.485 39.525 341.084C46.2676 335.573 55.6784 335.334 67.7572 340.368L73.5661 314.391C69.5405 315.259 65.3269 316.82 60.9254 319.072L55.4646 308.44C62.9245 304.926 69.7358 302.857 75.8984 302.233C77.5582 295.441 78.1684 288.78 77.729 282.251L89.435 282.451C90.0509 287.813 89.6783 294.172 88.3173 301.526ZM65.8222 349.457C60.511 347.501 56.5683 346.661 53.9942 346.935C51.3937 347.177 49.0772 348.129 47.0448 349.79C44.6252 351.768 43.2901 354.151 43.0395 356.939C42.7303 359.721 43.5117 362.257 45.3839 364.547C47.3089 366.902 49.6755 368.251 52.4839 368.592C55.2658 368.901 57.7537 368.159 59.9475 366.366C61.0444 365.47 61.9817 364.246 62.7593 362.696C63.4784 361.14 64.0539 359.243 64.486 357.006L65.8222 349.457ZM85.9151 312.611L79.1753 344.758C85.8319 347.174 91.0424 348.216 94.8068 347.884C98.539 347.578 101.583 346.462 103.938 344.537C106.809 342.19 108.857 338.606 110.082 333.784C111.307 328.962 110.205 324.454 106.777 320.26C104.641 317.647 101.633 315.612 97.7524 314.156C93.8129 312.694 89.8672 312.179 85.9151 312.611Z" fill="#2690FF"/>
<path d="M105.872 336.803L98.2016 328.558C101.549 325.547 103.415 322.203 103.8 318.526C104.162 314.815 102.911 310.834 100.045 306.585C97.1571 302.301 94.1504 299.705 91.0254 298.797C87.8659 297.912 85.1115 298.262 82.7623 299.846C80.6549 301.266 79.6139 303.3 79.6393 305.946C79.672 307.784 80.7613 311.672 82.9072 317.613C85.792 325.618 87.5093 331.37 88.0592 334.868C88.5513 338.356 88.1577 341.536 86.8784 344.409C85.5412 347.27 83.5253 349.609 80.8306 351.426C78.3778 353.08 75.7422 354.053 72.924 354.345C70.0479 354.626 67.2667 354.265 64.5804 353.262C62.5311 352.533 60.3051 351.17 57.9025 349.171C55.442 347.162 53.2451 344.723 51.3117 341.856C48.4 337.537 46.4712 333.335 45.5253 329.249C44.5562 325.129 44.6184 321.569 45.7122 318.57C46.7713 315.595 48.8821 312.614 52.0445 309.627L59.4377 317.909C56.8843 320.234 55.4886 322.934 55.2504 326.009C54.989 329.049 56.0812 332.384 58.527 336.011C61.4154 340.295 64.1851 342.875 66.8361 343.751C69.4871 344.627 71.7627 344.424 73.6628 343.143C74.8719 342.328 75.7039 341.214 76.1588 339.802C76.6482 338.366 76.6737 336.615 76.2353 334.549C75.9519 333.383 74.8946 330.101 73.0636 324.702C70.3764 316.916 68.7294 311.343 68.1224 307.983C67.4576 304.612 67.6954 301.461 68.8357 298.532C69.976 295.602 72.1354 293.066 75.3137 290.923C78.423 288.826 81.9768 287.762 85.9751 287.729C89.9157 287.685 93.799 288.861 97.6251 291.257C101.417 293.675 104.768 297.044 107.68 301.362C112.502 308.513 114.697 314.973 114.265 320.742C113.809 326.477 111.012 331.83 105.872 336.803Z" fill="#2690FF"/>
<path d="M91.7456 294.672L99.4984 288.246C101.674 290.641 103.394 292.917 104.658 295.074C106.722 298.598 107.766 301.656 107.789 304.251C107.812 306.845 107.156 309.064 105.822 310.908C104.452 312.773 100.855 315.412 95.031 318.824L62.0823 338.129L66.2528 345.247L58.7032 349.671L54.5326 342.552L40.3501 350.862L28.8706 344.621L48.8771 332.9L43.1584 323.139L50.708 318.716L56.4268 328.476L89.9147 308.856C92.6829 307.234 94.3677 306.029 94.969 305.242C95.5493 304.42 95.852 303.494 95.877 302.465C95.8809 301.4 95.4617 300.149 94.6191 298.711C93.9872 297.632 93.0294 296.286 91.7456 294.672Z" fill="#2690FF"/>
<path d="M91.0738 267.303L82.3466 271.65C91.3635 272.931 97.8504 277.543 101.807 285.487C103.554 288.993 104.517 292.609 104.698 296.336C104.86 300.026 104.306 303.118 103.035 305.613C101.708 308.09 99.7202 310.36 97.0711 312.424C95.2988 313.819 92.2681 315.585 87.9791 317.721L51.1681 336.057L46.1521 325.988L79.103 309.574C84.3617 306.955 87.8026 304.985 89.4258 303.664C91.758 301.711 93.1777 299.328 93.6851 296.515C94.1552 293.721 93.6378 290.813 92.133 287.792C90.6282 284.771 88.4518 282.318 85.6036 280.431C82.7182 278.564 79.6821 277.748 76.4953 277.986C73.2527 278.205 69.0952 279.577 64.023 282.104L32.191 297.96L27.175 287.89L86.5873 258.296L91.0738 267.303Z" fill="#2690FF"/>
<path d="M89.3212 254.22L81.5239 257.277C89.189 258.792 94.5119 263.351 97.4924 270.955C99.4236 275.881 99.8451 280.952 98.7567 286.168C97.6532 291.344 95.1255 296.027 91.1736 300.217C87.1677 304.383 82.0032 307.705 75.68 310.184C69.512 312.602 63.5229 313.764 57.7127 313.669C51.8637 313.59 46.7949 312.019 42.5062 308.956C38.2176 305.894 35.0773 301.821 33.0852 296.74C31.6254 293.015 31.1204 289.387 31.5704 285.854C31.9816 282.336 33.0906 279.172 34.8974 276.36L4.29005 288.358L0.207031 277.942L85.5119 244.503L89.3212 254.22ZM71.4601 299.419C79.3738 296.317 84.6358 292.33 87.246 287.458C89.8563 282.586 90.2719 277.88 88.4927 273.341C86.6983 268.764 83.3155 265.615 78.3445 263.893C73.3194 262.149 66.9665 262.782 59.2855 265.793C50.8287 269.108 45.2606 273.17 42.5811 277.98C39.9017 282.79 39.4971 287.58 41.3676 292.352C43.1924 297.007 46.6215 300.16 51.6549 301.812C56.6731 303.425 63.2749 302.628 71.4601 299.419Z" fill="#2690FF"/>
<path d="M125.207 274.732L115.442 278.947C115.378 276.4 115.085 274.249 114.561 272.492C113.847 270.096 112.877 268.298 111.65 267.099C110.423 265.899 108.954 265.055 107.242 264.565C105.962 264.207 102.959 263.906 98.2344 263.662C97.5759 263.641 96.6022 263.583 95.3133 263.489L38.7772 306.621L35.3142 295.001L68.2055 270.786C72.3657 267.676 76.8191 264.675 81.5656 261.782C76.2452 262.02 70.9732 261.983 65.7496 261.67L24.6215 259.123L21.4084 248.342L93.3084 253.261C101.07 253.774 106.483 254.356 109.546 255.008C113.672 255.866 116.922 257.289 119.297 259.276C121.711 261.252 123.431 263.957 124.454 267.391C125.073 269.468 125.324 271.915 125.207 274.732Z" fill="#2690FF"/>
<path d="M94.7317 252.692L32.0321 282.474L30.3354 270.974L80.2187 248.958C79.4937 248.896 74.8128 248.428 66.1761 247.555L26.1758 242.779L24.4882 231.34L61.1255 215.89L73.1936 210.761L59.9619 208.86L20.3376 203.207L18.7412 192.387L87.434 203.227L89.1398 214.79L51.3571 231.041L40.5398 235.227L93.0167 241.068L94.7317 252.692Z" fill="#2690FF"/>
<path d="M61.5687 252.864C49.29 253.428 40.0388 250.432 33.8151 243.877C28.6419 238.4 25.8672 231.562 25.491 223.362C25.0727 214.247 27.7276 206.659 33.4558 200.598C39.1424 194.54 47.251 191.269 57.7816 190.785C66.3143 190.394 73.0956 191.376 78.1255 193.731C83.1119 196.046 87.0705 199.598 90.0014 204.385C92.9303 209.131 94.5275 214.397 94.793 220.182C95.2189 229.464 92.5877 237.114 86.8992 243.131C81.2088 249.106 72.7653 252.351 61.5687 252.864ZM61.0387 241.314C69.5298 240.924 75.8131 238.78 79.8886 234.881C83.9226 230.983 85.8106 226.225 85.5527 220.606C85.2968 215.029 82.9611 210.485 78.5456 206.976C74.13 203.466 67.5727 201.911 58.8735 202.31C50.6738 202.686 44.5579 204.844 40.5259 208.783C36.4504 212.682 34.5396 217.4 34.7937 222.935C35.0515 228.554 37.3674 233.12 41.7413 236.631C46.1152 240.143 52.5477 241.704 61.0387 241.314Z" fill="#2690FF"/>
<path d="M94.4228 232.682L28.0702 230.955L28.3336 220.834L38.3927 221.096C33.7532 218.391 30.7118 215.936 29.2687 213.731C27.8267 211.484 27.1398 209.049 27.2081 206.425C27.3067 202.634 28.6149 198.813 31.1326 194.96L41.4658 199.106C39.7698 201.812 38.886 204.54 38.8145 207.289C38.7505 209.747 39.4428 211.974 40.8914 213.971C42.2983 215.966 44.303 217.415 46.9054 218.316C50.8715 219.67 55.2288 220.408 59.9772 220.532L94.7154 221.436L94.4228 232.682Z" fill="#2690FF"/>
<path d="M94.9294 225.425L3.70281 216.89L4.75078 205.689L56.7736 210.556L32.3712 181.531L33.7277 167.032L55.8819 194.591L100.053 170.664L98.7603 184.479L62.9268 203.159L69.7793 211.773L95.9774 214.224L94.9294 225.425Z" fill="#2690FF"/>
<path d="M95.2517 161.486C98.6229 165.891 100.929 170.436 102.171 175.12C103.372 179.796 103.504 184.632 102.567 189.628C100.84 198.843 96.3576 205.57 89.1194 209.809C83.2199 213.239 77.1371 214.367 70.8712 213.192C65.3016 212.148 60.6187 209.427 56.8226 205.027C52.9932 200.579 50.0467 194.473 47.9832 186.71C42.5546 189.889 38.2598 191.882 35.0988 192.689C31.9378 193.495 29.0058 193.645 26.3029 193.138C20.897 192.125 16.6032 189.137 13.4213 184.174C10.2062 179.163 9.20119 173.442 10.4063 167.013C11.5578 160.87 14.3819 156.206 18.8789 153.022C23.3835 149.796 28.2773 148.679 33.5603 149.669C42.1196 151.273 48.3667 158.316 52.3015 170.796L75.9089 158.497C72.6504 155.978 68.7418 153.762 64.1831 151.848L68.7934 140.821C76.2881 144.26 82.2598 148.135 86.7086 152.445C92.9716 149.338 98.4578 145.512 103.167 140.968L110.558 150.048C106.855 153.975 101.753 157.787 95.2517 161.486ZM44.1048 175.173C42.1771 169.852 40.279 166.295 38.4104 164.504C36.5494 162.671 34.329 161.513 31.7489 161.03C28.6774 160.454 25.995 160.969 23.7017 162.574C21.3752 164.13 19.9394 166.362 19.3944 169.27C18.834 172.259 19.3282 174.938 20.8769 177.305C22.4332 179.632 24.6038 181.056 27.3887 181.578C28.7811 181.839 30.3207 181.767 32.0074 181.363C33.6608 180.91 35.4819 180.128 37.4706 179.017L44.1048 175.173ZM85.2275 166.793L56.3028 182.356C58.7451 189.003 61.3062 193.658 63.9862 196.323C66.6253 198.979 69.4397 200.588 72.4293 201.148C76.0741 201.831 80.1348 201.088 84.6114 198.917C89.0879 196.746 91.8251 192.999 92.823 187.675C93.4448 184.358 93.0619 180.746 91.6744 176.84C90.2536 172.886 88.1046 169.537 85.2275 166.793Z" fill="#2690FF"/>
<path d="M79.5906 197.644L80.9528 186.464C85.412 187.084 89.1715 186.356 92.2313 184.281C95.3026 182.166 97.5397 178.644 98.9427 173.714C100.357 168.745 100.404 164.773 99.0851 161.798C97.7256 158.812 95.6833 156.931 92.9582 156.156C90.5136 155.46 88.2877 155.974 86.2806 157.699C84.8968 158.908 82.6251 162.247 79.4657 167.716C75.2036 175.081 71.912 180.101 69.5911 182.776C67.2414 185.4 64.5561 187.148 61.5351 188.021C58.4853 188.842 55.3976 188.808 52.2717 187.919C49.4264 187.109 46.9839 185.721 44.9444 183.754C42.8762 181.736 41.36 179.376 40.3957 176.676C39.6324 174.639 39.2406 172.058 39.2203 168.933C39.1712 165.757 39.6201 162.506 40.5668 159.179C41.9925 154.17 43.9628 149.987 46.4777 146.631C49.0039 143.234 51.766 140.988 54.764 139.891C57.7218 138.784 61.3616 138.477 65.6832 138.97L64.1147 149.961C60.6917 149.506 57.7277 150.179 55.2227 151.979C52.7291 153.738 50.8835 156.722 49.6859 160.93C48.2715 165.899 48.0837 169.68 49.1222 172.271C50.1608 174.863 51.7821 176.473 53.9863 177.1C55.3889 177.499 56.7767 177.418 58.1498 176.855C59.5629 176.304 60.9182 175.196 62.2157 173.529C62.9244 172.561 64.7529 169.637 67.7012 164.758C71.9235 157.685 75.1237 152.834 77.3016 150.205C79.4509 147.524 82.013 145.676 84.9882 144.66C87.9633 143.644 91.2943 143.66 94.9812 144.71C98.588 145.736 101.692 147.768 104.294 150.804C106.866 153.789 108.47 157.516 109.104 161.986C109.698 166.443 109.282 171.177 107.856 176.186C105.495 184.482 101.97 190.323 97.2804 193.711C92.6021 197.058 86.7055 198.369 79.5906 197.644Z" fill="#2690FF"/>
<path d="M102.702 159.69L112.612 161.478C112.183 164.685 111.551 167.467 110.716 169.824C109.352 173.673 107.686 176.442 105.717 178.131C103.748 179.82 101.628 180.749 99.3585 180.918C97.0493 181.072 92.7136 180.022 86.3512 177.767L50.3564 165.013L47.6011 172.79L39.3535 169.867L42.1089 162.091L26.6153 156.601L23.9893 143.802L45.8454 151.546L49.6236 140.883L57.8711 143.805L54.0929 154.468L90.6767 167.431C93.7008 168.503 95.7075 169.015 96.6968 168.967C97.7 168.881 98.603 168.516 99.4058 167.872C100.223 167.189 100.909 166.062 101.466 164.491C101.883 163.312 102.296 161.712 102.702 159.69Z" fill="#2690FF"/>
<path d="M123.198 141.54L114.25 137.668C119.081 145.388 119.735 153.321 116.21 161.466C114.655 165.06 112.51 168.128 109.777 170.668C107.06 173.17 104.338 174.738 101.611 175.375C98.8628 175.956 95.8457 175.899 92.56 175.204C90.3512 174.747 87.048 173.568 82.6504 171.665L44.9072 155.333L49.3748 145.008L83.1601 159.627C88.552 161.96 92.2758 163.322 94.3316 163.712C97.328 164.237 100.065 163.787 102.543 162.362C104.983 160.921 106.873 158.651 108.213 155.554C109.553 152.456 110.027 149.211 109.634 145.817C109.203 142.407 107.869 139.56 105.634 137.277C103.377 134.938 99.6484 132.644 94.4477 130.393L61.8096 116.271L66.2772 105.946L127.194 132.305L123.198 141.54Z" fill="#2690FF"/>
<path d="M132.072 131.768L124.71 127.775C128.491 134.613 128.434 141.622 124.541 148.8C122.019 153.452 118.413 157.042 113.723 159.571C109.054 162.063 103.844 163.148 98.0936 162.826C92.3265 162.448 86.4578 160.64 80.4876 157.402C74.6638 154.244 69.9159 150.413 66.2437 145.909C62.535 141.386 60.4697 136.497 60.0479 131.244C59.6262 125.991 60.7164 120.966 63.3185 116.167C65.2254 112.651 67.6745 109.927 70.666 107.994C73.6209 106.042 76.7555 104.85 80.0698 104.42L51.1709 88.7475L56.5043 78.9131L137.048 122.593L132.072 131.768ZM85.9997 147.238C93.4716 151.29 99.9114 152.744 105.319 151.6C110.727 150.457 114.592 147.742 116.916 143.457C119.26 139.135 119.489 134.519 117.601 129.608C115.697 124.641 111.119 120.192 103.867 116.259C95.8819 111.928 89.1873 110.289 83.7827 111.339C78.3782 112.39 74.4544 115.168 72.0112 119.673C69.6276 124.068 69.426 128.722 71.4066 133.636C73.4069 138.513 78.2713 143.047 85.9997 147.238Z" fill="#2690FF"/>
<path d="M139.514 172.428L129.998 167.677C131.904 165.987 133.36 164.376 134.367 162.844C135.738 160.754 136.488 158.853 136.614 157.142C136.741 155.431 136.44 153.763 135.712 152.139C135.16 150.929 133.455 148.439 130.597 144.669C130.188 144.152 129.605 143.37 128.846 142.324L59.4316 126.889L66.0852 116.752L105.798 126.298C110.857 127.475 116.021 128.946 121.292 130.712C117.682 126.797 114.313 122.741 111.186 118.545L86.6291 85.455L92.8025 76.0501L135.376 134.199C139.985 140.465 143.028 144.979 144.504 147.742C146.506 151.449 147.513 154.851 147.523 157.948C147.569 161.068 146.608 164.126 144.642 167.122C143.453 168.933 141.744 170.702 139.514 172.428Z" fill="#2690FF"/>
<path d="M142.562 135.181L81.1639 102.8L89.3584 94.5544L136.862 121.321C136.477 120.704 134.049 116.675 129.577 109.235L109.448 74.3394L117.599 66.1382L151.912 86.2286L163.246 92.8226L156.846 81.0868L137.645 45.9676L145.355 38.2097L177.807 99.716L169.569 108.006L133.929 87.4776L124.098 81.3209L150.845 126.847L142.562 135.181Z" fill="#2690FF"/>
<path d="M122.565 108.724C114.761 99.2278 111.62 90.0247 113.143 81.1151C114.432 73.6923 118.247 67.3751 124.589 62.1637C131.639 56.3702 139.305 53.9527 147.589 54.9111C155.847 55.8374 163.322 60.3727 170.015 68.5172C175.438 75.1164 178.713 81.1354 179.838 86.5742C180.97 91.9543 180.496 97.2513 178.417 102.465C176.37 107.653 173.109 112.085 168.635 115.762C161.456 121.662 153.754 124.135 145.529 123.182C137.335 122.203 129.681 117.384 122.565 108.724ZM131.498 101.383C136.894 107.95 142.374 111.698 147.938 112.628C153.475 113.524 158.416 112.187 162.762 108.616C167.076 105.071 169.316 100.48 169.482 94.8417C169.649 89.2038 166.968 83.0208 161.439 76.2928C156.228 69.9511 150.837 66.345 145.268 65.4745C139.705 64.5454 134.783 65.84 130.501 69.3584C126.155 72.9298 123.886 77.5183 123.693 83.124C123.499 88.7298 126.101 94.8162 131.498 101.383Z" fill="#2690FF"/>
<path d="M158.401 122.951L120.051 68.7761L128.315 62.9261L134.129 71.139C133.517 65.8035 133.662 61.8977 134.564 59.4215C135.499 56.9213 137.039 54.9129 139.181 53.3962C142.276 51.2054 146.12 49.9648 150.713 49.6743L153.581 60.4322C150.397 60.6948 147.683 61.6205 145.439 63.2094C143.432 64.6298 142.063 66.5179 141.331 68.8737C140.576 71.1954 140.616 73.6683 141.452 76.2923C142.743 80.2793 144.761 84.2112 147.505 88.0882L167.583 116.451L158.401 122.951Z" fill="#2690FF"/>
<path d="M164.517 119.011L116.725 40.8377L126.323 34.9696L153.577 79.5486L162.21 42.6248L174.634 35.0289L165.829 69.2743L211.442 90.3224L199.604 97.5597L163.186 80.0475L160.391 90.6933L174.115 113.143L164.517 119.011Z" fill="#2690FF"/>
<path d="M215.918 80.982C214.409 86.3196 212.15 90.8881 209.143 94.6874C206.117 98.4492 202.322 101.451 197.76 103.693C189.346 107.828 181.274 108.266 173.545 105.007C167.265 102.336 162.719 98.14 159.908 92.4185C157.409 87.3327 156.784 81.9524 158.035 76.2775C159.304 70.5469 162.43 64.531 167.411 58.2297C161.614 55.7858 157.446 53.5396 154.908 51.4909C152.369 49.4422 150.493 47.1838 149.28 44.7157C146.855 39.7795 146.677 34.5513 148.746 29.0312C150.834 23.4553 154.814 19.2249 160.685 16.3398C166.294 13.5834 171.721 13.0526 176.964 14.7473C182.244 16.4236 186.07 19.6738 188.44 24.4978C192.281 32.3135 190.382 41.5337 182.743 52.1584L206.729 63.7004C206.795 59.5827 206.23 55.1251 205.033 50.3279L216.625 47.4171C218.358 55.4791 218.831 62.5821 218.043 68.726C224.282 71.881 230.631 73.984 237.09 75.0349L234.245 86.3915C228.882 85.7768 222.773 83.9736 215.918 80.982ZM174.329 48.215C177.436 43.4847 179.148 39.8349 179.464 37.2655C179.817 34.6778 179.415 32.206 178.257 29.85C176.879 27.0454 174.86 25.2052 172.202 24.3297C169.562 23.3984 166.915 23.5851 164.26 24.8897C161.53 26.2312 159.68 28.2309 158.712 30.8889C157.78 33.5286 157.94 36.1199 159.189 38.6628C159.814 39.9342 160.793 41.1243 162.127 42.2329C163.48 43.2858 165.197 44.2759 167.278 45.2034L174.329 48.215ZM205.665 76.1315L175.881 62.2853C172.02 68.2216 169.825 73.0607 169.296 76.8026C168.748 80.507 169.145 83.7242 170.487 86.4541C172.122 89.7823 175.149 92.589 179.569 94.8743C183.988 97.1596 188.628 97.1078 193.49 94.7189C196.519 93.2305 199.182 90.7612 201.479 87.3111C203.795 83.8052 205.191 80.0787 205.665 76.1315Z" fill="#2690FF"/>
<path d="M297.288 96.5043C293.004 100.028 288.544 102.492 283.906 103.897C279.275 105.261 274.446 105.562 269.42 104.802C260.151 103.398 253.271 99.154 248.781 92.0688C245.146 86.2931 243.806 80.2536 244.76 73.9504C245.608 68.3476 248.164 63.5722 252.428 59.6243C256.74 55.6414 262.738 52.4828 270.424 50.1486C267.057 44.8347 264.914 40.6124 263.998 37.4815C263.081 34.3507 262.828 31.4258 263.24 28.7068C264.063 23.2687 266.899 18.8728 271.747 15.5191C276.643 12.1303 282.325 10.9256 288.793 11.9047C294.972 12.8402 299.732 15.4992 303.072 19.8819C306.453 24.2707 307.742 29.1224 306.937 34.4368C305.634 43.0471 298.815 49.537 286.48 53.9067L299.598 77.0686C302.001 73.7239 304.079 69.7401 305.833 65.1171L317.014 69.3383C313.839 76.9488 310.176 83.0526 306.025 87.6497C309.35 93.8 313.365 99.1488 318.071 103.696L309.256 111.401C305.202 107.837 301.213 102.872 297.288 96.5043ZM281.818 45.8683C287.069 43.7554 290.556 41.7338 292.281 39.8036C294.048 37.8796 295.127 35.6199 295.52 33.0245C295.988 29.9347 295.379 27.272 293.695 25.0364C292.058 22.7658 289.777 21.4091 286.852 20.9663C283.845 20.511 281.185 21.0987 278.873 22.7294C276.603 24.3663 275.255 26.5855 274.831 29.3869C274.619 30.7876 274.745 32.3237 275.208 33.9952C275.719 35.6318 276.565 37.4244 277.745 39.3729L281.818 45.8683ZM291.634 86.6722L275.067 58.3106C268.51 60.9842 263.947 63.7068 261.378 66.4786C258.815 69.2091 257.307 72.0781 256.851 75.0855C256.296 78.752 257.182 82.7842 259.508 87.1819C261.834 91.5797 265.675 94.1839 271.031 94.9947C274.368 95.4998 277.964 94.9906 281.819 93.4671C285.721 91.9087 288.993 89.6437 291.634 86.6722Z" fill="#2690FF"/>
<path d="M177.582 90.0902L187.351 84.4869C189.525 88.429 192.359 91.0041 195.853 92.2122C199.386 93.4055 203.547 93.088 208.334 91.2599C213.161 89.4169 216.371 87.0764 217.963 84.2383C219.541 81.3613 219.824 78.5994 218.813 75.9524C217.907 73.578 216.162 72.1034 213.579 71.5287C211.782 71.1444 207.747 71.3246 201.475 72.0692C193.025 73.0657 187.033 73.4356 183.501 73.1787C179.993 72.868 176.984 71.7643 174.476 69.8676C171.992 67.917 170.17 65.4237 169.011 62.3875C167.956 59.6238 167.605 56.8363 167.959 54.0252C168.337 51.1602 169.318 48.5331 170.904 46.1438C172.078 44.3128 173.91 42.4536 176.401 40.566C178.915 38.6247 181.788 37.0372 185.019 35.8036C189.885 33.9457 194.414 33.0189 198.609 33.0231C202.842 33.0125 206.295 33.8794 208.968 35.624C211.626 37.3296 214.052 40.0608 216.244 43.8174L206.503 49.1426C204.817 46.129 202.503 44.158 199.562 43.2294C196.659 42.286 193.165 42.5946 189.077 44.1552C184.251 45.9982 181.11 48.1116 179.657 50.4952C178.203 52.8789 177.885 55.1412 178.702 57.2821C179.223 58.6445 180.119 59.7072 181.392 60.4701C182.679 61.272 184.379 61.6934 186.49 61.7345C187.69 61.7224 191.127 61.4361 196.8 60.8756C204.993 60.022 210.794 59.6801 214.204 59.8499C217.638 59.966 220.652 60.9111 223.248 62.6854C225.843 64.4597 227.824 67.1374 229.192 70.7186C230.529 74.2219 230.761 77.9245 229.887 81.8262C229.037 85.6742 227.012 89.1903 223.813 92.3745C220.598 95.5197 216.558 98.0212 211.692 99.8791C203.635 102.956 196.845 103.63 191.324 101.903C185.842 100.16 181.261 96.2227 177.582 90.0902Z" fill="#2690FF"/>
<path d="M221.818 85.874L226.32 94.8807C223.494 96.4576 220.888 97.6173 218.501 98.3596C214.601 99.5722 211.386 99.8958 208.854 99.3305C206.322 98.7653 204.309 97.6241 202.815 95.9069C201.308 94.1499 199.553 90.0487 197.549 83.6032L186.209 47.1382L178.331 49.588L175.733 41.2327L183.611 38.7828L178.73 23.0868L187.408 13.3191L194.294 35.4607L205.096 32.1015L207.694 40.4568L196.892 43.8161L208.417 80.8779C209.37 83.9415 210.161 85.8553 210.792 86.6192C211.462 87.3708 212.295 87.8753 213.291 88.1327C214.327 88.3778 215.641 88.2528 217.233 87.7579C218.426 87.3867 219.955 86.7588 221.818 85.874Z" fill="#2690FF"/>
<path d="M248.627 91.4196L246.37 81.9346C243.08 90.427 237.118 95.7006 228.484 97.7554C224.674 98.6622 220.933 98.7815 217.262 98.1133C213.632 97.4355 210.745 96.1951 208.603 94.3921C206.491 92.5389 204.73 90.0884 203.32 87.0405C202.363 84.9983 201.329 81.6465 200.22 76.985L190.698 36.9774L201.643 34.3728L210.166 70.185C211.526 75.9004 212.665 79.6981 213.584 81.5782C214.958 84.2921 216.957 86.2148 219.582 87.3461C222.198 88.4369 225.147 88.5916 228.43 87.8102C231.714 87.0288 234.596 85.4647 237.079 83.1178C239.552 80.7304 241.033 77.9579 241.524 74.8002C242.045 71.5923 241.65 67.232 240.338 61.7193L232.104 27.1231L243.049 24.5184L258.416 89.0899L248.627 91.4196Z" fill="#2690FF"/>
<path d="M261.767 92.6747L260.556 84.3878C257.344 91.5104 251.698 95.6621 243.617 96.843C238.381 97.6081 233.346 96.87 228.513 94.6286C223.721 92.3812 219.732 88.8584 216.547 84.0603C213.396 79.2149 211.33 73.432 210.348 66.7117C209.39 60.1564 209.615 54.0597 211.023 48.4219C212.425 42.7429 215.103 38.1616 219.058 34.6782C223.012 31.1948 227.69 29.0585 233.091 28.2693C237.049 27.6909 240.698 28.021 244.037 29.2595C247.37 30.4568 250.201 32.2539 252.531 34.6506L247.777 2.12104L258.847 0.503418L272.095 91.1656L261.767 92.6747ZM221.789 65.0399C223.018 73.4506 225.71 79.4789 229.864 83.1249C234.018 86.7709 238.507 88.2414 243.331 87.5365C248.196 86.8256 252.029 84.2442 254.832 79.7922C257.669 75.293 258.492 68.9617 257.299 60.7984C255.986 51.8105 253.29 45.4669 249.212 41.7677C245.135 38.0684 240.56 36.5893 235.489 37.3303C230.541 38.0533 226.693 40.679 223.944 45.2074C221.236 49.7298 220.518 56.3406 221.789 65.0399Z" fill="#2690FF"/>
<path d="M233.659 122.983L231.766 112.516C234.26 113.031 236.423 113.233 238.252 113.121C240.748 112.968 242.719 112.43 244.165 111.507C245.611 110.583 246.767 109.344 247.632 107.788C248.27 106.622 249.243 103.765 250.551 99.2184C250.72 98.5818 250.997 97.6465 251.381 96.4124L222.176 31.5761L234.279 30.8351L250.414 68.3565C252.501 73.1129 254.415 78.1303 256.157 83.4087C257.131 78.1727 258.362 73.0463 259.849 68.0293L271.646 28.547L282.875 27.8595L261.798 96.7765C259.54 104.22 257.746 109.36 256.417 112.197C254.648 116.02 252.526 118.864 250.052 120.727C247.58 122.631 244.556 123.693 240.98 123.912C238.817 124.044 236.377 123.735 233.659 122.983Z" fill="#2690FF"/>
</svg>
