<svg width="1443" height="1441" viewBox="0 0 1443 1441" fill="none" xmlns="http://www.w3.org/2000/svg">
<path d="M1272.9 406.66L1322.05 357.649L1327.49 367.923L1287.83 405.333C1288.53 405.149 1293.1 404.027 1301.53 401.966L1340.83 393.11L1346.24 403.329L1316.87 430.127L1307.2 438.991L1320.31 436.365L1359.55 428.461L1364.67 438.127L1296.3 450.848L1290.83 440.519L1321.01 412.584L1329.81 405.026L1278.4 417.044L1272.9 406.66Z" fill="black"/>
<path d="M1328.75 443.352C1340.13 438.721 1349.85 438.455 1357.91 442.556C1364.61 445.991 1369.51 451.51 1372.6 459.114C1376.04 467.566 1376.07 475.605 1372.7 483.231C1369.36 490.84 1362.81 496.631 1353.05 500.603C1345.13 503.822 1338.41 505.161 1332.89 504.62C1327.41 504.103 1322.5 502.077 1318.13 498.543C1313.79 495.048 1310.52 490.618 1308.34 485.253C1304.84 476.646 1304.77 468.557 1308.12 460.986C1311.49 453.453 1318.36 447.575 1328.75 443.352ZM1333.1 454.063C1325.23 457.265 1320.02 461.385 1317.48 466.421C1314.98 471.442 1314.79 476.557 1316.91 481.768C1319.01 486.94 1322.73 490.442 1328.07 492.276C1333.4 494.11 1340.1 493.386 1348.17 490.105C1355.77 487.012 1360.82 482.936 1363.3 477.877C1365.84 472.84 1366.07 467.756 1363.98 462.622C1361.86 457.412 1358.15 453.882 1352.86 452.033C1347.56 450.183 1340.98 450.86 1333.1 454.063Z" fill="black"/>
<path d="M1319.88 512.401L1383 491.871L1386.14 501.5L1376.57 504.612C1381.84 505.613 1385.53 506.911 1387.63 508.508C1389.74 510.144 1391.2 512.21 1392.01 514.706C1393.18 518.312 1393.22 522.351 1392.14 526.823L1381.01 526.366C1381.71 523.248 1381.63 520.382 1380.78 517.767C1380.02 515.429 1378.62 513.561 1376.59 512.163C1374.6 510.751 1372.22 510.055 1369.47 510.075C1365.28 510.123 1360.93 510.882 1356.41 512.351L1323.36 523.099L1319.88 512.401Z" fill="black"/>
<path d="M1330.26 545.401L1419.1 522.983L1421.85 533.892L1371.19 546.676L1403.88 565.885L1407.44 580.005L1377.36 561.426L1343.71 598.73L1340.32 585.276L1367.86 555.702L1358.52 549.872L1333.01 556.309L1330.26 545.401Z" fill="black"/>
<path d="M1360.78 643.658C1356.13 640.631 1352.44 637.118 1349.7 633.118C1347.01 629.111 1345.27 624.596 1344.49 619.574C1343.04 610.312 1345.02 602.474 1350.42 596.061C1354.84 590.858 1360.2 587.764 1366.49 586.778C1372.09 585.902 1377.42 586.904 1382.46 589.784C1387.56 592.698 1392.37 597.469 1396.91 604.098C1400.97 599.288 1404.35 595.975 1407.06 594.16C1409.77 592.344 1412.48 591.224 1415.2 590.798C1420.63 589.948 1425.68 591.331 1430.34 594.946C1435.04 598.597 1437.9 603.653 1438.91 610.116C1439.87 616.291 1438.77 621.63 1435.59 626.133C1432.43 630.678 1428.19 633.366 1422.88 634.196C1414.27 635.542 1406.03 630.99 1398.15 620.54L1380.01 640.017C1383.92 641.302 1388.35 642.086 1393.28 642.368L1392.62 654.302C1384.41 653.562 1377.48 651.904 1371.85 649.327C1366.98 654.348 1363.09 659.786 1360.17 665.641L1350.17 659.551C1352.35 654.613 1355.89 649.315 1360.78 643.658ZM1404.42 613.677C1408.01 618.049 1410.99 620.768 1413.35 621.832C1415.72 622.938 1418.2 623.288 1420.79 622.883C1423.88 622.4 1426.23 621.019 1427.86 618.74C1429.53 616.496 1430.14 613.913 1429.68 610.99C1429.21 607.985 1427.85 605.625 1425.6 603.911C1423.36 602.238 1420.84 601.62 1418.04 602.058C1416.64 602.277 1415.21 602.859 1413.76 603.803C1412.35 604.782 1410.89 606.128 1409.39 607.839L1404.42 613.677ZM1368.46 635.308L1390.52 610.98C1386 605.53 1382.03 601.997 1378.62 600.381C1375.24 598.758 1372.05 598.181 1369.05 598.651C1365.38 599.225 1361.8 601.282 1358.31 604.823C1354.81 608.364 1353.49 612.81 1354.32 618.162C1354.84 621.496 1356.41 624.772 1359.02 627.991C1361.68 631.244 1364.83 633.683 1368.46 635.308Z" fill="black"/>
<path d="M1370.61 653.8L1373.06 664.792C1368.65 665.697 1365.35 667.639 1363.16 670.616C1360.97 673.636 1360.04 677.702 1360.36 682.817C1360.69 687.974 1361.97 691.734 1364.21 694.097C1366.49 696.458 1369.04 697.549 1371.87 697.37C1374.41 697.209 1376.33 695.981 1377.65 693.685C1378.55 692.083 1379.57 688.177 1380.73 681.967C1382.28 673.602 1383.71 667.771 1385.01 664.475C1386.34 661.217 1388.29 658.672 1390.85 656.841C1393.45 655.048 1396.37 654.049 1399.61 653.844C1402.57 653.657 1405.33 654.15 1407.91 655.323C1410.53 656.534 1412.75 658.252 1414.56 660.475C1415.96 662.14 1417.19 664.442 1418.26 667.381C1419.36 670.359 1420.02 673.573 1420.24 677.025C1420.57 682.223 1420.11 686.823 1418.86 690.827C1417.61 694.872 1415.76 697.912 1413.3 699.946C1410.88 701.978 1407.56 703.483 1403.32 704.461L1401.12 693.577C1404.5 692.863 1407.07 691.239 1408.83 688.706C1410.6 686.215 1411.34 682.786 1411.06 678.42C1410.74 673.263 1409.65 669.637 1407.81 667.541C1405.96 665.445 1403.9 664.469 1401.61 664.614C1400.15 664.706 1398.87 665.246 1397.77 666.235C1396.62 667.226 1395.71 668.724 1395.05 670.728C1394.7 671.877 1393.95 675.244 1392.8 680.827C1391.19 688.904 1389.79 694.545 1388.61 697.751C1387.48 700.995 1385.69 703.593 1383.22 705.544C1380.75 707.496 1377.61 708.592 1373.78 708.834C1370.04 709.071 1366.44 708.193 1362.97 706.199C1359.55 704.245 1356.79 701.267 1354.7 697.266C1352.65 693.262 1351.47 688.662 1351.14 683.464C1350.59 674.856 1351.96 668.173 1355.25 663.414C1358.55 658.696 1363.67 655.492 1370.61 653.8Z" fill="black"/>
<path d="M1363.47 734.789L1353.54 736.413C1352.87 733.246 1352.54 730.413 1352.54 727.913C1352.54 723.83 1353.18 720.663 1354.47 718.413C1355.77 716.163 1357.45 714.58 1359.54 713.663C1361.66 712.747 1366.1 712.289 1372.85 712.289L1411.04 712.291L1411.04 704.041L1419.79 704.042L1419.79 712.292L1436.22 712.293L1442.97 723.481L1419.79 723.479L1419.79 734.792L1411.04 734.791L1411.04 723.479L1372.22 723.477C1369.02 723.476 1366.95 723.664 1366.04 724.039C1365.12 724.455 1364.39 725.101 1363.85 725.976C1363.31 726.893 1363.04 728.184 1363.04 729.851C1363.04 731.101 1363.18 732.747 1363.47 734.789Z" fill="black"/>
<path d="M1350.31 782.618L1360.04 783.279C1352.91 777.615 1349.64 770.356 1350.25 761.502C1350.51 757.594 1351.51 753.987 1353.24 750.68C1354.96 747.414 1357 745.027 1359.36 743.516C1361.76 742.051 1364.62 741.097 1367.95 740.655C1370.19 740.348 1373.69 740.357 1378.47 740.682L1419.5 743.472L1418.74 754.696L1382.01 752.198C1376.15 751.8 1372.19 751.76 1370.12 752.079C1367.12 752.585 1364.69 753.923 1362.83 756.093C1361.01 758.266 1359.99 761.037 1359.76 764.404C1359.53 767.771 1360.17 770.989 1361.67 774.056C1363.22 777.126 1365.42 779.364 1368.29 780.771C1371.2 782.221 1375.48 783.139 1381.14 783.524L1416.62 785.937L1415.85 797.161L1349.63 792.657L1350.31 782.618Z" fill="black"/>
<path d="M1342 837.507L1350.27 838.812C1344.42 833.629 1342.13 827.004 1343.41 818.938C1344.23 813.71 1346.43 809.122 1350.01 805.173C1353.58 801.265 1358.12 798.502 1363.65 796.885C1369.21 795.316 1375.35 795.061 1382.06 796.119C1388.6 797.151 1394.36 799.177 1399.32 802.196C1404.33 805.221 1407.91 809.139 1410.06 813.95C1412.21 818.761 1412.86 823.862 1412.01 829.253C1411.39 833.205 1409.99 836.59 1407.82 839.411C1405.68 842.238 1403.13 844.408 1400.14 845.92L1432.62 851.043L1430.88 862.094L1340.37 847.817L1342 837.507ZM1380.26 807.54C1371.86 806.216 1365.31 806.996 1360.59 809.879C1355.87 812.763 1353.14 816.613 1352.38 821.428C1351.61 826.285 1352.94 830.712 1356.36 834.711C1359.81 838.756 1365.61 841.422 1373.76 842.708C1382.73 844.123 1389.59 843.433 1394.33 840.638C1399.08 837.843 1401.85 833.914 1402.65 828.852C1403.43 823.913 1402.06 819.458 1398.55 815.488C1395.04 811.56 1388.94 808.91 1380.26 807.54Z" fill="black"/>
<path d="M1314.4 843.683L1324.96 844.983C1323.73 847.212 1322.89 849.217 1322.45 850.998C1321.86 853.426 1321.79 855.467 1322.24 857.123C1322.69 858.778 1323.53 860.25 1324.76 861.538C1325.68 862.493 1328.12 864.271 1332.08 866.87C1332.63 867.221 1333.44 867.763 1334.51 868.496L1405.09 859.866L1402.21 871.642L1361.59 875.906C1356.42 876.486 1351.07 876.823 1345.51 876.92C1350.22 879.404 1354.75 882.102 1359.1 885.013L1393.29 908.003L1390.61 918.93L1331.07 878.335C1324.63 873.968 1320.26 870.729 1317.94 868.618C1314.82 865.792 1312.73 862.922 1311.69 860.006C1310.6 857.08 1310.49 853.877 1311.34 850.397C1311.86 848.292 1312.88 846.054 1314.4 843.683Z" fill="black"/>
<path d="M1313.18 937.956L1382.34 943.96L1377.99 954.74L1323.82 948.516C1324.41 948.935 1328.21 951.705 1335.22 956.826L1367.32 981.169L1362.99 991.891L1323.57 986.699L1310.57 985.022L1321.02 993.353L1352.35 1018.26L1348.26 1028.41L1294.47 984.323L1298.85 973.485L1339.66 978.566L1351.11 980.423L1308.79 948.853L1313.18 937.956Z" fill="black"/>
<path d="M1321.12 1004.31C1331.99 1010.03 1338.46 1017.29 1340.52 1026.09C1342.21 1033.43 1341.15 1040.74 1337.33 1048C1333.08 1056.08 1326.95 1061.28 1318.95 1063.61C1310.98 1065.97 1302.33 1064.69 1293 1059.78C1285.44 1055.81 1280.08 1051.53 1276.93 1046.95C1273.8 1042.44 1272.18 1037.37 1272.07 1031.76C1271.95 1026.18 1273.23 1020.83 1275.93 1015.71C1280.25 1007.48 1286.39 1002.21 1294.34 999.898C1302.27 997.619 1311.2 999.089 1321.12 1004.31ZM1315.73 1014.54C1308.21 1010.58 1301.7 1009.26 1296.22 1010.56C1290.77 1011.88 1286.73 1015.03 1284.11 1020.01C1281.51 1024.95 1281.23 1030.05 1283.27 1035.32C1285.3 1040.58 1290.17 1045.23 1297.88 1049.29C1305.15 1053.11 1311.51 1054.34 1316.98 1052.98C1322.47 1051.67 1326.51 1048.57 1329.08 1043.67C1331.7 1038.69 1332.01 1033.58 1330.01 1028.34C1328.02 1023.09 1323.26 1018.5 1315.73 1014.54Z" fill="black"/>
<path d="M1262.61 1042.03L1318.98 1077.06L1313.64 1085.66L1305.09 1080.35C1307.73 1085.03 1309.11 1088.69 1309.24 1091.32C1309.35 1093.99 1308.71 1096.43 1307.32 1098.66C1305.32 1101.88 1302.26 1104.52 1298.14 1106.57L1291.32 1097.77C1294.15 1096.29 1296.29 1094.38 1297.75 1092.05C1299.04 1089.96 1299.57 1087.69 1299.33 1085.23C1299.13 1082.8 1298.13 1080.54 1296.34 1078.45C1293.6 1075.27 1290.22 1072.43 1286.18 1069.92L1256.67 1051.58L1262.61 1042.03Z" fill="black"/>
<path d="M1244.06 1071.23L1318.45 1124.71L1311.88 1133.85L1269.46 1103.35L1275.84 1140.72L1267.34 1152.55L1262.16 1117.57L1211.95 1115.88L1220.05 1104.62L1260.41 1106.62L1258.85 1095.72L1237.49 1080.36L1244.06 1071.23Z" fill="black"/>
<path d="M1188.59 1157.88C1187.91 1152.38 1188.22 1147.29 1189.52 1142.62C1190.84 1137.98 1193.18 1133.74 1196.51 1129.91C1202.66 1122.83 1209.93 1119.29 1218.32 1119.29C1225.14 1119.32 1230.96 1121.42 1235.77 1125.6C1240.05 1129.32 1242.71 1134.03 1243.76 1139.75C1244.82 1145.52 1244.27 1152.28 1242.13 1160.02C1248.42 1160.02 1253.13 1160.47 1256.27 1161.38C1259.4 1162.28 1262.01 1163.63 1264.08 1165.43C1268.24 1169.04 1270.43 1173.79 1270.67 1179.68C1270.91 1185.63 1268.88 1191.07 1264.59 1196.01C1260.49 1200.73 1255.7 1203.33 1250.21 1203.8C1244.69 1204.31 1239.9 1202.8 1235.85 1199.27C1229.27 1193.56 1227.44 1184.32 1230.36 1171.57L1203.77 1170.24C1205.31 1174.06 1207.56 1177.95 1210.53 1181.91L1200.97 1189.09C1196.25 1182.33 1193.05 1175.97 1191.39 1170C1184.42 1169.52 1177.75 1170.05 1171.39 1171.59L1169.6 1160.01C1174.78 1158.5 1181.11 1157.79 1188.59 1157.88ZM1239.64 1171.93C1238.61 1177.5 1238.45 1181.53 1239.16 1184.02C1239.84 1186.54 1241.17 1188.66 1243.15 1190.38C1245.51 1192.43 1248.09 1193.35 1250.88 1193.12C1253.67 1192.95 1256.04 1191.75 1257.98 1189.52C1259.97 1187.22 1260.9 1184.66 1260.76 1181.84C1260.59 1179.04 1259.44 1176.72 1257.3 1174.86C1256.23 1173.93 1254.87 1173.21 1253.21 1172.71C1251.55 1172.26 1249.59 1172.02 1247.31 1171.97L1239.64 1171.93ZM1199.93 1158.37L1232.75 1159.57C1234 1152.6 1234.15 1147.29 1233.18 1143.64C1232.25 1140.01 1230.63 1137.2 1228.34 1135.2C1225.54 1132.77 1221.66 1131.36 1216.7 1130.97C1211.74 1130.58 1207.48 1132.43 1203.93 1136.52C1201.72 1139.07 1200.22 1142.37 1199.44 1146.45C1198.67 1150.58 1198.83 1154.55 1199.93 1158.37Z" fill="black"/>
<path d="M1187.18 1171.94L1180.35 1180.9C1176.82 1178.11 1173.2 1176.84 1169.52 1177.08C1165.8 1177.35 1162.09 1179.26 1158.38 1182.8C1154.65 1186.37 1152.6 1189.78 1152.24 1193.01C1151.9 1196.28 1152.71 1198.93 1154.67 1200.98C1156.43 1202.81 1158.61 1203.5 1161.21 1203.02C1163.02 1202.68 1166.66 1200.95 1172.15 1197.82C1179.56 1193.63 1184.93 1190.96 1188.29 1189.82C1191.64 1188.75 1194.84 1188.6 1197.89 1189.37C1200.94 1190.2 1203.58 1191.8 1205.83 1194.14C1207.88 1196.28 1209.28 1198.71 1210.05 1201.44C1210.81 1204.23 1210.93 1207.03 1210.39 1209.85C1210.02 1211.99 1209.06 1214.42 1207.49 1217.12C1205.93 1219.89 1203.9 1222.47 1201.4 1224.86C1197.64 1228.46 1193.82 1231.07 1189.96 1232.7C1186.06 1234.35 1182.54 1234.89 1179.4 1234.32C1176.29 1233.78 1172.99 1232.21 1169.51 1229.59L1176.42 1220.9C1179.15 1223.03 1182.04 1223.95 1185.11 1223.66C1188.16 1223.4 1191.26 1221.76 1194.42 1218.74C1198.15 1215.16 1200.22 1212 1200.64 1209.24C1201.05 1206.47 1200.47 1204.27 1198.88 1202.61C1197.87 1201.56 1196.64 1200.93 1195.17 1200.72C1193.67 1200.48 1191.94 1200.75 1189.98 1201.53C1188.88 1202.01 1185.82 1203.61 1180.81 1206.33C1173.59 1210.29 1168.38 1212.86 1165.17 1214.03C1161.96 1215.25 1158.81 1215.55 1155.73 1214.93C1152.65 1214.3 1149.79 1212.6 1147.14 1209.83C1144.54 1207.12 1142.89 1203.8 1142.18 1199.86C1141.47 1195.99 1141.97 1191.96 1143.69 1187.78C1145.43 1183.64 1148.18 1179.76 1151.94 1176.16C1158.17 1170.2 1164.17 1166.94 1169.93 1166.39C1175.66 1165.87 1181.41 1167.72 1187.18 1171.94Z" fill="black"/>
<path d="M1120.64 1218.67L1113 1212.12C1114.99 1209.57 1116.94 1207.49 1118.85 1205.88C1121.98 1203.25 1124.81 1201.7 1127.37 1201.24C1129.92 1200.78 1132.22 1201.05 1134.26 1202.05C1136.33 1203.08 1139.54 1206.18 1143.89 1211.34L1168.5 1240.54L1174.81 1235.23L1180.45 1241.92L1174.14 1247.23L1184.73 1259.8L1180.52 1272.18L1165.58 1254.44L1156.93 1261.73L1151.29 1255.04L1159.94 1247.75L1134.93 1218.07C1132.87 1215.62 1131.39 1214.16 1130.52 1213.7C1129.61 1213.27 1128.64 1213.13 1127.63 1213.28C1126.58 1213.46 1125.41 1214.08 1124.14 1215.16C1123.18 1215.96 1122.02 1217.13 1120.64 1218.67Z" fill="black"/>
<path d="M1075.59 1239.43L1081.36 1247.3C1081.09 1238.19 1084.54 1231.02 1091.7 1225.77C1094.86 1223.46 1098.26 1221.9 1101.9 1221.09C1105.51 1220.3 1108.65 1220.32 1111.32 1221.15C1113.99 1222.04 1116.56 1223.62 1119.05 1225.88C1120.72 1227.39 1122.97 1230.08 1125.81 1233.94L1150.11 1267.11L1141.04 1273.76L1119.28 1244.07C1115.81 1239.33 1113.28 1236.27 1111.71 1234.9C1109.39 1232.93 1106.8 1231.93 1103.94 1231.91C1101.11 1231.92 1098.33 1232.92 1095.61 1234.92C1092.88 1236.91 1090.83 1239.47 1089.46 1242.6C1088.11 1245.76 1087.82 1248.89 1088.59 1251.99C1089.36 1255.15 1091.41 1259.01 1094.76 1263.58L1115.78 1292.27L1106.71 1298.92L1067.48 1245.38L1075.59 1239.43Z" fill="black"/>
<path d="M1028.26 1268.44L1032.59 1275.61C1032.79 1267.8 1036.38 1261.78 1043.37 1257.56C1047.9 1254.82 1052.82 1253.54 1058.15 1253.73C1063.44 1253.94 1068.48 1255.64 1073.28 1258.83C1078.06 1262.07 1082.21 1266.6 1085.73 1272.41C1089.15 1278.08 1091.31 1283.78 1092.2 1289.52C1093.12 1295.3 1092.43 1300.56 1090.14 1305.31C1087.84 1310.05 1084.36 1313.84 1079.69 1316.66C1076.27 1318.73 1072.78 1319.85 1069.22 1320C1065.68 1320.19 1062.38 1319.63 1059.3 1318.33L1076.31 1346.46L1066.74 1352.25L1019.33 1273.84L1028.26 1268.44ZM1075.83 1278.39C1071.43 1271.12 1066.61 1266.61 1061.37 1264.86C1056.12 1263.11 1051.42 1263.5 1047.25 1266.02C1043.04 1268.57 1040.51 1272.43 1039.65 1277.62C1038.79 1282.87 1040.49 1289.03 1044.75 1296.09C1049.45 1303.86 1054.4 1308.66 1059.59 1310.48C1064.79 1312.31 1069.58 1311.9 1073.96 1309.24C1078.24 1306.66 1080.77 1302.74 1081.55 1297.5C1082.29 1292.28 1080.38 1285.91 1075.83 1278.39Z" fill="black"/>
<path d="M1005.76 1251.32L1011.56 1260.23C1009.06 1260.73 1006.99 1261.38 1005.35 1262.2C1003.11 1263.31 1001.5 1264.57 1000.53 1265.98C999.555 1267.39 998.971 1268.98 998.778 1270.75C998.643 1272.07 998.855 1275.08 999.415 1279.78C999.506 1280.44 999.614 1281.4 999.739 1282.69L1051.83 1331.1L1040.96 1336.48L1011.52 1308.17C1007.75 1304.6 1004.04 1300.72 1000.39 1296.53C1001.52 1301.73 1002.38 1306.93 1002.95 1312.14L1007.41 1353.1L997.331 1358.09L989.998 1286.4C989.189 1278.66 988.846 1273.23 988.97 1270.1C989.116 1265.89 989.968 1262.45 991.524 1259.77C993.063 1257.05 995.437 1254.9 998.648 1253.31C1000.59 1252.35 1002.96 1251.69 1005.76 1251.32Z" fill="black"/>
<path d="M932.882 1311.15L972.856 1367.89L961.809 1371.51L931.66 1326.08C931.722 1326.81 932.054 1331.5 932.656 1340.16L934.727 1380.39L923.739 1383.99L902.305 1350.5L895.206 1339.48L895.574 1352.84L896.716 1392.85L886.322 1396.25L885.368 1326.72L896.475 1323.08L918.892 1357.56L924.85 1367.51L921.716 1314.81L932.882 1311.15Z" fill="black"/>
<path d="M887.26 1359.97C889.895 1371.97 888.51 1381.6 883.104 1388.84C878.583 1394.87 872.313 1398.76 864.296 1400.52C855.383 1402.48 847.455 1401.15 840.512 1396.53C833.577 1391.95 828.98 1384.51 826.719 1374.22C824.888 1365.87 824.707 1359.02 826.176 1353.67C827.613 1348.36 830.443 1343.86 834.664 1340.16C838.845 1336.47 843.764 1334 849.421 1332.76C858.497 1330.77 866.481 1332.07 873.375 1336.65C880.228 1341.25 884.856 1349.02 887.26 1359.97ZM875.966 1362.45C874.144 1354.14 870.966 1348.32 866.432 1344.96C861.908 1341.64 856.899 1340.59 851.404 1341.8C845.951 1342.99 841.869 1346.06 839.158 1351.01C836.447 1355.96 836.025 1362.68 837.892 1371.19C839.652 1379.21 842.815 1384.87 847.38 1388.17C851.913 1391.53 856.886 1392.61 862.299 1391.43C867.793 1390.22 871.9 1387.16 874.62 1382.26C877.34 1377.35 877.789 1370.75 875.966 1362.45Z" fill="black"/>
<path d="M820.71 1339.54L830.249 1405.22L820.229 1406.68L818.783 1396.72C816.903 1401.75 814.999 1405.16 813.071 1406.96C811.101 1408.76 808.817 1409.85 806.219 1410.23C802.467 1410.77 798.479 1410.13 794.256 1408.3L796.591 1397.42C799.546 1398.63 802.384 1399.04 805.105 1398.64C807.538 1398.29 809.616 1397.23 811.338 1395.46C813.066 1393.74 814.154 1391.52 814.602 1388.8C815.264 1384.66 815.254 1380.24 814.571 1375.54L809.577 1341.15L820.71 1339.54Z" fill="black"/>
<path d="M786.428 1344.17L793.472 1435.52L782.255 1436.39L778.239 1384.29L753.768 1413.26L739.248 1414.38L762.655 1387.88L731.591 1348.4L745.425 1347.33L769.906 1379.48L777.234 1371.27L775.212 1345.03L786.428 1344.17Z" fill="black"/>
<path d="M684.422 1357.61C688.192 1353.54 692.28 1350.49 696.685 1348.48C701.091 1346.5 705.835 1345.55 710.917 1345.63C720.291 1345.77 727.68 1349.05 733.084 1355.46C737.465 1360.7 739.607 1366.5 739.511 1372.87C739.425 1378.54 737.536 1383.62 733.843 1388.1C730.108 1392.63 724.59 1396.57 717.289 1399.92C721.342 1404.73 724.033 1408.62 725.364 1411.6C726.694 1414.58 727.338 1417.45 727.297 1420.2C727.214 1425.69 724.997 1430.43 720.645 1434.41C716.251 1438.43 710.783 1440.39 704.242 1440.29C697.993 1440.19 692.918 1438.2 689.018 1434.31C685.076 1430.41 683.145 1425.78 683.226 1420.41C683.357 1411.7 689.24 1404.35 700.873 1398.36L684.752 1377.17C682.822 1380.81 681.3 1385.04 680.186 1389.86L668.537 1387.18C670.657 1379.21 673.465 1372.67 676.959 1367.56C672.835 1361.91 668.135 1357.15 662.859 1353.28L670.556 1344.46C675.053 1347.44 679.675 1351.82 684.422 1357.61ZM706.575 1405.69C701.658 1408.5 698.474 1410.97 697.025 1413.11C695.534 1415.26 694.769 1417.64 694.73 1420.27C694.683 1423.39 695.644 1425.95 697.615 1427.94C699.543 1429.97 701.986 1431 704.944 1431.05C707.985 1431.09 710.541 1430.15 712.612 1428.22C714.641 1426.3 715.677 1423.92 715.72 1421.08C715.741 1419.67 715.41 1418.16 714.725 1416.57C713.999 1415.02 712.919 1413.35 711.487 1411.58L706.575 1405.69ZM691.35 1366.59L711.588 1392.46C717.725 1388.92 721.879 1385.61 724.051 1382.52C726.222 1379.47 727.331 1376.42 727.377 1373.38C727.432 1369.67 726.012 1365.79 723.114 1361.75C720.216 1357.71 716.059 1355.64 710.643 1355.56C707.268 1355.51 703.774 1356.5 700.16 1358.53C696.503 1360.6 693.566 1363.29 691.35 1366.59Z" fill="black"/>
<path d="M672.761 1365.58L661.513 1366.13C661.367 1361.63 660.013 1358.05 657.45 1355.39C654.845 1352.72 650.995 1351.11 645.899 1350.56C640.762 1350.01 636.839 1350.64 634.131 1352.44C631.418 1354.29 629.911 1356.62 629.608 1359.43C629.336 1361.96 630.221 1364.07 632.26 1365.75C633.686 1366.91 637.362 1368.59 643.287 1370.77C651.267 1373.73 656.772 1376.12 659.802 1377.95C662.786 1379.83 664.964 1382.18 666.336 1385C667.663 1387.87 668.152 1390.92 667.805 1394.15C667.489 1397.09 666.534 1399.74 664.941 1402.08C663.303 1404.46 661.234 1406.35 658.736 1407.76C656.858 1408.86 654.381 1409.68 651.305 1410.23C648.183 1410.82 644.902 1410.93 641.464 1410.56C636.285 1410 631.829 1408.77 628.095 1406.86C624.32 1404.94 621.638 1402.6 620.05 1399.83C618.457 1397.1 617.538 1393.57 617.292 1389.23L628.389 1388.91C628.521 1392.36 629.686 1395.17 631.884 1397.33C634.041 1399.49 637.294 1400.8 641.644 1401.27C646.781 1401.82 650.539 1401.37 652.917 1399.91C655.295 1398.44 656.607 1396.57 656.852 1394.29C657.008 1392.84 656.692 1391.49 655.905 1390.23C655.123 1388.93 653.801 1387.79 651.938 1386.79C650.864 1386.25 647.673 1384.95 642.365 1382.87C634.679 1379.91 629.356 1377.57 626.396 1375.87C623.39 1374.21 621.134 1372 619.629 1369.24C618.123 1366.48 617.575 1363.19 617.985 1359.38C618.385 1355.65 619.862 1352.25 622.414 1349.17C624.919 1346.13 628.321 1343.92 632.618 1342.53C636.911 1341.19 641.647 1340.8 646.825 1341.36C655.401 1342.28 661.755 1344.76 665.888 1348.81C669.979 1352.86 672.27 1358.45 672.761 1365.58Z" fill="black"/>
<path d="M594.152 1344.82L594.235 1334.75C597.469 1334.63 600.318 1334.78 602.781 1335.21C606.806 1335.9 609.817 1337.07 611.816 1338.73C613.814 1340.38 615.089 1342.31 615.639 1344.52C616.182 1346.77 615.882 1351.22 614.738 1357.87L608.266 1395.51L616.397 1396.91L614.914 1405.53L606.783 1404.13L603.998 1420.33L591.828 1425.09L595.758 1402.24L584.609 1400.32L586.092 1391.7L597.241 1393.61L603.818 1355.36C604.362 1352.2 604.527 1350.13 604.312 1349.17C604.057 1348.19 603.544 1347.37 602.774 1346.68C601.962 1345.99 600.735 1345.51 599.092 1345.23C597.861 1345.01 596.214 1344.88 594.152 1344.82Z" fill="black"/>
<path d="M549.245 1323.75L546.944 1333.22C553.735 1327.15 561.442 1325.17 570.066 1327.26C573.873 1328.18 577.259 1329.78 580.225 1332.04C583.151 1334.3 585.158 1336.71 586.247 1339.29C587.286 1341.9 587.741 1344.89 587.612 1348.24C587.537 1350.5 586.934 1353.95 585.803 1358.61L576.102 1398.57L565.17 1395.92L573.854 1360.14C575.239 1354.44 575.951 1350.53 575.987 1348.44C575.996 1345.4 575.089 1342.78 573.265 1340.58C571.431 1338.42 568.874 1336.94 565.595 1336.14C562.315 1335.35 559.036 1335.43 555.758 1336.39C552.471 1337.4 549.891 1339.19 548.019 1341.78C546.096 1344.4 544.467 1348.47 543.13 1353.97L534.741 1388.53L523.808 1385.88L539.466 1321.38L549.245 1323.75Z" fill="black"/>
<path d="M496.558 1306.25L493.87 1314.18C499.968 1309.3 506.885 1308.17 514.62 1310.79C519.631 1312.49 523.781 1315.43 527.067 1319.63C530.314 1323.81 532.266 1328.76 532.923 1334.48C533.527 1340.23 532.74 1346.32 530.56 1352.75C528.434 1359.02 525.463 1364.35 521.646 1368.73C517.817 1373.15 513.349 1376.02 508.243 1377.32C503.137 1378.63 498 1378.41 492.83 1376.65C489.042 1375.37 485.942 1373.42 483.53 1370.8C481.105 1368.22 479.4 1365.33 478.415 1362.14L467.865 1393.27L457.269 1389.68L486.672 1302.9L496.558 1306.25ZM519.609 1349.04C522.337 1340.99 522.679 1334.39 520.636 1329.26C518.592 1324.12 515.262 1320.77 510.645 1319.21C505.988 1317.63 501.4 1318.19 496.881 1320.88C492.308 1323.6 488.698 1328.86 486.051 1336.68C483.136 1345.28 482.654 1352.16 484.605 1357.3C486.556 1362.45 489.958 1365.85 494.812 1367.49C499.548 1369.1 504.169 1368.51 508.676 1365.72C513.143 1362.93 516.788 1357.36 519.609 1349.04Z" fill="black"/>
<path d="M495.147 1278.01L492.076 1288.2C490.089 1286.6 488.254 1285.44 486.573 1284.71C484.281 1283.71 482.281 1283.29 480.573 1283.46C478.865 1283.62 477.272 1284.2 475.795 1285.2C474.696 1285.94 472.531 1288.05 469.3 1291.5C468.859 1291.99 468.188 1292.7 467.285 1293.63L463.833 1364.65L452.716 1359.81L455.395 1319.06C455.699 1313.87 456.274 1308.53 457.12 1303.04C453.874 1307.26 450.448 1311.27 446.842 1315.06L418.39 1344.87L408.076 1340.38L458.172 1288.57C463.566 1282.96 467.499 1279.2 469.973 1277.28C473.287 1274.67 476.469 1273.11 479.519 1272.57C482.587 1272 485.763 1272.43 489.048 1273.86C491.035 1274.72 493.068 1276.11 495.147 1278.01Z" fill="black"/>
<path d="M402.44 1260.84L384.808 1327.98L374.921 1321.86L390.232 1269.53C389.718 1270.05 386.344 1273.32 380.11 1279.36L350.681 1306.87L340.847 1300.79L352.643 1262.82L356.498 1250.29L346.517 1259.18L316.66 1285.84L307.357 1280.08L359.914 1234.54L369.854 1240.69L357.933 1280.05L354.163 1291.02L392.447 1254.66L402.44 1260.84Z" fill="black"/>
<path d="M335.707 1257.42C328.225 1267.17 319.973 1272.31 310.949 1272.85C303.428 1273.27 296.411 1270.99 289.898 1265.99C282.658 1260.44 278.567 1253.52 277.624 1245.23C276.656 1236.98 279.38 1228.67 285.797 1220.31C290.996 1213.53 296.117 1208.98 301.16 1206.65C306.144 1204.33 311.41 1203.59 316.96 1204.43C322.476 1205.25 327.532 1207.42 332.127 1210.95C339.499 1216.6 343.652 1223.55 344.588 1231.77C345.49 1239.98 342.53 1248.52 335.707 1257.42ZM326.533 1250.38C331.707 1243.63 334.117 1237.45 333.762 1231.82C333.381 1226.22 330.959 1221.71 326.496 1218.29C322.067 1214.89 317.087 1213.75 311.558 1214.86C306.029 1215.98 300.614 1219.99 295.313 1226.9C290.317 1233.41 288.025 1239.48 288.439 1245.1C288.794 1250.73 291.17 1255.23 295.567 1258.6C300.03 1262.03 305.013 1263.2 310.517 1262.12C316.021 1261.03 321.359 1257.12 326.533 1250.38Z" fill="black"/>
<path d="M308.442 1193.36L264.362 1242.99L256.793 1236.26L263.475 1228.74C258.417 1230.54 254.58 1231.29 251.964 1230.97C249.317 1230.63 247.012 1229.58 245.049 1227.84C242.214 1225.32 240.135 1221.86 238.812 1217.45L248.641 1212.22C249.618 1215.26 251.134 1217.69 253.19 1219.52C255.028 1221.15 257.177 1222.06 259.637 1222.24C262.07 1222.45 264.469 1221.85 266.836 1220.44C270.427 1218.28 273.799 1215.42 276.954 1211.87L300.032 1185.89L308.442 1193.36Z" fill="black"/>
<path d="M282.809 1170.13L217.493 1234.39L209.603 1226.37L246.85 1189.73L208.93 1189.68L198.718 1179.3L234.068 1180.12L244.237 1130.93L253.967 1140.82L245.16 1180.26L256.162 1180.57L274.919 1162.11L282.809 1170.13Z" fill="black"/>
<path d="M206.8 1100.79C212.34 1101.05 217.302 1102.22 221.683 1104.29C226.033 1106.38 229.816 1109.4 233.033 1113.33C238.966 1120.59 241.221 1128.35 239.798 1136.62C238.619 1143.34 235.562 1148.72 230.626 1152.76C226.238 1156.34 221.139 1158.17 215.328 1158.24C209.459 1158.3 202.892 1156.62 195.626 1153.19C194.558 1159.39 193.315 1163.96 191.894 1166.9C190.474 1169.83 188.699 1172.17 186.57 1173.91C182.311 1177.39 177.259 1178.75 171.414 1177.99C165.51 1177.21 160.488 1174.3 156.348 1169.23C152.393 1164.39 150.647 1159.23 151.11 1153.74C151.546 1148.21 153.846 1143.75 158.007 1140.35C164.75 1134.84 174.161 1134.6 186.24 1139.63L192.048 1113.66C188.023 1114.52 183.809 1116.09 179.408 1118.34L173.947 1107.71C181.407 1104.19 188.218 1102.12 194.381 1101.5C196.04 1094.71 196.651 1088.05 196.211 1081.52L207.917 1081.72C208.533 1087.08 208.161 1093.44 206.8 1100.79ZM184.304 1148.72C178.993 1146.77 175.051 1145.93 172.477 1146.2C169.876 1146.44 167.56 1147.39 165.527 1149.06C163.107 1151.03 161.772 1153.42 161.522 1156.2C161.213 1158.99 161.994 1161.52 163.866 1163.81C165.791 1166.17 168.158 1167.52 170.966 1167.86C173.748 1168.17 176.236 1167.42 178.43 1165.63C179.527 1164.74 180.464 1163.51 181.242 1161.96C181.961 1160.41 182.536 1158.51 182.968 1156.27L184.304 1148.72ZM204.397 1111.88L197.658 1144.02C204.314 1146.44 209.525 1147.48 213.289 1147.15C217.021 1146.84 220.065 1145.73 222.42 1143.8C225.291 1141.46 227.339 1137.87 228.564 1133.05C229.789 1128.23 228.688 1123.72 225.26 1119.53C223.124 1116.91 220.115 1114.88 216.235 1113.42C212.295 1111.96 208.349 1111.44 204.397 1111.88Z" fill="black"/>
<path d="M193.187 1097.01L185.517 1088.77C188.864 1085.76 190.73 1082.41 191.115 1078.74C191.477 1075.03 190.226 1071.04 187.36 1066.8C184.472 1062.51 181.465 1059.92 178.34 1059.01C175.181 1058.12 172.426 1058.47 170.077 1060.06C167.97 1061.48 166.929 1063.51 166.954 1066.16C166.987 1067.99 168.076 1071.88 170.222 1077.82C173.107 1085.83 174.824 1091.58 175.374 1095.08C175.866 1098.57 175.473 1101.75 174.193 1104.62C172.856 1107.48 170.84 1109.82 168.146 1111.64C165.693 1113.29 163.057 1114.26 160.239 1114.56C157.363 1114.84 154.582 1114.48 151.895 1113.47C149.846 1112.74 147.62 1111.38 145.217 1109.38C142.757 1107.37 140.56 1104.93 138.627 1102.07C135.715 1097.75 133.786 1093.55 132.84 1089.46C131.871 1085.34 131.933 1081.78 133.027 1078.78C134.086 1075.81 136.197 1072.82 139.359 1069.84L146.753 1078.12C144.199 1080.44 142.804 1083.14 142.565 1086.22C142.304 1089.26 143.396 1092.59 145.842 1096.22C148.73 1100.51 151.5 1103.09 154.151 1103.96C156.802 1104.84 159.078 1104.63 160.978 1103.35C162.187 1102.54 163.019 1101.42 163.474 1100.01C163.963 1098.58 163.989 1096.83 163.55 1094.76C163.267 1093.59 162.21 1090.31 160.379 1084.91C157.691 1077.13 156.044 1071.55 155.437 1068.19C154.773 1064.82 155.01 1061.67 156.151 1058.74C157.291 1055.81 159.45 1053.28 162.629 1051.13C165.738 1049.04 169.292 1047.97 173.29 1047.94C177.231 1047.9 181.114 1049.07 184.94 1051.47C188.732 1053.89 192.083 1057.25 194.995 1061.57C199.817 1068.72 202.012 1075.18 201.58 1080.95C201.124 1086.69 198.327 1092.04 193.187 1097.01Z" fill="black"/>
<path d="M158.403 1023.53L166.155 1017.1C168.331 1019.5 170.051 1021.77 171.315 1023.93C173.379 1027.45 174.423 1030.51 174.446 1033.11C174.469 1035.7 173.813 1037.92 172.479 1039.76C171.109 1041.63 167.512 1044.27 161.688 1047.68L128.739 1066.98L132.91 1074.1L125.36 1078.53L121.19 1071.41L107.007 1079.72L95.5277 1073.48L115.534 1061.76L109.815 1051.99L117.365 1047.57L123.084 1057.33L156.572 1037.71C159.34 1036.09 161.025 1034.88 161.626 1034.1C162.206 1033.28 162.509 1032.35 162.534 1031.32C162.538 1030.26 162.119 1029 161.276 1027.57C160.644 1026.49 159.686 1025.14 158.403 1023.53Z" fill="black"/>
<path d="M145.574 975.609L136.846 979.956C145.863 981.237 152.35 985.849 156.307 993.793C158.053 997.299 159.017 1000.92 159.198 1004.64C159.36 1008.33 158.805 1011.42 157.535 1013.92C156.208 1016.4 154.22 1018.67 151.571 1020.73C149.798 1022.13 146.768 1023.89 142.479 1026.03L105.668 1044.36L100.652 1034.29L133.603 1017.88C138.861 1015.26 142.302 1013.29 143.925 1011.97C146.258 1010.02 147.677 1007.63 148.185 1004.82C148.655 1002.03 148.137 999.119 146.633 996.098C145.128 993.077 142.951 990.624 140.103 988.737C137.218 986.87 134.182 986.054 130.995 986.292C127.752 986.511 123.595 987.883 118.523 990.41L86.6907 1006.27L81.6747 996.196L141.087 966.602L145.574 975.609Z" fill="black"/>
<path d="M125 924.045L117.203 927.102C124.868 928.617 130.191 933.177 133.172 940.78C135.103 945.707 135.524 950.778 134.436 955.993C133.332 961.169 130.805 965.852 126.853 970.042C122.847 974.208 117.682 977.53 111.359 980.009C105.191 982.427 99.2021 983.589 93.3919 983.494C87.5429 983.415 82.4741 981.844 78.1855 978.782C73.8968 975.719 70.7565 971.647 68.7644 966.565C67.3046 962.841 66.7996 959.212 67.2496 955.679C67.6608 952.161 68.7698 948.997 70.5766 946.185L39.9693 958.183L35.8862 947.767L121.191 914.328L125 924.045ZM107.139 969.244C115.053 966.142 120.315 962.155 122.925 957.283C125.536 952.411 125.951 947.705 124.172 943.167C122.377 938.589 118.995 935.44 114.024 933.719C108.999 931.974 102.646 932.607 94.9647 935.618C86.508 938.933 80.9398 942.995 78.2604 947.805C75.5809 952.615 75.1764 957.405 77.0468 962.177C78.8716 966.832 82.3007 969.985 87.3341 971.637C92.3524 973.251 98.9541 972.453 107.139 969.244Z" fill="black"/>
<path d="M145.685 904.767L135.92 908.981C135.856 906.435 135.563 904.283 135.039 902.526C134.325 900.131 133.355 898.333 132.128 897.133C130.901 895.934 129.432 895.089 127.72 894.599C126.44 894.242 123.437 893.941 118.712 893.697C118.054 893.676 117.08 893.618 115.791 893.524L59.2553 936.656L55.7922 925.036L88.6836 900.82C92.8438 897.711 97.2971 894.71 102.044 891.817C96.7232 892.055 91.4513 892.017 86.2277 891.704L45.0996 889.158L41.8864 878.376L113.786 883.296C121.548 883.808 126.961 884.391 130.024 885.043C134.15 885.901 137.4 887.323 139.775 889.311C142.19 891.287 143.909 893.992 144.932 897.426C145.551 899.502 145.802 901.949 145.685 904.767Z" fill="black"/>
<path d="M99.0745 822.813L36.3749 852.595L34.6782 841.095L84.5615 819.078C83.8365 819.017 79.1556 818.549 70.5189 817.675L30.5186 812.9L28.831 801.461L65.4683 786.011L77.5364 780.882L64.3047 778.98L24.6804 773.328L23.084 762.508L91.7768 773.348L93.4826 784.91L55.6999 801.161L44.8826 805.348L97.3595 811.188L99.0745 822.813Z" fill="black"/>
<path d="M58.6864 769.578C46.4076 770.141 37.1564 767.145 30.9327 760.59C25.7596 755.113 22.9848 748.275 22.6086 740.075C22.1903 730.96 24.8453 723.372 30.5735 717.311C36.26 711.253 44.3686 707.982 54.8992 707.498C63.4319 707.107 70.2132 708.089 75.2431 710.444C80.2295 712.759 84.1881 716.311 87.119 721.098C90.0479 725.844 91.6452 731.11 91.9107 736.895C92.3366 746.177 89.7053 753.827 84.0168 759.844C78.3264 765.819 69.8829 769.064 58.6864 769.578ZM58.1564 758.027C66.6474 757.638 72.9307 755.493 77.0063 751.594C81.0402 747.696 82.9282 742.938 82.6704 737.319C82.4144 731.742 80.0787 727.198 75.6632 723.689C71.2477 720.179 64.6903 718.624 55.9911 719.023C47.7914 719.399 41.6756 721.557 37.6436 725.496C33.568 729.395 31.6573 734.113 31.9113 739.648C32.1691 745.268 34.485 749.833 38.8589 753.344C43.2328 756.856 49.6653 758.417 58.1564 758.027Z" fill="black"/>
<path d="M90.0966 707.452L23.744 705.725L24.0074 695.603L34.0665 695.865C29.427 693.16 26.3857 690.705 24.9425 688.5C23.5005 686.254 22.8136 683.818 22.8819 681.194C22.9805 677.404 24.2887 673.582 26.8064 669.73L37.1396 673.875C35.4436 676.582 34.5599 679.31 34.4883 682.059C34.4244 684.516 35.1167 686.744 36.5652 688.74C37.9721 690.736 39.9768 692.184 42.5792 693.086C46.5453 694.439 50.9026 695.178 55.651 695.301L90.3892 696.205L90.0966 707.452Z" fill="black"/>
<path d="M91.3389 672.881L0.112305 664.346L1.16028 653.145L53.1831 658.012L28.7807 628.988L30.1372 614.489L52.2914 642.047L96.4623 618.12L95.1698 631.935L59.3363 650.616L66.1888 659.229L92.3869 661.68L91.3389 672.881Z" fill="black"/>
<path d="M95.3777 570.073C98.7489 574.478 101.055 579.022 102.297 583.706C103.498 588.382 103.63 593.219 102.693 598.215C100.966 607.43 96.4836 614.156 89.2454 618.395C83.3459 621.826 77.2631 622.953 70.9972 621.779C65.4276 620.735 60.7447 618.013 56.9486 613.614C53.1192 609.165 50.1727 603.06 48.1092 595.297C42.6806 598.476 38.3858 600.469 35.2248 601.275C32.0638 602.082 29.1318 602.232 26.4289 601.725C21.023 600.712 16.7292 597.724 13.5473 592.761C10.3322 587.75 9.32719 582.029 10.5323 575.599C11.6838 569.456 14.5079 564.793 19.0049 561.608C23.5095 558.383 28.4033 557.265 33.6863 558.256C42.2456 559.86 48.4927 566.902 52.4275 579.382L76.0349 567.083C72.7764 564.565 68.8678 562.349 64.3091 560.434L68.9194 549.408C76.4141 552.847 82.3858 556.722 86.8346 561.032C93.0976 557.924 98.5838 554.099 103.293 549.555L110.684 558.635C106.981 562.561 101.879 566.374 95.3777 570.073ZM44.2308 583.76C42.3031 578.438 40.405 574.882 38.5364 573.091C36.6754 571.258 34.455 570.1 31.8749 569.616C28.8034 569.041 26.121 569.555 23.8277 571.16C21.5012 572.717 20.0654 574.949 19.5204 577.856C18.96 580.846 19.4542 583.525 21.0029 585.892C22.5592 588.219 24.7298 589.643 27.5147 590.165C28.9071 590.426 30.4467 590.354 32.1334 589.95C33.7868 589.496 35.6079 588.714 37.5966 587.603L44.2308 583.76ZM85.3535 575.38L56.4288 590.942C58.8711 597.589 61.4322 602.245 64.1122 604.909C66.7513 607.566 69.5657 609.175 72.5553 609.735C76.2001 610.418 80.2608 609.674 84.7374 607.504C89.2139 605.333 91.9511 601.585 92.949 596.261C93.5708 592.944 93.1879 589.333 91.8004 585.427C90.3796 581.472 88.2306 578.123 85.3535 575.38Z" fill="black"/>
<path d="M89.494 557.229L90.8562 546.05C95.3153 546.669 99.0749 545.941 102.135 543.866C105.206 541.751 107.443 538.229 108.846 533.3C110.26 528.33 110.308 524.358 108.988 521.383C107.629 518.397 105.587 516.516 102.862 515.741C100.417 515.045 98.1911 515.56 96.184 517.284C94.8002 518.493 92.5285 521.832 89.3691 527.301C85.107 534.666 81.8154 539.686 79.4945 542.361C77.1448 544.985 74.4595 546.733 71.4384 547.606C68.3887 548.428 65.3009 548.394 62.1751 547.504C59.3297 546.694 56.8873 545.306 54.8478 543.339C52.7796 541.321 51.2634 538.961 50.2991 536.261C49.5358 534.224 49.144 531.643 49.1237 528.518C49.0746 525.342 49.5235 522.091 50.4702 518.765C51.8959 513.755 53.8662 509.572 56.3811 506.216C58.9073 502.819 61.6694 500.573 64.6673 499.477C67.6252 498.369 71.2649 498.062 75.5866 498.556L74.0181 509.546C70.5951 509.092 67.6311 509.764 65.1261 511.564C62.6325 513.324 60.7869 516.307 59.5893 520.515C58.1749 525.485 57.987 529.265 59.0256 531.857C60.0642 534.448 61.6855 536.058 63.8897 536.685C65.2923 537.084 66.6801 537.003 68.0531 536.44C69.4663 535.889 70.8216 534.781 72.1191 533.114C72.8278 532.146 74.6563 529.222 77.6046 524.343C81.8269 517.27 85.0271 512.419 87.205 509.79C89.3542 507.109 91.9164 505.261 94.8915 504.245C97.8667 503.229 101.198 503.245 104.885 504.295C108.491 505.321 111.595 507.353 114.197 510.389C116.77 513.374 118.373 517.101 119.007 521.571C119.601 526.029 119.186 530.762 117.76 535.772C115.399 544.067 111.873 549.909 107.184 553.296C102.505 556.643 96.6089 557.954 89.494 557.229Z" fill="black"/>
<path d="M123.272 483.274L133.181 485.061C132.752 488.268 132.12 491.05 131.285 493.407C129.921 497.256 128.255 500.025 126.286 501.714C124.317 503.404 122.198 504.332 119.928 504.501C117.619 504.655 113.283 503.605 106.92 501.351L70.9257 488.596L68.1703 496.373L59.9228 493.45L62.6782 485.674L47.1845 480.184L44.5586 467.385L66.4146 475.129L70.1928 464.466L78.4404 467.388L74.6622 478.051L111.246 491.014C114.27 492.086 116.277 492.598 117.266 492.551C118.269 492.464 119.172 492.099 119.975 491.455C120.792 490.772 121.478 489.645 122.035 488.074C122.453 486.896 122.865 485.295 123.272 483.274Z" fill="black"/>
<path d="M151.646 442.584L142.698 438.712C147.529 446.432 148.183 454.365 144.658 462.51C143.103 466.105 140.958 469.172 138.225 471.712C135.508 474.214 132.786 475.783 130.059 476.419C127.311 477 124.293 476.943 121.008 476.248C118.799 475.792 115.496 474.612 111.098 472.709L73.355 456.378L77.8226 446.053L111.608 460.672C117 463.005 120.724 464.366 122.779 464.756C125.776 465.281 128.513 464.831 130.991 463.406C133.43 461.965 135.32 459.696 136.661 456.598C138.001 453.501 138.475 450.255 138.082 446.862C137.65 443.452 136.317 440.605 134.082 438.321C131.825 435.982 128.096 433.688 122.896 431.438L90.2574 417.315L94.725 406.99L155.642 433.349L151.646 442.584Z" fill="black"/>
<path d="M177.816 393.623L170.454 389.631C174.235 396.469 174.179 403.477 170.286 410.656C167.763 415.308 164.157 418.898 159.468 421.426C154.799 423.918 149.589 425.004 143.838 424.682C138.071 424.303 132.203 422.495 126.232 419.257C120.409 416.099 115.661 412.268 111.988 407.764C108.28 403.241 106.214 398.353 105.793 393.1C105.371 387.847 106.461 382.821 109.063 378.023C110.97 374.507 113.419 371.782 116.411 369.85C119.366 367.897 122.5 366.706 125.815 366.275L96.9156 350.603L102.249 340.769L182.792 384.448L177.816 393.623ZM131.744 409.093C139.216 413.145 145.656 414.6 151.064 413.456C156.471 412.312 160.337 409.598 162.661 405.312C165.005 400.99 165.233 396.374 163.346 391.464C161.442 386.497 156.864 382.047 149.611 378.114C141.627 373.784 134.932 372.144 129.527 373.195C124.123 374.245 120.199 377.023 117.756 381.528C115.372 385.924 115.171 390.578 117.151 395.491C119.152 400.368 124.016 404.902 131.744 409.093Z" fill="black"/>
<path d="M205.889 397.017L196.373 392.265C198.279 390.576 199.736 388.965 200.742 387.432C202.114 385.342 202.863 383.442 202.989 381.731C203.116 380.019 202.815 378.352 202.087 376.727C201.535 375.518 199.83 373.028 196.972 369.258C196.564 368.741 195.98 367.959 195.222 366.913L125.807 351.477L132.46 341.341L172.173 350.886C177.232 352.064 182.397 353.535 187.667 355.3C184.057 351.385 180.688 347.33 177.561 343.134L153.004 310.044L159.178 300.639L201.751 358.788C206.36 365.054 209.403 369.568 210.879 372.331C212.881 376.038 213.888 379.44 213.899 382.537C213.944 385.657 212.983 388.715 211.017 391.71C209.828 393.521 208.119 395.29 205.889 397.017Z" fill="black"/>
<path d="M238.517 308.561L175.338 279.81L183.038 271.101L232.02 295.057C231.599 294.463 228.941 290.582 224.043 283.415L201.917 249.751L209.576 241.089L245.001 259.147L256.7 265.07L249.627 253.727L228.414 219.785L235.659 211.592L271.638 271.104L263.896 279.859L227.121 261.441L216.949 255.867L246.3 299.758L238.517 308.561Z" fill="black"/>
<path d="M253.196 243.371C244.852 234.345 241.181 225.341 242.183 216.357C243.037 208.872 246.478 202.344 252.506 196.772C259.206 190.578 266.719 187.718 275.045 188.192C283.343 188.636 291.069 192.729 298.225 200.47C304.023 206.742 307.643 212.56 309.083 217.924C310.526 223.229 310.361 228.545 308.589 233.871C306.848 239.169 303.851 243.784 299.598 247.715C292.775 254.022 285.23 256.94 276.963 256.468C268.727 255.967 260.804 251.602 253.196 243.371ZM261.687 235.523C267.457 241.764 273.145 245.187 278.753 245.791C284.333 246.364 289.188 244.741 293.319 240.923C297.419 237.133 299.388 232.419 299.226 226.78C299.064 221.142 296.028 215.126 290.116 208.731C284.544 202.704 278.953 199.418 273.343 198.873C267.735 198.269 262.896 199.848 258.827 203.61C254.696 207.428 252.698 212.141 252.832 217.749C252.965 223.356 255.917 229.281 261.687 235.523Z" fill="black"/>
<path d="M320.943 227.354L279.504 175.504L287.413 169.182L293.695 177.043C292.774 171.752 292.691 167.844 293.447 165.32C294.236 162.769 295.655 160.675 297.706 159.036C300.668 156.669 304.433 155.206 309.001 154.649L312.491 165.222C309.328 165.669 306.672 166.751 304.524 168.468C302.604 170.003 301.347 171.968 300.754 174.362C300.134 176.724 300.319 179.19 301.307 181.761C302.827 185.666 305.071 189.474 308.036 193.184L329.731 220.33L320.943 227.354Z" fill="black"/>
<path d="M348.179 206.025L295.916 130.767L305.156 124.35L334.959 167.266L341.428 129.902L353.389 121.596L346.593 156.296L393.354 174.653L381.957 182.567L344.581 167.205L342.41 177.995L357.419 199.608L348.179 206.025Z" fill="black"/>
<path d="M429.396 142.861C428.2 148.278 426.212 152.97 423.43 156.938C420.628 160.87 417.015 164.087 412.591 166.591C404.432 171.208 396.4 172.116 388.494 169.313C382.069 167.012 377.287 163.088 374.147 157.54C371.356 152.608 370.419 147.273 371.337 141.535C372.271 135.74 375.041 129.553 379.647 122.972C373.718 120.87 369.426 118.87 366.772 116.973C364.119 115.075 362.115 112.93 360.76 110.537C358.051 105.75 357.569 100.541 359.313 94.9097C361.073 89.2217 364.8 84.7667 370.493 81.5448C375.932 78.4664 381.319 77.6206 386.652 79.0071C392.021 80.3731 396.029 83.395 398.676 88.0728C402.966 95.6516 401.606 104.967 394.599 116.018L419.217 126.144C419.043 122.029 418.219 117.612 416.745 112.893L428.148 109.312C430.347 117.26 431.233 124.323 430.804 130.502C437.216 133.289 443.677 135.018 450.186 135.692L448.007 147.195C442.618 146.893 436.414 145.449 429.396 142.861ZM385.97 112.571C388.796 107.668 390.293 103.925 390.458 101.342C390.66 98.7377 390.115 96.2934 388.822 94.0089C387.283 91.2892 385.161 89.5698 382.456 88.8505C379.766 88.0745 377.134 88.415 374.56 89.872C371.912 91.3702 370.183 93.4742 369.37 96.1841C368.594 98.8735 368.904 101.451 370.3 103.917C370.997 105.15 372.044 106.281 373.441 107.31C374.853 108.282 376.624 109.171 378.755 109.976L385.97 112.571ZM418.878 138.616L388.338 126.528C384.829 132.679 382.92 137.637 382.61 141.404C382.279 145.134 382.863 148.322 384.361 150.969C386.187 154.197 389.373 156.822 393.917 158.847C398.462 160.871 403.092 160.549 407.806 157.881C410.743 156.219 413.258 153.598 415.35 150.02C417.458 146.386 418.634 142.584 418.878 138.616Z" fill="black"/>
<path d="M435.426 130.085L444.852 123.922C447.252 127.731 450.231 130.137 453.79 131.139C457.386 132.125 461.521 131.566 466.194 129.462C470.906 127.341 473.974 124.818 475.398 121.892C476.805 118.928 476.928 116.154 475.764 113.57C474.721 111.253 472.893 109.882 470.281 109.459C468.465 109.18 464.448 109.595 458.23 110.703C449.851 112.19 443.892 112.908 440.35 112.857C436.83 112.751 433.763 111.825 431.148 110.077C428.555 108.275 426.591 105.892 425.257 102.928C424.042 100.231 423.53 97.4682 423.72 94.6412C423.93 91.7592 424.757 89.0793 426.201 86.6017C427.266 84.7055 428.987 82.7428 431.363 80.7134C433.761 78.6289 436.536 76.8769 439.69 75.4572C444.439 73.3192 448.907 72.1302 453.094 71.8902C457.32 71.6331 460.817 72.2976 463.587 73.8835C466.34 75.4315 468.921 78.0168 471.328 81.6394L461.914 87.5227C460.055 84.6124 457.631 82.7794 454.64 82.0237C451.688 81.2509 448.217 81.7625 444.228 83.5584C439.516 85.6793 436.504 87.9719 435.192 90.4362C433.88 92.9005 433.694 95.1774 434.634 97.2671C435.233 98.5969 436.19 99.6056 437.505 100.293C438.836 101.019 440.558 101.34 442.669 101.258C443.865 101.177 447.279 100.691 452.91 99.8007C461.04 98.4716 466.811 97.7925 470.225 97.7635C473.66 97.6794 476.725 98.4474 479.419 100.068C482.113 101.688 484.247 104.246 485.82 107.741C487.36 111.161 487.807 114.843 487.161 118.789C486.537 122.68 484.72 126.308 481.711 129.673C478.686 133 474.798 135.733 470.049 137.871C462.184 141.411 455.445 142.48 449.833 141.077C444.259 139.657 439.456 135.993 435.426 130.085Z" fill="black"/>
<path d="M513.742 108.253L518.762 116.983C516.033 118.722 513.498 120.031 511.158 120.911C507.336 122.349 504.145 122.859 501.584 122.442C499.023 122.025 496.947 121.003 495.356 119.376C493.75 117.71 491.759 113.717 489.382 107.4L475.939 71.6567L468.217 74.561L465.137 66.3712L472.858 63.4668L467.072 48.0816L475.167 37.8252L483.33 59.5283L493.918 55.5458L496.998 63.7357L486.41 67.7182L500.074 104.046C501.203 107.049 502.105 108.913 502.779 109.639C503.491 110.351 504.352 110.806 505.362 111.005C506.411 111.189 507.715 110.988 509.275 110.401C510.445 109.961 511.934 109.245 513.742 108.253Z" fill="black"/>
<path d="M563.141 103.729L560.335 94.3912C557.546 103.061 551.901 108.673 543.401 111.227C539.65 112.354 535.923 112.691 532.219 112.237C528.555 111.772 525.602 110.702 523.358 109.027C521.142 107.3 519.241 104.956 517.656 101.995C516.581 100.012 515.355 96.7261 513.976 92.1372L502.141 52.7519L512.915 49.5144L523.509 84.7696C525.199 90.3961 526.558 94.121 527.584 95.9444C529.114 98.5738 531.222 100.377 533.909 101.353C536.583 102.29 539.536 102.273 542.768 101.301C546.001 100.33 548.788 98.6008 551.129 96.1134C553.459 93.5861 554.776 90.732 555.082 87.5511C555.416 84.3183 554.768 79.9884 553.137 74.5615L542.903 40.5033L553.677 37.2658L572.778 100.833L563.141 103.729Z" fill="black"/>
<path d="M617.445 92.1879L615.754 83.9854C612.961 91.283 607.566 95.7565 599.568 97.4058C594.385 98.4745 589.316 98.0308 584.361 96.0747C579.446 94.1101 575.259 90.8255 571.799 86.221C568.372 81.5673 565.973 75.9145 564.601 69.2628C563.263 62.7743 563.133 56.675 564.21 50.9647C565.279 45.2137 567.686 40.4843 571.431 36.7765C575.176 33.0688 579.721 30.6637 585.067 29.5614C588.985 28.7535 592.646 28.8706 596.052 29.9126C599.449 30.9138 602.38 32.5429 604.845 34.8L598.206 2.60238L609.163 0.342957L627.667 90.0799L617.445 92.1879ZM575.925 66.9277C577.642 75.2525 580.68 81.1139 585.039 84.5118C589.399 87.9097 593.966 89.1164 598.74 88.1319C603.556 87.1389 607.233 84.3386 609.771 79.731C612.342 75.0742 612.794 68.7058 611.128 60.6258C609.294 51.7296 606.233 45.5537 601.947 42.0982C597.661 38.6426 593.008 37.4324 587.989 38.4674C583.092 39.4772 579.403 42.3225 576.922 47.0033C574.482 51.6757 574.15 58.3171 575.925 66.9277Z" fill="black"/>
<path d="M632.941 115.84L630.442 105.501C632.962 105.87 635.132 105.946 636.952 105.727C639.435 105.429 641.371 104.778 642.761 103.771C644.151 102.765 645.232 101.461 646.005 99.8571C646.574 98.6557 647.379 95.7474 648.42 91.1322C648.553 90.4869 648.775 89.537 649.086 88.2827L616.155 25.2568L628.194 23.8124L646.487 60.3307C648.847 64.9575 651.05 69.8549 653.097 75.0229C653.764 69.7391 654.694 64.5497 655.887 59.4546L665.365 19.3525L676.535 18.0123L659.506 88.0396C657.685 95.602 656.194 100.838 655.033 103.747C653.489 107.667 651.536 110.629 649.175 112.633C646.818 114.678 643.861 115.914 640.303 116.341C638.152 116.599 635.698 116.432 632.941 115.84Z" fill="black"/>
</svg>
