<svg width="1644" height="1638" viewBox="0 0 1644 1638" fill="none" xmlns="http://www.w3.org/2000/svg">
<path d="M1459.63 452.682L1508.79 403.671L1514.23 413.945L1474.56 451.355C1475.26 451.171 1479.83 450.049 1488.26 447.988L1527.56 439.132L1532.97 449.351L1503.6 476.149L1493.94 485.013L1507.04 482.387L1546.28 474.483L1551.4 484.149L1483.03 496.87L1477.56 486.541L1507.75 458.606L1516.55 451.048L1465.13 463.066L1459.63 452.682Z" fill="#2690FF"/>
<path d="M1520.57 499.281C1531.96 494.649 1541.68 494.384 1549.73 498.484C1556.44 501.919 1561.34 507.439 1564.43 515.042C1567.87 523.494 1567.9 531.534 1564.53 539.159C1561.19 546.769 1554.64 552.56 1544.87 556.532C1536.96 559.75 1530.24 561.089 1524.71 560.549C1519.24 560.031 1514.32 558.005 1509.96 554.472C1505.62 550.976 1502.35 546.546 1500.17 541.182C1496.67 532.575 1496.59 524.486 1499.95 516.914C1503.32 509.382 1510.19 503.504 1520.57 499.281ZM1524.93 509.991C1517.06 513.194 1511.85 517.313 1509.31 522.35C1506.81 527.37 1506.62 532.486 1508.74 537.696C1510.84 542.868 1514.56 546.371 1519.89 548.205C1525.23 550.038 1531.93 549.315 1540 546.033C1547.6 542.941 1552.64 538.865 1555.13 533.805C1557.67 528.769 1557.89 523.684 1555.81 518.551C1553.69 513.34 1549.98 509.81 1544.68 507.961C1539.39 506.112 1532.8 506.788 1524.93 509.991Z" fill="#2690FF"/>
<path d="M1514.89 576.401L1578.01 555.872L1581.14 565.5L1571.57 568.613C1576.85 569.613 1580.53 570.911 1582.63 572.508C1584.74 574.144 1586.2 576.21 1587.01 578.706C1588.18 582.312 1588.23 586.351 1587.14 590.823L1576.02 590.367C1576.71 587.249 1576.63 584.382 1575.78 581.767C1575.02 579.429 1573.63 577.561 1571.59 576.163C1569.6 574.752 1567.23 574.056 1564.47 574.075C1560.28 574.124 1555.93 574.882 1551.41 576.352L1518.37 587.1L1514.89 576.401Z" fill="#2690FF"/>
<path d="M1527 614.774L1615.84 592.356L1618.6 603.264L1567.93 616.048L1600.63 635.257L1604.19 649.377L1574.1 630.799L1540.46 668.102L1537.06 654.649L1564.6 625.074L1555.27 619.244L1529.76 625.682L1527 614.774Z" fill="#2690FF"/>
<path d="M1559.48 720.859C1554.83 717.833 1551.14 714.32 1548.41 710.319C1545.71 706.312 1543.98 701.798 1543.19 696.776C1541.74 687.513 1543.72 679.676 1549.13 673.263C1553.54 668.059 1558.9 664.965 1565.2 663.98C1570.8 663.104 1576.12 664.106 1581.17 666.985C1586.26 669.899 1591.08 674.671 1595.62 681.299C1599.67 676.49 1603.05 673.177 1605.76 671.361C1608.47 669.545 1611.19 668.425 1613.9 668C1619.34 667.15 1624.38 668.533 1629.04 672.148C1633.74 675.798 1636.6 680.855 1637.61 687.318C1638.58 693.493 1637.47 698.832 1634.3 703.335C1631.13 707.879 1626.89 710.567 1621.58 711.398C1612.98 712.744 1604.74 708.192 1596.86 697.742L1578.71 717.218C1582.63 718.504 1587.05 719.288 1591.99 719.57L1591.32 731.503C1583.11 730.764 1576.19 729.106 1570.55 726.529C1565.69 731.549 1561.8 736.987 1558.87 742.843L1548.87 736.752C1551.05 731.814 1554.59 726.517 1559.48 720.859ZM1603.12 690.879C1606.72 695.251 1609.69 697.969 1612.05 699.034C1614.42 700.14 1616.9 700.49 1619.49 700.084C1622.58 699.601 1624.94 698.22 1626.56 695.942C1628.24 693.698 1628.84 691.114 1628.39 688.192C1627.92 685.187 1626.56 682.827 1624.31 681.112C1622.06 679.439 1619.54 678.821 1616.74 679.259C1615.34 679.478 1613.91 680.06 1612.46 681.005C1611.05 681.984 1609.6 683.329 1608.09 685.04L1603.12 690.879ZM1567.16 712.51L1589.23 688.182C1584.71 682.732 1580.74 679.198 1577.32 677.582C1573.95 675.959 1570.76 675.383 1567.75 675.853C1564.09 676.426 1560.51 678.483 1557.01 682.024C1553.52 685.565 1552.19 690.011 1553.03 695.363C1553.55 698.697 1555.12 701.974 1557.73 705.192C1560.39 708.445 1563.53 710.884 1567.16 712.51Z" fill="#2690FF"/>
<path d="M1570.8 741.223L1573.24 752.215C1568.83 753.12 1565.53 755.062 1563.34 758.039C1561.15 761.058 1560.22 765.126 1560.54 770.24C1560.87 775.397 1562.15 779.157 1564.39 781.52C1566.67 783.881 1569.22 784.972 1572.05 784.793C1574.59 784.632 1576.51 783.404 1577.83 781.108C1578.73 779.506 1579.76 775.6 1580.91 769.39C1582.47 761.025 1583.89 755.194 1585.19 751.898C1586.52 748.64 1588.47 746.095 1591.03 744.264C1593.63 742.471 1596.55 741.472 1599.79 741.267C1602.75 741.08 1605.51 741.573 1608.09 742.746C1610.71 743.957 1612.93 745.675 1614.74 747.898C1616.14 749.563 1617.37 751.865 1618.44 754.804C1619.54 757.782 1620.21 760.996 1620.42 764.448C1620.75 769.646 1620.29 774.246 1619.04 778.25C1617.8 782.295 1615.94 785.335 1613.48 787.369C1611.06 789.401 1607.74 790.906 1603.5 791.884L1601.31 781C1604.68 780.286 1607.25 778.662 1609.01 776.129C1610.78 773.638 1611.52 770.209 1611.24 765.843C1610.92 760.686 1609.83 757.06 1607.99 754.964C1606.14 752.868 1604.08 751.892 1601.79 752.037C1600.33 752.129 1599.05 752.669 1597.95 753.658C1596.8 754.649 1595.89 756.147 1595.23 758.151C1594.88 759.3 1594.13 762.667 1592.98 768.25C1591.37 776.327 1589.97 781.968 1588.79 785.174C1587.66 788.418 1585.87 791.016 1583.4 792.967C1580.94 794.919 1577.79 796.015 1573.96 796.257C1570.22 796.494 1566.62 795.616 1563.15 793.622C1559.73 791.668 1556.97 788.69 1554.88 784.689C1552.83 780.685 1551.65 776.085 1551.32 770.887C1550.77 762.279 1552.15 755.596 1555.43 750.837C1558.73 746.119 1563.85 742.915 1570.8 741.223Z" fill="#2690FF"/>
<path d="M1564.06 829.962L1554.12 831.586C1553.46 828.419 1553.12 825.586 1553.12 823.086C1553.12 819.003 1553.77 815.836 1555.06 813.586C1556.35 811.336 1558.04 809.753 1560.12 808.836C1562.25 807.92 1566.69 807.462 1573.44 807.462L1611.62 807.464L1611.63 799.214L1620.38 799.215L1620.37 807.465L1636.81 807.466L1643.56 818.654L1620.37 818.653L1620.37 829.965L1611.62 829.964L1611.62 818.652L1572.81 818.65C1569.6 818.649 1567.54 818.837 1566.62 819.212C1565.71 819.628 1564.98 820.274 1564.44 821.149C1563.89 822.066 1563.62 823.357 1563.62 825.024C1563.62 826.274 1563.77 827.92 1564.06 829.962Z" fill="#2690FF"/>
<path d="M1550.92 882.725L1560.65 883.387C1553.52 877.723 1550.25 870.464 1550.86 861.61C1551.12 857.702 1552.12 854.095 1553.85 850.788C1555.57 847.522 1557.61 845.134 1559.97 843.624C1562.37 842.159 1565.23 841.205 1568.56 840.763C1570.79 840.456 1574.3 840.464 1579.08 840.79L1620.11 843.58L1619.35 854.804L1582.62 852.306C1576.76 851.908 1572.8 851.868 1570.73 852.186C1567.73 852.692 1565.3 854.031 1563.44 856.201C1561.62 858.374 1560.6 861.145 1560.37 864.512C1560.14 867.879 1560.78 871.096 1562.28 874.164C1563.82 877.234 1566.03 879.472 1568.9 880.879C1571.81 882.329 1576.09 883.247 1581.74 883.631L1617.23 886.045L1616.46 897.269L1550.24 892.765L1550.92 882.725Z" fill="#2690FF"/>
<path d="M1541.94 946.444L1550.21 947.749C1544.37 942.566 1542.08 935.941 1543.35 927.874C1544.17 922.647 1546.37 918.059 1549.95 914.109C1553.52 910.201 1558.07 907.439 1563.6 905.822C1569.16 904.253 1575.29 903.997 1582 905.056C1588.55 906.088 1594.3 908.114 1599.27 911.132C1604.27 914.158 1607.85 918.076 1610 922.887C1612.16 927.697 1612.81 932.798 1611.96 938.19C1611.33 942.141 1609.93 945.527 1607.76 948.348C1605.63 951.175 1603.07 953.345 1600.09 954.857L1632.56 959.98L1630.82 971.03L1540.31 956.754L1541.94 946.444ZM1580.2 916.477C1571.81 915.153 1565.25 915.932 1560.53 918.816C1555.82 921.7 1553.08 925.55 1552.32 930.365C1551.56 935.222 1552.88 939.649 1556.3 943.647C1559.75 947.693 1565.56 950.359 1573.7 951.644C1582.68 953.06 1589.54 952.37 1594.28 949.575C1599.02 946.78 1601.79 942.851 1602.59 937.789C1603.37 932.85 1602.01 928.395 1598.5 924.425C1594.98 920.496 1588.89 917.847 1580.2 916.477Z" fill="#2690FF"/>
<path d="M1512.9 961.304L1523.45 962.604C1522.22 964.833 1521.39 966.838 1520.95 968.619C1520.36 971.047 1520.28 973.088 1520.74 974.744C1521.19 976.399 1522.03 977.871 1523.26 979.158C1524.18 980.114 1526.62 981.892 1530.57 984.491C1531.13 984.842 1531.94 985.384 1533.01 986.117L1603.59 977.487L1600.7 989.263L1560.08 993.527C1554.92 994.106 1549.56 994.444 1544 994.54C1548.72 997.025 1553.24 999.723 1557.59 1002.63L1591.79 1025.62L1589.11 1036.55L1529.56 995.956C1523.13 991.589 1518.75 988.35 1516.44 986.238C1513.31 983.413 1511.23 980.542 1510.18 977.627C1509.1 974.701 1508.98 971.498 1509.84 968.018C1510.35 965.913 1511.37 963.675 1512.9 961.304Z" fill="#2690FF"/>
<path d="M1508.3 1067.95L1577.45 1073.95L1573.1 1084.73L1518.93 1078.51C1519.53 1078.93 1523.33 1081.7 1530.34 1086.82L1562.43 1111.16L1558.11 1121.88L1518.69 1116.69L1505.68 1115.01L1516.14 1123.34L1547.47 1148.25L1543.37 1158.4L1489.59 1114.31L1493.96 1103.48L1534.77 1108.56L1546.22 1110.41L1503.9 1078.84L1508.3 1067.95Z" fill="#2690FF"/>
<path d="M1511.94 1144.58C1522.82 1150.3 1529.28 1157.56 1531.34 1166.36C1533.03 1173.7 1531.97 1181.01 1528.15 1188.27C1523.9 1196.35 1517.77 1201.55 1509.77 1203.88C1501.8 1206.24 1493.15 1204.96 1483.82 1200.05C1476.26 1196.08 1470.9 1191.8 1467.76 1187.22C1464.62 1182.71 1463 1177.64 1462.9 1172.03C1462.77 1166.45 1464.05 1161.1 1466.75 1155.98C1471.07 1147.75 1477.21 1142.48 1485.16 1140.17C1493.09 1137.89 1502.02 1139.36 1511.94 1144.58ZM1506.55 1154.81C1499.03 1150.85 1492.53 1149.53 1487.04 1150.83C1481.59 1152.15 1477.55 1155.3 1474.93 1160.28C1472.34 1165.22 1472.05 1170.32 1474.09 1175.59C1476.12 1180.85 1481 1185.5 1488.7 1189.56C1495.97 1193.38 1502.33 1194.61 1507.81 1193.25C1513.29 1191.94 1517.33 1188.84 1519.91 1183.94C1522.52 1178.96 1522.83 1173.85 1520.84 1168.61C1518.84 1163.37 1514.08 1158.77 1506.55 1154.81Z" fill="#2690FF"/>
<path d="M1449.3 1189.93L1505.68 1224.96L1500.33 1233.56L1491.78 1228.25C1494.42 1232.93 1495.8 1236.59 1495.93 1239.22C1496.04 1241.89 1495.4 1244.33 1494.02 1246.56C1492.02 1249.78 1488.95 1252.42 1484.83 1254.47L1478.02 1245.67C1480.85 1244.19 1482.99 1242.29 1484.44 1239.95C1485.74 1237.86 1486.27 1235.59 1486.03 1233.14C1485.82 1230.7 1484.82 1228.44 1483.03 1226.35C1480.3 1223.17 1476.91 1220.33 1472.88 1217.83L1443.36 1199.48L1449.3 1189.93Z" fill="#2690FF"/>
<path d="M1427.77 1223.92L1502.16 1277.41L1495.59 1286.54L1453.17 1256.04L1459.55 1293.42L1451.05 1305.24L1445.87 1270.26L1395.66 1268.58L1403.76 1257.31L1444.12 1259.31L1442.56 1248.41L1421.2 1233.05L1427.77 1223.92Z" fill="#2690FF"/>
<path d="M1367.58 1317.12C1366.9 1311.62 1367.21 1306.53 1368.5 1301.86C1369.83 1297.22 1372.16 1292.98 1375.5 1289.14C1381.64 1282.07 1388.91 1278.53 1397.3 1278.53C1404.13 1278.55 1409.94 1280.66 1414.76 1284.84C1419.03 1288.55 1421.7 1293.27 1422.75 1298.98C1423.8 1304.76 1423.26 1311.52 1421.11 1319.26C1427.41 1319.26 1432.12 1319.71 1435.25 1320.61C1438.39 1321.52 1440.99 1322.87 1443.07 1324.67C1447.22 1328.28 1449.42 1333.03 1449.65 1338.92C1449.89 1344.87 1447.87 1350.31 1443.58 1355.25C1439.48 1359.97 1434.68 1362.56 1429.19 1363.04C1423.68 1363.54 1418.89 1362.03 1414.83 1358.51C1408.26 1352.8 1406.43 1343.56 1409.34 1330.8L1382.76 1329.48C1384.29 1333.3 1386.55 1337.19 1389.51 1341.15L1379.96 1348.33C1375.23 1341.57 1372.04 1335.21 1370.38 1329.24C1363.4 1328.76 1356.74 1329.28 1350.38 1330.82L1348.59 1319.25C1353.77 1317.74 1360.1 1317.03 1367.58 1317.12ZM1418.63 1331.17C1417.6 1336.74 1417.44 1340.77 1418.15 1343.26C1418.83 1345.78 1420.16 1347.9 1422.14 1349.62C1424.5 1351.67 1427.07 1352.58 1429.86 1352.36C1432.66 1352.19 1435.02 1350.99 1436.96 1348.76C1438.96 1346.46 1439.89 1343.9 1439.75 1341.08C1439.58 1338.28 1438.43 1335.96 1436.29 1334.1C1435.22 1333.17 1433.85 1332.45 1432.19 1331.95C1430.54 1331.5 1428.57 1331.26 1426.29 1331.21L1418.63 1331.17ZM1378.91 1317.61L1411.73 1318.81C1412.99 1311.84 1413.13 1306.53 1412.17 1302.87C1411.23 1299.25 1409.62 1296.44 1407.32 1294.44C1404.52 1292.01 1400.64 1290.6 1395.68 1290.21C1390.72 1289.82 1386.47 1291.67 1382.92 1295.75C1380.7 1298.3 1379.21 1301.61 1378.43 1305.68C1377.66 1309.81 1377.82 1313.79 1378.91 1317.61Z" fill="#2690FF"/>
<path d="M1359.3 1338.89L1352.47 1347.85C1348.94 1345.06 1345.33 1343.79 1341.64 1344.03C1337.92 1344.31 1334.21 1346.21 1330.5 1349.76C1326.77 1353.33 1324.72 1356.73 1324.36 1359.97C1324.02 1363.23 1324.83 1365.88 1326.79 1367.93C1328.55 1369.77 1330.73 1370.45 1333.33 1369.98C1335.14 1369.63 1338.78 1367.9 1344.28 1364.78C1351.68 1360.58 1357.05 1357.91 1360.41 1356.78C1363.76 1355.7 1366.96 1355.55 1370.01 1356.33C1373.06 1357.16 1375.7 1358.75 1377.95 1361.1C1380 1363.23 1381.4 1365.67 1382.17 1368.39C1382.93 1371.18 1383.05 1373.98 1382.51 1376.8C1382.14 1378.94 1381.18 1381.37 1379.61 1384.08C1378.05 1386.84 1376.02 1389.42 1373.52 1391.81C1369.76 1395.41 1365.94 1398.02 1362.08 1399.65C1358.18 1401.3 1354.66 1401.84 1351.52 1401.27C1348.41 1400.73 1345.11 1399.16 1341.63 1396.55L1348.54 1387.86C1351.27 1389.98 1354.16 1390.9 1357.24 1390.61C1360.28 1390.36 1363.38 1388.71 1366.54 1385.69C1370.27 1382.12 1372.34 1378.95 1372.76 1376.19C1373.17 1373.43 1372.59 1371.22 1371 1369.56C1369.99 1368.51 1368.76 1367.88 1367.29 1367.67C1365.79 1367.43 1364.06 1367.7 1362.1 1368.49C1361 1368.96 1357.94 1370.56 1352.93 1373.28C1345.71 1377.25 1340.5 1379.81 1337.29 1380.98C1334.08 1382.21 1330.93 1382.51 1327.85 1381.88C1324.77 1381.25 1321.91 1379.55 1319.26 1376.78C1316.66 1374.08 1315.01 1370.75 1314.3 1366.82C1313.59 1362.94 1314.09 1358.92 1315.81 1354.74C1317.55 1350.59 1320.3 1346.72 1324.06 1343.12C1330.29 1337.15 1336.29 1333.9 1342.05 1333.34C1347.78 1332.82 1353.53 1334.67 1359.3 1338.89Z" fill="#2690FF"/>
<path d="M1287.1 1390.93L1279.46 1384.38C1281.45 1381.83 1283.4 1379.75 1285.31 1378.14C1288.43 1375.51 1291.27 1373.96 1293.82 1373.5C1296.38 1373.03 1298.68 1373.3 1300.72 1374.31C1302.79 1375.34 1306 1378.44 1310.35 1383.6L1334.96 1412.8L1341.27 1407.49L1346.9 1414.18L1340.6 1419.49L1351.19 1432.06L1346.98 1444.44L1332.04 1426.7L1323.39 1433.99L1317.75 1427.3L1326.4 1420.01L1301.39 1390.33C1299.32 1387.88 1297.85 1386.42 1296.97 1385.96C1296.06 1385.53 1295.1 1385.39 1294.08 1385.54C1293.03 1385.72 1291.87 1386.34 1290.6 1387.41C1289.64 1388.22 1288.48 1389.39 1287.1 1390.93Z" fill="#2690FF"/>
<path d="M1238.29 1414.89L1244.05 1422.75C1243.79 1413.65 1247.23 1406.47 1254.39 1401.23C1257.55 1398.91 1260.95 1397.35 1264.6 1396.54C1268.2 1395.76 1271.35 1395.78 1274.02 1396.61C1276.69 1397.5 1279.26 1399.07 1281.74 1401.33C1283.42 1402.84 1285.67 1405.53 1288.5 1409.4L1312.81 1442.57L1303.74 1449.22L1281.98 1419.52C1278.51 1414.79 1275.98 1411.73 1274.4 1410.35C1272.08 1408.38 1269.5 1407.39 1266.64 1407.37C1263.8 1407.38 1261.03 1408.38 1258.3 1410.37C1255.58 1412.37 1253.53 1414.93 1252.16 1418.05C1250.8 1421.22 1250.51 1424.35 1251.29 1427.45C1252.05 1430.6 1254.11 1434.47 1257.46 1439.04L1278.48 1467.73L1269.4 1474.38L1230.17 1420.84L1238.29 1414.89Z" fill="#2690FF"/>
<path d="M1183.78 1449.08L1188.11 1456.25C1188.31 1448.44 1191.9 1442.42 1198.89 1438.19C1203.41 1435.45 1208.34 1434.18 1213.66 1434.37C1218.95 1434.58 1224 1436.28 1228.8 1439.46C1233.58 1442.71 1237.73 1447.23 1241.24 1453.04C1244.67 1458.71 1246.83 1464.42 1247.72 1470.16C1248.64 1475.94 1247.95 1481.2 1245.65 1485.95C1243.36 1490.69 1239.88 1494.48 1235.21 1497.3C1231.79 1499.37 1228.3 1500.48 1224.74 1500.64C1221.2 1500.83 1217.89 1500.27 1214.82 1498.97L1231.83 1527.1L1222.25 1532.89L1174.85 1454.48L1183.78 1449.08ZM1231.35 1459.03C1226.95 1451.75 1222.13 1447.24 1216.89 1445.5C1211.64 1443.75 1206.93 1444.14 1202.76 1446.66C1198.56 1449.2 1196.02 1453.07 1195.17 1458.26C1194.3 1463.51 1196 1469.66 1200.27 1476.72C1204.97 1484.49 1209.92 1489.29 1215.11 1491.12C1220.31 1492.95 1225.1 1492.53 1229.48 1489.88C1233.76 1487.29 1236.29 1483.38 1237.06 1478.14C1237.8 1472.92 1235.9 1466.55 1231.35 1459.03Z" fill="#2690FF"/>
<path d="M1153.7 1436.45L1159.51 1445.36C1157.01 1445.86 1154.94 1446.51 1153.3 1447.32C1151.06 1448.43 1149.45 1449.69 1148.47 1451.11C1147.5 1452.52 1146.92 1454.11 1146.72 1455.88C1146.59 1457.2 1146.8 1460.21 1147.36 1464.91C1147.45 1465.56 1147.56 1466.53 1147.68 1467.82L1199.77 1516.23L1188.91 1521.61L1159.47 1493.3C1155.7 1489.72 1151.99 1485.84 1148.33 1481.66C1149.47 1486.86 1150.32 1492.06 1150.9 1497.26L1155.36 1538.23L1145.28 1543.22L1137.94 1471.53C1137.13 1463.79 1136.79 1458.36 1136.91 1455.23C1137.06 1451.02 1137.91 1447.57 1139.47 1444.89C1141.01 1442.18 1143.38 1440.03 1146.59 1438.44C1148.53 1437.48 1150.9 1436.81 1153.7 1436.45Z" fill="#2690FF"/>
<path d="M1069.19 1501.66L1109.16 1558.4L1098.12 1562.03L1067.97 1516.59C1068.03 1517.32 1068.36 1522.01 1068.96 1530.67L1071.03 1570.9L1060.05 1574.5L1038.61 1541.01L1031.51 1529.99L1031.88 1543.35L1033.02 1583.36L1022.63 1586.77L1021.67 1517.23L1032.78 1513.59L1055.2 1548.07L1061.16 1558.02L1058.02 1505.32L1069.19 1501.66Z" fill="#2690FF"/>
<path d="M1012.94 1553.82C1015.57 1565.83 1014.19 1575.45 1008.78 1582.7C1004.26 1588.72 997.992 1592.62 989.975 1594.38C981.062 1596.33 973.134 1595 966.191 1590.38C959.256 1585.8 954.659 1578.37 952.398 1568.07C950.567 1559.73 950.386 1552.88 951.855 1547.52C953.292 1542.22 956.122 1537.71 960.343 1534.01C964.524 1530.32 969.443 1527.86 975.1 1526.61C984.176 1524.62 992.16 1525.92 999.054 1530.51C1005.91 1535.1 1010.54 1542.87 1012.94 1553.82ZM1001.65 1556.3C999.823 1548 996.645 1542.17 992.111 1538.81C987.587 1535.5 982.578 1534.44 977.083 1535.65C971.63 1536.85 967.548 1539.92 964.837 1544.86C962.126 1549.81 961.704 1556.54 963.571 1565.04C965.331 1573.06 968.494 1578.72 973.059 1582.03C977.592 1585.38 982.565 1586.47 987.978 1585.28C993.472 1584.07 997.579 1581.02 1000.3 1576.11C1003.02 1571.21 1003.47 1564.6 1001.65 1556.3Z" fill="#2690FF"/>
<path d="M937.896 1535.15L947.435 1600.84L937.416 1602.29L935.969 1592.34C934.09 1597.37 932.185 1600.78 930.257 1602.58C928.287 1604.38 926.003 1605.47 923.405 1605.84C919.653 1606.39 915.665 1605.75 911.442 1603.92L913.777 1593.03C916.732 1594.25 919.57 1594.65 922.291 1594.26C924.724 1593.91 926.802 1592.85 928.524 1591.08C930.253 1589.36 931.34 1587.13 931.788 1584.42C932.45 1580.28 932.44 1575.86 931.757 1571.16L926.763 1536.77L937.896 1535.15Z" fill="#2690FF"/>
<path d="M898.025 1540.59L905.068 1631.95L893.852 1632.81L889.835 1580.72L865.365 1609.68L850.845 1610.8L874.252 1584.3L843.188 1544.82L857.022 1543.75L881.503 1575.9L888.831 1567.69L886.809 1541.46L898.025 1540.59Z" fill="#2690FF"/>
<path d="M787.97 1554.63C791.74 1550.56 795.828 1547.52 800.234 1545.5C804.639 1543.53 809.383 1542.58 814.466 1542.65C823.84 1542.79 831.229 1546.07 836.633 1552.49C841.013 1557.72 843.155 1563.53 843.059 1569.9C842.974 1575.57 841.085 1580.64 837.392 1585.13C833.657 1589.66 828.139 1593.59 820.837 1596.94C824.89 1601.75 827.582 1605.65 828.912 1608.63C830.243 1611.61 830.887 1614.47 830.846 1617.22C830.763 1622.72 828.546 1627.46 824.194 1631.44C819.799 1635.45 814.332 1637.41 807.791 1637.31C801.542 1637.22 796.467 1635.23 792.567 1631.33C788.625 1627.44 786.694 1622.81 786.775 1617.43C786.906 1608.73 792.788 1601.38 804.422 1595.38L788.301 1574.2C786.371 1577.84 784.849 1582.07 783.735 1586.88L772.086 1584.21C774.206 1576.24 777.013 1569.7 780.507 1564.58C776.384 1558.94 771.684 1554.18 766.408 1550.31L774.104 1541.48C778.602 1544.47 783.224 1548.85 787.97 1554.63ZM810.124 1602.72C805.206 1605.52 802.023 1607.99 800.574 1610.14C799.083 1612.28 798.318 1614.67 798.279 1617.29C798.232 1620.42 799.193 1622.97 801.163 1624.96C803.091 1626.99 805.534 1628.03 808.492 1628.07C811.534 1628.12 814.09 1627.18 816.161 1625.25C818.19 1623.32 819.226 1620.94 819.269 1618.11C819.29 1616.69 818.958 1615.19 818.274 1613.59C817.547 1612.04 816.468 1610.38 815.036 1608.61L810.124 1602.72ZM794.899 1563.61L815.137 1589.48C821.274 1585.95 825.428 1582.64 827.6 1579.54C829.771 1576.49 830.88 1573.45 830.925 1570.4C830.981 1566.7 829.56 1562.82 826.662 1558.78C823.765 1554.73 819.608 1552.67 814.192 1552.59C810.817 1552.54 807.323 1553.53 803.708 1555.56C800.052 1557.63 797.115 1560.31 794.899 1563.61Z" fill="#2690FF"/>
<path d="M765.985 1562.33L754.737 1562.88C754.591 1558.38 753.237 1554.8 750.674 1552.14C748.069 1549.47 744.219 1547.86 739.123 1547.31C733.986 1546.76 730.063 1547.39 727.355 1549.19C724.642 1551.04 723.135 1553.37 722.832 1556.18C722.56 1558.71 723.445 1560.82 725.484 1562.5C726.91 1563.66 730.586 1565.34 736.511 1567.52C744.491 1570.48 749.996 1572.87 753.026 1574.7C756.01 1576.58 758.188 1578.93 759.56 1581.76C760.887 1584.62 761.376 1587.67 761.029 1590.9C760.713 1593.84 759.758 1596.49 758.166 1598.83C756.527 1601.21 754.458 1603.1 751.96 1604.51C750.082 1605.61 747.605 1606.43 744.529 1606.98C741.407 1607.57 738.126 1607.68 734.688 1607.31C729.509 1606.75 725.053 1605.52 721.319 1603.61C717.544 1601.69 714.862 1599.35 713.274 1596.58C711.681 1593.85 710.762 1590.32 710.516 1585.98L721.613 1585.66C721.745 1589.11 722.91 1591.92 725.108 1594.08C727.265 1596.24 730.518 1597.56 734.868 1598.02C740.005 1598.57 743.763 1598.12 746.141 1596.66C748.52 1595.19 749.831 1593.32 750.076 1591.05C750.232 1589.6 749.916 1588.24 749.129 1586.98C748.347 1585.68 747.025 1584.54 745.162 1583.54C744.088 1583.01 740.897 1581.7 735.589 1579.62C727.903 1576.66 722.58 1574.32 719.62 1572.62C716.614 1570.96 714.358 1568.75 712.853 1565.99C711.347 1563.23 710.799 1559.94 711.209 1556.13C711.609 1552.4 713.086 1549 715.638 1545.92C718.144 1542.88 721.545 1540.67 725.842 1539.28C730.135 1537.94 734.871 1537.55 740.049 1538.11C748.625 1539.03 754.979 1541.51 759.112 1545.56C763.203 1549.61 765.494 1555.2 765.985 1562.33Z" fill="#2690FF"/>
<path d="M679.67 1540.66L679.752 1530.59C682.986 1530.47 685.835 1530.62 688.299 1531.05C692.323 1531.74 695.335 1532.91 697.333 1534.56C699.332 1536.22 700.606 1538.15 701.157 1540.36C701.7 1542.61 701.399 1547.06 700.256 1553.71L693.784 1591.35L701.914 1592.75L700.432 1601.37L692.301 1599.97L689.515 1616.17L677.346 1620.93L681.275 1598.07L670.126 1596.16L671.609 1587.53L682.758 1589.45L689.336 1551.2C689.879 1548.04 690.044 1545.97 689.83 1545.01C689.575 1544.03 689.062 1543.2 688.291 1542.52C687.48 1541.83 686.253 1541.35 684.61 1541.07C683.378 1540.85 681.731 1540.72 679.67 1540.66Z" fill="#2690FF"/>
<path d="M629.895 1518.77L627.595 1528.25C634.385 1522.18 642.092 1520.19 650.717 1522.28C654.523 1523.21 657.909 1524.8 660.875 1527.06C663.801 1529.32 665.809 1531.74 666.898 1534.32C667.936 1536.93 668.391 1539.91 668.262 1543.26C668.187 1545.52 667.584 1548.97 666.454 1553.63L656.752 1593.59L645.82 1590.94L654.504 1555.17C655.89 1549.46 656.601 1545.56 656.637 1543.47C656.646 1540.42 655.739 1537.8 653.915 1535.6C652.081 1533.44 649.525 1531.96 646.245 1531.17C642.965 1530.37 639.686 1530.45 636.409 1531.42C633.121 1532.42 630.541 1534.21 628.669 1536.8C626.746 1539.43 625.117 1543.49 623.78 1549L615.391 1583.55L604.458 1580.9L620.116 1516.4L629.895 1518.77Z" fill="#2690FF"/>
<path d="M568.62 1499.12L565.932 1507.06C572.03 1502.17 578.947 1501.04 586.682 1503.66C591.693 1505.36 595.843 1508.3 599.129 1512.5C602.376 1516.68 604.328 1521.63 604.985 1527.35C605.589 1533.1 604.802 1539.19 602.622 1545.62C600.496 1551.89 597.525 1557.22 593.708 1561.61C589.879 1566.03 585.411 1568.89 580.305 1570.2C575.199 1571.5 570.062 1571.28 564.892 1569.53C561.104 1568.24 558.004 1566.29 555.592 1563.67C553.167 1561.09 551.462 1558.2 550.476 1555.01L539.927 1586.14L529.331 1582.55L558.734 1495.77L568.62 1499.12ZM591.671 1541.91C594.399 1533.86 594.741 1527.27 592.698 1522.13C590.654 1516.99 587.324 1513.64 582.707 1512.08C578.05 1510.5 573.462 1511.06 568.943 1513.75C564.37 1516.47 560.76 1521.74 558.113 1529.55C555.198 1538.15 554.716 1545.03 556.667 1550.18C558.618 1555.32 562.02 1558.72 566.874 1560.37C571.61 1561.97 576.231 1561.38 580.738 1558.6C585.205 1555.8 588.85 1550.24 591.671 1541.91Z" fill="#2690FF"/>
<path d="M558.895 1467.99L555.824 1478.17C553.837 1476.58 552.002 1475.41 550.321 1474.68C548.029 1473.68 546.029 1473.27 544.321 1473.43C542.613 1473.6 541.02 1474.18 539.543 1475.17C538.444 1475.92 536.279 1478.02 533.048 1481.48C532.607 1481.97 531.936 1482.67 531.033 1483.6L527.581 1554.63L516.464 1549.79L519.143 1509.03C519.447 1503.84 520.022 1498.51 520.868 1493.01C517.622 1497.23 514.196 1501.24 510.59 1505.03L482.138 1534.84L471.824 1530.35L521.92 1478.54C527.314 1472.94 531.247 1469.17 533.721 1467.25C537.035 1464.65 540.217 1463.08 543.267 1462.55C546.335 1461.97 549.511 1462.4 552.796 1463.83C554.783 1464.7 556.816 1466.08 558.895 1467.99Z" fill="#2690FF"/>
<path d="M454.571 1445.38L436.939 1512.52L427.051 1506.41L442.363 1454.08C441.848 1454.59 438.474 1457.87 432.24 1463.91L402.811 1491.42L392.977 1485.34L404.773 1447.37L408.628 1434.83L398.647 1443.72L368.79 1470.38L359.487 1464.63L412.044 1419.09L421.985 1425.23L410.063 1464.6L406.293 1475.57L444.577 1439.2L454.571 1445.38Z" fill="#2690FF"/>
<path d="M378.434 1435.99C370.952 1445.74 362.699 1450.88 353.676 1451.42C346.155 1451.85 339.138 1449.56 332.625 1444.56C325.385 1439.01 321.294 1432.09 320.351 1423.8C319.383 1415.55 322.107 1407.24 328.524 1398.88C333.723 1392.1 338.844 1387.55 343.886 1385.22C348.87 1382.9 354.137 1382.16 359.687 1383.01C365.203 1383.82 370.259 1386 374.854 1389.52C382.226 1395.18 386.379 1402.12 387.315 1410.35C388.217 1418.55 385.256 1427.1 378.434 1435.99ZM369.26 1428.95C374.434 1422.21 376.844 1416.02 376.488 1410.39C376.108 1404.79 373.686 1400.28 369.223 1396.86C364.794 1393.46 359.814 1392.32 354.285 1393.43C348.756 1394.55 343.341 1398.56 338.04 1405.47C333.043 1411.98 330.752 1418.05 331.166 1423.67C331.521 1429.3 333.897 1433.8 338.294 1437.17C342.756 1440.6 347.74 1441.77 353.244 1440.69C358.747 1439.61 364.086 1435.69 369.26 1428.95Z" fill="#2690FF"/>
<path d="M344.349 1366.58L300.269 1416.2L292.699 1409.48L299.381 1401.95C294.323 1403.76 290.486 1404.5 287.87 1404.18C285.223 1403.84 282.918 1402.79 280.955 1401.05C278.121 1398.53 276.042 1395.07 274.718 1390.66L284.547 1385.43C285.524 1388.47 287.04 1390.91 289.096 1392.73C290.934 1394.37 293.083 1395.27 295.544 1395.45C297.976 1395.66 300.376 1395.06 302.742 1393.65C306.333 1391.49 309.706 1388.64 312.86 1385.09L335.938 1359.11L344.349 1366.58Z" fill="#2690FF"/>
<path d="M314.496 1339.59L249.18 1403.85L241.291 1395.83L278.538 1359.19L240.618 1359.14L230.405 1348.76L265.755 1349.58L275.924 1300.39L285.655 1310.28L276.847 1349.72L287.849 1350.03L306.607 1331.57L314.496 1339.59Z" fill="#2690FF"/>
<path d="M232.838 1264.49C238.379 1264.75 243.34 1265.91 247.722 1267.98C252.072 1270.08 255.855 1273.09 259.072 1277.03C265.005 1284.29 267.26 1292.05 265.837 1300.32C264.658 1307.04 261.6 1312.42 256.664 1316.45C252.277 1320.04 247.178 1321.86 241.367 1321.93C235.498 1321.99 228.93 1320.31 221.665 1316.89C220.597 1323.09 219.353 1327.65 217.933 1330.59C216.513 1333.53 214.738 1335.87 212.609 1337.61C208.35 1341.09 203.298 1342.45 197.453 1341.68C191.549 1340.91 186.527 1337.99 182.387 1332.93C178.432 1328.09 176.686 1322.92 177.149 1317.43C177.585 1311.91 179.884 1307.45 184.046 1304.04C190.789 1298.53 200.2 1298.29 212.278 1303.33L218.087 1277.35C214.062 1278.22 209.848 1279.78 205.447 1282.03L199.986 1271.4C207.446 1267.89 214.257 1265.82 220.42 1265.19C222.079 1258.4 222.69 1251.74 222.25 1245.21L233.956 1245.41C234.572 1250.77 234.199 1257.13 232.838 1264.49ZM210.343 1312.42C205.032 1310.46 201.089 1309.62 198.515 1309.9C195.915 1310.14 193.598 1311.09 191.566 1312.75C189.146 1314.73 187.811 1317.11 187.561 1319.9C187.251 1322.68 188.033 1325.22 189.905 1327.51C191.83 1329.86 194.197 1331.21 197.005 1331.55C199.787 1331.86 202.275 1331.12 204.469 1329.33C205.566 1328.43 206.503 1327.21 207.28 1325.66C207.999 1324.1 208.575 1322.2 209.007 1319.97L210.343 1312.42ZM230.436 1275.57L223.696 1307.72C230.353 1310.13 235.564 1311.18 239.328 1310.84C243.06 1310.54 246.104 1309.42 248.459 1307.5C251.33 1305.15 253.378 1301.57 254.603 1296.74C255.828 1291.92 254.726 1287.41 251.298 1283.22C249.163 1280.61 246.154 1278.57 242.273 1277.12C238.334 1275.65 234.388 1275.14 230.436 1275.57Z" fill="#2690FF"/>
<path d="M212.784 1252.64L205.114 1244.39C208.461 1241.38 210.327 1238.04 210.712 1234.36C211.074 1230.65 209.823 1226.67 206.957 1222.42C204.069 1218.13 201.062 1215.54 197.937 1214.63C194.778 1213.75 192.023 1214.09 189.674 1215.68C187.567 1217.1 186.526 1219.13 186.551 1221.78C186.584 1223.62 187.673 1227.51 189.819 1233.45C192.704 1241.45 194.421 1247.2 194.971 1250.7C195.463 1254.19 195.07 1257.37 193.79 1260.24C192.453 1263.1 190.437 1265.44 187.743 1267.26C185.29 1268.91 182.654 1269.89 179.836 1270.18C176.96 1270.46 174.179 1270.1 171.492 1269.1C169.443 1268.37 167.217 1267 164.814 1265C162.354 1263 160.157 1260.56 158.224 1257.69C155.312 1253.37 153.383 1249.17 152.437 1245.08C151.468 1240.96 151.53 1237.4 152.624 1234.4C153.683 1231.43 155.794 1228.45 158.956 1225.46L166.35 1233.74C163.796 1236.07 162.401 1238.77 162.162 1241.84C161.901 1244.88 162.993 1248.22 165.439 1251.84C168.327 1256.13 171.097 1258.71 173.748 1259.58C176.399 1260.46 178.675 1260.26 180.575 1258.98C181.784 1258.16 182.616 1257.05 183.071 1255.64C183.56 1254.2 183.586 1252.45 183.147 1250.38C182.864 1249.22 181.807 1245.93 179.976 1240.54C177.288 1232.75 175.641 1227.18 175.034 1223.82C174.37 1220.45 174.607 1217.29 175.748 1214.36C176.888 1211.44 179.047 1208.9 182.226 1206.76C185.335 1204.66 188.889 1203.6 192.887 1203.56C196.828 1203.52 200.711 1204.69 204.537 1207.09C208.329 1209.51 211.68 1212.88 214.592 1217.2C219.414 1224.35 221.609 1230.81 221.177 1236.58C220.721 1242.31 217.924 1247.66 212.784 1252.64Z" fill="#2690FF"/>
<path d="M173.729 1172.67L181.482 1166.24C183.658 1168.64 185.378 1170.92 186.642 1173.07C188.706 1176.6 189.75 1179.65 189.773 1182.25C189.796 1184.84 189.14 1187.06 187.806 1188.91C186.436 1190.77 182.839 1193.41 177.015 1196.82L144.066 1216.13L148.237 1223.24L140.687 1227.67L136.516 1220.55L122.334 1228.86L110.854 1222.62L130.861 1210.9L125.142 1201.14L132.692 1196.71L138.411 1206.47L171.899 1186.85C174.667 1185.23 176.351 1184.03 176.953 1183.24C177.533 1182.42 177.836 1181.49 177.861 1180.46C177.865 1179.4 177.445 1178.15 176.603 1176.71C175.971 1175.63 175.013 1174.28 173.729 1172.67Z" fill="#2690FF"/>
<path d="M158.389 1120.5L149.661 1124.85C158.678 1126.13 165.165 1130.74 169.122 1138.69C170.869 1142.19 171.832 1145.81 172.013 1149.54C172.175 1153.23 171.62 1156.32 170.35 1158.81C169.023 1161.29 167.035 1163.56 164.386 1165.63C162.613 1167.02 159.583 1168.79 155.294 1170.92L118.483 1189.26L113.467 1179.19L146.418 1162.78C151.676 1160.16 155.117 1158.19 156.74 1156.87C159.073 1154.91 160.492 1152.53 161 1149.72C161.47 1146.92 160.953 1144.01 159.448 1140.99C157.943 1137.97 155.766 1135.52 152.918 1133.63C150.033 1131.76 146.997 1130.95 143.81 1131.19C140.567 1131.41 136.41 1132.78 131.338 1135.3L99.5057 1151.16L94.4897 1141.09L153.902 1111.5L158.389 1120.5Z" fill="#2690FF"/>
<path d="M133.925 1060.99L126.128 1064.04C133.793 1065.56 139.116 1070.12 142.096 1077.72C144.028 1082.65 144.449 1087.72 143.361 1092.93C142.257 1098.11 139.729 1102.79 135.777 1106.98C131.772 1111.15 126.607 1114.47 120.284 1116.95C114.116 1119.37 108.127 1120.53 102.317 1120.44C96.4675 1120.36 91.3987 1118.79 87.1101 1115.72C82.8215 1112.66 79.6812 1108.59 77.6891 1103.51C76.2292 1099.78 75.7243 1096.15 76.1743 1092.62C76.5855 1089.1 77.6945 1085.94 79.5013 1083.13L48.8939 1095.12L44.8109 1084.71L130.116 1051.27L133.925 1060.99ZM116.064 1106.19C123.978 1103.08 129.24 1099.1 131.85 1094.22C134.46 1089.35 134.876 1084.65 133.097 1080.11C131.302 1075.53 127.919 1072.38 122.948 1070.66C117.923 1068.92 111.57 1069.55 103.889 1072.56C95.4326 1075.87 89.8645 1079.94 87.185 1084.75C84.5055 1089.56 84.101 1094.35 85.9714 1099.12C87.7963 1103.77 91.2254 1106.93 96.2588 1108.58C101.277 1110.19 107.879 1109.39 116.064 1106.19Z" fill="#2690FF"/>
<path d="M151.468 1033.48L141.702 1037.7C141.639 1035.15 141.346 1033 140.822 1031.24C140.108 1028.85 139.138 1027.05 137.911 1025.85C136.684 1024.65 135.214 1023.81 133.503 1023.32C132.223 1022.96 129.22 1022.66 124.495 1022.41C123.837 1022.39 122.863 1022.34 121.574 1022.24L65.0381 1065.37L61.575 1053.75L94.4664 1029.54C98.6266 1026.43 103.08 1023.43 107.826 1020.53C102.506 1020.77 97.2341 1020.73 92.0105 1020.42L50.8824 1017.87L47.6693 1007.09L119.569 1012.01C127.331 1012.53 132.743 1013.11 135.807 1013.76C139.932 1014.62 143.182 1016.04 145.557 1018.03C147.972 1020 149.692 1022.71 150.715 1026.14C151.334 1028.22 151.585 1030.67 151.468 1033.48Z" fill="#2690FF"/>
<path d="M101.522 939.146L38.8223 968.929L37.1256 957.428L87.0089 935.412C86.2838 935.35 81.6029 934.883 72.9663 934.009L32.9659 929.234L31.2783 917.795L67.9156 902.345L79.9838 897.216L66.7521 895.314L27.1278 889.662L25.5314 878.842L94.2242 889.682L95.93 901.244L58.1473 917.495L47.3299 921.681L99.8069 927.522L101.522 939.146Z" fill="#2690FF"/>
<path d="M59.6415 874.873C47.3627 875.436 38.1115 872.44 31.8878 865.885C26.7147 860.408 23.94 853.57 23.5637 845.37C23.1454 836.255 25.8004 828.667 31.5286 822.606C37.2151 816.548 45.3237 813.277 55.8543 812.793C64.387 812.402 71.1683 813.384 76.1982 815.739C81.1846 818.054 85.1432 821.606 88.0741 826.393C91.0031 831.139 92.6003 836.405 92.8658 842.19C93.2917 851.472 90.6604 859.122 84.9719 865.139C79.2815 871.114 70.838 874.359 59.6415 874.873ZM59.1115 863.322C67.6025 862.933 73.8858 860.788 77.9614 856.889C81.9953 852.992 83.8833 848.233 83.6255 842.614C83.3695 837.037 81.0338 832.493 76.6183 828.984C72.2028 825.474 65.6454 823.919 56.9462 824.318C48.7465 824.694 42.6307 826.852 38.5987 830.791C34.5231 834.69 32.6124 839.408 32.8664 844.943C33.1242 850.563 35.4401 855.128 39.814 858.639C44.1879 862.151 50.6204 863.712 59.1115 863.322Z" fill="#2690FF"/>
<path d="M90.7531 804.078L24.4006 802.351L24.664 792.229L34.723 792.491C30.0835 789.786 27.0422 787.331 25.599 785.126C24.157 782.88 23.4701 780.444 23.5384 777.82C23.637 774.03 24.9452 770.208 27.463 766.356L37.7961 770.501C36.1001 773.208 35.2164 775.936 35.1448 778.685C35.0809 781.142 35.7732 783.37 37.2217 785.366C38.6286 787.362 40.6333 788.81 43.2357 789.712C47.2019 791.065 51.5591 791.804 56.3075 791.927L91.0458 792.831L90.7531 804.078Z" fill="#2690FF"/>
<path d="M92.1465 763.862L0.919922 755.327L1.9679 744.126L53.9907 748.993L29.5883 719.968L30.9449 705.469L53.099 733.028L97.27 709.101L95.9775 722.916L60.144 741.596L66.9964 750.21L93.1945 752.661L92.1465 763.862Z" fill="#2690FF"/>
<path d="M96.9539 653.02C100.325 657.425 102.632 661.969 103.873 666.653C105.074 671.329 105.206 676.165 104.27 681.162C102.542 690.376 98.0598 697.103 90.8216 701.342C84.9221 704.772 78.8393 705.9 72.5735 704.726C67.0038 703.682 62.3209 700.96 58.5248 696.56C54.6954 692.112 51.749 686.006 49.6855 678.243C44.2568 681.423 39.962 683.416 36.801 684.222C33.64 685.029 30.708 685.178 28.0051 684.672C22.5992 683.659 18.3054 680.671 15.1235 675.708C11.9084 670.696 10.9034 664.976 12.1085 658.546C13.26 652.403 16.0842 647.739 20.5811 644.555C25.0857 641.33 29.9795 640.212 35.2625 641.202C43.8218 642.807 50.0689 649.849 54.0037 662.329L77.6111 650.03C74.3526 647.512 70.444 645.295 65.8853 643.381L70.4957 632.354C77.9903 635.794 83.962 639.669 88.4108 643.979C94.6738 640.871 100.16 637.045 104.869 632.502L112.261 641.581C108.557 645.508 103.455 649.321 96.9539 653.02ZM45.807 666.706C43.8793 661.385 41.9812 657.829 40.1126 656.037C38.2517 654.205 36.0312 653.047 33.4511 652.563C30.3796 651.987 27.6972 652.502 25.4039 654.107C23.0774 655.663 21.6416 657.895 21.0966 660.803C20.5362 663.793 21.0304 666.471 22.5791 668.839C24.1355 671.165 26.306 672.59 29.0909 673.112C30.4833 673.373 32.0229 673.301 33.7096 672.896C35.3631 672.443 37.1841 671.661 39.1728 670.55L45.807 666.706ZM86.9297 658.326L58.005 673.889C60.4473 680.536 63.0084 685.192 65.6884 687.856C68.3275 690.513 71.1419 692.121 74.1315 692.682C77.7763 693.365 81.837 692.621 86.3136 690.45C90.7901 688.279 93.5273 684.532 94.5252 679.208C95.147 675.891 94.7641 672.279 93.3766 668.374C91.9558 664.419 89.8068 661.07 86.9297 658.326Z" fill="#2690FF"/>
<path d="M93.092 630.047L94.4542 618.868C98.9133 619.488 102.673 618.76 105.733 616.685C108.804 614.57 111.041 611.048 112.444 606.118C113.858 601.149 113.906 597.177 112.586 594.202C111.227 591.216 109.185 589.335 106.46 588.56C104.015 587.864 101.789 588.378 99.782 590.103C98.3982 591.312 96.1265 594.651 92.9671 600.12C88.7049 607.485 85.4134 612.505 83.0924 615.18C80.7428 617.803 78.0575 619.552 75.0364 620.425C71.9867 621.246 68.8989 621.212 65.7731 620.323C62.9277 619.513 60.4853 618.125 58.4458 616.158C56.3776 614.14 54.8614 611.78 53.8971 609.08C53.1338 607.043 52.742 604.462 52.7216 601.337C52.6726 598.161 53.1215 594.909 54.0681 591.583C55.4939 586.574 57.4642 582.391 59.979 579.034C62.5053 575.638 65.2674 573.392 68.2653 572.295C71.2232 571.188 74.8629 570.881 79.1846 571.374L77.6161 582.365C74.1931 581.91 71.2291 582.583 68.7241 584.383C66.2305 586.142 64.3849 589.126 63.1872 593.334C61.7729 598.303 61.585 602.084 62.6236 604.675C63.6622 607.267 65.2835 608.876 67.4876 609.504C68.8903 609.903 70.2781 609.821 71.6511 609.259C73.0642 608.708 74.4196 607.599 75.7171 605.933C76.4258 604.965 78.2543 602.041 81.2026 597.162C85.4249 590.089 88.6251 585.238 90.803 582.609C92.9522 579.928 95.5144 578.08 98.4895 577.064C101.465 576.048 104.796 576.064 108.483 577.114C112.089 578.14 115.193 580.172 117.795 583.208C120.368 586.193 121.971 589.92 122.605 594.389C123.199 598.847 122.784 603.581 121.358 608.59C118.997 616.886 115.471 622.727 110.782 626.115C106.103 629.462 100.207 630.773 93.092 630.047Z" fill="#2690FF"/>
<path d="M129.073 548.651L138.983 550.439C138.553 553.646 137.921 556.428 137.086 558.784C135.722 562.633 134.056 565.402 132.087 567.092C130.118 568.781 127.999 569.71 125.729 569.878C123.42 570.033 119.084 568.983 112.722 566.728L76.7269 553.974L73.9715 561.75L65.724 558.828L68.4793 551.052L52.9857 545.562L50.3598 532.762L72.2158 540.507L75.994 529.844L84.2416 532.766L80.4634 543.429L117.047 556.392C120.071 557.463 122.078 557.975 123.067 557.928C124.07 557.842 124.973 557.476 125.776 556.832C126.593 556.149 127.28 555.022 127.836 553.451C128.254 552.273 128.666 550.673 129.073 548.651Z" fill="#2690FF"/>
<path d="M159.076 503.303L150.128 499.431C154.959 507.151 155.613 515.084 152.089 523.229C150.533 526.824 148.389 529.891 145.655 532.431C142.938 534.933 140.216 536.502 137.49 537.138C134.741 537.719 131.724 537.662 128.438 536.967C126.229 536.511 122.926 535.331 118.529 533.428L80.7854 517.097L85.253 506.772L119.038 521.391C124.43 523.724 128.154 525.085 130.21 525.476C133.206 526 135.943 525.55 138.421 524.125C140.861 522.684 142.751 520.415 144.091 517.317C145.431 514.22 145.905 510.974 145.512 507.581C145.081 504.171 143.748 501.324 141.512 499.04C139.255 496.702 135.527 494.407 130.326 492.157L97.6878 478.034L102.155 467.709L163.072 494.068L159.076 503.303Z" fill="#2690FF"/>
<path d="M188.821 446.243L181.459 442.25C185.24 449.088 185.183 456.096 181.29 463.275C178.768 467.927 175.162 471.517 170.472 474.046C165.803 476.538 160.593 477.623 154.843 477.301C149.075 476.922 143.207 475.114 137.237 471.877C131.413 468.718 126.665 464.887 122.993 460.384C119.284 455.86 117.219 450.972 116.797 445.719C116.375 440.466 117.465 435.44 120.067 430.642C121.974 427.126 124.424 424.401 127.415 422.469C130.37 420.516 133.504 419.325 136.819 418.894L107.92 403.222L113.253 393.388L193.797 437.068L188.821 446.243ZM142.749 461.713C150.221 465.765 156.66 467.219 162.068 466.075C167.476 464.931 171.341 462.217 173.665 457.931C176.009 453.609 176.238 448.993 174.35 444.083C172.446 439.116 167.868 434.666 160.616 430.733C152.631 426.403 145.936 424.763 140.532 425.814C135.127 426.864 131.203 429.642 128.76 434.148C126.377 438.543 126.175 443.197 128.156 448.111C130.156 452.987 135.02 457.521 142.749 461.713Z" fill="#2690FF"/>
<path d="M221.157 441.933L211.641 437.182C213.547 435.493 215.004 433.882 216.01 432.349C217.382 430.259 218.131 428.359 218.257 426.647C218.384 424.936 218.083 423.268 217.355 421.644C216.803 420.434 215.098 417.945 212.24 414.174C211.832 413.657 211.248 412.876 210.49 411.829L141.075 396.394L147.728 386.258L187.441 395.803C192.5 396.98 197.665 398.452 202.935 400.217C199.325 396.302 195.956 392.246 192.829 388.051L168.272 354.96L174.446 345.555L217.019 403.705C221.628 409.97 224.671 414.484 226.147 417.247C228.149 420.954 229.156 424.356 229.167 427.453C229.212 430.573 228.251 433.631 226.285 436.627C225.096 438.438 223.387 440.207 221.157 441.933Z" fill="#2690FF"/>
<path d="M261.105 342.947L197.926 314.196L205.627 305.487L254.608 329.443C254.188 328.849 251.529 324.968 246.631 317.801L224.505 284.137L232.165 275.475L267.589 293.533L279.288 299.456L272.215 288.113L251.002 254.171L258.247 245.978L294.226 305.49L286.484 314.246L249.709 295.827L239.537 290.254L268.889 334.145L261.105 342.947Z" fill="#2690FF"/>
<path d="M283.263 269.502C274.919 260.476 271.248 251.471 272.25 242.488C273.104 235.003 276.545 228.474 282.573 222.903C289.273 216.708 296.786 213.849 305.112 214.323C313.41 214.767 321.136 218.859 328.292 226.6C334.09 232.873 337.709 238.691 339.15 244.055C340.593 249.36 340.428 254.675 338.656 260.002C336.915 265.3 333.918 269.914 329.665 273.846C322.842 280.153 315.297 283.071 307.03 282.598C298.794 282.098 290.871 277.733 283.263 269.502ZM291.754 261.653C297.523 267.895 303.212 271.318 308.82 271.921C314.4 272.494 319.255 270.872 323.386 267.053C327.486 263.263 329.455 258.549 329.293 252.911C329.131 247.273 326.095 241.257 320.183 234.862C314.611 228.835 309.02 225.548 303.41 225.004C297.802 224.4 292.963 225.979 288.894 229.741C284.763 233.559 282.765 238.272 282.898 243.88C283.032 249.487 285.984 255.412 291.754 261.653Z" fill="#2690FF"/>
<path d="M357.448 247.669L316.008 195.82L323.917 189.498L330.2 197.359C329.278 192.068 329.195 188.16 329.952 185.636C330.74 183.085 332.16 180.991 334.21 179.352C337.172 176.985 340.937 175.522 345.506 174.965L348.995 185.538C345.832 185.985 343.177 187.067 341.029 188.784C339.108 190.319 337.851 192.284 337.258 194.678C336.639 197.04 336.823 199.506 337.811 202.077C339.332 205.982 341.575 209.79 344.54 213.5L366.236 240.646L357.448 247.669Z" fill="#2690FF"/>
<path d="M389.097 222.819L336.834 147.561L346.074 141.144L375.878 184.06L382.346 146.696L394.307 138.39L387.511 173.09L434.272 191.447L422.876 199.361L385.499 183.999L383.329 194.789L398.337 216.402L389.097 222.819Z" fill="#2690FF"/>
<path d="M476.953 155.066C475.757 160.482 473.769 165.174 470.987 169.142C468.186 173.074 464.573 176.291 460.149 178.795C451.99 183.413 443.957 184.32 436.051 181.517C429.626 179.216 424.844 175.292 421.704 169.744C418.913 164.812 417.976 159.477 418.894 153.739C419.828 147.945 422.598 141.757 427.204 135.176C421.275 133.074 416.983 131.074 414.329 129.177C411.676 127.279 409.672 125.134 408.317 122.741C405.608 117.954 405.126 112.745 406.87 107.114C408.63 101.426 412.357 96.971 418.05 93.749C423.49 90.6707 428.876 89.8248 434.209 91.2113C439.578 92.5773 443.586 95.5992 446.234 100.277C450.523 107.856 449.164 117.171 442.156 128.222L466.774 138.348C466.6 134.234 465.776 129.817 464.302 125.097L475.705 121.516C477.904 129.464 478.79 136.527 478.361 142.707C484.774 145.493 491.234 147.223 497.743 147.896L495.564 159.399C490.175 159.097 483.971 157.653 476.953 155.066ZM433.527 124.776C436.353 119.872 437.85 116.129 438.015 113.546C438.217 110.942 437.672 108.498 436.379 106.213C434.84 103.493 432.718 101.774 430.013 101.055C427.323 100.279 424.691 100.619 422.117 102.076C419.469 103.574 417.74 105.678 416.927 108.388C416.151 111.078 416.461 113.655 417.857 116.121C418.554 117.354 419.601 118.485 420.998 119.514C422.41 120.486 424.181 121.375 426.312 122.18L433.527 124.776ZM466.435 150.82L435.895 138.732C432.386 144.883 430.477 149.841 430.167 153.608C429.836 157.338 430.42 160.526 431.918 163.174C433.744 166.401 436.93 169.027 441.475 171.051C446.019 173.075 450.649 172.753 455.363 170.085C458.3 168.423 460.815 165.803 462.907 162.225C465.016 158.59 466.192 154.788 466.435 150.82Z" fill="#2690FF"/>
<path d="M492.029 137.308L501.455 131.145C503.855 134.954 506.835 137.36 510.393 138.362C513.99 139.348 518.125 138.789 522.798 136.685C527.509 134.564 530.577 132.04 532.001 129.114C533.409 126.15 533.531 123.377 532.368 120.793C531.325 118.475 529.497 117.105 526.884 116.682C525.068 116.403 521.051 116.817 514.833 117.926C506.455 119.413 500.495 120.131 496.954 120.08C493.433 119.974 490.366 119.048 487.752 117.3C485.158 115.498 483.194 113.114 481.86 110.151C480.646 107.453 480.133 104.691 480.323 101.864C480.533 98.982 481.36 96.3021 482.804 93.8245C483.869 91.9283 485.59 89.9656 487.967 87.9362C490.364 85.8517 493.139 84.0997 496.293 82.68C501.042 80.542 505.51 79.353 509.698 79.113C513.923 78.8559 517.421 79.5204 520.191 81.1063C522.944 82.6543 525.524 85.2396 527.932 88.8622L518.517 94.7455C516.659 91.8352 514.234 90.0022 511.244 89.2465C508.291 88.4737 504.82 88.9853 500.831 90.7812C496.12 92.9021 493.108 95.1947 491.795 97.659C490.483 100.123 490.297 102.4 491.238 104.49C491.836 105.82 492.793 106.828 494.108 107.516C495.44 108.242 497.161 108.563 499.272 108.481C500.469 108.399 503.883 107.914 509.514 107.024C517.643 105.694 523.414 105.015 526.828 104.986C530.263 104.902 533.328 105.67 536.022 107.29C538.716 108.911 540.85 111.468 542.424 114.964C543.963 118.383 544.41 122.066 543.765 126.012C543.14 129.903 541.324 133.531 538.315 136.896C535.289 140.223 531.401 142.956 526.652 145.094C518.787 148.634 512.049 149.703 506.436 148.3C500.862 146.88 496.06 143.216 492.029 137.308Z" fill="#2690FF"/>
<path d="M577.456 112.366L582.476 121.096C579.747 122.834 577.212 124.144 574.872 125.024C571.05 126.461 567.859 126.972 565.298 126.555C562.737 126.138 560.661 125.116 559.07 123.489C557.464 121.822 555.473 117.83 553.096 111.512L539.653 75.7695L531.931 78.6738L528.851 70.484L536.572 67.5796L530.786 52.1944L538.881 41.938L547.044 63.6411L557.632 59.6586L560.712 67.8485L550.124 71.831L563.788 108.159C564.917 111.162 565.819 113.026 566.492 113.752C567.205 114.464 568.066 114.919 569.076 115.118C570.125 115.302 571.429 115.101 572.989 114.514C574.159 114.074 575.648 113.358 577.456 112.366Z" fill="#2690FF"/>
<path d="M631.468 106.085L628.662 96.7473C625.872 105.417 620.227 111.029 611.728 113.583C607.977 114.71 604.249 115.047 600.546 114.593C596.882 114.128 593.928 113.058 591.684 111.383C589.469 109.656 587.568 107.312 585.982 104.351C584.908 102.368 583.681 99.0822 582.302 94.4932L570.467 55.1079L581.241 51.8704L591.835 87.1256C593.526 92.7521 594.884 96.4771 595.911 98.3005C597.44 100.93 599.549 102.733 602.235 103.709C604.909 104.646 607.862 104.629 611.095 103.657C614.327 102.686 617.114 100.957 619.455 98.4695C621.785 95.9422 623.103 93.0881 623.409 89.9072C623.742 86.6743 623.094 82.3445 621.463 76.9175L611.229 42.8594L622.003 39.6219L641.104 103.189L631.468 106.085Z" fill="#2690FF"/>
<path d="M694.268 92.0577L692.576 83.8553C689.784 91.1529 684.389 95.6264 676.391 97.2757C671.208 98.3444 666.139 97.9007 661.184 95.9445C656.269 93.98 652.082 90.6954 648.622 86.0909C645.195 81.4371 642.796 75.7844 641.424 69.1327C640.086 62.6442 639.956 56.5448 641.033 50.8346C642.102 45.0836 644.509 40.3542 648.254 36.6464C651.999 32.9387 656.544 30.5336 661.89 29.4312C665.808 28.6234 669.469 28.7405 672.875 29.7825C676.272 30.7837 679.203 32.4128 681.668 34.6698L675.029 2.47226L685.986 0.21283L704.49 89.9498L694.268 92.0577ZM652.748 66.7975C654.465 75.1224 657.503 80.9838 661.862 84.3817C666.222 87.7796 670.789 88.9863 675.563 88.0017C680.379 87.0088 684.056 84.2085 686.594 79.6009C689.165 74.944 689.617 68.5756 687.951 60.4956C686.116 51.5995 683.056 45.4236 678.77 41.9681C674.484 38.5125 669.831 37.3022 664.812 38.3373C659.915 39.3471 656.226 42.1924 653.745 46.8732C651.305 51.5456 650.973 58.187 652.748 66.7975Z" fill="#2690FF"/>
<path d="M718.402 114.006L715.902 103.668C718.422 104.037 720.593 104.112 722.413 103.894C724.895 103.596 726.831 102.944 728.221 101.938C729.611 100.932 730.693 99.6271 731.466 98.0236C732.035 96.8223 732.84 93.914 733.881 89.2988C734.013 88.6534 734.235 87.7036 734.546 86.4492L701.616 23.4233L713.655 21.9789L731.948 58.4972C734.308 63.1241 736.511 68.0215 738.558 73.1894C739.225 67.9057 740.155 62.7163 741.348 57.6212L750.826 17.519L761.996 16.1788L744.967 86.2062C743.146 93.7685 741.655 99.0043 740.493 101.913C738.949 105.834 736.997 108.796 734.635 110.8C732.279 112.845 729.322 114.081 725.764 114.508C723.613 114.766 721.158 114.599 718.402 114.006Z" fill="#2690FF"/>
</svg>
