<svg width="454" height="461" viewBox="0 0 454 461" fill="none" xmlns="http://www.w3.org/2000/svg">
<path d="M305.257 126.664L325.04 60.1287L334.725 66.5575L317.739 118.37C318.269 117.872 321.747 114.704 328.172 108.867L358.471 82.3184L368.104 88.7126L355.093 126.285L350.836 138.688L361.098 130.121L391.798 104.439L400.91 110.487L346.916 154.314L337.178 147.851L350.36 108.891L354.481 98.0488L315.047 133.162L305.257 126.664Z" fill="#2690FF"/>
<path d="M325.816 100.876C333.608 91.3691 342.021 86.4937 351.057 86.2494C358.588 86.0654 365.528 88.5751 371.877 93.7784C378.934 99.5628 382.801 106.611 383.477 114.923C384.179 123.202 381.189 131.419 374.506 139.572C369.092 146.178 363.827 150.563 358.712 152.728C353.656 154.888 348.369 155.456 342.849 154.434C337.362 153.438 332.379 151.105 327.899 147.434C320.713 141.543 316.785 134.472 316.115 126.219C315.477 117.992 318.711 109.544 325.816 100.876ZM334.758 108.205C329.37 114.779 326.763 120.885 326.937 126.523C327.137 132.128 329.413 136.714 333.763 140.28C338.081 143.819 343.021 145.12 348.584 144.184C354.146 143.248 359.687 139.412 365.207 132.677C370.411 126.329 372.896 120.339 372.663 114.707C372.489 109.069 370.259 104.494 365.974 100.981C361.623 97.415 356.68 96.0842 351.144 96.9882C345.609 97.8922 340.146 101.631 334.758 108.205Z" fill="#2690FF"/>
<path d="M317.778 137.897L363.431 89.7164L370.781 96.6805L363.86 103.985C368.974 102.344 372.833 101.724 375.437 102.126C378.072 102.556 380.342 103.673 382.247 105.479C385 108.087 386.966 111.615 388.147 116.063L378.155 120.974C377.277 117.903 375.839 115.422 373.843 113.531C372.059 111.84 369.94 110.865 367.487 110.607C365.062 110.319 362.645 110.841 360.234 112.173C356.576 114.217 353.113 116.963 349.846 120.411L325.944 145.635L317.778 137.897Z" fill="#2690FF"/>
<path d="M322.172 142.498L389.521 80.3752L397.149 88.6446L358.742 124.071L396.641 125.335L406.514 136.039L371.209 134.083L359.463 182.926L350.055 172.727L360.127 133.592L349.141 132.927L329.8 150.767L322.172 142.498Z" fill="#2690FF"/>
<path d="M368.614 184.532C363.084 184.093 358.163 182.769 353.85 180.56C349.57 178.326 345.886 175.19 342.797 171.153C337.101 163.707 335.097 155.876 336.785 147.659C338.179 140.979 341.408 135.702 346.471 131.829C350.972 128.385 356.127 126.724 361.937 126.843C367.805 126.97 374.315 128.862 381.467 132.519C382.733 126.357 384.123 121.831 385.638 118.941C387.152 116.052 389.001 113.771 391.185 112.1C395.553 108.758 400.646 107.564 406.464 108.517C412.34 109.477 417.266 112.555 421.24 117.751C425.038 122.715 426.617 127.933 425.978 133.406C425.364 138.912 422.922 143.298 418.653 146.564C411.737 151.856 402.323 151.792 390.412 146.372L383.771 172.149C387.822 171.41 392.084 169.986 396.556 167.877L401.672 178.678C394.103 181.951 387.228 183.8 381.049 184.225C379.171 190.96 378.347 197.598 378.577 204.138L366.883 203.562C366.44 198.182 367.017 191.839 368.614 184.532ZM392.639 137.35C397.884 139.475 401.798 140.442 404.38 140.251C406.987 140.092 409.332 139.216 411.417 137.621C413.899 135.722 415.31 133.383 415.65 130.605C416.049 127.834 415.349 125.274 413.552 122.925C411.704 120.509 409.382 119.085 406.586 118.653C403.815 118.255 401.305 118.916 399.054 120.638C397.929 121.499 396.953 122.692 396.126 124.216C395.357 125.749 394.721 127.626 394.217 129.847L392.639 137.35ZM371.371 173.53L379.142 141.617C372.566 138.988 367.392 137.779 363.619 137.99C359.879 138.176 356.801 139.193 354.385 141.041C351.44 143.294 349.277 146.811 347.898 151.591C346.519 156.371 347.474 160.912 350.766 165.214C352.816 167.895 355.758 170.025 359.59 171.605C363.48 173.193 367.407 173.835 371.371 173.53Z" fill="#2690FF"/>
<path d="M351.203 147.37L358.604 155.858C355.162 158.759 353.189 162.041 352.686 165.704C352.204 169.402 353.327 173.421 356.054 177.76C358.803 182.134 361.725 184.826 364.819 185.834C367.949 186.82 370.713 186.559 373.112 185.052C375.264 183.699 376.37 181.7 376.429 179.055C376.456 177.217 375.492 173.295 373.538 167.289C370.913 159.195 369.381 153.391 368.944 149.877C368.565 146.375 369.06 143.209 370.431 140.379C371.86 137.562 373.95 135.289 376.702 133.56C379.206 131.986 381.872 131.098 384.698 130.897C387.582 130.709 390.35 131.159 393.003 132.248C395.027 133.042 397.208 134.477 399.545 136.551C401.94 138.639 404.057 141.147 405.897 144.075C408.669 148.485 410.461 152.747 411.275 156.861C412.111 161.011 411.935 164.567 410.745 167.529C409.591 170.469 407.385 173.38 404.128 176.264L397.005 167.748C399.632 165.507 401.114 162.853 401.451 159.787C401.81 156.756 400.826 153.389 398.498 149.685C395.749 145.31 393.063 142.642 390.442 141.682C387.821 140.721 385.54 140.85 383.599 142.069C382.365 142.845 381.497 143.932 380.997 145.329C380.462 146.748 380.38 148.497 380.752 150.576C380.997 151.751 381.949 155.065 383.605 160.52C386.04 168.389 387.507 174.012 388.006 177.39C388.562 180.78 388.223 183.921 386.989 186.813C385.755 189.705 383.515 192.17 380.27 194.21C377.094 196.205 373.508 197.155 369.511 197.059C365.571 196.975 361.727 195.675 357.98 193.158C354.269 190.619 351.027 187.144 348.256 182.735C343.666 175.432 341.681 168.905 342.298 163.153C342.938 157.436 345.906 152.175 351.203 147.37Z" fill="#2690FF"/>
<path d="M363.311 188.864L355.355 195.037C353.258 192.573 351.612 190.242 350.418 188.046C348.468 184.458 347.523 181.367 347.584 178.774C347.644 176.18 348.371 173.983 349.764 172.183C351.193 170.363 354.873 167.841 360.804 164.618L394.357 146.383L390.417 139.134L398.105 134.956L402.045 142.205L416.487 134.356L427.76 140.962L407.387 152.035L412.789 161.974L405.101 166.152L399.699 156.213L365.597 174.746C362.778 176.278 361.055 177.428 360.429 178.195C359.823 178.999 359.49 179.914 359.432 180.942C359.394 182.006 359.773 183.27 360.569 184.734C361.166 185.833 362.08 187.209 363.311 188.864Z" fill="#2690FF"/>
<path d="M362.716 215.541L371.579 211.477C362.608 209.906 356.273 205.088 352.573 197.021C350.941 193.46 350.094 189.815 350.033 186.084C349.99 182.391 350.643 179.318 351.994 176.865C353.399 174.433 355.459 172.227 358.174 170.249C359.99 168.912 363.076 167.245 367.431 165.248L404.813 148.105L409.503 158.331L376.041 173.676C370.7 176.125 367.198 177.983 365.533 179.251C363.139 181.128 361.644 183.464 361.046 186.259C360.486 189.037 360.91 191.96 362.317 195.028C363.724 198.095 365.82 200.618 368.606 202.595C371.43 204.554 374.438 205.467 377.631 205.332C380.879 205.218 385.078 203.98 390.229 201.617L422.555 186.793L427.244 197.02L366.911 224.687L362.716 215.541Z" fill="#2690FF"/>
<path d="M363.461 227.366L371.353 224.562C363.74 222.801 358.567 218.073 355.833 210.377C354.061 205.391 353.803 200.309 355.058 195.132C356.328 189.993 359.005 185.394 363.089 181.334C367.227 177.299 372.496 174.144 378.896 171.87C385.138 169.652 391.162 168.683 396.966 168.965C402.809 169.232 407.825 170.965 412.013 174.164C416.201 177.363 419.208 181.534 421.036 186.678C422.375 190.447 422.763 194.09 422.2 197.606C421.676 201.109 420.465 204.236 418.569 206.989L449.546 195.981L453.292 206.523L366.956 237.201L363.461 227.366ZM382.767 182.765C374.758 185.611 369.37 189.427 366.604 194.213C363.839 198.998 363.272 203.688 364.904 208.281C366.551 212.914 369.83 216.171 374.743 218.051C379.71 219.956 386.08 219.528 393.854 216.766C402.413 213.724 408.109 209.843 410.941 205.122C413.774 200.401 414.333 195.626 412.617 190.797C410.942 186.086 407.617 182.823 402.639 181.01C397.675 179.237 391.051 179.822 382.767 182.765Z" fill="#2690FF"/>
<path d="M327.787 204.364L337.683 200.466C337.665 203.013 337.889 205.173 338.356 206.946C338.992 209.364 339.904 211.192 341.092 212.43C342.28 213.668 343.721 214.56 345.416 215.105C346.684 215.503 349.676 215.9 354.39 216.296C355.048 216.339 356.019 216.427 357.304 216.563L415.198 175.272L418.286 186.998L384.633 210.142C380.374 213.116 375.827 215.973 370.99 218.711C376.315 218.645 381.583 218.852 386.794 219.333L427.819 223.201L430.683 234.08L358.979 226.851C351.238 226.088 345.847 225.332 342.806 224.582C338.71 223.592 335.508 222.065 333.198 220.002C330.848 217.95 329.216 215.191 328.304 211.726C327.752 209.63 327.58 207.177 327.787 204.364Z" fill="#2690FF"/>
<path d="M357.063 225.354L420.688 197.603L422.014 209.153L371.449 229.553C372.171 229.638 376.835 230.256 385.439 231.407L425.265 237.467L426.584 248.954L389.468 263.217L377.241 267.955L390.405 270.282L429.827 277.206L431.075 288.072L362.766 275.028L361.433 263.416L399.719 248.389L410.665 244.553L358.403 237.027L357.063 225.354Z" fill="#2690FF"/>
<path d="M390.031 224.455C402.322 224.287 411.472 227.579 417.481 234.331C422.476 239.971 425.029 246.895 425.141 255.103C425.266 264.227 422.368 271.726 416.448 277.599C410.57 283.472 402.36 286.48 391.819 286.624C383.279 286.741 376.532 285.542 371.581 283.026C366.671 280.551 362.829 276.874 360.054 271.995C357.279 267.158 355.852 261.843 355.773 256.052C355.646 246.761 358.522 239.2 364.401 233.369C370.28 227.58 378.824 224.609 390.031 224.455ZM390.189 236.017C381.69 236.133 375.341 238.074 371.142 241.84C366.985 245.606 364.945 250.301 365.022 255.926C365.098 261.508 367.287 266.125 371.587 269.775C375.887 273.424 382.391 275.19 391.099 275.071C399.306 274.958 405.488 272.998 409.645 269.191C413.844 265.425 415.905 260.771 415.83 255.23C415.753 249.606 413.585 244.968 409.326 241.318C405.067 237.668 398.688 235.901 390.189 236.017Z" fill="#2690FF"/>
<path d="M356.542 242.167L422.804 246.027L422.215 256.135L412.17 255.55C416.72 258.403 419.681 260.954 421.052 263.205C422.421 265.496 423.03 267.953 422.877 270.573C422.656 274.358 421.226 278.136 418.586 281.905L408.391 277.43C410.173 274.779 411.144 272.081 411.304 269.336C411.447 266.881 410.827 264.633 409.443 262.591C408.101 260.551 406.144 259.039 403.572 258.054C399.652 256.574 395.321 255.695 390.579 255.419L355.887 253.398L356.542 242.167Z" fill="#2690FF"/>
<path d="M355.856 248.492L446.761 259.958L445.353 271.119L393.514 264.581L416.97 294.375L415.148 308.823L393.891 280.566L348.974 303.06L350.71 289.294L387.126 271.776L380.554 262.947L354.448 259.654L355.856 248.492Z" fill="#2690FF"/>
<path d="M353.642 311.092C350.415 306.581 348.256 301.965 347.165 297.244C346.116 292.531 346.139 287.693 347.236 282.73C349.258 273.576 353.955 266.996 361.326 262.992C367.333 259.754 373.449 258.822 379.673 260.197C385.207 261.42 389.8 264.291 393.452 268.811C397.137 273.38 399.885 279.577 401.698 287.402C407.226 284.399 411.583 282.546 414.768 281.841C417.953 281.137 420.888 281.081 423.574 281.675C428.944 282.861 433.14 285.986 436.16 291.048C439.213 296.161 440.033 301.911 438.622 308.298C437.273 314.401 434.301 318.971 429.703 322.009C425.097 325.088 420.17 326.048 414.922 324.888C406.419 323.009 400.401 315.77 396.87 303.17L372.879 314.703C376.055 317.325 379.89 319.666 384.385 321.725L379.422 332.598C372.042 328.919 366.198 324.855 361.89 320.404C355.531 323.308 349.924 326.955 345.071 331.345L337.976 322.033C341.804 318.227 347.026 314.58 353.642 311.092ZM405.203 299.058C406.959 304.439 408.741 308.054 410.551 309.905C412.352 311.796 414.535 313.025 417.098 313.592C420.149 314.266 422.847 313.838 425.19 312.307C427.566 310.827 429.073 308.642 429.711 305.753C430.367 302.783 429.959 300.09 428.488 297.674C427.007 295.299 424.883 293.805 422.117 293.194C420.733 292.888 419.192 292.911 417.493 293.261C415.826 293.66 413.981 294.383 411.957 295.43L405.203 299.058ZM363.832 306.111L393.242 291.487C391.015 284.765 388.605 280.029 386.012 277.28C383.46 274.54 380.699 272.841 377.729 272.185C374.108 271.385 370.025 271.998 365.481 274.024C360.937 276.049 358.081 279.707 356.912 284.996C356.184 288.291 356.451 291.913 357.712 295.862C359.005 299.86 361.045 303.276 363.832 306.111Z" fill="#2690FF"/>
<path d="M370.839 273.83L369.118 284.96C364.681 284.197 360.9 284.804 357.775 286.779C354.638 288.794 352.288 292.243 350.728 297.124C349.154 302.046 348.979 306.014 350.202 309.03C351.465 312.058 353.446 314.004 356.144 314.867C358.565 315.641 360.806 315.198 362.868 313.539C364.29 312.375 366.668 309.111 370.002 303.746C374.498 296.522 377.95 291.611 380.356 289.012C382.788 286.465 385.529 284.804 388.576 284.029C391.651 283.306 394.736 283.439 397.831 284.429C400.649 285.33 403.046 286.796 405.021 288.827C407.023 290.911 408.463 293.318 409.34 296.048C410.037 298.108 410.346 300.7 410.265 303.824C410.212 307 409.659 310.236 408.606 313.53C407.02 318.491 404.916 322.608 402.294 325.882C399.66 329.195 396.827 331.352 393.796 332.351C390.804 333.363 387.156 333.553 382.852 332.92L384.774 321.986C388.18 322.55 391.164 321.973 393.726 320.255C396.275 318.577 398.215 315.654 399.548 311.487C401.121 306.565 401.431 302.793 400.476 300.169C399.521 297.546 397.953 295.885 395.77 295.187C394.381 294.743 392.991 294.78 391.6 295.297C390.17 295.803 388.78 296.867 387.43 298.491C386.69 299.436 384.769 302.299 381.665 307.081C377.217 314.015 373.863 318.76 371.601 321.318C369.367 323.928 366.747 325.693 363.74 326.613C360.734 327.533 357.405 327.409 353.754 326.242C350.182 325.1 347.145 322.969 344.643 319.851C342.167 316.785 340.684 313.008 340.194 308.52C339.744 304.046 340.312 299.328 341.898 294.367C344.525 286.152 348.236 280.427 353.032 277.192C357.816 273.997 363.752 272.876 370.839 273.83Z" fill="#2690FF"/>
<path d="M346.912 309.829L337.065 307.724C337.598 304.532 338.319 301.771 339.229 299.443C340.716 295.64 342.471 292.926 344.493 291.301C346.515 289.675 348.663 288.815 350.937 288.72C353.25 288.64 357.55 289.829 363.837 292.287L399.403 306.192L402.407 298.509L410.556 301.695L407.552 309.379L422.861 315.364L425.074 328.241L403.478 319.798L399.359 330.334L391.21 327.148L395.329 316.612L359.181 302.479C356.193 301.311 354.204 300.734 353.213 300.75C352.208 300.804 351.294 301.14 350.471 301.758C349.632 302.414 348.91 303.519 348.303 305.071C347.848 306.235 347.384 307.821 346.912 309.829Z" fill="#2690FF"/>
<path d="M326.131 326.566L334.951 330.724C330.37 322.852 329.972 314.902 333.756 306.875C335.427 303.332 337.669 300.335 340.482 297.885C343.278 295.472 346.049 293.991 348.795 293.443C351.561 292.95 354.575 293.104 357.836 293.905C360.029 294.432 363.293 295.717 367.627 297.761L404.825 315.298L400.028 325.474L366.73 309.776C361.416 307.27 357.738 305.79 355.696 305.333C352.718 304.713 349.968 305.074 347.445 306.419C344.961 307.781 342.999 309.988 341.56 313.041C340.12 316.094 339.543 319.322 339.826 322.727C340.148 326.149 341.389 329.037 343.549 331.392C345.73 333.802 349.383 336.215 354.508 338.631L386.675 353.796L381.878 363.972L321.84 335.668L326.131 326.566Z" fill="#2690FF"/>
<path d="M317.569 334.756L324.798 338.983C321.239 332.027 321.521 325.025 325.643 317.975C328.314 313.406 332.034 309.934 336.802 307.558C341.549 305.217 346.791 304.3 352.528 304.807C358.28 305.371 364.088 307.366 369.951 310.795C375.67 314.139 380.292 318.12 383.817 322.74C387.379 327.38 389.286 332.332 389.538 337.596C389.791 342.86 388.54 347.848 385.784 352.56C383.765 356.013 381.23 358.657 378.178 360.493C375.162 362.349 371.99 363.439 368.664 363.763L397.044 380.356L391.397 390.014L312.3 343.766L317.569 334.756ZM364.114 320.776C356.777 316.486 350.387 314.825 344.945 315.794C339.504 316.764 335.553 319.352 333.092 323.561C330.61 327.805 330.234 332.412 331.962 337.38C333.706 342.406 338.138 347 345.26 351.165C353.102 355.749 359.74 357.604 365.175 356.727C370.611 355.851 374.622 353.201 377.209 348.777C379.733 344.46 380.084 339.815 378.262 334.84C376.42 329.902 371.704 325.214 364.114 320.776Z" fill="#2690FF"/>
<path d="M312.168 292.655L321.526 297.71C319.566 299.337 318.059 300.9 317.004 302.399C315.566 304.444 314.756 306.32 314.574 308.026C314.393 309.732 314.64 311.409 315.315 313.056C315.828 314.282 317.452 316.826 320.188 320.686C320.579 321.216 321.137 322.016 321.861 323.086L390.744 340.746L383.768 350.664L344.382 339.845C339.364 338.506 334.249 336.869 329.038 334.936C332.521 338.965 335.757 343.126 338.748 347.421L362.228 381.284L355.755 390.485L315.074 330.996C310.669 324.586 307.773 319.976 306.386 317.167C304.504 313.398 303.608 309.965 303.697 306.869C303.752 303.75 304.81 300.724 306.872 297.793C308.118 296.021 309.884 294.308 312.168 292.655Z" fill="#2690FF"/>
<path d="M314.984 328.567L377.206 359.336L369.229 367.792L321.043 342.273C321.444 342.881 323.977 346.845 328.641 354.166L349.673 388.524L341.739 396.935L306.914 377.747L295.412 371.451L302.116 383.015L322.226 417.622L314.721 425.578L280.675 364.939L288.695 356.437L324.859 376.029L334.846 381.927L306.921 337.115L314.984 328.567Z" fill="#2690FF"/>
<path d="M336.916 353.197C344.965 362.487 348.345 371.605 347.055 380.551C345.96 388.005 342.311 394.42 336.108 399.795C329.211 405.77 321.61 408.387 313.304 407.645C305.025 406.934 297.434 402.595 290.531 394.628C284.937 388.173 281.507 382.241 280.24 376.834C278.969 371.485 279.304 366.177 281.246 360.911C283.157 355.671 286.301 351.156 290.678 347.363C297.701 341.278 305.336 338.605 313.583 339.343C321.799 340.108 329.577 344.726 336.916 353.197ZM328.178 360.769C322.612 354.345 317.036 350.741 311.45 349.957C305.892 349.205 300.987 350.67 296.736 354.354C292.516 358.01 290.396 362.658 290.377 368.299C290.357 373.939 293.199 380.05 298.901 386.632C304.276 392.835 309.759 396.299 315.349 397.024C320.934 397.808 325.821 396.385 330.01 392.757C334.261 389.073 336.41 384.427 336.457 378.818C336.504 373.209 333.744 367.193 328.178 360.769Z" fill="#2690FF"/>
<path d="M301.792 339.003L341.542 392.159L333.433 398.223L327.407 390.164C328.158 395.482 328.115 399.39 327.278 401.889C326.408 404.413 324.922 406.461 322.82 408.033C319.783 410.304 315.973 411.644 311.389 412.054L308.242 401.375C311.417 401.029 314.106 400.033 316.308 398.386C318.277 396.914 319.596 394.991 320.266 392.617C320.961 390.276 320.856 387.805 319.952 385.204C318.557 381.252 316.438 377.374 313.593 373.57L292.782 345.741L301.792 339.003Z" fill="#2690FF"/>
<path d="M296.513 342.555L346.328 419.455L336.886 425.572L308.478 381.719L300.811 418.855L288.589 426.773L296.498 392.309L250.352 372.458L261.997 364.914L298.86 381.471L301.376 370.756L287.071 348.672L296.513 342.555Z" fill="#2690FF"/>
<path d="M247.219 381.204C248.588 375.829 250.726 371.203 253.634 367.327C256.561 363.487 260.276 360.388 264.778 358.027C273.081 353.675 281.139 353.026 288.95 356.082C295.298 358.588 299.952 362.665 302.911 368.311C305.542 373.33 306.307 378.692 305.205 384.397C304.085 390.159 301.118 396.255 296.302 402.684C302.161 404.975 306.386 407.112 308.977 409.094C311.569 411.076 313.503 413.285 314.779 415.72C317.333 420.591 317.647 425.813 315.723 431.385C313.781 437.014 309.913 441.347 304.119 444.384C298.583 447.286 293.173 447.958 287.887 446.4C282.565 444.862 278.656 441.713 276.16 436.953C272.117 429.24 273.775 419.973 281.134 409.153L256.855 398.24C256.896 402.358 257.578 406.8 258.9 411.564L247.387 414.776C245.444 406.762 244.787 399.674 245.414 393.512C239.094 390.52 232.693 388.584 226.209 387.702L228.757 376.275C234.134 376.749 240.288 378.393 247.219 381.204ZM289.648 412.875C286.665 417.685 285.05 421.378 284.801 423.955C284.515 426.551 284.982 429.012 286.2 431.337C287.651 434.104 289.717 435.891 292.398 436.697C295.061 437.559 297.702 437.304 300.322 435.93C303.016 434.518 304.813 432.471 305.712 429.788C306.574 427.125 306.347 424.539 305.032 422.029C304.374 420.775 303.364 419.611 302.002 418.537C300.622 417.52 298.879 416.575 296.775 415.702L289.648 412.875ZM257.594 385.786L287.73 398.85C291.435 392.815 293.503 387.921 293.934 384.166C294.385 380.449 293.904 377.243 292.492 374.549C290.77 371.265 287.67 368.538 283.193 366.369C278.716 364.199 274.078 364.372 269.281 366.887C266.292 368.454 263.694 370.992 261.487 374.501C259.263 378.066 257.966 381.828 257.594 385.786Z" fill="#2690FF"/>
<path d="M286.794 370.341L277.174 376.197C274.898 372.313 271.997 369.813 268.473 368.696C264.91 367.595 260.759 368.021 256.021 369.974C251.244 371.942 248.096 374.365 246.578 377.244C245.076 380.161 244.865 382.929 245.944 385.549C246.913 387.899 248.696 389.328 251.293 389.835C253.099 390.172 257.128 389.887 263.378 388.979C271.8 387.762 277.779 387.236 281.317 387.401C284.832 387.62 287.868 388.645 290.425 390.475C292.96 392.361 294.846 394.806 296.084 397.81C297.211 400.546 297.634 403.323 297.354 406.142C297.051 409.016 296.138 411.668 294.615 414.098C293.489 415.959 291.706 417.865 289.266 419.817C286.803 421.824 283.972 423.485 280.775 424.803C275.959 426.787 271.455 427.832 267.262 427.937C263.031 428.058 259.556 427.281 256.839 425.607C254.137 423.971 251.641 421.304 249.351 417.606L258.95 412.029C260.714 414.997 263.078 416.907 266.043 417.759C268.969 418.626 272.455 418.227 276.5 416.56C281.277 414.592 284.361 412.397 285.752 409.976C287.143 407.556 287.402 405.286 286.529 403.167C285.973 401.819 285.049 400.78 283.758 400.05C282.45 399.282 280.74 398.905 278.627 398.919C277.428 398.963 274.001 399.338 268.344 400.047C260.176 401.114 254.386 401.607 250.973 401.526C247.537 401.5 244.498 400.633 241.858 398.927C239.217 397.221 237.167 394.596 235.706 391.052C234.278 387.585 233.949 383.889 234.721 379.966C235.471 376.097 237.403 372.53 240.519 369.263C243.65 366.035 247.624 363.429 252.439 361.445C260.414 358.159 267.183 357.308 272.747 358.891C278.273 360.49 282.955 364.306 286.794 370.341Z" fill="#2690FF"/>
<path d="M243.848 375.244L239.112 366.357C241.896 364.707 244.471 363.48 246.838 362.676C250.704 361.362 253.91 360.954 256.456 361.453C259.002 361.952 261.044 363.041 262.583 364.718C264.134 366.435 265.996 370.49 268.168 376.881L280.455 413.037L288.266 410.383L291.081 418.668L283.27 421.322L288.559 436.886L280.138 446.876L272.678 424.922L261.967 428.562L259.151 420.277L269.862 416.637L257.374 379.888C256.342 376.851 255.501 374.958 254.851 374.211C254.161 373.477 253.315 372.994 252.312 372.763C251.27 372.545 249.96 372.704 248.382 373.241C247.199 373.643 245.687 374.31 243.848 375.244Z" fill="#2690FF"/>
<path d="M217.657 370.139L220.161 379.562C223.229 370.987 229.051 365.559 237.628 363.28C241.414 362.274 245.15 362.057 248.837 362.629C252.484 363.212 255.402 364.377 257.591 366.124C259.75 367.921 261.574 370.325 263.064 373.335C264.074 375.351 265.194 378.675 266.425 383.306L276.987 423.052L266.114 425.941L256.66 390.363C255.151 384.685 253.913 380.919 252.945 379.063C251.501 376.386 249.452 374.516 246.799 373.454C244.156 372.431 241.203 372.354 237.942 373.22C234.68 374.087 231.839 375.726 229.418 378.137C227.009 380.588 225.6 383.398 225.192 386.568C224.754 389.788 225.263 394.136 226.718 399.613L235.852 433.983L224.979 436.872L207.932 372.723L217.657 370.139Z" fill="#2690FF"/>
<path d="M205.877 368.869L207.303 377.122C210.329 369.918 215.865 365.62 223.912 364.229C229.127 363.327 234.179 363.934 239.069 366.048C243.918 368.17 247.997 371.588 251.307 376.301C254.582 381.063 256.799 386.79 257.956 393.482C259.084 400.01 259.018 406.111 257.758 411.783C256.505 417.497 253.947 422.146 250.084 425.732C246.222 429.317 241.602 431.575 236.223 432.505C232.282 433.186 228.626 432.951 225.255 431.8C221.892 430.69 219.015 428.968 216.624 426.633L222.224 459.027L211.2 460.933L195.592 370.647L205.877 368.869ZM246.562 395.452C245.114 387.076 242.266 381.12 238.018 377.584C233.771 374.047 229.245 372.694 224.441 373.525C219.596 374.362 215.831 377.043 213.146 381.566C210.427 386.138 209.77 392.489 211.175 400.618C212.722 409.569 215.582 415.84 219.755 419.431C223.928 423.023 228.54 424.382 233.59 423.509C238.517 422.657 242.295 419.932 244.925 415.334C247.514 410.742 248.06 404.115 246.562 395.452Z" fill="#2690FF"/>
<path d="M234.59 337.608L236.755 348.021C234.248 347.571 232.081 347.426 230.255 347.586C227.765 347.804 225.808 348.393 224.387 349.354C222.965 350.315 221.842 351.584 221.018 353.162C220.411 354.344 219.512 357.225 218.324 361.805C218.17 362.445 217.918 363.388 217.567 364.631L248.453 428.684L236.374 429.74L219.265 392.652C217.055 387.952 215.011 382.986 213.131 377.755C212.294 383.015 211.198 388.172 209.841 393.226L199.079 433.002L187.872 433.982L207.144 364.539C209.207 357.039 210.866 351.854 212.12 348.984C213.79 345.115 215.837 342.218 218.261 340.291C220.682 338.322 223.678 337.182 227.247 336.87C229.406 336.681 231.853 336.927 234.59 337.608Z" fill="#2690FF"/>
<path d="M208.943 362.905L225.514 430.312L213.907 429.662L202.368 376.371C202.162 377.069 200.763 381.56 198.171 389.845L185.451 428.069L173.907 427.422L166.137 388.427L163.539 375.574L159.016 388.154L145.514 425.833L134.594 425.221L159.021 360.11L170.691 360.763L179.015 401.042L180.941 412.48L197.212 362.248L208.943 362.905Z" fill="#2690FF"/>
<path d="M204.244 395.548C202.328 407.689 197.533 416.149 189.861 420.928C183.456 424.895 176.2 426.238 168.092 424.958C159.078 423.536 152.179 419.41 147.394 412.58C142.602 405.791 141.027 397.191 142.671 386.778C144.003 378.341 146.328 371.895 149.646 367.442C152.917 363.023 157.192 359.859 162.47 357.95C167.708 356.035 173.187 355.529 178.908 356.432C188.086 357.88 195.05 361.996 199.801 368.778C204.511 375.553 205.992 384.477 204.244 395.548ZM192.823 393.745C194.148 385.349 193.311 378.763 190.31 373.987C187.304 369.252 183.022 366.446 177.466 365.569C171.951 364.698 167.03 366.073 162.705 369.693C158.379 373.313 155.538 379.423 154.18 388.025C152.9 396.133 153.784 402.558 156.832 407.299C159.833 412.076 164.07 414.896 169.544 415.76C175.1 416.637 180.037 415.286 184.357 411.707C188.676 408.129 191.498 402.141 192.823 393.745Z" fill="#2690FF"/>
<path d="M192.461 359.543L177.431 424.194L167.569 421.901L169.848 412.1C166.266 416.101 163.249 418.587 160.799 419.557C158.309 420.518 155.785 420.701 153.228 420.107C149.535 419.248 146.055 417.199 142.787 413.958L148.925 404.669C151.235 406.874 153.73 408.289 156.408 408.911C158.803 409.468 161.124 409.237 163.371 408.22C165.608 407.243 167.43 405.57 168.836 403.202C170.96 399.589 172.559 395.469 173.635 390.843L181.504 356.995L192.461 359.543Z" fill="#2690FF"/>
<path d="M186.344 357.795L159.644 445.444L148.882 442.165L164.108 392.183L130.771 410.252L116.84 406.009L148.29 389.847L133.731 341.768L147.004 345.811L158.1 384.668L167.915 379.687L175.582 354.517L186.344 357.795Z" fill="#2690FF"/>
<path d="M125.024 345.008C130.017 342.592 134.932 341.246 139.77 340.971C144.592 340.735 149.356 341.578 154.062 343.499C162.742 347.044 168.43 352.787 171.127 360.73C173.302 367.198 173.184 373.384 170.774 379.285C168.631 384.532 165.024 388.572 159.951 391.406C154.823 394.263 148.25 395.922 140.231 396.383C142.254 402.34 143.343 406.947 143.497 410.206C143.652 413.464 143.209 416.367 142.17 418.913C140.09 424.004 136.3 427.61 130.799 429.729C125.244 431.871 119.438 431.706 113.382 429.233C107.595 426.87 103.595 423.166 101.379 418.121C99.1253 413.059 99.0144 408.041 101.046 403.065C104.339 395.003 112.493 390.299 125.509 388.953L118.207 363.355C115.085 366.041 112.128 369.424 109.337 373.505L99.4618 366.772C104.338 360.122 109.334 355.051 114.45 351.56C112.665 344.8 110.02 338.657 106.516 333.13L116.896 327.715C119.998 332.132 122.708 337.897 125.024 345.008ZM128.15 397.863C122.549 398.681 118.684 399.826 116.553 401.296C114.384 402.751 112.803 404.693 111.811 407.123C110.63 410.016 110.595 412.747 111.706 415.316C112.763 417.908 114.661 419.763 117.399 420.882C120.215 422.032 122.938 422.086 125.569 421.045C128.161 419.988 129.992 418.148 131.064 415.525C131.599 414.214 131.838 412.691 131.781 410.957C131.67 409.247 131.27 407.305 130.581 405.134L128.15 397.863ZM128.207 355.895L137.638 387.357C144.64 386.301 149.716 384.728 152.864 382.639C155.997 380.588 158.139 378.154 159.289 375.338C160.69 371.905 160.778 367.778 159.552 362.956C158.325 358.135 155.204 354.7 150.19 352.652C147.065 351.376 143.45 351.025 139.345 351.599C135.186 352.196 131.473 353.628 128.207 355.895Z" fill="#2690FF"/>
<path d="M158.834 368.269L148.157 364.687C149.66 360.444 149.703 356.614 148.286 353.2C146.831 349.766 143.831 346.867 139.284 344.501C134.7 342.117 130.819 341.272 127.64 341.966C124.441 342.698 122.188 344.32 120.88 346.834C119.708 349.089 119.764 351.373 121.05 353.686C121.956 355.284 124.771 358.181 129.493 362.375C135.85 368.031 140.106 372.264 142.26 375.075C144.358 377.905 145.531 380.887 145.778 384.021C145.97 387.174 145.316 390.192 143.816 393.075C142.451 395.7 140.6 397.813 138.263 399.416C135.871 401.036 133.255 402.047 130.415 402.449C128.267 402.787 125.66 402.652 122.595 402.044C119.473 401.453 116.378 400.36 113.31 398.764C108.69 396.36 104.989 393.589 102.206 390.451C99.3868 387.293 97.7415 384.136 97.2704 380.979C96.78 377.859 97.2109 374.232 98.5631 370.097L109.014 373.843C107.881 377.105 107.944 380.144 109.203 382.959C110.425 385.756 112.977 388.164 116.859 390.183C121.442 392.567 125.108 393.511 127.855 393.015C130.603 392.518 132.505 391.254 133.563 389.221C134.236 387.927 134.435 386.551 134.16 385.093C133.905 383.598 133.091 382.047 131.719 380.441C130.913 379.553 128.417 377.174 124.23 373.305C118.15 367.747 114.042 363.637 111.904 360.975C109.71 358.33 108.414 355.449 108.017 352.33C107.62 349.212 108.306 345.952 110.075 342.551C111.806 339.225 114.42 336.592 117.917 334.654C121.358 332.734 125.332 331.912 129.837 332.19C134.323 332.504 138.877 333.863 143.497 336.267C151.149 340.247 156.162 344.875 158.538 350.15C160.876 355.405 160.975 361.445 158.834 368.269Z" fill="#2690FF"/>
<path d="M127.41 338.59L131.152 329.242C134.208 330.307 136.806 331.485 138.947 332.777C142.443 334.887 144.821 337.076 146.08 339.344C147.339 341.612 147.823 343.875 147.531 346.133C147.218 348.426 145.318 352.462 141.83 358.241L122.101 390.937L129.164 395.2L124.644 402.691L117.58 398.429L109.088 412.503L96.0215 412.502L108.001 392.649L98.3156 386.804L102.836 379.313L112.522 385.157L132.575 351.926C134.232 349.179 135.137 347.316 135.29 346.338C135.407 345.338 135.23 344.38 134.761 343.464C134.256 342.526 133.29 341.627 131.863 340.766C130.793 340.12 129.308 339.395 127.41 338.59Z" fill="#2690FF"/>
<path d="M114.435 315.273L108.843 323.261C117.377 320.08 125.279 321.034 132.549 326.124C135.758 328.37 138.331 331.088 140.27 334.276C142.175 337.44 143.164 340.422 143.239 343.221C143.256 346.03 142.594 348.974 141.252 352.053C140.361 354.125 138.542 357.124 135.793 361.049L112.208 394.739L102.992 388.287L124.104 358.13C127.474 353.317 129.556 349.943 130.351 348.008C131.468 345.178 131.577 342.406 130.68 339.693C129.758 337.013 127.915 334.705 125.15 332.77C122.385 330.834 119.301 329.718 115.898 329.421C112.471 329.158 109.414 329.891 106.728 331.622C103.983 333.362 100.986 336.554 97.7361 341.196L77.3407 370.329L68.1247 363.877L106.191 309.503L114.435 315.273Z" fill="#2690FF"/>
<path d="M107.814 305.447L102.423 311.856C109.881 309.527 116.735 310.99 122.985 316.247C127.034 319.654 129.826 323.908 131.361 329.01C132.863 334.085 132.879 339.406 131.407 344.975C129.877 350.548 126.926 355.933 122.555 361.131C118.29 366.201 113.583 370.082 108.433 372.773C103.256 375.497 98.0526 376.538 92.822 375.895C87.5913 375.252 82.8875 373.174 78.7104 369.66C75.6493 367.085 73.4728 364.138 72.181 360.82C70.8623 357.532 70.3254 354.222 70.5701 350.889L49.4083 376.048L40.8468 368.846L99.8261 298.728L107.814 305.447ZM113.706 353.688C119.178 347.183 121.897 341.167 121.863 335.64C121.83 330.113 119.948 325.78 116.217 322.642C112.455 319.477 107.979 318.326 102.789 319.188C97.5409 320.054 92.2615 323.645 86.951 329.958C81.104 336.909 78.1519 343.138 78.0946 348.643C78.0373 354.148 79.9697 358.551 83.8917 361.85C87.7181 365.068 92.2369 366.201 97.4482 365.249C102.628 364.27 108.047 360.416 113.706 353.688Z" fill="#2690FF"/>
<path d="M150.222 307.256L143.654 315.623C142.383 313.416 141.098 311.666 139.798 310.372C138.027 308.608 136.316 307.492 134.665 307.024C133.014 306.556 131.32 306.516 129.582 306.903C128.286 307.2 125.505 308.37 121.237 310.412C120.648 310.707 119.765 311.122 118.588 311.655L89.5132 376.549L80.9214 367.994L98.2554 331.011C100.426 326.292 102.905 321.529 105.694 316.72C101.133 319.47 96.4831 321.955 91.7443 324.174L54.3929 341.578L46.4211 333.64L111.942 303.625C119.006 300.369 124.04 298.296 127.043 297.406C131.077 296.19 134.612 295.887 137.648 296.5C140.713 297.082 143.515 298.638 146.054 301.166C147.59 302.695 148.979 304.725 150.222 307.256Z" fill="#2690FF"/>
<path d="M114.351 303.948L73.4867 360.058L66.5038 350.764L99.8171 307.598C99.1506 307.89 94.8147 309.715 86.8092 313.071L49.3844 327.978L42.439 318.734L67.2501 287.663L75.4039 277.394L62.8703 282.042L25.3572 295.999L18.7872 287.254L84.3174 263.974L91.3379 273.318L65.9029 305.639L58.3979 314.483L107.293 294.554L114.351 303.948Z" fill="#2690FF"/>
<path d="M86.3615 321.391C75.8424 327.75 66.2837 329.536 57.6852 326.749C50.5245 324.407 44.8209 319.724 40.5745 312.7C35.8538 304.891 34.5627 296.956 36.7012 288.895C38.804 280.857 44.3661 274.11 53.3875 268.657C60.6974 264.238 67.1243 261.862 72.6684 261.529C78.1552 261.182 83.3293 262.412 88.1906 265.219C93.0303 267.99 96.9483 271.853 99.9445 276.81C104.751 284.761 106.093 292.739 103.968 300.742C101.822 308.71 95.9534 315.592 86.3615 321.391ZM80.3798 311.496C87.654 307.099 92.1504 302.214 93.869 296.842C95.552 291.491 94.9385 286.409 92.0285 281.595C89.1401 276.817 84.9181 273.94 79.3625 272.965C73.807 271.991 67.303 273.756 59.8506 278.261C52.826 282.507 48.483 287.324 46.8216 292.71C45.1029 298.082 45.6771 303.139 48.5439 307.882C51.4539 312.696 55.6689 315.601 61.1887 316.597C66.7086 317.594 73.1056 315.893 80.3798 311.496Z" fill="#2690FF"/>
<path d="M106.3 289.179L47.1784 319.349L42.5761 310.33L51.5391 305.756C46.171 305.596 42.3265 304.891 40.0056 303.643C37.6657 302.358 35.8992 300.546 34.706 298.208C32.9825 294.831 32.3069 290.848 32.6792 286.261L43.7375 284.968C43.5401 288.157 44.0664 290.975 45.3164 293.425C46.4338 295.615 48.1056 297.241 50.3318 298.303C52.521 299.385 54.974 299.7 57.6909 299.249C61.822 298.544 66.003 297.112 70.234 294.953L101.187 279.158L106.3 289.179Z" fill="#2690FF"/>
<path d="M237.35 43.9703L178.228 74.1406L173.626 65.122L182.589 60.5482C177.221 60.3873 173.376 59.6828 171.055 58.4347C168.715 57.1495 166.949 55.3378 165.756 52.9996C164.032 49.6223 163.356 45.6401 163.729 41.0529L174.787 39.7602C174.59 42.9483 175.116 45.7671 176.366 48.2166C177.483 50.4063 179.155 52.0324 181.381 53.0949C183.571 54.1764 186.024 54.4917 188.74 54.0408C192.872 53.336 197.053 51.9041 201.284 49.745L232.236 33.9496L237.35 43.9703Z" fill="#2690FF"/>
<path d="M103.694 283.374L19.4666 319.441L15.0381 309.1L63.0697 288.532L27.7689 274.685L22.0366 261.298L54.6621 274.931L82.0441 232.815L87.5058 245.57L64.9437 279.095L75.0776 283.39L99.2658 273.033L103.694 283.374Z" fill="#2690FF"/>
<path d="M180.296 102.11L148.344 16.2366L158.888 12.3134L177.109 61.2833L192.647 26.6934L206.295 21.6151L191.101 53.5432L231.844 82.9297L218.84 87.7683L186.444 63.6115L181.664 73.5258L190.84 98.1865L180.296 102.11Z" fill="#2690FF"/>
<path d="M73.9545 228.245C79.02 230.506 83.2166 233.397 86.5444 236.919C89.8326 240.454 92.2583 244.64 93.8215 249.477C96.7046 258.398 95.9786 266.449 91.6435 273.63C88.0983 279.461 83.2926 283.357 77.2265 285.317C71.8345 287.06 66.4203 286.905 60.9839 284.852C55.4951 282.773 49.9906 278.816 44.4703 272.98C41.219 278.366 38.3973 282.168 36.0051 284.386C33.613 286.604 31.1086 288.136 28.4919 288.982C23.2584 290.673 18.0588 290.099 12.8932 287.258C7.67519 284.39 4.06029 279.844 2.04857 273.62C0.126544 267.672 0.380674 262.226 2.81096 257.281C5.22843 252.296 8.99443 248.977 14.109 247.324C22.3953 244.646 31.247 247.85 40.6642 256.936L55.5322 234.856C51.4666 234.2 46.9741 234.119 42.0546 234.614L40.8393 222.724C49.0666 222.167 56.1638 222.72 62.1308 224.382C66.1494 218.66 69.1426 212.679 71.1104 206.438L81.9405 210.886C80.5618 216.104 77.8998 221.891 73.9545 228.245ZM35.553 264.696C31.3182 260.942 27.9521 258.723 25.4548 258.042C22.9446 257.32 20.4406 257.363 17.9429 258.171C14.9693 259.132 12.8583 260.865 11.6099 263.37C10.3091 265.849 10.1135 268.495 11.0233 271.31C11.9587 274.204 13.672 276.322 16.1633 277.662C18.6418 278.963 21.2291 279.178 23.9251 278.307C25.2731 277.871 26.5915 277.073 27.8803 275.912C29.1166 274.724 30.3431 273.167 31.5598 271.241L35.553 264.696ZM67.6814 237.695L49.7004 265.182C55.0205 269.855 59.4941 272.723 63.1211 273.784C66.7085 274.858 69.9494 274.927 72.8436 273.991C76.3723 272.851 79.5848 270.258 82.4812 266.213C85.3776 262.168 85.9929 257.568 84.3271 252.414C83.2892 249.203 81.2281 246.213 78.1438 243.444C75.007 240.648 71.5195 238.732 67.6814 237.695Z" fill="#2690FF"/>
<path d="M241.088 21.8145C246.153 24.0746 250.35 26.9658 253.678 30.4881C256.966 34.0232 259.392 38.2093 260.955 43.0463C263.838 51.967 263.112 60.0179 258.777 67.199C255.232 73.0301 250.426 76.926 244.36 78.8864C238.968 80.6291 233.554 80.4741 228.117 78.4214C222.629 76.3419 217.124 72.3846 211.604 66.5494C208.352 71.9353 205.531 75.7373 203.139 77.9554C200.747 80.1735 198.242 81.7054 195.625 82.5511C190.392 84.2425 185.192 83.6678 180.027 80.827C174.809 77.9594 171.194 73.4133 169.182 67.1886C167.26 61.2415 167.514 55.7952 169.944 50.8499C172.362 45.8649 176.128 42.5459 181.242 40.893C189.529 38.2149 198.381 41.4189 207.798 50.5049L222.666 28.4251C218.6 27.7686 214.108 27.6879 209.188 28.1831L207.973 16.2931C216.2 15.736 223.297 16.2886 229.264 17.9508C233.283 12.2294 236.276 6.24824 238.244 0.00732422L249.074 4.45485C247.695 9.67337 245.033 15.4599 241.088 21.8145ZM202.687 58.2653C198.452 54.5106 195.086 52.2925 192.588 51.6107C190.078 50.8894 187.574 50.9323 185.076 51.7396C182.103 52.7006 179.992 54.4338 178.743 56.9391C177.443 59.4176 177.247 62.0643 178.157 64.8793C179.092 67.7735 180.806 69.8909 183.297 71.2314C185.775 72.5322 188.363 72.747 191.059 71.8757C192.407 71.44 193.725 70.6417 195.014 69.4808C196.25 68.2931 197.477 66.7363 198.693 64.8104L202.687 58.2653ZM234.815 31.264L216.834 58.7506C222.154 63.4244 226.628 66.2918 230.255 67.3528C233.842 68.4266 237.083 68.4958 239.977 67.5604C243.506 66.42 246.718 63.8273 249.615 59.7822C252.511 55.7371 253.126 51.1375 251.461 45.9833C250.423 42.7719 248.362 39.7817 245.277 37.0127C242.14 34.2168 238.653 32.3006 234.815 31.264Z" fill="#2690FF"/>
<path d="M77.9569 269.088L73.815 258.616C78.0286 257.03 80.9841 254.596 82.6816 251.311C84.3699 247.986 84.6534 243.823 83.532 238.823C82.4015 233.781 80.5463 230.269 77.9664 228.285C75.3459 226.311 72.6533 225.633 69.8886 226.253C67.4086 226.809 65.6986 228.324 64.7588 230.798C64.1204 232.521 63.7191 236.54 63.555 242.854C63.3273 251.36 62.8327 257.342 62.0711 260.801C61.2596 264.228 59.7353 267.047 57.4979 269.257C55.2108 271.435 52.4816 272.879 49.3103 273.591C46.4237 274.238 43.6148 274.185 40.8836 273.431C38.1027 272.645 35.6438 271.296 33.5069 269.384C31.8637 267.959 30.2869 265.879 28.7767 263.143C27.2167 260.375 26.0583 257.305 25.3016 253.93C24.162 248.848 23.8955 244.232 24.5021 240.082C25.0997 235.891 26.4537 232.599 28.5641 230.204C30.6339 227.818 33.6852 225.81 37.7179 224.18L41.5884 234.585C38.3639 235.821 36.081 237.827 34.7396 240.604C33.389 243.341 33.1924 246.844 34.1497 251.113C35.2802 256.155 36.9205 259.566 39.0707 261.347C41.2208 263.128 43.4139 263.768 45.6501 263.266C47.0731 262.947 48.2535 262.213 49.1913 261.063C50.1698 259.904 50.831 258.283 51.175 256.199C51.3354 255.01 51.5457 251.568 51.8059 245.873C52.138 237.642 52.6331 231.852 53.291 228.502C53.8991 225.12 55.2675 222.273 57.3962 219.959C59.5249 217.646 62.4595 216.07 66.1999 215.231C69.8591 214.41 73.5565 214.713 77.2923 216.138C80.9783 217.532 84.167 220.041 86.8585 223.665C89.5093 227.298 91.4046 231.655 92.5442 236.738C94.4314 245.154 94.1237 251.969 91.6209 257.185C89.1091 262.36 84.5544 266.328 77.9569 269.088Z" fill="#2690FF"/>
<path d="M80.4003 225.933L89.9604 222.771C91.1151 225.794 91.8883 228.54 92.28 231.009C92.9198 235.042 92.7782 238.271 91.8551 240.695C90.9319 243.12 89.5134 244.948 87.5994 246.18C85.6443 247.418 81.3334 248.566 74.6668 249.624L36.9511 255.608L38.2438 263.756L29.6019 265.127L28.3092 256.979L12.0747 259.555L3.65506 249.563L26.5561 245.93L24.7835 234.757L33.4254 233.386L35.198 244.559L73.5311 238.477C76.6998 237.974 78.7074 237.466 79.554 236.952C80.394 236.396 81.013 235.644 81.4108 234.695C81.8022 233.705 81.8673 232.387 81.6061 230.741C81.4102 229.506 81.0083 227.904 80.4003 225.933Z" fill="#2690FF"/>
<path d="M89.8684 200.986L80.1575 201.857C88.0892 206.333 92.4517 212.99 93.245 221.83C93.5951 225.731 93.1758 229.45 91.9872 232.987C90.7948 236.482 89.1527 239.161 87.0606 241.022C84.9234 242.845 82.2453 244.236 79.0264 245.194C76.8679 245.848 73.4023 246.389 68.6299 246.817L27.6695 250.493L26.6639 239.288L63.3291 235.998C69.1806 235.473 73.1026 234.891 75.0951 234.252C77.9783 233.282 80.1682 231.579 81.6649 229.144C83.1201 226.713 83.6968 223.816 83.3952 220.455C83.0935 217.093 81.9597 214.015 79.9938 211.222C77.9864 208.432 75.4554 206.567 72.4009 205.628C69.3012 204.651 64.9294 204.416 59.2854 204.922L23.8652 208.101L22.8597 196.896L88.969 190.963L89.8684 200.986Z" fill="#2690FF"/>
<path d="M93.1162 189.59L84.7412 189.598C91.3286 193.8 94.6261 199.985 94.6339 208.151C94.639 213.443 93.1853 218.319 90.2729 222.78C87.3604 227.2 83.3012 230.641 78.0952 233.104C72.8475 235.526 66.8278 236.74 60.0362 236.747C53.4112 236.753 47.4101 235.655 42.033 233.451C36.6142 231.248 32.4652 227.94 29.586 223.526C26.7068 219.112 25.2646 214.176 25.2594 208.717C25.2556 204.717 26.1064 201.154 27.8117 198.027C29.4754 194.901 31.6605 192.357 34.367 190.396L1.49199 190.427L1.48133 179.24L93.1063 179.153L93.1162 189.59ZM60.0251 225.184C68.5251 225.176 74.8776 223.378 79.0825 219.791C83.2874 216.204 85.3876 211.972 85.3829 207.097C85.3782 202.181 83.3743 198.016 79.371 194.603C75.3261 191.149 69.1786 189.425 60.9286 189.433C51.8452 189.442 45.1802 191.198 40.9336 194.702C36.6869 198.206 34.566 202.521 34.5709 207.646C34.5757 212.646 36.6213 216.831 40.7079 220.203C44.7944 223.532 51.2335 225.193 60.0251 225.184Z" fill="#2690FF"/>
<path d="M119.062 223.184L108.432 223.554C109.3 221.159 109.81 219.049 109.962 217.222C110.169 214.73 109.92 212.703 109.214 211.139C108.508 209.575 107.447 208.253 106.031 207.174C104.969 206.375 102.282 205.001 97.9702 203.054C97.3646 202.794 96.4788 202.386 95.3126 201.829L26.9535 221.417L27.9586 209.334L67.4088 198.755C72.4156 197.374 77.6559 196.2 83.1299 195.234C78.0881 193.519 73.1916 191.564 68.4403 189.371L31.0621 172.025L31.9947 160.814L97.1692 191.573C104.211 194.876 109.04 197.389 111.657 199.112C115.186 201.413 117.695 203.921 119.184 206.637C120.713 209.357 121.33 212.502 121.033 216.073C120.853 218.232 120.196 220.602 119.062 223.184Z" fill="#2690FF"/>
<path d="M98.4747 193.623L29.2351 198.535L31.8419 187.206L86.3173 184.862C85.6644 184.54 81.4751 182.401 73.7492 178.442L38.2328 159.432L40.8255 148.164L80.5735 147.112L93.6807 146.729L82.0494 140.141L47.2024 120.45L49.655 109.791L109.687 144.897L107.066 156.287L65.9596 157.667L54.3606 157.627L101.11 182.173L98.4747 193.623Z" fill="#2690FF"/>
<path d="M67.0994 183.462C55.4582 179.516 47.9326 173.358 44.5225 164.987C41.6984 158.002 41.6038 150.623 44.2387 142.849C47.1678 134.207 52.4031 128.106 59.9447 124.547C67.4469 120.975 76.1898 120.88 86.1736 124.264C94.2633 127.006 100.222 130.389 104.049 134.414C107.85 138.386 110.244 143.135 111.231 148.661C112.231 154.147 111.801 159.633 109.942 165.118C106.96 173.918 101.724 180.085 94.2352 183.618C86.7599 187.112 77.7146 187.059 67.0994 183.462ZM70.8109 172.511C78.8611 175.239 85.4939 175.53 90.7094 173.382C95.8854 171.221 99.3762 167.476 101.182 162.149C102.974 156.861 102.453 151.779 99.6181 146.903C96.7834 142.027 91.2423 138.191 82.9948 135.395C75.2209 132.76 68.7392 132.543 63.5498 134.744C58.3344 136.892 54.8372 140.59 53.0583 145.838C51.2527 151.166 51.7475 156.261 54.5428 161.124C57.338 165.987 62.7608 169.782 70.8109 172.511Z" fill="#2690FF"/>
<path d="M104.581 177.949L43.4105 152.184L47.3408 142.853L56.6142 146.759C53.2779 142.55 51.3391 139.157 50.7978 136.578C50.2726 133.96 50.5195 131.442 51.5385 129.023C53.0104 125.528 55.6201 122.446 59.3676 119.774L67.4824 127.397C64.9173 129.3 63.1011 131.519 62.0336 134.054C61.0793 136.319 60.9132 138.646 61.5354 141.033C62.1192 143.404 63.459 145.482 65.5546 147.269C68.7557 149.974 72.5451 152.248 76.9226 154.092L108.948 167.581L104.581 177.949Z" fill="#2690FF"/>
<path d="M107.34 172.216L25.4815 131.053L30.5356 121.002L77.216 144.476L65.0554 108.559L71.5976 95.549L82.198 129.282L132.049 123.079L125.815 135.475L85.6398 139.827L88.8861 150.344L112.394 162.165L107.34 172.216Z" fill="#2690FF"/>
<path d="M130.329 113.949C131.866 119.278 132.359 124.351 131.81 129.165C131.226 133.958 129.589 138.51 126.897 142.823C121.934 150.776 115.31 155.409 107.025 156.722C100.282 157.769 94.2057 156.605 88.7974 153.23C83.9901 150.23 80.6195 145.99 78.6857 140.51C76.7387 134.973 76.2174 128.213 77.1218 120.232C70.9082 121.217 66.1826 121.509 62.9449 121.109C59.7072 120.71 56.9219 119.782 54.5889 118.326C49.923 115.414 47.0117 111.068 45.855 105.287C44.6851 99.449 45.8318 93.7552 49.2951 88.2055C52.604 82.9033 56.9323 79.5879 62.28 78.2593C67.6498 76.8953 72.6146 77.6362 77.1745 80.4819C84.5623 85.0923 87.8167 93.9256 86.9377 106.982L113.403 104.122C111.285 100.59 108.451 97.1027 104.902 93.6601L113.211 85.0686C118.939 91.0007 123.09 96.7837 125.664 102.418C132.629 101.803 139.131 100.238 145.172 97.7206L148.75 108.868C143.871 111.177 137.731 112.87 130.329 113.949ZM77.7099 108.075C77.8518 102.417 77.3787 98.4134 76.2906 96.0644C75.2246 93.6802 73.5781 91.7931 71.3512 90.4034C68.7001 88.7489 66.0144 88.2517 63.2942 88.9116C60.5607 89.5141 58.4108 91.0702 56.8446 93.5799C55.2343 96.1603 54.7193 98.835 55.2998 101.604C55.9023 104.337 57.4054 106.454 59.8091 107.954C61.0109 108.704 62.4709 109.198 64.1892 109.435C65.8941 109.615 67.8749 109.55 70.1317 109.239L77.7099 108.075ZM119.061 115.241L86.4557 119.205C86.3103 126.285 87.0007 131.554 88.5267 135.011C90.0175 138.446 92.0531 140.969 94.6335 142.579C97.7795 144.543 101.832 145.328 106.792 144.936C111.752 144.544 115.665 142.051 118.533 137.455C120.32 134.592 121.278 131.089 121.408 126.946C121.524 122.746 120.742 118.844 119.061 115.241Z" fill="#2690FF"/>
<path d="M101.677 143.329L107.016 133.413C110.944 135.614 114.71 136.304 118.316 135.486C121.946 134.634 125.312 132.168 128.413 128.088C131.54 123.975 133.03 120.293 132.884 117.042C132.705 113.765 131.488 111.27 129.232 109.555C127.209 108.017 124.948 107.686 122.451 108.562C120.722 109.184 117.391 111.467 112.457 115.41C105.806 120.718 100.913 124.195 97.7772 125.841C94.6336 127.43 91.496 128.08 88.3645 127.793C85.2249 127.448 82.3615 126.292 79.774 124.326C77.4188 122.536 75.6495 120.353 74.466 117.779C73.2745 115.146 72.7213 112.397 72.8064 109.531C72.837 107.356 73.4117 104.809 74.5305 101.892C75.6413 98.9153 77.243 96.0506 79.3357 93.2973C82.4874 89.1508 85.8454 85.9723 89.4097 83.7618C92.9991 81.5181 96.3895 80.4315 99.5808 80.502C102.739 80.5473 106.241 81.5864 110.086 83.6195L104.624 93.2846C101.601 91.6152 98.5957 91.1626 95.6074 91.9267C92.6443 92.6577 89.839 94.7647 87.1916 98.2478C84.0651 102.361 82.5138 105.814 82.5375 108.606C82.5613 111.398 83.4854 113.487 85.3098 114.874C86.4709 115.756 87.7931 116.185 89.2766 116.162C90.7933 116.163 92.4593 115.624 94.2746 114.544C95.2871 113.9 98.0546 111.843 102.577 108.372C109.084 103.322 113.831 99.9689 116.817 98.313C119.795 96.5988 122.854 95.8101 125.995 95.9469C129.136 96.0837 132.232 97.312 135.284 99.6316C138.269 101.901 140.421 104.923 141.738 108.698C143.048 112.415 143.184 116.47 142.148 120.864C141.078 125.232 138.967 129.489 135.815 133.636C130.596 140.502 125.186 144.659 119.585 146.107C114.009 147.521 108.04 146.595 101.677 143.329Z" fill="#2690FF"/>
<path d="M136.252 117.387L144.831 122.66C143.263 125.491 141.661 127.852 140.026 129.743C137.354 132.831 134.794 134.803 132.345 135.66C129.896 136.516 127.584 136.61 125.409 135.94C123.202 135.243 119.546 132.687 114.441 128.271L85.5604 103.287L80.1629 109.526L73.5454 103.802L78.9428 97.5625L66.5113 86.8085L68.7255 73.9314L86.2621 89.1015L93.6631 80.5459L100.281 86.2704L92.8796 94.826L122.233 120.218C124.66 122.317 126.342 123.525 127.281 123.841C128.247 124.126 129.221 124.114 130.203 123.807C131.212 123.468 132.262 122.668 133.352 121.408C134.17 120.462 135.137 119.122 136.252 117.387Z" fill="#2690FF"/>
<path d="M270.767 92.8618L269.253 102.817C266.035 102.476 263.237 101.921 260.858 101.151C256.973 99.8942 254.159 98.3047 252.416 96.3831C250.673 94.4614 249.687 92.3684 249.456 90.104C249.238 87.8 250.168 83.437 252.246 77.0149L264.004 40.6824L256.154 38.1423L258.848 29.8174L266.698 32.3574L271.758 16.7183L284.481 13.7407L277.342 35.8018L288.105 39.2847L285.411 47.6097L274.648 44.1268L262.698 81.0539C261.71 84.1064 261.254 86.1265 261.328 87.1141C261.442 88.1145 261.832 89.0071 262.498 89.7918C263.203 90.5894 264.349 91.2448 265.935 91.7579C267.124 92.1428 268.735 92.5107 270.767 92.8618Z" fill="#2690FF"/>
<path d="M180.649 91.2423L185.939 99.8103C183.266 101.634 180.774 103.022 178.462 103.975C174.687 105.531 171.513 106.141 168.941 105.804C166.368 105.468 164.261 104.511 162.62 102.934C160.962 101.319 158.847 97.3913 156.275 91.1508L141.72 55.8459L134.092 58.9903L130.757 50.9008L138.385 47.7564L132.119 32.5597L139.89 22.0551L148.728 43.4923L159.186 39.1806L162.521 47.2701L152.063 51.5818L166.856 87.4645C168.079 90.4307 169.038 92.266 169.734 92.9706C170.469 93.6592 171.344 94.0872 172.359 94.2545C173.413 94.4059 174.711 94.1639 176.251 93.5287C177.407 93.0523 178.873 92.2901 180.649 91.2423Z" fill="#2690FF"/>
<path d="M161.429 108.55L154.504 101.686C156.193 110.636 153.914 118.262 147.666 124.565C144.908 127.346 141.794 129.422 138.324 130.793C134.883 132.134 131.776 132.604 129.005 132.204C126.233 131.745 123.444 130.593 120.637 128.749C118.746 127.52 116.099 125.219 112.696 121.845L83.489 92.8933L91.409 84.9036L117.553 110.82C121.726 114.956 124.698 117.58 126.471 118.691C129.071 120.271 131.784 120.848 134.61 120.424C137.407 119.969 139.994 118.544 142.37 116.147C144.746 113.75 146.368 110.9 147.238 107.596C148.078 104.263 147.872 101.126 146.622 98.1852C145.372 95.1854 142.734 91.6909 138.71 87.7016L113.453 62.6655L121.373 54.6758L168.513 101.404L161.429 108.55Z" fill="#2690FF"/>
<path d="M288.715 112.606L292.339 103.555C284.755 108.597 276.843 109.469 268.604 106.17C264.968 104.715 261.843 102.656 259.228 99.9932C256.652 97.3462 255.009 94.6686 254.298 91.9603C253.641 89.2289 253.615 86.2113 254.22 82.9077C254.615 80.6872 255.703 77.3527 257.484 72.9043L272.769 34.7254L283.213 38.9068L269.531 73.0821C267.347 78.5362 266.089 82.2962 265.755 84.3619C265.314 87.3716 265.839 90.0953 267.331 92.533C268.839 94.9321 271.16 96.7588 274.293 98.0132C277.426 99.2676 280.684 99.6516 284.065 99.1652C287.462 98.6401 290.271 97.2289 292.492 94.9316C294.768 92.6111 296.959 88.8205 299.065 83.5598L312.283 50.5449L322.727 54.7262L298.057 116.346L288.715 112.606Z" fill="#2690FF"/>
<path d="M172.236 103.69L166.832 97.2906C167.864 105.036 165.26 111.543 159.021 116.811C154.978 120.225 150.312 122.256 145.024 122.904C139.768 123.525 134.52 122.639 129.282 120.246C124.048 117.793 119.241 113.973 114.859 108.784C110.585 103.722 107.557 98.4252 105.777 92.8938C103.97 87.3304 103.826 82.0257 105.346 76.9796C106.865 71.9335 109.71 67.6497 113.881 64.1282C116.937 61.5476 120.21 59.9018 123.7 59.191C127.163 58.4482 130.516 58.4798 133.759 59.2857L112.55 34.1676L121.098 26.9499L180.21 96.9557L172.236 103.69ZM123.693 101.324C129.177 107.818 134.646 111.517 140.098 112.421C145.551 113.324 150.14 112.204 153.865 109.058C157.621 105.886 159.515 101.67 159.544 96.4097C159.579 91.0905 156.935 85.2792 151.613 78.9758C145.753 72.0357 140.114 68.0711 134.698 67.082C129.282 66.0928 124.616 67.2515 120.701 70.5579C116.88 73.7837 114.998 78.0453 115.054 83.3426C115.141 88.613 118.021 94.6068 123.693 101.324Z" fill="#2690FF"/>
<path d="M297.404 120.666L301.192 113.197C294.461 117.164 287.453 117.301 280.17 113.607C275.451 111.214 271.762 107.708 269.105 103.09C266.486 98.4915 265.257 93.3135 265.421 87.5565C265.64 81.7811 267.286 75.8648 270.358 69.8076C273.354 63.8991 277.053 59.0474 281.454 55.2525C285.873 51.4205 290.703 49.2213 295.942 48.6549C301.182 48.0885 306.235 49.0398 311.103 51.5087C314.671 53.318 317.462 55.6911 319.476 58.6282C321.509 61.5281 322.787 64.6287 323.308 67.9299L338.178 38.6101L348.156 43.6704L306.712 125.387L297.404 120.666ZM280.67 75.0375C276.825 82.6183 275.549 89.0958 276.841 94.4698C278.134 99.8438 280.954 103.633 285.302 105.838C289.686 108.062 294.307 108.163 299.164 106.141C304.076 104.101 308.398 99.4018 312.13 92.044C316.238 83.9429 317.693 77.2056 316.494 71.8321C315.295 66.4586 312.41 62.6128 307.839 60.2947C303.38 58.0331 298.721 57.9599 293.864 60.0751C289.045 62.2092 284.646 67.1966 280.67 75.0375Z" fill="#2690FF"/>
<path d="M254.643 95.5335L258.431 88.0642C251.7 92.0321 244.693 92.1691 237.409 88.4752C232.69 86.0817 229.002 82.576 226.345 77.9582C223.725 73.3592 222.497 68.1812 222.66 62.4242C222.879 56.6488 224.525 50.7326 227.597 44.6754C230.593 38.7668 234.292 33.9151 238.693 30.1202C243.112 26.2882 247.942 24.089 253.181 23.5226C258.421 22.9562 263.475 23.9075 268.343 26.3764C271.91 28.1857 274.701 30.5588 276.715 33.4959C278.748 36.3958 280.026 39.4964 280.547 42.7976L295.417 13.4778L305.395 18.5381L263.951 100.255L254.643 95.5335ZM237.909 49.9053C234.064 57.486 232.788 63.9635 234.08 69.3375C235.373 74.7115 238.193 78.5011 242.541 80.7061C246.926 82.93 251.546 83.0309 256.403 81.0089C261.315 78.9686 265.637 74.2695 269.369 66.9117C273.477 58.8106 274.932 52.0733 273.733 46.6998C272.534 41.3263 269.649 37.4805 265.078 35.1624C260.619 32.9008 255.961 32.8276 251.104 34.9428C246.284 37.0769 241.886 42.0643 237.909 49.9053Z" fill="#2690FF"/>
<path d="M163.266 145.177L156.133 137.288C158.523 136.409 160.466 135.438 161.961 134.377C164 132.93 165.39 131.433 166.13 129.885C166.871 128.337 167.198 126.674 167.111 124.896C167.038 123.569 166.356 120.629 165.067 116.077C164.875 115.447 164.616 114.506 164.291 113.256L105.259 73.6075L115.147 66.5892L148.659 89.9381C152.942 92.8764 157.216 96.1271 161.483 99.6901C159.545 94.7293 157.884 89.7257 156.499 84.6793L145.675 44.9195L154.849 38.4077L173.33 108.066C175.342 115.58 176.532 120.892 176.901 124.003C177.416 128.184 177.115 131.719 175.997 134.608C174.904 137.53 172.896 140.028 169.974 142.102C168.207 143.356 165.971 144.381 163.266 145.177Z" fill="#2690FF"/>
<path d="M255.7 128.569L260.187 118.925C261.928 120.784 263.579 122.195 265.138 123.159C267.265 124.473 269.186 125.169 270.9 125.248C272.614 125.328 274.273 124.981 275.876 124.208C277.07 123.624 279.512 121.851 283.202 118.89C283.708 118.467 284.473 117.863 285.498 117.075L299.015 47.2616L309.331 53.6333L300.883 93.5941C299.846 98.6833 298.517 103.887 296.898 109.204C300.712 105.487 304.673 102.008 308.781 98.7663L341.182 73.3069L350.754 79.2188L293.8 123.378C287.664 128.159 283.235 131.325 280.514 132.876C276.863 134.98 273.49 136.08 270.395 136.176C267.277 136.307 264.194 135.431 261.145 133.548C259.302 132.41 257.487 130.75 255.7 128.569Z" fill="#2690FF"/>
</svg>
