<svg width="187" height="98" viewBox="0 0 187 98" fill="none" xmlns="http://www.w3.org/2000/svg">
<g id="Frame 29">
<path id="Vector 10" d="M22.0005 86C22.0005 63.0256 20.0005 40.2295 20.0005 17.1111C20.0005 5.66747 17.889 1.99997 30.0005 1.99997C37.1159 1.99997 48.1881 1.53154 49.8894 10.8889C50.6468 15.0544 55.3746 25.3129 50.0005 28" stroke="black" stroke-width="3" stroke-linecap="round"/>
<path id="Vector 11" d="M2 44C9.94686 47.7397 21.677 51.677 28 58" stroke="black" stroke-width="3" stroke-linecap="round"/>
<path id="Vector 12" d="M65.8699 59C63.9157 60.7589 61.165 60.148 59.5721 61.4222C58.0964 62.6028 56.6419 64.3689 54.9699 65.2978C52.8781 66.4599 49.0623 72.2314 48.4904 74.8051C46.785 82.4792 49.3659 90.6102 58.7849 90.6102C67.9421 90.6102 73.5 87.0651 73.5 77.5301C73.5 72.1059 70.8387 61.18 63.6899 61.18" stroke="black" stroke-width="3" stroke-linecap="round"/>
<path id="Vector 13" d="M99.9999 64C92.9256 64.7074 87.7536 71.152 83.4443 76C80.9275 78.8315 82.6333 83.0671 82.9999 86C83.2934 88.3477 88.8822 91 90.9999 91C97.7509 91 99.5433 91.8679 107 89" stroke="black" stroke-width="3" stroke-linecap="round"/>
<path id="Vector 14" d="M126 63C126.541 69.4862 128.091 77.4499 130.556 83.5C130.935 84.4306 135.367 97.541 137 95.5C139.116 92.8549 140.876 91.3543 141 87C141.142 82.019 143.41 76.0084 144.778 71.2222C144.992 70.4713 147 62.4971 147 66.5C147 69.36 148.405 73.4257 149.556 76.0556C151.114 79.6173 151.5 83.5546 153.222 87C154.183 88.9208 157.119 91.4403 156 92" stroke="black" stroke-width="3" stroke-linecap="round"/>
<path id="Vector 15" d="M183 65C176.645 65.7061 167.917 71.6044 164 76.5C160.058 81.4282 174.758 83.8879 177.445 85.5C177.92 85.7853 188.674 92.4158 184 93C181.617 93.2979 177.616 97.3845 180 95" stroke="black" stroke-width="3" stroke-linecap="round"/>
</g>
</svg>
