<svg width="242" height="498" viewBox="0 0 242 498" fill="none" xmlns="http://www.w3.org/2000/svg">
<path d="M150.911 152.983C150.911 169.539 137.479 182.961 120.91 182.961C104.34 182.961 90.9083 169.539 90.9083 152.983C90.9083 136.426 104.34 123.005 120.91 123.005C137.479 123.005 150.911 136.426 150.911 152.983Z" fill="#2690FF"/>
<path d="M108.042 174.043L112.856 177.008L75.0678 253L66.4856 247.886L108.042 174.043Z" fill="#2690FF"/>
<path d="M135.043 176.646L140.755 173.672L182.05 227.188L172.015 232.541L135.043 176.646Z" fill="#2690FF"/>
<path d="M147.543 165.27L150.586 159.597L214.878 180.562L209.606 190.634L147.543 165.27Z" fill="#2690FF"/>
<path d="M147.63 152.396L147.331 145.624L225.337 130.435L226 142.389L147.63 152.396Z" fill="#2690FF"/>
<path d="M144.84 138.469L141.728 133.701L207.352 81.4042L212.971 89.7498L144.84 138.469Z" fill="#2690FF"/>
<path d="M136.585 129.405L131.672 126.524L167.077 50.4765L175.83 55.4433L136.585 129.405Z" fill="#2690FF"/>
<path d="M123.866 131.124L118.178 130.807L114.845 47L124.903 47.4153L123.866 131.124Z" fill="#2690FF"/>
<path d="M111.047 131.931L106.056 134.82L60.0149 73.4181L68.7656 68.2015L111.047 131.931Z" fill="#2690FF"/>
<path d="M99.6769 140.706L97.2529 145.936L22.161 120.85L26.3201 111.553L99.6769 140.706Z" fill="#2690FF"/>
<path d="M96.0357 167.416L99.1292 172.146L31.3063 225.462L25.7159 217.185L96.0357 167.416Z" fill="#2690FF"/>
<path d="M67.9475 159.39L67.8972 165.035L11.0092 175.071L11 165.102L67.9475 159.39Z" fill="#2690FF"/>
<path d="M85.048 164.998L86.0299 170.554L48.3492 189.069L46.547 179.271L85.048 164.998Z" fill="#2690FF"/>
<path d="M92.9259 147.037L91.2221 152.417L48.3066 151.041L51.2472 141.521L92.9259 147.037Z" fill="#2690FF"/>
<path d="M103.55 135.677L99.1424 139.204L64.2212 114.241L71.9586 107.957L103.55 135.677Z" fill="#2690FF"/>
<path d="M125.734 178.568L131.296 177.598L149.865 216.282L140.055 218.065L125.734 178.568Z" fill="#2690FF"/>
<path d="M147.469 158.461L149.208 153.093L192.113 154.752L189.11 164.253L147.469 158.461Z" fill="#2690FF"/>
<path d="M100.888 173.474L104.226 178.025L73.5413 214.517L67.5827 206.527L100.888 173.474Z" fill="#2690FF"/>
<path d="M111.606 179.536L116.863 181.599L110.459 228.83L101.148 225.261L111.606 179.536Z" fill="#2690FF"/>
<path d="M148.771 144.507L147.836 138.942L189.587 120.328L191.314 130.142L148.771 144.507Z" fill="#2690FF"/>
<path d="M140.178 169.565L144.459 165.886L180.231 189.615L172.718 196.165L140.178 169.565Z" fill="#2690FF"/>
<path d="M115.942 125.66L110.325 126.235L94.535 86.3376L104.446 85.251L115.942 125.66Z" fill="#2690FF"/>
<path d="M130.36 125.861L125.226 123.511L132.997 78.9859L142.095 83.0662L130.36 125.861Z" fill="#2690FF"/>
<path d="M142.232 132.727L138.918 128.485L168.213 92.0658L174.126 99.5074L142.232 132.727Z" fill="#2690FF"/>
<path d="M21.3055 390.437V401.937L102.805 388.937L100.805 384.437L21.3055 390.437Z" fill="#2690FF"/>
<path d="M15.7094 361.125L11 373.196L52.5656 378.649L54.5892 369.321L15.7094 361.125Z" fill="#2690FF"/>
<path d="M106.398 462.504L117.027 464.283L124.884 409.501L116.558 410.181L106.398 462.504Z" fill="#2690FF"/>
<path d="M79.3929 461.68L88.8479 466.852L114.268 417.693L106.181 415.6L79.3929 461.68Z" fill="#2690FF"/>
<path d="M49.1189 460.699L56.9601 468.092L93.9246 426.974L86.6305 422.905L49.1189 460.699Z" fill="#2690FF"/>
<path d="M59.9678 428.068L66.5862 436.573L109.404 401.591L102.818 396.454L59.9678 428.068Z" fill="#2690FF"/>
<path d="M50.6627 409.122L54.8334 419.059L105.294 396.457L100.275 389.781L50.6627 409.122Z" fill="#2690FF"/>
<path d="M59.1536 349.444L55.7603 358.531L101.373 373.53L102.252 366.106L59.1536 349.444Z" fill="#2690FF"/>
<path d="M73.9454 296.079L66.1152 301.843L96.9177 342.494L101.698 336.634L73.9454 296.079Z" fill="#2690FF"/>
<path d="M99.1313 280.29L88.6254 281.601L101.255 309.821L108.73 307.787L99.1313 280.29Z" fill="#2690FF"/>
<path d="M132.089 308.171L121.463 307.469L124.482 349.972L132.404 348.931L132.089 308.171Z" fill="#2690FF"/>
<path d="M158.697 275.054L148.09 273L135.305 333.697H142.601L158.697 275.054Z" fill="#2690FF"/>
<path d="M172.305 302.937L165.827 295.784L138.576 351.507L145.649 353.292L172.305 302.937Z" fill="#2690FF"/>
<path d="M193.805 313.937L188.408 302.211L145.393 357.479L150.737 359.639L193.805 313.937Z" fill="#2690FF"/>
<path d="M214.305 321.937L209.185 313.939L162.303 350.938L168.303 355.438L214.305 321.937Z" fill="#2690FF"/>
<path d="M211.38 351.804L208.555 342.737L153.562 366.032L158.16 371.958L211.38 351.804Z" fill="#2690FF"/>
<path d="M153.792 463.139L162.838 460.245L139.121 405.431L133.231 410.075L153.792 463.139Z" fill="#2690FF"/>
<path d="M232.806 369.459L232.806 357.437L172.334 369.459L175.852 378.163L232.806 369.459Z" fill="#2690FF"/>
<path d="M171.609 449.418L181.437 444.905L150.289 402.852L144.415 408.829L171.609 449.418Z" fill="#2690FF"/>
<path d="M205.485 416.936L211.077 408.529L160.112 386.852L158.705 394.689L205.485 416.936Z" fill="#2690FF"/>
<path d="M194.98 435.528L203.723 427.493L159.805 401.937L157.64 407.332L194.98 435.528Z" fill="#2690FF"/>
<path d="M227.018 394.53L231.967 383.575L203.541 383.392L201.324 391.971L227.018 394.53Z" fill="#2690FF"/>
<path d="M64.2739 325.759L58.8769 333.922L106.054 368.077L108.39 360.644L64.2739 325.759Z" fill="#2690FF"/>
<path d="M162.805 380.937C162.805 398.61 148.479 412.937 130.805 412.937C113.132 412.937 98.8055 398.61 98.8055 380.937C98.8055 363.264 113.132 348.937 130.805 348.937C148.479 348.937 162.805 363.264 162.805 380.937Z" fill="#2690FF"/>
</svg>
