<svg width="195" height="204" viewBox="0 0 195 204" fill="none" xmlns="http://www.w3.org/2000/svg">
<path d="M22.0005 98.0039C22.0005 75.0295 20.0005 52.2334 20.0005 29.115C20.0005 17.6714 17.889 14.0039 30.0005 14.0039C37.1159 14.0039 48.1881 13.5354 49.8894 22.8928C50.6468 27.0583 55.3746 37.3169 50.0005 40.0039" stroke="black" stroke-width="3" stroke-linecap="round"/>
<path d="M2 56.0039C9.94686 59.7436 21.677 63.6809 28 70.0039" stroke="black" stroke-width="3" stroke-linecap="round"/>
<path d="M65.8699 71.0039C63.9157 72.7628 61.165 72.1519 59.5721 73.4261C58.0964 74.6067 56.6419 76.3728 54.9699 77.3017C52.8781 78.4638 49.0623 84.2353 48.4904 86.809C46.785 94.4831 49.3659 102.614 58.7849 102.614C67.9421 102.614 73.5 99.069 73.5 89.534C73.5 84.1098 70.8387 73.1839 63.6899 73.1839" stroke="black" stroke-width="3" stroke-linecap="round"/>
<path d="M99.9989 76.0039C92.9246 76.7113 87.7527 83.1559 83.4434 88.0039C80.9265 90.8354 82.6323 95.071 82.9989 98.0039C83.2924 100.352 88.8813 103.004 90.9989 103.004C97.7499 103.004 99.5423 103.872 106.999 101.004" stroke="black" stroke-width="3" stroke-linecap="round"/>
<path d="M126 75.0039C126.541 81.4901 128.091 89.4538 130.556 95.5039C130.935 96.4345 135.367 109.545 137 107.504C139.116 104.859 140.876 103.358 141 99.0039C141.142 94.0229 143.41 88.0123 144.778 83.2261C144.992 82.4752 147 74.501 147 78.5039C147 81.3639 148.405 85.4296 149.556 88.0595C151.114 91.6212 151.5 95.5585 153.222 99.0039C154.183 100.925 157.119 103.444 156 104.004" stroke="black" stroke-width="3" stroke-linecap="round"/>
<path d="M182.999 77.0039C176.644 77.71 167.916 83.6083 163.999 88.5039C160.057 93.4321 174.757 95.8918 177.444 97.5039C177.919 97.7892 188.673 104.42 183.999 105.004C181.616 105.302 177.615 109.388 179.999 107.004" stroke="black" stroke-width="3" stroke-linecap="round"/>
</svg>
