<svg width="511" height="474" viewBox="0 0 511 474" fill="none" xmlns="http://www.w3.org/2000/svg">
<path d="M335.257 112.664L355.04 46.1287L364.725 52.5575L352.338 90.3196L347.738 104.37C348.269 103.872 351.747 100.704 358.172 94.8667L388.471 68.3184L398.104 74.7126L385.093 112.285L380.836 124.688L391.098 116.121L421.797 90.4389L430.91 96.4875L376.916 140.314L367.178 133.851L380.36 94.8911L384.481 84.0488L345.047 119.162L335.257 112.664Z" fill="#2690FF"/>
<path d="M355.816 86.8755C363.607 77.3691 372.021 72.4937 381.057 72.2494C388.588 72.0654 395.528 74.5751 401.877 79.7784C408.934 85.5628 412.801 92.6109 413.476 100.923C414.179 109.202 411.189 117.419 404.506 125.572C399.091 132.178 393.827 136.563 388.712 138.728C383.656 140.888 378.368 141.456 372.849 140.434C367.362 139.438 362.378 137.105 357.899 133.434C350.713 127.543 346.785 120.472 346.115 112.219C345.477 103.992 348.71 95.5442 355.816 86.8755ZM364.758 94.2051C359.37 100.779 356.763 106.885 356.937 112.523C357.137 118.128 359.412 122.714 363.763 126.28C368.081 129.819 373.021 131.12 378.583 130.184C384.146 129.248 389.687 125.412 395.207 118.677C400.41 112.329 402.896 106.339 402.663 100.707C402.489 95.069 400.259 90.4937 395.973 86.9808C391.623 83.415 386.68 82.0841 381.144 82.9882C375.608 83.8922 370.146 87.6312 364.758 94.2051Z" fill="#2690FF"/>
<path d="M347.778 123.897L393.431 75.7164L400.781 82.6805L393.86 89.9847C398.973 88.3439 402.832 87.7241 405.437 88.1255C408.071 88.5556 410.342 89.6734 412.247 91.4789C414.999 94.0869 416.966 97.6149 418.147 102.063L408.155 106.974C407.276 103.903 405.839 101.422 403.843 99.5305C402.058 97.8396 399.94 96.8651 397.486 96.607C395.062 96.3186 392.644 96.8406 390.234 98.1729C386.575 100.217 383.112 102.963 379.845 106.411L355.944 131.635L347.778 123.897Z" fill="#2690FF"/>
<path d="M352.172 128.498L419.521 66.3752L427.148 74.6445L388.742 110.071L426.64 111.335L436.514 122.039L401.209 120.083L389.462 168.926L380.055 158.727L390.127 119.592L379.14 118.927L359.799 136.767L352.172 128.498Z" fill="#2690FF"/>
<path d="M398.613 170.532C393.084 170.093 388.163 168.769 383.85 166.56C379.57 164.326 375.885 161.19 372.797 157.153C367.1 149.707 365.096 141.876 366.784 133.659C368.179 126.979 371.408 121.702 376.471 117.829C380.972 114.385 386.127 112.724 391.937 112.843C397.805 112.97 404.315 114.862 411.467 118.519C412.733 112.357 414.123 107.831 415.637 104.941C417.151 102.052 419 99.7713 421.185 98.1003C425.553 94.7584 430.646 93.5639 436.464 94.5166C442.34 95.4772 447.265 98.5553 451.24 103.751C455.038 108.715 456.617 113.933 455.977 119.406C455.363 124.912 452.922 129.298 448.653 132.564C441.736 137.856 432.323 137.792 420.412 132.372L413.771 158.149C417.822 157.41 422.084 155.986 426.555 153.877L431.671 164.678C424.102 167.951 417.228 169.8 411.048 170.225C409.171 176.96 408.347 183.598 408.576 190.138L396.883 189.562C396.439 184.182 397.016 177.839 398.613 170.532ZM422.638 123.35C427.884 125.475 431.798 126.442 434.379 126.251C436.986 126.092 439.332 125.216 441.417 123.621C443.899 121.722 445.31 119.383 445.65 116.605C446.049 113.834 445.349 111.274 443.552 108.925C441.703 106.509 439.381 105.085 436.585 104.653C433.815 104.255 431.304 104.916 429.054 106.638C427.929 107.499 426.953 108.692 426.126 110.216C425.357 111.749 424.721 113.626 424.217 115.847L422.638 123.35ZM401.371 159.53L409.141 127.617C402.566 124.988 397.391 123.779 393.618 123.99C389.878 124.176 386.8 125.193 384.384 127.041C381.439 129.294 379.277 132.811 377.898 137.591C376.518 142.371 377.474 146.912 380.765 151.214C382.816 153.895 385.757 156.025 389.589 157.605C393.48 159.193 397.407 159.835 401.371 159.53Z" fill="#2690FF"/>
<path d="M381.203 133.37L388.604 141.858C385.162 144.759 383.189 148.041 382.686 151.704C382.204 155.402 383.327 159.421 386.054 163.76C388.803 168.134 391.725 170.826 394.819 171.834C397.949 172.82 400.713 172.559 403.112 171.052C405.264 169.699 406.37 167.7 406.429 165.055C406.456 163.217 405.492 159.295 403.538 153.289C400.913 145.195 399.381 139.391 398.944 135.877C398.565 132.375 399.06 129.209 400.431 126.379C401.86 123.562 403.95 121.289 406.702 119.56C409.206 117.986 411.872 117.098 414.698 116.897C417.582 116.709 420.35 117.159 423.003 118.248C425.027 119.042 427.208 120.477 429.545 122.551C431.94 124.639 434.057 127.147 435.897 130.075C438.669 134.485 440.461 138.747 441.275 142.861C442.111 147.011 441.935 150.567 440.745 153.529C439.591 156.469 437.385 159.38 434.128 162.263L427.005 153.748C429.632 151.507 431.114 148.853 431.451 145.787C431.81 142.756 430.826 139.389 428.498 135.685C425.749 131.31 423.063 128.642 420.442 127.682C417.821 126.721 415.54 126.85 413.599 128.069C412.365 128.845 411.497 129.932 410.997 131.329C410.462 132.748 410.38 134.497 410.752 136.576C410.997 137.751 411.949 141.065 413.605 146.52C416.04 154.389 417.507 160.012 418.006 163.39C418.562 166.78 418.223 169.921 416.989 172.813C415.755 175.705 413.515 178.17 410.269 180.21C407.094 182.205 403.508 183.155 399.511 183.059C395.571 182.975 391.727 181.675 387.98 179.158C384.269 176.619 381.027 173.144 378.256 168.735C373.666 161.432 371.681 154.905 372.298 149.153C372.938 143.436 375.906 138.175 381.203 133.37Z" fill="#2690FF"/>
<path d="M393.31 174.864L385.355 181.037C383.257 178.573 381.611 176.242 380.418 174.046C378.468 170.458 377.523 167.367 377.584 164.774C377.644 162.18 378.371 159.983 379.764 158.183C381.193 156.363 384.873 153.841 390.804 150.618L424.356 132.383L420.417 125.134L428.105 120.956L432.044 128.205L446.487 120.356L457.76 126.962L437.386 138.035L442.788 147.974L435.1 152.152L429.698 142.213L395.597 160.746C392.778 162.278 391.055 163.428 390.429 164.195C389.822 164.999 389.49 165.914 389.432 166.942C389.394 168.006 389.772 169.27 390.568 170.734C391.165 171.833 392.079 173.209 393.31 174.864Z" fill="#2690FF"/>
<path d="M392.716 201.541L401.579 197.477C392.608 195.906 386.273 191.088 382.573 183.021C380.94 179.46 380.094 175.815 380.033 172.084C379.99 168.391 380.643 165.318 381.994 162.865C383.399 160.433 385.459 158.227 388.174 156.249C389.99 154.912 393.076 153.245 397.431 151.248L434.813 134.105L439.502 144.331L406.041 159.676C400.7 162.125 397.198 163.983 395.533 165.251C393.139 167.128 391.644 169.464 391.046 172.259C390.486 175.037 390.91 177.96 392.317 181.028C393.724 184.095 395.82 186.618 398.606 188.595C401.43 190.554 404.438 191.467 407.631 191.332C410.879 191.218 415.078 189.98 420.229 187.617L452.555 172.793L457.244 183.02L396.911 210.687L392.716 201.541Z" fill="#2690FF"/>
<path d="M393.461 213.366L401.352 210.562C393.74 208.801 388.567 204.073 385.832 196.377C384.06 191.391 383.802 186.309 385.058 181.132C386.327 175.993 389.004 171.394 393.089 167.334C397.227 163.299 402.495 160.144 408.895 157.87C415.138 155.652 421.161 154.683 426.965 154.965C432.809 155.232 437.824 156.965 442.012 160.164C446.2 163.363 449.208 167.534 451.035 172.678C452.375 176.447 452.763 180.09 452.199 183.606C451.675 187.109 450.465 190.236 448.569 192.989L479.546 181.981L483.292 192.523L396.956 223.201L393.461 213.366ZM412.767 168.765C404.757 171.611 399.37 175.427 396.604 180.213C393.838 184.998 393.272 189.688 394.904 194.281C396.55 198.914 399.83 202.171 404.743 204.051C409.709 205.956 416.079 205.528 423.853 202.766C432.412 199.724 438.108 195.843 440.941 191.122C443.774 186.401 444.332 181.626 442.616 176.797C440.942 172.086 437.616 168.823 432.638 167.01C427.675 165.237 421.051 165.822 412.767 168.765Z" fill="#2690FF"/>
<path d="M357.787 190.364L367.683 186.466C367.664 189.013 367.888 191.173 368.355 192.946C368.992 195.364 369.904 197.192 371.092 198.43C372.279 199.668 373.721 200.56 375.415 201.105C376.684 201.503 379.675 201.9 384.389 202.296C385.047 202.339 386.018 202.427 387.303 202.563L445.198 161.272L448.285 172.998L414.632 196.142C410.374 199.116 405.826 201.973 400.989 204.711C406.314 204.645 411.582 204.852 416.793 205.333L457.818 209.201L460.683 220.08L388.978 212.851C381.237 212.088 375.846 211.332 372.805 210.582C368.71 209.592 365.507 208.065 363.197 206.002C360.847 203.95 359.216 201.191 358.303 197.726C357.752 195.63 357.579 193.177 357.787 190.364Z" fill="#2690FF"/>
<path d="M387.063 211.354L450.688 183.603L452.014 195.153L415.156 210.016L401.448 215.553C402.171 215.638 406.835 216.256 415.439 217.407L455.265 223.467L456.584 234.954L419.468 249.217L407.241 253.955L420.405 256.282L459.827 263.206L461.074 274.072L392.766 261.028L391.433 249.416L429.719 234.389L440.665 230.553L388.403 223.027L387.063 211.354Z" fill="#2690FF"/>
<path d="M420.031 210.455C432.321 210.287 441.472 213.579 447.481 220.331C452.475 225.971 455.029 232.895 455.141 241.103C455.266 250.227 452.368 257.726 446.448 263.599C440.57 269.472 432.36 272.48 421.819 272.624C413.278 272.741 406.532 271.542 401.581 269.026C396.671 266.551 392.829 262.874 390.054 257.995C387.279 253.158 385.852 247.843 385.773 242.052C385.645 232.761 388.521 225.2 394.401 219.369C400.28 213.58 408.824 210.609 420.031 210.455ZM420.189 222.017C411.69 222.133 405.341 224.074 401.142 227.84C396.985 231.606 394.945 236.301 395.022 241.926C395.098 247.508 397.286 252.125 401.587 255.775C405.887 259.424 412.391 261.19 421.099 261.071C429.306 260.958 435.488 258.998 439.645 255.191C443.844 251.425 445.905 246.771 445.829 241.23C445.752 235.606 443.585 230.968 439.326 227.318C435.067 223.668 428.688 221.9 420.189 222.017Z" fill="#2690FF"/>
<path d="M386.541 228.167L452.804 232.027L452.215 242.135L442.17 241.55C446.72 244.403 449.681 246.954 451.052 249.205C452.421 251.496 453.029 253.953 452.877 256.573C452.656 260.358 451.226 264.136 448.586 267.905L438.391 263.43C440.173 260.779 441.144 258.081 441.304 255.336C441.447 252.881 440.827 250.633 439.443 248.591C438.101 246.551 436.144 245.039 433.572 244.054C429.652 242.574 425.32 241.695 420.578 241.419L385.887 239.398L386.541 228.167Z" fill="#2690FF"/>
<path d="M385.855 234.492L476.76 245.958L475.352 257.119L423.513 250.581L446.969 280.375L445.147 294.823L423.891 266.566L378.973 289.06L380.709 275.294L417.125 257.776L410.553 248.947L384.447 245.654L385.855 234.492Z" fill="#2690FF"/>
<path d="M383.643 297.092C380.415 292.582 378.256 287.965 377.165 283.244C376.116 278.531 376.139 273.693 377.236 268.73C379.258 259.576 383.955 252.996 391.326 248.992C397.333 245.754 403.449 244.822 409.673 246.197C415.207 247.42 419.8 250.291 423.452 254.811C427.137 259.38 429.885 265.577 431.698 273.402C437.226 270.399 441.583 268.546 444.768 267.841C447.953 267.137 450.889 267.081 453.574 267.675C458.944 268.861 463.14 271.986 466.16 277.048C469.213 282.161 470.033 287.911 468.622 294.298C467.273 300.401 464.301 304.971 459.703 308.009C455.097 311.088 450.17 312.048 444.922 310.888C436.419 309.009 430.401 301.77 426.87 289.17L402.879 300.703C406.055 303.325 409.89 305.666 414.385 307.725L409.422 318.598C402.042 314.919 396.198 310.855 391.89 306.404C385.531 309.308 379.924 312.955 375.071 317.345L367.976 308.033C371.804 304.227 377.026 300.58 383.643 297.092ZM435.203 285.058C436.959 290.439 438.741 294.054 440.551 295.905C442.352 297.796 444.535 299.025 447.098 299.592C450.149 300.266 452.847 299.838 455.19 298.307C457.566 296.827 459.073 294.642 459.711 291.753C460.367 288.783 459.959 286.09 458.488 283.674C457.007 281.299 454.883 279.805 452.117 279.194C450.733 278.888 449.192 278.911 447.493 279.261C445.826 279.66 443.981 280.383 441.958 281.43L435.203 285.058ZM393.832 292.111L423.242 277.487C421.015 270.765 418.605 266.029 416.012 263.28C413.46 260.54 410.699 258.841 407.729 258.185C404.108 257.385 400.025 257.998 395.481 260.024C390.937 262.049 388.081 265.707 386.912 270.996C386.184 274.291 386.451 277.913 387.712 281.862C389.005 285.86 391.045 289.276 393.832 292.111Z" fill="#2690FF"/>
<path d="M400.839 259.83L399.118 270.96C394.681 270.197 390.9 270.804 387.775 272.779C384.637 274.794 382.288 278.243 380.727 283.124C379.154 288.046 378.978 292.014 380.201 295.03C381.464 298.058 383.445 300.004 386.144 300.867C388.565 301.641 390.806 301.198 392.867 299.539C394.289 298.375 396.667 295.111 400.001 289.746C404.498 282.522 407.949 277.611 410.355 275.012C412.788 272.465 415.528 270.804 418.575 270.029C421.65 269.306 424.735 269.439 427.831 270.429C430.649 271.33 433.045 272.796 435.02 274.827C437.022 276.911 438.462 279.318 439.339 282.048C440.036 284.108 440.345 286.7 440.265 289.824C440.212 293 439.658 296.236 438.605 299.53C437.019 304.491 434.915 308.608 432.294 311.882C429.659 315.195 426.827 317.352 423.795 318.351C420.803 319.363 417.155 319.553 412.852 318.92L414.773 307.986C418.18 308.55 421.164 307.973 423.725 306.255C426.274 304.577 428.215 301.654 429.547 297.487C431.121 292.565 431.43 288.793 430.475 286.169C429.521 283.546 427.952 281.885 425.769 281.187C424.38 280.743 422.99 280.78 421.6 281.297C420.17 281.803 418.779 282.867 417.429 284.491C416.69 285.436 414.768 288.299 411.664 293.081C407.217 300.015 403.862 304.76 401.601 307.318C399.366 309.928 396.746 311.693 393.74 312.613C390.733 313.533 387.405 313.409 383.753 312.242C380.182 311.1 377.144 308.969 374.642 305.851C372.166 302.785 370.684 299.008 370.194 294.52C369.743 290.046 370.311 285.328 371.897 280.367C374.524 272.152 378.235 266.427 383.032 263.192C387.815 259.997 393.751 258.876 400.839 259.83Z" fill="#2690FF"/>
<path d="M376.911 295.829L367.064 293.724C367.597 290.532 368.318 287.771 369.228 285.443C370.715 281.64 372.47 278.926 374.492 277.301C376.514 275.676 378.662 274.815 380.937 274.72C383.249 274.64 387.549 275.829 393.836 278.287L429.402 292.192L432.406 284.509L440.555 287.695L437.551 295.379L452.86 301.364L455.073 314.241L433.477 305.798L429.358 316.334L421.209 313.148L425.328 302.612L389.18 288.479C386.192 287.311 384.203 286.734 383.212 286.75C382.207 286.804 381.293 287.14 380.47 287.758C379.631 288.414 378.909 289.519 378.302 291.071C377.847 292.235 377.383 293.821 376.911 295.829Z" fill="#2690FF"/>
<path d="M356.131 312.566L364.95 316.724C360.369 308.852 359.971 300.902 363.756 292.875C365.426 289.332 367.668 286.335 370.482 283.885C373.278 281.472 376.049 279.991 378.794 279.443C381.56 278.95 384.574 279.104 387.836 279.905C390.029 280.432 393.292 281.717 397.626 283.761L434.825 301.298L430.027 311.474L396.73 295.776C391.416 293.27 387.737 291.79 385.695 291.333C382.717 290.713 379.967 291.074 377.445 292.419C374.96 293.781 372.998 295.988 371.559 299.041C370.119 302.094 369.542 305.322 369.825 308.727C370.147 312.149 371.388 315.037 373.548 317.392C375.729 319.802 379.382 322.215 384.507 324.631L416.674 339.796L411.877 349.972L351.84 321.668L356.131 312.566Z" fill="#2690FF"/>
<path d="M347.568 320.756L354.798 324.983C351.239 318.027 351.52 311.025 355.642 303.975C358.313 299.406 362.033 295.934 366.801 293.558C371.548 291.217 376.79 290.3 382.527 290.807C388.279 291.371 394.087 293.366 399.95 296.795C405.669 300.139 410.291 304.12 413.817 308.74C417.378 313.38 419.285 318.332 419.538 323.596C419.79 328.86 418.539 333.848 415.784 338.56C413.765 342.013 411.229 344.657 408.177 346.493C405.161 348.349 401.99 349.439 398.663 349.763L427.043 366.356L421.396 376.014L342.299 329.766L347.568 320.756ZM394.114 306.776C386.776 302.486 380.386 300.825 374.945 301.794C369.503 302.763 365.552 305.352 363.091 309.561C360.61 313.805 360.233 318.412 361.961 323.38C363.705 328.406 368.138 333 375.259 337.165C383.101 341.749 389.739 343.604 395.175 342.727C400.61 341.851 404.621 339.201 407.208 334.777C409.732 330.46 410.083 325.815 408.262 320.84C406.419 315.902 401.703 311.214 394.114 306.776Z" fill="#2690FF"/>
<path d="M342.167 278.655L351.526 283.71C349.566 285.337 348.059 286.9 347.004 288.399C345.565 290.444 344.756 292.32 344.574 294.026C344.393 295.732 344.64 297.409 345.315 299.056C345.828 300.282 347.452 302.826 350.187 306.686C350.579 307.216 351.137 308.016 351.861 309.086L420.743 326.746L413.767 336.664L374.382 325.845C369.364 324.506 364.249 322.869 359.038 320.936C362.52 324.965 365.757 329.126 368.748 333.421L392.227 367.284L385.755 376.485L345.074 316.996C340.668 310.586 337.772 305.976 336.386 303.167C334.504 299.398 333.607 295.965 333.696 292.869C333.751 289.75 334.81 286.724 336.871 283.793C338.118 282.021 339.883 280.308 342.167 278.655Z" fill="#2690FF"/>
<path d="M344.983 314.567L407.205 345.336L399.228 353.792L364.111 335.187L351.043 328.273C351.444 328.881 353.976 332.845 358.641 340.166L379.673 374.524L371.739 382.935L336.913 363.747L325.411 357.451L332.115 369.015L352.226 403.622L344.721 411.578L310.675 350.939L318.694 342.437L354.858 362.029L364.845 367.927L336.921 323.115L344.983 314.567Z" fill="#2690FF"/>
<path d="M366.916 339.197C374.965 348.487 378.344 357.605 377.054 366.551C375.96 374.005 372.311 380.419 366.107 385.795C359.211 391.77 351.609 394.387 343.303 393.645C335.024 392.934 327.433 388.595 320.53 380.628C314.937 374.173 311.506 368.241 310.239 362.834C308.968 357.485 309.303 352.177 311.246 346.911C313.157 341.671 316.301 337.156 320.678 333.363C327.7 327.278 335.335 324.605 343.582 325.343C351.798 326.108 359.576 330.726 366.916 339.197ZM358.177 346.769C352.611 340.344 347.035 336.741 341.449 335.957C335.891 335.205 330.986 336.67 326.735 340.354C322.515 344.01 320.396 348.658 320.376 354.299C320.356 359.939 323.198 366.05 328.9 372.631C334.275 378.835 339.758 382.299 345.348 383.024C350.934 383.808 355.821 382.385 360.009 378.756C364.26 375.073 366.409 370.427 366.456 364.818C366.503 359.209 363.743 353.193 358.177 346.769Z" fill="#2690FF"/>
<path d="M331.791 325.003L371.541 378.159L363.433 384.223L357.407 376.164C358.158 381.482 358.115 385.39 357.278 387.889C356.407 390.413 354.921 392.461 352.819 394.033C349.783 396.304 345.972 397.644 341.388 398.054L338.241 387.375C341.416 387.029 344.105 386.033 346.308 384.386C348.276 382.914 349.596 380.991 350.266 378.617C350.961 376.276 350.856 373.805 349.951 371.204C348.557 367.252 346.437 363.374 343.593 359.57L322.782 331.741L331.791 325.003Z" fill="#2690FF"/>
<path d="M326.512 328.555L376.327 405.455L366.885 411.572L338.478 367.719L330.811 404.855L318.589 412.773L326.498 378.309L280.351 358.458L291.996 350.914L328.859 367.471L331.376 356.756L317.07 334.672L326.512 328.555Z" fill="#2690FF"/>
<path d="M277.219 367.204C278.588 361.829 280.726 357.203 283.634 353.327C286.561 349.487 290.276 346.388 294.778 344.027C303.081 339.675 311.139 339.026 318.95 342.082C325.298 344.588 329.951 348.665 332.911 354.311C335.542 359.33 336.307 364.692 335.205 370.397C334.085 376.159 331.118 382.255 326.302 388.684C332.161 390.975 336.386 393.112 338.977 395.094C341.568 397.076 343.502 399.285 344.779 401.72C347.333 406.591 347.647 411.813 345.723 417.385C343.781 423.014 339.913 427.347 334.119 430.384C328.583 433.286 323.173 433.958 317.887 432.4C312.564 430.862 308.655 427.713 306.16 422.953C302.117 415.24 303.775 405.973 311.134 395.153L286.855 384.24C286.896 388.358 287.578 392.8 288.899 397.564L277.387 400.776C275.444 392.762 274.787 385.674 275.414 379.512C269.094 376.52 262.693 374.584 256.208 373.702L258.757 362.275C264.134 362.749 270.288 364.393 277.219 367.204ZM319.648 398.875C316.665 403.685 315.049 407.378 314.801 409.955C314.515 412.551 314.981 415.012 316.2 417.337C317.651 420.104 319.717 421.891 322.397 422.697C325.06 423.559 327.702 423.304 330.322 421.93C333.016 420.518 334.813 418.471 335.712 415.788C336.574 413.125 336.347 410.539 335.032 408.029C334.374 406.775 333.364 405.611 332.001 404.537C330.621 403.52 328.879 402.575 326.775 401.702L319.648 398.875ZM287.594 371.786L317.73 384.85C321.435 378.815 323.503 373.921 323.934 370.166C324.385 366.449 323.904 363.243 322.491 360.549C320.77 357.265 317.67 354.538 313.193 352.369C308.716 350.199 304.078 350.372 299.281 352.887C296.292 354.454 293.694 356.992 291.487 360.501C289.263 364.066 287.966 367.828 287.594 371.786Z" fill="#2690FF"/>
<path d="M316.793 356.341L307.174 362.197C304.898 358.313 301.997 355.813 298.473 354.696C294.91 353.595 290.759 354.021 286.021 355.974C281.243 357.942 278.096 360.365 276.578 363.244C275.076 366.161 274.865 368.929 275.944 371.549C276.913 373.899 278.695 375.328 281.293 375.835C283.099 376.172 287.128 375.887 293.378 374.979C301.8 373.762 307.779 373.236 311.317 373.401C314.832 373.62 317.868 374.645 320.425 376.475C322.959 378.361 324.845 380.805 326.084 383.81C327.211 386.546 327.634 389.323 327.353 392.142C327.05 395.016 326.138 397.668 324.615 400.098C323.489 401.959 321.706 403.865 319.266 405.817C316.802 407.824 313.972 409.485 310.775 410.803C305.959 412.787 301.455 413.832 297.262 413.937C293.031 414.058 289.556 413.281 286.839 411.607C284.137 409.971 281.641 407.304 279.351 403.606L288.95 398.029C290.714 400.997 293.078 402.907 296.043 403.759C298.969 404.626 302.454 404.227 306.5 402.56C311.277 400.592 314.361 398.397 315.752 395.976C317.143 393.556 317.402 391.286 316.529 389.167C315.973 387.818 315.049 386.78 313.757 386.05C312.449 385.282 310.739 384.905 308.627 384.919C307.428 384.962 304 385.338 298.344 386.047C290.176 387.114 284.386 387.607 280.972 387.526C277.537 387.499 274.498 386.633 271.858 384.927C269.217 383.221 267.166 380.596 265.706 377.052C264.277 373.585 263.949 369.889 264.721 365.966C265.47 362.097 267.403 358.53 270.518 355.263C273.65 352.035 277.623 349.429 282.439 347.445C290.414 344.159 297.183 343.308 302.747 344.891C308.273 346.49 312.955 350.306 316.793 356.341Z" fill="#2690FF"/>
<path d="M273.848 361.244L269.112 352.357C271.896 350.707 274.471 349.48 276.838 348.676C280.704 347.362 283.91 346.954 286.456 347.453C289.002 347.952 291.044 349.041 292.583 350.718C294.134 352.435 295.996 356.49 298.168 362.881L310.455 399.037L318.266 396.383L321.081 404.668L313.27 407.322L318.559 422.886L310.138 432.876L302.678 410.922L291.967 414.562L289.151 406.277L299.862 402.637L287.374 365.888C286.342 362.851 285.501 360.958 284.851 360.211C284.161 359.477 283.315 358.995 282.312 358.763C281.27 358.545 279.96 358.704 278.382 359.241C277.199 359.643 275.687 360.31 273.848 361.244Z" fill="#2690FF"/>
<path d="M247.657 356.139L250.161 365.562C253.228 356.987 259.05 351.559 267.628 349.28C271.413 348.274 275.149 348.057 278.836 348.629C282.483 349.212 285.401 350.377 287.59 352.124C289.749 353.921 291.573 356.325 293.063 359.335C294.073 361.351 295.193 364.675 296.424 369.306L306.986 409.052L296.113 411.941L286.659 376.363C285.15 370.685 283.912 366.919 282.945 365.063C281.5 362.386 279.451 360.516 276.798 359.454C274.155 358.431 271.203 358.354 267.941 359.22C264.679 360.087 261.838 361.726 259.418 364.137C257.008 366.588 255.599 369.398 255.191 372.568C254.754 375.788 255.262 380.136 256.718 385.613L265.851 419.983L254.978 422.872L237.932 358.723L247.657 356.139Z" fill="#2690FF"/>
<path d="M235.876 354.869L237.303 363.122C240.328 355.918 245.864 351.62 253.911 350.229C259.126 349.327 264.178 349.934 269.068 352.048C273.917 354.17 277.996 357.588 281.306 362.301C284.582 367.063 286.798 372.79 287.955 379.482C289.084 386.01 289.018 392.111 287.757 397.783C286.504 403.497 283.946 408.146 280.084 411.732C276.221 415.317 271.601 417.575 266.222 418.505C262.281 419.186 258.625 418.951 255.255 417.8C251.891 416.69 249.014 414.968 246.623 412.633L252.223 445.027L241.199 446.933L225.591 356.647L235.876 354.869ZM276.561 381.452C275.113 373.076 272.266 367.12 268.018 363.583C263.77 360.047 259.244 358.694 254.44 359.525C249.595 360.362 245.83 363.043 243.145 367.566C240.426 372.138 239.769 378.489 241.174 386.618C242.722 395.569 245.582 401.84 249.755 405.431C253.927 409.023 258.539 410.382 263.589 409.509C268.516 408.657 272.294 405.932 274.924 401.334C277.513 396.742 278.059 390.115 276.561 381.452Z" fill="#2690FF"/>
<path d="M264.589 323.608L266.755 334.021C264.248 333.571 262.081 333.426 260.254 333.586C257.764 333.804 255.808 334.393 254.386 335.354C252.964 336.315 251.842 337.584 251.018 339.162C250.41 340.344 249.512 343.225 248.323 347.805C248.17 348.445 247.918 349.388 247.566 350.631L278.452 414.684L266.373 415.74L249.264 378.652C247.055 373.952 245.01 368.986 243.13 363.755C242.294 369.015 241.197 374.172 239.841 379.226L229.078 419.002L217.871 419.982L237.144 350.539C239.206 343.039 240.865 337.854 242.12 334.984C243.789 331.115 245.836 328.218 248.261 326.291C250.682 324.322 253.677 323.182 257.247 322.87C259.405 322.681 261.853 322.927 264.589 323.608Z" fill="#2690FF"/>
<path d="M238.943 348.905L255.513 416.312L243.907 415.662L235.502 376.819L232.367 362.371C232.161 363.069 230.762 367.56 228.17 375.845L215.451 414.069L203.907 413.422L196.137 374.427L193.539 361.574L189.016 374.154L175.514 411.833L164.593 411.221L189.021 346.11L200.69 346.763L209.014 387.042L210.94 398.48L227.211 348.248L238.943 348.905Z" fill="#2690FF"/>
<path d="M234.244 381.548C232.328 393.689 227.533 402.149 219.861 406.928C213.456 410.895 206.199 412.238 198.091 410.958C189.078 409.536 182.179 405.41 177.393 398.58C172.601 391.791 171.027 383.191 172.671 372.778C174.003 364.341 176.328 357.895 179.646 353.442C182.917 349.023 187.191 345.859 192.47 343.95C197.708 342.035 203.187 341.529 208.908 342.432C218.086 343.88 225.05 347.996 229.801 354.778C234.51 361.553 235.991 370.477 234.244 381.548ZM222.823 379.745C224.148 371.349 223.311 364.763 220.31 359.987C217.303 355.252 213.022 352.446 207.466 351.569C201.951 350.698 197.03 352.073 192.705 355.693C188.379 359.313 185.537 365.423 184.18 374.025C182.9 382.133 183.784 388.558 186.832 393.299C189.832 398.076 194.069 400.896 199.543 401.76C205.1 402.637 210.037 401.286 214.356 397.707C218.675 394.129 221.498 388.141 222.823 379.745Z" fill="#2690FF"/>
<path d="M222.461 345.543L207.431 410.194L197.569 407.901L199.848 398.1C196.265 402.101 193.249 404.587 190.799 405.557C188.309 406.518 185.785 406.701 183.228 406.107C179.535 405.248 176.054 403.199 172.787 399.958L178.925 390.669C181.235 392.874 183.73 394.289 186.408 394.911C188.803 395.468 191.124 395.237 193.371 394.22C195.608 393.243 197.43 391.57 198.836 389.202C200.96 385.589 202.559 381.469 203.635 376.843L211.504 342.995L222.461 345.543Z" fill="#2690FF"/>
<path d="M216.343 343.795L189.644 431.443L178.882 428.165L194.108 378.183L160.77 396.252L146.84 392.009L178.289 375.847L163.73 327.768L177.003 331.811L188.099 370.668L197.914 365.687L205.582 340.517L216.343 343.795Z" fill="#2690FF"/>
<path d="M155.024 331.008C160.017 328.592 164.932 327.246 169.77 326.971C174.592 326.735 179.356 327.578 184.062 329.499C192.741 333.044 198.43 338.787 201.127 346.73C203.301 353.198 203.183 359.384 200.773 365.285C198.631 370.532 195.023 374.572 189.95 377.406C184.823 380.263 178.25 381.922 170.23 382.383C172.254 388.34 173.342 392.947 173.497 396.206C173.651 399.464 173.209 402.367 172.169 404.913C170.09 410.004 166.3 413.61 160.799 415.729C155.243 417.871 149.437 417.706 143.381 415.233C137.595 412.87 133.594 409.166 131.379 404.121C129.125 399.059 129.014 394.041 131.046 389.065C134.338 381.003 142.493 376.299 155.509 374.953L148.207 349.355C145.085 352.041 142.128 355.424 139.336 359.505L129.461 352.772C134.337 346.122 139.334 341.051 144.45 337.56C142.665 330.8 140.02 324.657 136.516 319.13L146.896 313.715C149.998 318.132 152.707 323.897 155.024 331.008ZM158.149 383.863C152.549 384.681 148.684 385.826 146.553 387.296C144.384 388.751 142.803 390.693 141.811 393.123C140.629 396.016 140.594 398.747 141.705 401.316C142.762 403.908 144.66 405.763 147.399 406.882C150.215 408.032 152.938 408.086 155.569 407.045C158.161 405.988 159.992 404.148 161.063 401.525C161.599 400.214 161.838 398.691 161.781 396.957C161.669 395.247 161.269 393.305 160.581 391.134L158.149 383.863ZM158.207 341.895L167.637 373.357C174.64 372.301 179.715 370.728 182.864 368.639C185.997 366.588 188.138 364.154 189.288 361.338C190.69 357.905 190.778 353.778 189.551 348.956C188.325 344.135 185.204 340.7 180.189 338.652C177.065 337.376 173.45 337.025 169.345 337.599C165.186 338.196 161.473 339.628 158.207 341.895Z" fill="#2690FF"/>
<path d="M188.834 354.269L178.157 350.687C179.66 346.443 179.703 342.614 178.286 339.2C176.831 335.766 173.831 332.867 169.284 330.501C164.7 328.117 160.819 327.272 157.64 327.966C154.441 328.698 152.188 330.32 150.88 332.834C149.708 335.089 149.764 337.373 151.05 339.685C151.956 341.284 154.771 344.181 159.493 348.375C165.85 354.031 170.106 358.264 172.26 361.075C174.358 363.905 175.531 366.886 175.778 370.021C175.97 373.174 175.316 376.192 173.816 379.075C172.451 381.7 170.6 383.813 168.263 385.416C165.871 387.036 163.255 388.047 160.415 388.448C158.267 388.787 155.66 388.652 152.595 388.043C149.473 387.453 146.379 386.36 143.31 384.764C138.69 382.36 134.989 379.589 132.206 376.451C129.387 373.293 127.742 370.136 127.27 366.979C126.78 363.859 127.211 360.232 128.563 356.097L139.014 359.843C137.881 363.105 137.944 366.144 139.203 368.959C140.426 371.756 142.977 374.164 146.859 376.183C151.442 378.567 155.108 379.511 157.855 379.015C160.603 378.518 162.505 377.254 163.563 375.221C164.236 373.927 164.435 372.551 164.16 371.093C163.905 369.598 163.091 368.047 161.719 366.441C160.913 365.552 158.417 363.174 154.23 359.305C148.15 353.747 144.042 349.637 141.904 346.975C139.71 344.33 138.414 341.449 138.017 338.33C137.62 335.212 138.306 331.952 140.075 328.551C141.806 325.225 144.42 322.592 147.917 320.654C151.358 318.734 155.332 317.912 159.837 318.19C164.323 318.504 168.877 319.863 173.497 322.267C181.149 326.247 186.162 330.875 188.538 336.15C190.876 341.405 190.975 347.445 188.834 354.269Z" fill="#2690FF"/>
<path d="M157.409 324.59L161.152 315.242C164.208 316.307 166.806 317.485 168.946 318.777C172.442 320.887 174.82 323.076 176.079 325.344C177.338 327.612 177.822 329.875 177.53 332.133C177.217 334.426 175.317 338.462 171.83 344.241L152.1 376.937L159.164 381.2L154.643 388.691L147.58 384.429L139.087 398.503L126.021 398.502L138.001 378.649L128.315 372.804L132.836 365.312L142.522 371.157L162.574 337.926C164.232 335.179 165.137 333.316 165.289 332.338C165.406 331.338 165.23 330.38 164.76 329.464C164.255 328.526 163.289 327.627 161.863 326.766C160.792 326.12 159.308 325.395 157.409 324.59Z" fill="#2690FF"/>
<path d="M144.434 301.273L138.843 309.261C147.377 306.08 155.279 307.034 162.549 312.124C165.758 314.37 168.331 317.088 170.27 320.276C172.174 323.44 173.164 326.422 173.239 329.221C173.256 332.03 172.594 334.974 171.252 338.053C170.361 340.125 168.541 343.124 165.793 347.049L142.208 380.739L132.992 374.287L154.104 344.13C157.473 339.317 159.556 335.943 160.351 334.008C161.468 331.178 161.577 328.406 160.679 325.693C159.758 323.013 157.915 320.705 155.15 318.77C152.385 316.834 149.301 315.718 145.898 315.421C142.471 315.158 139.414 315.891 136.728 317.622C133.983 319.363 130.986 322.554 127.736 327.196L107.341 356.329L98.1246 349.877L136.191 295.503L144.434 301.273Z" fill="#2690FF"/>
<path d="M137.813 291.447L132.422 297.856C139.88 295.527 146.734 296.99 152.984 302.247C157.034 305.654 159.826 309.908 161.36 315.01C162.862 320.085 162.878 325.406 161.407 330.975C159.877 336.548 156.926 341.933 152.554 347.131C148.289 352.201 143.582 356.082 138.432 358.773C133.256 361.497 128.052 362.538 122.821 361.895C117.591 361.252 112.887 359.174 108.71 355.66C105.649 353.085 103.472 350.138 102.18 346.82C100.862 343.532 100.325 340.222 100.569 336.889L79.4076 362.048L70.8461 354.846L129.825 284.728L137.813 291.447ZM143.705 339.688C149.177 333.183 151.896 327.167 151.863 321.64C151.829 316.113 149.947 311.78 146.217 308.642C142.454 305.477 137.978 304.326 132.788 305.188C127.54 306.054 122.261 309.645 116.95 315.958C111.103 322.909 108.151 329.138 108.094 334.643C108.037 340.148 109.969 344.551 113.891 347.85C117.717 351.068 122.236 352.201 127.447 351.249C132.627 350.27 138.046 346.416 143.705 339.688Z" fill="#2690FF"/>
<path d="M180.222 293.256L173.654 301.623C172.383 299.416 171.097 297.666 169.798 296.372C168.027 294.608 166.316 293.492 164.665 293.024C163.014 292.556 161.32 292.516 159.582 292.903C158.286 293.2 155.505 294.37 151.237 296.412C150.648 296.707 149.765 297.122 148.588 297.655L119.513 362.549L110.921 353.994L128.255 317.011C130.426 312.292 132.905 307.529 135.694 302.72C131.133 305.47 126.483 307.955 121.744 310.174L84.3928 327.578L76.421 319.64L141.942 289.625C149.006 286.369 154.04 284.296 157.043 283.406C161.077 282.19 164.612 281.887 167.648 282.5C170.713 283.082 173.515 284.638 176.054 287.166C177.59 288.695 178.979 290.725 180.222 293.256Z" fill="#2690FF"/>
<path d="M144.351 289.948L103.486 346.058L96.503 336.764L120.789 305.306L129.816 293.598C129.15 293.89 124.814 295.715 116.808 299.071L79.3836 313.978L72.4382 304.734L97.2493 273.663L105.403 263.394L92.8695 268.042L55.3564 281.999L48.7864 273.254L114.317 249.974L121.337 259.318L95.9021 291.639L88.3971 300.483L137.293 280.554L144.351 289.948Z" fill="#2690FF"/>
<path d="M116.361 307.391C105.842 313.75 96.2833 315.536 87.6848 312.749C80.5241 310.407 74.8205 305.724 70.5741 298.7C65.8534 290.891 64.5623 282.956 66.7008 274.895C68.8036 266.857 74.3658 260.11 83.3872 254.657C90.697 250.238 97.1239 247.862 102.668 247.529C108.155 247.182 113.329 248.412 118.19 251.219C123.03 253.99 126.948 257.853 129.944 262.81C134.751 270.761 136.092 278.739 133.968 286.742C131.822 294.71 125.953 301.593 116.361 307.391ZM110.379 297.496C117.654 293.099 122.15 288.214 123.869 282.842C125.552 277.491 124.938 272.409 122.028 267.595C119.14 262.817 114.918 259.94 109.362 258.966C103.807 257.991 97.3026 259.756 89.8502 264.261C82.8256 268.507 78.4826 273.324 76.8212 278.71C75.1026 284.082 75.6767 289.139 78.5436 293.882C81.4536 298.696 85.6685 301.601 91.1884 302.597C96.7082 303.594 103.105 301.893 110.379 297.496Z" fill="#2690FF"/>
<path d="M136.3 275.178L77.1779 305.349L72.5757 296.33L81.5386 291.756C76.1705 291.595 72.3261 290.891 70.0051 289.643C67.6653 288.358 65.8987 286.546 64.7056 284.208C62.9821 280.83 62.3065 276.848 62.6788 272.261L73.7371 270.968C73.5396 274.156 74.0659 276.975 75.3159 279.425C76.4333 281.614 78.1052 283.241 80.3314 284.303C82.5205 285.385 84.9735 285.7 87.6905 285.249C91.8216 284.544 96.0026 283.112 100.234 280.953L131.186 265.158L136.3 275.178Z" fill="#2690FF"/>
<path d="M133.695 269.374L49.4671 305.441L45.0386 295.1L93.0702 274.532L57.7695 260.685L52.0371 247.298L84.6626 260.931L112.045 218.815L117.506 231.569L94.9442 265.095L105.078 269.39L129.266 259.033L133.695 269.374Z" fill="#2690FF"/>
<path d="M103.955 214.245C109.02 216.505 113.217 219.397 116.545 222.919C119.833 226.454 122.259 230.64 123.822 235.477C126.705 244.398 125.979 252.449 121.644 259.63C118.099 265.461 113.293 269.357 107.227 271.317C101.835 273.06 96.4208 272.905 90.9844 270.852C85.4956 268.773 79.9911 264.815 74.4708 258.98C71.2195 264.366 68.3978 268.168 66.0057 270.386C63.6135 272.604 61.1091 274.136 58.4924 274.982C53.2589 276.673 48.0594 276.099 42.8938 273.258C37.6757 270.39 34.0608 265.844 32.0491 259.619C30.1271 253.672 30.3812 248.226 32.8115 243.281C35.2289 238.296 38.9949 234.977 44.1095 233.324C52.3958 230.646 61.2476 233.85 70.6647 242.936L85.5327 220.856C81.4671 220.199 76.9746 220.119 72.0551 220.614L70.8398 208.724C79.0671 208.167 86.1643 208.719 92.1313 210.382C96.1499 204.66 99.1431 198.679 101.111 192.438L111.941 196.886C110.562 202.104 107.9 207.891 103.955 214.245ZM65.5535 250.696C61.3187 246.942 57.9526 244.723 55.4553 244.042C52.9451 243.32 50.4412 243.363 47.9434 244.17C44.9698 245.131 42.8588 246.865 41.6104 249.37C40.3096 251.848 40.1141 254.495 41.0238 257.31C41.9592 260.204 43.6725 262.322 46.1638 263.662C48.6423 264.963 51.2296 265.178 53.9256 264.307C55.2736 263.871 56.592 263.073 57.8808 261.912C59.1171 260.724 60.3436 259.167 61.5603 257.241L65.5535 250.696ZM97.6819 223.695L79.7009 251.182C85.021 255.855 89.4946 258.723 93.1216 259.784C96.709 260.857 99.9499 260.927 102.844 259.991C106.373 258.851 109.585 256.258 112.482 252.213C115.378 248.168 115.993 243.568 114.328 238.414C113.29 235.203 111.229 232.213 108.144 229.444C105.007 226.648 101.52 224.731 97.6819 223.695Z" fill="#2690FF"/>
<path d="M107.956 255.088L103.815 244.616C108.028 243.03 110.984 240.596 112.681 237.311C114.369 233.986 114.653 229.823 113.532 224.822C112.401 219.781 110.546 216.268 107.966 214.285C105.345 212.31 102.653 211.633 99.8882 212.253C97.4081 212.809 95.6982 214.324 94.7584 216.798C94.1199 218.521 93.7187 222.54 93.5546 228.854C93.3269 237.36 92.8322 243.342 92.0706 246.801C91.2592 250.228 89.7348 253.047 87.4974 255.256C85.2103 257.435 82.4811 258.879 79.3098 259.59C76.4232 260.238 73.6143 260.184 70.8831 259.43C68.1022 258.645 65.6433 257.296 63.5065 255.384C61.8632 253.959 60.2864 251.879 58.7762 249.143C57.2162 246.375 56.0579 243.304 55.3011 239.93C54.1615 234.848 53.895 230.232 54.5017 226.082C55.0992 221.891 56.4532 218.598 58.5637 216.204C60.6335 213.818 63.6847 211.81 67.7174 210.18L71.588 220.585C68.3635 221.82 66.0805 223.827 64.7391 226.604C63.3885 229.341 63.1919 232.844 64.1492 237.113C65.2797 242.155 66.9201 245.566 69.0702 247.347C71.2203 249.128 73.4135 249.768 75.6496 249.266C77.0726 248.947 78.253 248.213 79.1908 247.063C80.1693 245.904 80.8305 244.283 81.1745 242.199C81.3349 241.01 81.5452 237.568 81.8054 231.873C82.1376 223.642 82.6326 217.852 83.2905 214.502C83.8986 211.12 85.267 208.273 87.3957 205.959C89.5244 203.646 92.459 202.069 96.1995 201.231C99.8586 200.41 103.556 200.713 107.292 202.138C110.978 203.532 114.167 206.041 116.858 209.665C119.509 213.298 121.404 217.655 122.544 222.737C124.431 231.153 124.123 237.969 121.62 243.185C119.109 248.36 114.554 252.328 107.956 255.088Z" fill="#2690FF"/>
<path d="M110.401 211.933L119.961 208.771C121.116 211.794 121.889 214.54 122.281 217.009C122.92 221.042 122.779 224.271 121.856 226.695C120.932 229.12 119.514 230.948 117.6 232.18C115.645 233.418 111.334 234.566 104.667 235.624L66.9516 241.608L68.2444 249.756L59.6025 251.127L58.3097 242.979L42.0753 245.555L33.6556 235.563L56.5566 231.93L54.784 220.757L63.4259 219.386L65.1985 230.558L103.532 224.477C106.7 223.974 108.708 223.465 109.554 222.951C110.395 222.396 111.014 221.644 111.411 220.695C111.803 219.705 111.868 218.387 111.607 216.741C111.411 215.506 111.009 213.903 110.401 211.933Z" fill="#2690FF"/>
<path d="M119.869 186.985L110.158 187.857C118.09 192.333 122.452 198.99 123.246 207.83C123.596 211.731 123.176 215.45 121.988 218.987C120.795 222.482 119.153 225.161 117.061 227.022C114.924 228.845 112.246 230.236 109.027 231.194C106.868 231.848 103.403 232.389 98.6304 232.817L57.67 236.493L56.6645 225.288L93.3296 221.998C99.1811 221.473 103.103 220.891 105.096 220.252C107.979 219.282 110.169 217.579 111.665 215.144C113.121 212.712 113.697 209.816 113.396 206.454C113.094 203.093 111.96 200.015 109.994 197.222C107.987 194.431 105.456 192.567 102.401 191.628C99.3018 190.651 94.9299 190.416 89.2859 190.922L53.8658 194.101L52.8602 182.896L118.97 176.963L119.869 186.985Z" fill="#2690FF"/>
<path d="M123.116 175.59L114.741 175.598C121.328 179.8 124.626 185.984 124.634 194.151C124.639 199.443 123.185 204.319 120.273 208.78C117.36 213.2 113.301 216.641 108.095 219.104C102.847 221.526 96.8275 222.74 90.0358 222.747C83.4108 222.753 77.4098 221.654 72.0327 219.451C66.6139 217.248 62.4649 213.94 59.5857 209.526C56.7065 205.112 55.2643 200.176 55.2591 194.717C55.2553 190.717 56.1061 187.154 57.8114 184.027C59.4751 180.901 61.6602 178.357 64.3667 176.396L31.4917 176.427L31.481 165.24L123.106 165.153L123.116 175.59ZM90.0248 211.184C98.5248 211.176 104.877 209.378 109.082 205.791C113.287 202.204 115.387 197.972 115.383 193.097C115.378 188.181 113.374 184.016 109.371 180.603C105.326 177.149 99.1783 175.425 90.9283 175.433C81.8449 175.442 75.1799 177.198 70.9333 180.702C66.6866 184.206 64.5657 188.521 64.5706 193.646C64.5754 198.646 66.621 202.831 70.7076 206.203C74.7941 209.532 81.2332 211.193 90.0248 211.184Z" fill="#2690FF"/>
<path d="M149.061 209.184L138.432 209.554C139.3 207.159 139.81 205.049 139.962 203.222C140.169 200.73 139.92 198.703 139.213 197.139C138.507 195.575 137.447 194.253 136.031 193.174C134.969 192.375 132.282 191.001 127.97 189.054C127.364 188.794 126.479 188.386 125.312 187.829L56.9532 207.417L57.9584 195.334L97.4086 184.755C102.415 183.374 107.656 182.2 113.13 181.234C108.088 179.519 103.191 177.564 98.4401 175.371L61.0619 158.025L61.9945 146.814L127.169 177.573C134.211 180.876 139.04 183.389 141.656 185.112C145.186 187.413 147.695 189.921 149.183 192.637C150.713 195.357 151.33 198.502 151.033 202.073C150.853 204.232 150.196 206.602 149.061 209.184Z" fill="#2690FF"/>
<path d="M128.474 179.623L59.2342 184.535L61.841 173.206L101.546 171.503L116.316 170.862C115.664 170.54 111.474 168.401 103.748 164.442L68.2319 145.432L70.8247 134.164L110.573 133.112L123.68 132.729L112.048 126.141L77.2015 106.45L79.6541 95.7913L139.686 130.897L137.065 142.287L95.9588 143.667L84.3597 143.627L131.109 168.173L128.474 179.623Z" fill="#2690FF"/>
<path d="M97.0986 169.462C85.4574 165.516 77.9318 159.358 74.5217 150.987C71.6976 144.002 71.603 136.623 74.2379 128.849C77.167 120.207 82.4023 114.106 89.9439 110.547C97.4461 106.975 106.189 106.88 116.173 110.264C124.262 113.006 130.221 116.389 134.048 120.414C137.849 124.386 140.243 129.135 141.23 134.661C142.23 140.147 141.801 145.633 139.942 151.118C136.959 159.918 131.723 166.085 124.234 169.618C116.759 173.112 107.714 173.059 97.0986 169.462ZM100.81 158.511C108.86 161.239 115.493 161.53 120.709 159.382C125.885 157.221 129.375 153.476 131.181 148.149C132.973 142.861 132.452 137.779 129.617 132.903C126.783 128.026 121.241 124.191 112.994 121.395C105.22 118.76 98.7384 118.543 93.549 120.744C88.3336 122.892 84.8364 126.59 83.0575 131.838C81.2519 137.166 81.7467 142.261 84.542 147.124C87.3372 151.987 92.76 155.782 100.81 158.511Z" fill="#2690FF"/>
<path d="M134.58 163.949L73.4099 138.184L77.3403 128.853L86.6137 132.759C83.2774 128.55 81.3386 125.157 80.7972 122.578C80.2721 119.96 80.519 117.442 81.538 115.023C83.0098 111.528 85.6195 108.446 89.3671 105.774L97.4819 113.397C94.9168 115.3 93.1005 117.519 92.033 120.054C91.0788 122.319 90.9127 124.646 91.5349 127.033C92.1187 129.404 93.4584 131.482 95.5541 133.269C98.7552 135.974 102.545 138.248 106.922 140.092L138.947 153.581L134.58 163.949Z" fill="#2690FF"/>
<path d="M137.339 158.216L55.4808 117.053L60.5349 107.002L107.215 130.476L95.0547 94.5592L101.597 81.549L112.197 115.282L162.048 109.079L155.815 121.475L115.639 125.827L118.885 136.344L142.393 148.165L137.339 158.216Z" fill="#2690FF"/>
<path d="M160.329 99.9486C161.865 105.278 162.359 110.351 161.81 115.165C161.226 119.958 159.588 124.51 156.897 128.823C151.934 136.776 145.309 141.409 137.025 142.722C130.281 143.769 124.205 142.605 118.797 139.23C113.99 136.23 110.619 131.99 108.685 126.51C106.738 120.973 106.217 114.213 107.121 106.232C100.908 107.217 96.1822 107.509 92.9445 107.109C89.7068 106.71 86.9215 105.782 84.5885 104.326C79.9226 101.414 77.0113 97.0677 75.8546 91.2871C74.6847 85.449 75.8314 79.7552 79.2947 74.2055C82.6037 68.9033 86.932 65.5879 92.2796 64.2593C97.6494 62.8953 102.614 63.6362 107.174 66.4819C114.562 71.0923 117.816 79.9256 116.937 92.9819L143.402 90.1219C141.284 86.59 138.451 83.1027 134.902 79.6601L143.211 71.0686C148.938 77.0007 153.09 82.7837 155.664 88.4176C162.629 87.8034 169.131 86.2378 175.171 83.7206L178.75 94.868C173.871 97.1768 167.731 98.8703 160.329 99.9486ZM107.709 94.0746C107.851 88.4167 107.378 84.4134 106.29 82.0644C105.224 79.6802 103.578 77.7932 101.351 76.4034C98.6997 74.7489 96.014 74.2517 93.2938 74.9116C90.5603 75.5141 88.4104 77.0702 86.8442 79.5799C85.2339 82.1603 84.7189 84.835 85.2994 87.6038C85.9019 90.3373 87.405 92.4541 89.8087 93.9542C91.0105 94.7042 92.4705 95.1979 94.1888 95.4352C95.8937 95.6151 97.8746 95.5498 100.131 95.2391L107.709 94.0746ZM149.061 101.241L116.455 105.205C116.31 112.285 117 117.554 118.526 121.011C120.017 124.446 122.053 126.969 124.633 128.579C127.779 130.543 131.832 131.328 136.792 130.936C141.751 130.544 145.665 128.051 148.533 123.455C150.319 120.592 151.278 117.089 151.407 112.946C151.524 108.746 150.742 104.844 149.061 101.241Z" fill="#2690FF"/>
<path d="M131.677 129.329L137.016 119.413C140.943 121.614 144.71 122.304 148.315 121.486C151.946 120.634 155.311 118.168 158.413 114.088C161.539 109.975 163.03 106.293 162.884 103.042C162.705 99.7653 161.487 97.27 159.232 95.5555C157.208 94.0174 154.948 93.6862 152.45 94.5619C150.721 95.1841 147.39 97.467 142.456 101.41C135.805 106.718 130.912 110.195 127.777 111.841C124.633 113.43 121.495 114.08 118.364 113.793C115.224 113.448 112.361 112.292 109.773 110.326C107.418 108.536 105.649 106.353 104.465 103.779C103.274 101.146 102.721 98.3969 102.806 95.5307C102.836 93.3558 103.411 90.8095 104.53 87.8916C105.641 84.9153 107.242 82.0506 109.335 79.2973C112.487 75.1508 115.845 71.9723 119.409 69.7618C122.999 67.5181 126.389 66.4315 129.58 66.502C132.738 66.5473 136.24 67.5864 140.085 69.6195L134.623 79.2846C131.601 77.6152 128.595 77.1626 125.607 77.9267C122.644 78.6577 119.838 80.7647 117.191 84.2478C114.065 88.3612 112.513 91.8138 112.537 94.6057C112.561 97.3975 113.485 99.4868 115.309 100.874C116.47 101.756 117.793 102.185 119.276 102.162C120.793 102.163 122.459 101.624 124.274 100.544C125.286 99.9001 128.054 97.8428 132.576 94.3718C139.084 89.3218 143.83 85.9689 146.816 84.313C149.794 82.5988 152.853 81.8101 155.994 81.9469C159.135 82.0837 162.231 83.312 165.283 85.6316C168.269 87.9008 170.42 90.923 171.738 94.6982C173.047 98.415 173.183 102.47 172.147 106.864C171.077 111.232 168.966 115.489 165.815 119.636C160.596 126.502 155.185 130.659 149.584 132.107C144.009 133.521 138.039 132.595 131.677 129.329Z" fill="#2690FF"/>
<path d="M166.25 103.387L174.829 108.66C173.262 111.491 171.66 113.852 170.024 115.743C167.353 118.831 164.793 120.803 162.344 121.66C159.895 122.516 157.583 122.61 155.408 121.94C153.201 121.243 149.545 118.687 144.44 114.271L115.559 89.287L110.162 95.5264L103.544 89.8018L108.941 83.5624L96.5098 72.8085L98.7241 59.9314L116.261 75.1014L123.662 66.5458L130.279 72.2704L122.878 80.8259L152.232 106.218C154.658 108.317 156.341 109.525 157.279 109.841C158.245 110.126 159.219 110.114 160.201 109.807C161.211 109.468 162.261 108.668 163.351 107.408C164.169 106.462 165.135 105.122 166.25 103.387Z" fill="#2690FF"/>
<path d="M191.428 94.5502L184.504 87.6862C186.193 96.6355 183.913 104.262 177.665 110.565C174.908 113.346 171.794 115.422 168.323 116.793C164.882 118.134 161.776 118.604 159.004 118.204C156.233 117.745 153.444 116.593 150.637 114.749C148.746 113.52 146.099 111.219 142.695 107.845L113.489 78.8933L121.409 70.9035L147.553 96.8196C151.725 100.956 154.698 103.58 156.47 104.691C159.07 106.271 161.783 106.848 164.61 106.423C167.407 105.969 169.993 104.544 172.369 102.147C174.745 99.7498 176.368 96.8996 177.237 93.5959C178.077 90.2629 177.872 87.126 176.622 84.1851C175.371 81.1854 172.734 77.6908 168.709 73.7015L143.453 48.6654L151.373 40.6757L198.512 87.4038L191.428 94.5502Z" fill="#2690FF"/>
<path d="M202.234 89.6895L196.831 83.2907C197.863 91.0357 195.259 97.5426 189.019 102.811C184.976 106.225 180.311 108.256 175.023 108.904C169.766 109.525 164.519 108.639 159.28 106.246C154.047 103.793 149.239 99.9729 144.858 94.7837C140.583 89.7219 137.556 84.4253 135.776 78.8938C133.968 73.3305 133.824 68.0258 135.344 62.9797C136.864 57.9336 139.709 53.6498 143.879 50.1283C146.935 47.5476 150.208 45.9019 153.698 45.191C157.161 44.4483 160.514 44.4798 163.758 45.2857L142.548 20.1676L151.096 12.9499L210.209 82.9557L202.234 89.6895ZM153.692 87.324C159.176 93.8184 164.644 97.5174 170.097 98.4209C175.55 99.3245 180.139 98.2037 183.863 95.0585C187.62 91.8865 189.513 87.6702 189.543 82.4097C189.578 77.0905 186.934 71.2792 181.611 64.9758C175.751 58.0357 170.113 54.0711 164.697 53.082C159.281 52.0929 154.615 53.2515 150.699 56.558C146.879 59.7838 144.997 64.0453 145.052 69.3426C145.14 74.613 148.02 80.6068 153.692 87.324Z" fill="#2690FF"/>
<path d="M193.267 131.178L186.133 123.288C188.524 122.409 190.467 121.438 191.962 120.377C194 118.93 195.39 117.433 196.131 115.885C196.872 114.337 197.199 112.674 197.112 110.896C197.038 109.569 196.357 106.629 195.067 102.077C194.876 101.447 194.617 100.507 194.291 99.256L135.26 59.6076L145.147 52.5893L178.659 75.9382C182.942 78.8765 187.217 82.1271 191.483 85.6902C189.546 80.7294 187.885 75.7258 186.5 70.6794L175.676 30.9196L184.85 24.4078L203.33 94.0661C205.342 101.58 206.533 106.892 206.901 110.003C207.417 114.184 207.116 117.719 205.998 120.608C204.904 123.53 202.896 126.028 199.974 128.102C198.208 129.356 195.972 130.382 193.267 131.178Z" fill="#2690FF"/>
</svg>
