<svg width="60" height="58" viewBox="0 0 60 58" fill="none" xmlns="http://www.w3.org/2000/svg">
<path d="M39.0449 29.5766C39.0449 34.1969 35.2964 37.9425 30.6724 37.9425C26.0485 37.9425 22.3 34.1969 22.3 29.5766C22.3 24.9562 26.0485 21.2107 30.6724 21.2107C35.2964 21.2107 39.0449 24.9562 39.0449 29.5766Z" fill="#2690FF"/>
<path d="M27.0816 35.454L28.425 36.2813L17.8794 57.4884L15.4844 56.0611L27.0816 35.454Z" fill="#2690FF"/>
<path d="M34.6166 36.1803L36.2107 35.3505L47.7348 50.2851L44.9343 51.779L34.6166 36.1803Z" fill="#2690FF"/>
<path d="M38.1051 33.0055L38.9542 31.4225L56.8962 37.2732L55.4249 40.084L38.1051 33.0055Z" fill="#2690FF"/>
<path d="M38.1292 29.4127L38.0459 27.523L59.815 23.2841L60 26.6202L38.1292 29.4127Z" fill="#2690FF"/>
<path d="M37.3507 25.5263L36.4823 24.1957L54.796 9.60117L56.3641 11.9302L37.3507 25.5263Z" fill="#2690FF"/>
<path d="M35.047 22.9968L33.6759 22.1927L43.5563 0.970177L45.9992 2.35627L35.047 22.9968Z" fill="#2690FF"/>
<path d="M31.4976 23.4764L29.9102 23.3881L28.98 0L31.7869 0.115909L31.4976 23.4764Z" fill="#2690FF"/>
<path d="M27.92 23.7017L26.5272 24.5078L13.6786 7.37248L16.1206 5.91669L27.92 23.7017Z" fill="#2690FF"/>
<path d="M24.747 26.1506L24.0706 27.6101L3.11469 20.6093L4.27538 18.0149L24.747 26.1506Z" fill="#2690FF"/>
<path d="M23.7309 33.6045L24.5942 34.9245L5.66686 49.8034L4.10676 47.4935L23.7309 33.6045Z" fill="#2690FF"/>
<path d="M15.8923 31.3647L15.8783 32.9399L0.00255717 35.7407L0 32.9587L15.8923 31.3647Z" fill="#2690FF"/>
<path d="M20.6645 32.9296L20.9386 34.4802L10.423 39.6473L9.92008 36.9128L20.6645 32.9296Z" fill="#2690FF"/>
<path d="M22.8631 27.9174L22.3876 29.4186L10.4112 29.0347L11.2318 26.378L22.8631 27.9174Z" fill="#2690FF"/>
<path d="M25.8278 24.747L24.5979 25.7314L14.8524 18.765L17.0117 17.0113L25.8278 24.747Z" fill="#2690FF"/>
<path d="M32.0187 36.7166L33.5711 36.4459L38.753 47.2416L36.0153 47.7391L32.0187 36.7166Z" fill="#2690FF"/>
<path d="M38.0843 31.1053L38.5697 29.6073L50.5433 30.0704L49.7051 32.7216L38.0843 31.1053Z" fill="#2690FF"/>
<path d="M25.0851 35.2949L26.0166 36.5652L17.4534 46.749L15.7905 44.5191L25.0851 35.2949Z" fill="#2690FF"/>
<path d="M28.0762 36.9867L29.5431 37.5625L27.756 50.7434L25.1575 49.7473L28.0762 36.9867Z" fill="#2690FF"/>
<path d="M38.4477 27.2113L38.1867 25.6583L49.8382 20.4637L50.3201 23.2024L38.4477 27.2113Z" fill="#2690FF"/>
<path d="M36.0496 34.2041L37.2444 33.1774L47.2274 39.7996L45.1307 41.6276L36.0496 34.2041Z" fill="#2690FF"/>
<path d="M29.2862 21.9516L27.7186 22.1121L23.3121 10.9779L26.0781 10.6747L29.2862 21.9516Z" fill="#2690FF"/>
<path d="M33.3099 22.0077L31.8771 21.352L34.0457 8.92629L36.5845 10.065L33.3099 22.0077Z" fill="#2690FF"/>
<path d="M36.6229 23.9238L35.6982 22.7401L43.8733 12.5765L45.5235 14.6532L36.6229 23.9238Z" fill="#2690FF"/>
</svg>
